<?xml version="1.0" encoding="utf-8"?>
<!-- Generator: Adobe Illustrator 22.1.0, SVG Export Plug-In . SVG Version: 6.00 Build 0)  -->
<svg version="1.1" id="Layer_1" xmlns="http://www.w3.org/2000/svg" xmlns:xlink="http://www.w3.org/1999/xlink" x="0px" y="0px"
	 viewBox="0 0 1729 1717" style="enable-background:new 0 0 1729 1717;" xml:space="preserve">
<style type="text/css">
	.st0{fill:#eee;}
</style>
<path fill="#eee" d="M1541,1307.3c3,0.7,3,2.7,4,4.7c-5,1-10,1-14-2c-10-3-19-9-29-14c0,0-1-1-1-2c-9-3-19-3-26-10c-1-1-1-2-2-3c-2-1-4-3-5-5
	c-12-5-24-12-34-21c-3-2-6-3.5-9-4.9c-3-1.4-6-2.6-9.1-4.2c-10.9-5-20.9-11-31.9-15c-16-12-35-18-53.3-26.6c-3-1.3-6.1-2.5-9.1-3.8
	c-3-1.3-6.1-2.6-9.1-3.9s-6.1-2.6-9.1-3.9c-6.4-2.8-12.4-4.8-16.9-7.8c-2.6-1.3-5.3-2.7-7.9-4c-2.6-1.4-5.3-2.7-7.8-4.1
	c-2.7-0.9-4.7-2.9-7.7-3.9c-6-2-11-2-17-4c-20-9-41-15-62.9-14c-3.3,0-6.6,0.1-9.9,0.3c-3.3,0.2-6.6,0.6-9.8,1.2
	c-2.2,0.5-4.3,0.9-6.4,1.3c-4.3,0.8-8.5,1.3-13,1.3c-3,1-7,1-10,4c0.5,2,0.8,4.3,1,6.5s0.5,4.5,1,6.5c0,1,1,1,2,1c1,12,2,24,5,35.4
	c0.7,2.4,1.5,4.7,2.5,7c1,2.3,2.1,4.5,3.5,6.7c1,16,2,32,2,48c0.5,2.3,1.1,4.8,1.5,7.3c1.3,7.8,1.5,16.4-4.5,21.7c0,3,0,7,1,10
	c12-1,23-3,35.3-2.9c2.2-0.1,4.4-0.1,6.7-0.1c6.7-0.1,13.3-0.1,20,0.6c2.7,0.1,5.3,0.3,8,0.6c6,1.8,12,0.8,17,2.8c6,3,13,4,19,5
	c3,2,6,4,9,6c1,1,3,1,4,1c6,5,15,5,22,10c12,3,23,8,33,14c9,2,17,8,26,11c2,1,4,3,6,4c5,0,9,4,12.6,4.9c1.9,0.8,3.9,1.6,6,2.3
	s4.2,1.3,6.4,1.8c12,9,27,14,40,21c2.7,1.2,5.5,2.5,8,4c5,0.5,9.8,1.5,14.4,2.8c2.3,0.6,4.6,1.3,6.9,2.2c2.9,0,4.8,1.6,6.7,3.3
	c1.8,1.8,3.6,3.8,6.1,4.8c0,1,1,2,1,2c2,1,3,3,5,3c3,3,5,7,9,9c1,2,3,4,5,5c0,3,5,4,5,7c-1,0-3,0-4,0c-10-6-19-13-28-19
	c-7-2-13-3-20-3c-3-2-6.5-3-10-3.9c-3.5-0.9-7.1-1.8-10.1-3.5c-3.2-1-6.3-1.9-9.4-2.8c-15.4-4.6-30.7-9-44.5-17.8c-1-1-3,0-4-1
	c-2-1-4-3-7-4s-6-2-9-3c-9-5-17-8-26-12c-2-1-4-3-6-4c-1-2-3-1-4-1c-17-10-36-15-54-22c-9-1-17-4-24.9-5.6
	c-3.4-0.7-6.8-1.2-10.2-1.8c-2.9-0.4-5.8-0.7-8.7-1c-2.4-0.2-4.8-0.4-7.3-0.5c-2.4-0.1-4.9-0.2-7.3-0.3c-4.7,0.2-9.7,0.2-14.8,0.4
	c-2.5,0.2-4.9,0.4-7.4,0.7c-2.5,0.3-5,0.6-7.5,1.1c-2,0-4,0-6,0c-17,5-34,8-51,13c-2.3,0.8-4.6,1.8-6.9,2.7
	c-11.5,4.8-22.6,10.9-35.1,14.3c-1,1-2,2-4,3s-4,1-6,2c-10,8-22,14-34,20c-1,1-2,2-3.5,2.6c-2.5,1.5-5,2.9-7.5,4.4c-2,1-4,2-5,4
	c-7,3-13,7-19,12c-3,1-7,2-10,4c-3,4-7,6-12,6c-5,4-10,7-15.9,10c-2.4,1.5-4.8,3-7.2,4.5s-4.7,3-6.9,4.5c-1,0-2,0-3,0
	c-15,10-32,17-48,24.8c-2.6,1.1-5.3,2.3-7.9,3.4c-2.6,1.1-5.3,2.2-8,3.3c-2,0.8-3.9,1.6-5.9,2.4c-2,0.8-3.9,1.5-5.8,2.2
	c-3,1.2-6,2.3-9,3.4c-9,3.4-18.2,6.5-27.4,9.5l-1-1c1-2,5-2,5-5c6-3.8,12-8.6,18-13.4c2-1.6,4-3.1,6-4.6c3,0,5-1,7-3
	c2.3-0.2,4.6-0.5,6.7-1.1c2.1-0.5,4.2-1.2,6.1-2.1c1.9-1.1,3.7-2.3,5.5-3.5c1.8-1.2,3.6-2.4,5.4-3.7C884,1447,891,1442,898,1437
	c-3-2-6-5-10-7c-6-7-11-14-18-19c1-3-2-5-4-7c0-1,0-3-1-4c-2-1-3-3-5-4c-3-3-3-6-5-9c-2-2.5-4-5-5.9-7.6s-3.7-5.1-5.5-7.6
	c-2.2-2.7-4.3-5.5-6.3-8.5c-4.4-5.3-6.4-11.3-9.4-16.3c-1-2-1-5-2-7c-6-10-8-22-14-32c-3.3-12-5.8-24.4-8.8-36.7
	c-0.8-3.1-1.6-6.1-2.4-9.2c-1.8-3.1-2.8-6.1-2.8-9.1c-12-2-23-2-35-2c-3-2-7-3-11-4c-4,1-7-1-10-2c-5,0-9-1-13.8,0.6
	c-2.6,0.3-5.4,0.8-8.1,1.2c-8.1,1.4-16.1,3.1-24.1,4c-2,0.3-4,0.6-6,0.8c-2,0.2-4,0.3-6,0.3c-12,6-24,9-36,12c-4,3-9,4-14,6
	c-16,4-32,12-47.5,16.1c-2.4,0.9-4.8,1.8-7.2,2.7c-3.2,1.2-6.2,2.2-9.2,3.2c0,1,0,2-1,3c-7,2-13,5-20,9c-1,1-3,1-4,1c-1,1-2,2-3,2
	c-3,1-5,1-7,3c-5,2-9,3-14,4c-9,6-20,9-30,14c-5,4-11,6-17,7.6c-2,0.6-4,1-6,1.4s-4,0.7-6,1c-1,0-1-1-1-2c1-1,2-2,2-3
	c2-1,3.8-2,5.5-3.1c4.5-1.9,7.5-6.9,11.5-10.9c7-3,14-6,20-10c19-8,39-16,57-27c2,0,4,0,6-1c3-4,7-2,10-4c1-1,1-2,2-3
	c2.3-1.3,4.6-2.3,6.9-3.2c2.3-0.9,4.7-1.7,7-2.6C599,1264,607,1258,617,1256c24-14,51-23,78.4-27.1c2.6-0.5,5.3-0.9,8.1-1.3
	c10.3-2,20.8-3.3,31.4-3.6c2.6-0.1,5.3-0.1,7.9,0c14.1,0.9,28.1,2.9,41.1,7.9c4-1,7,1,10.9,1.7c-0.6-2.6-1.3-5.3-2.1-8
	c-0.7-2.8-1.5-5.6-2.2-8.3c-0.8-3.1-1.5-6.5-2.2-9.7c-1.5-2.6-1.5-5.6-2.5-8.6c0-1,1-1,1-2c-2-4,0-10-4-13c-1-6-2-12-2-18
	c-3-13-7-26-8.5-40.4c-0.6-2.7-1.2-5.3-1.8-7.8c-0.6-2.6-1.2-5.1-1.9-7.7c-0.6-2.6-1.2-5.3-1.9-8.1c2.5-0.8,4.9-1.5,7.3-2.3
	s4.8-1.5,7.1-2.3c3.5-1.5,7.5-3.5,11.5-4.5c8,0,15-2,23-3c5.5-2,11.3-3.3,17-4.4c2.9-0.6,5.7-1.1,8.5-1.6c4.5-2,9.5-2,14.5-2
	c29-6,58-9,86-19c2,3,2,7,5,9c-1,1-1,3-2,4c1,5,5,7,6.7,10.7c1.7,2.6,3.2,5.4,4.6,8.1c1.8,3.6,3.3,7.3,4.6,11
	c1.3,3.8,2.3,7.6,3.1,11.4c1,6.7,3,12.7,3,19.7c0,1-1,2-1,3c2,6,0,12,2,18c1,2,1.5,4,1.9,6s0.6,4,1.1,6c5,3,1,9,5,12
	c2,8,4,15,6.6,21.9c1.1,2.9,2.4,5.6,4.4,8.1c0.8,2.2,1.6,4.3,2.2,6.5c3.8,15.5,6.8,31.5,14.8,46.5c0,7,2,13,3.9,20.3
	c0.9,3.8,1.7,7.6,2.1,11.7c0,3,2,5,3,7c1,0,2,0,2-1c0-2,0-3,0-5c-2-2,0-5-2-7c-0.1-2.9-0.2-5.8-0.3-8.8c-0.7-17.2-1.7-33.2-3.7-50.2
	c-2.5-3-3.5-6.8-4.1-10.6s-0.8-7.9-1.6-11.4c-0.3-6.9-3.3-12.9-4.3-19.9c-3-7-5.3-14.3-7.5-21.5c-0.8-2.4-1.5-4.8-2.3-7.2
	c-1.2-5.3-3.2-9.3-5.2-14.3c2-2,1-5,1-8c-5-6,0-16-3-23c1,2,1,4,1,6c0-3-1-7-1.8-10.4c-1-3.7-2.3-7.2-3.3-10.8
	c-0.6-2.1-1.1-4.1-1.6-6.2c-1.6-6.1-3.4-12.1-6.4-17.6c-3-3-5-7-9-8c-1-4,1-7,2-11c38-11,76-18,116-25c12-2,23-5,34-8c0,8,0,16,0,24
	c3,11,7,21,9,32c0,6,2,11,1,17c0.5,7.5,2,14.8,3.8,22c0.6,2.4,1.2,4.8,1.8,7.3c1.4,4.7,3.4,9.7,3.4,14.7c7-3,14-5,22-5c2-1,5-2,7-2
	c2.6-0.3,5.2-0.5,7.8-0.6c2.6-0.2,5.2-0.3,7.8-0.4c2.7,0,5.5,0,8.2,0.1c16.2,1,33.2,0,49.2,5c3,3,8,2,11,5c8.3,1.9,16.2,4.5,24,7.6
	c2.6,1,5.1,2.1,7.7,3.3c11.4,7.1,25.4,10.1,36.4,18.1c11,3,21,6,31,10c1,0,1,2,2,2c4,2,7,2,11,3c2,2,4,4,6,5c2,0,3,0,5,0
	c5,4,11,7,17,8c1,1,2,2,3,2c2,0,5,0,7,0c1,1,2,2,3,3c6,3,12,5,17,8c4,4,9,10,16,10c3,2,6.3,4,9.5,6.1s6.5,4.4,9.5,6.9
	c3,7,10,11,17,13c4,8,13,10,20,15c3,4,7,5,10,9c1,0,2,0,3,0c0,1,0,2,0,3c11,8,23,17,33.9,25.2
	C1537,1304.3,1539.3,1305.9,1541,1307.3z M974.4,1033.3c-2-12.8-4.4-26-6.3-38.8c-0.4-2.5-0.7-5.1-1.1-7.6c0-3-1-5-3-7
	c-8-31-18-62-24-94c0-8,0-15-2-23c0-4,0-8,0-12c-2-2,0-4-2-6c0-4-2-7-1-11c-4-11-4-22-5.8-33c-0.2-2.3-0.2-4.7-0.2-7
	c-2-7-3.3-14.3-4.3-21.5c-0.4-2.4-0.7-4.9-1-7.3C922,760,923,755,921,750c0-13-3-26-4-39c-9-41-16-82-17-124
	c-0.8-5.8-1.4-11.5-2-17.2c-0.3-2.9-0.6-5.7-0.9-8.6c0-3.1-0.3-6.4-0.8-9.7S895,545,894,542c0-4-1-8-3-12c1-1-2-3,1-4c-2-4-1-8-3-12
	c0-1-1-3,1-4c0-1-1-2-2-3c0-3,0-6,0-9c-1-5-3-9-4-13c-0.8-6.8-2.1-13.5-2.7-20.3c-0.2-2.3-0.3-4.5-0.3-6.7c-6-25-10-51-14-77
	c2-25-7-49-6.4-73.8c0-2.9,0.1-5.8,0.2-8.7c0.1-2.5,0.2-5,0.3-7.5c0.1-5-0.1-10-2.1-15c1-3,1-6,1-9c-1-1-1-3-1-5c1,0,2,0,2-1
	c-0.5-3.5-2.8-6-5.6-7.6C852,252,849,250,846,251s-7,3-10,3c-4,0-7,0-11,0c-6.8,2.3-14.1,4.5-21.5,5.5c-2.5,0.3-5,0.5-7.5,0.5
	c-2,1-4,3-6,4c1.5,2,3.5,3,5.5,3.9s4,1.6,5.5,3.1c-2,0-4,0-6,0c0,4,2,7,3,11c1.5,3,3.8,5,6,6.9s4.5,3.6,6,6.1c0,4-1,7-2.1,10.1
	c0.4,3.4,0.8,6.8,1.2,10.3c3.4,24.1,11.7,47.1,10.9,71.6c2,4,0,8,2,12c1,23,5,45,9,67c7,23,12,47,11,71c0,1-1,3-1,4
	c4,28,10,55,10.3,83.4c0,3.6-0.1,7.1-0.3,10.6c2,5,0,11,1.5,16.2c0.1,2.2,0.3,4.2,0.5,6.3c0.5,6.3,1,12.5,1,18.5c5,26,8,52,17,78
	c0,1,0,3,0,4c4,13,5,25,9,38c0.6,2.7,1.2,5.3,1.7,8c3.4,18.6,3.6,37.7,5.3,56c0.2,2.3,0.4,4.5,0.7,6.7c1.3,11,3.1,21.9,6.4,32.4
	c0,10.7,1.8,21.3,2.7,32c0.2,2.7,0.4,5.3,0.5,8c-0.1,6-1.1,12,4.4,15.8c1.3,2.5,2.3,4.9,3.2,7.4c1.8,5,2.8,10.3,3.3,15.8
	c3,3,3,7,4,11c0,16,1,32,4.7,47.9c0.5,2.7,1,5.2,1.5,7.6c2.8,6.5,8.8,11.5,15.7,11.2c2.5,1.1,5.1,1.5,7.5,1s4.6-1.7,6.6-3.7
	c2,1,3,1,5,1c3-1,6.3-2.3,9.3-3.7c3.1-1.5,6-3.2,8.2-5.2c1.4-1.5,2.6-3.4,3.3-5.4C974.6,1037.7,974.8,1035.5,974.4,1033.3z
	 M936.1,226.2c-3.1-6.2-4.1-12.2-3.4-19.3c0.2-2.1,0.5-4.1,0.8-6.2c0.6-4.2,1.3-8.4,1.6-12.7c-1-3-2-5-3-7c-1,0-2,0-3,0c0-1,0-3,0-4
	c-2-2-5-1-6,1c0,2,0,3-1,5c-5-4-12-5-18-3.6c-2,0.5-4,0.9-6,1.3c-8,1.7-16,3.3-24,5.3c-3,0-6,0-9,0c-6.8,2.3-13.5,1.7-19.8,3.4
	c-2.1,0.6-4.2,1.4-6.2,2.6c-3-0.5-6-0.3-9,0.1c-3,0.3-6.1,0.7-9.3,0.5c-2.8-0.1-5.6-0.2-8.4-0.5c-2.8-0.3-5.5-0.6-8.3-1.1
	c-18,2-36,8-54,9c-2-1-4-1-6-1s-4,0-6-1c-7,4-15,6-23.4,6.4c-1.9,0.6-3.8,1.4-5.6,2.6c1,5,3,10,0,14c-0.5,2.5-1.3,4.8-2,7.1
	s-1.6,4.7-2.2,7.4c-0.4,2.3-0.8,4.6-1.4,6.9c-0.6,2.3-1.4,4.5-2.4,6.7c4,2,1,6,1,9c9,9,22,0,32-2c0,1,0,1,0,2l1-1c0,0,1,1,1.1,1.1
	c2.9-0.1,5.9-1.1,7.9-3.1c8,0,16-3,24-2c11.7-2.5,24-4.3,35.9-5.4c2.4-0.2,4.7-0.4,7.1-0.6c8-2,16-5,24.9-5.5c2.7-0.5,5.3-1,8.1-1.5
	c3,1,7-2,10.3-0.7C859,238,863,241,868,240c13-2,25-3,38.3-3.3c2.6-0.2,5.2-0.7,7.7-1.7c5-1,8,3,13,2c0,1,1,1,1,2c2,0,4,0,5.5-2.2
	C936,234,937.4,229.7,936.1,226.2z M541.3,1169.7c2.1,2.6,3,5.7,2.9,8.7c0,3.1-0.8,6.1-2.3,8.6c-2,1-4-1-6-2c-9,3-19,0-27-4
	c-5,4-12,6-18,9c-4-5-5-12-3.2-19c0.3-3.7,0.4-7.5-0.5-10.9c-0.4-2.9-0.8-5.8-1.2-8.6c-0.3-2.1-0.5-4.3-0.7-6.4s-0.3-4.3-0.4-6.4
	c0-3.4,0-6.6-0.1-9.8c1.1-7-1.9-16,3.1-22c-1-4-2-9-2-13c1,0,1-1,2-1c-2-5-1-11-0.5-16.2c0.4-2.6,0.9-5.1,1.4-7.7
	c2.1-10.2,5-20.2,7.3-30.3c0.6-2.7,1.1-5.3,1.6-7.9c0.5-2.6,0.9-5.3,1.2-7.9c0.7-2,1.5-3.9,2.5-5.8c4.8-9.2,12.9-16.8,19.6-24.8
	c2.3-2.6,4.6-5.1,7-7.4c3,0,5-3,8-2s5.3,3.3,6.4,6s1.1,6-0.4,9.1C535,1005,530,1014,524,1022c-1,4-3,8-5,11c1,3,1,6,0.5,9.1
	c-1.5,9.9-8.5,20.9-0.5,29.9c-1.1,3-2.5,6-3.6,9c-0.4,5-4.4,10-1.4,15c-3,9-5,21,2.2,29.1c1,2.4,1.7,4.8,2.3,7.2
	c2.6,9.7,4.8,19.2,11.5,26.2c1.6,1.8,3.5,3.5,5.7,4.9C537.7,1165.5,539.6,1167.6,541.3,1169.7z M502.6,1092.3c0.1,2-0.3,4-0.1,6.2
	C502.6,1096.5,502.6,1094.4,502.6,1092.3z M609,970.5c-1.5-2.3-3.5-4.1-5.7-5.8C594,955,580,961,569,963c-2-5-7-7-11-10c0-1,0-2-1-2
	c-2-3-6-2-9-4c-1-3-2-5.7-3.3-8.3c-1.3-2.6-2.8-5.1-4.8-7.6c-3-2.5-6.5-4.3-10-6c-3.5-1.8-7-3.5-10-6c-3,0-6,1-8-2
	c-2.5,0.5-5.3,1-8,1.4s-5.5,0.6-8,0.5c-2.5,0.2-5,0.4-7.4,0.4c-2.5,0.1-4.9,0-7.3-0.2c-2.8-0.4-5.5-1-8.3-2c-3,0-6,0-9,0
	c-4,2-8,5-10.6,9c-1.5,1.8-2.9,3.5-4.4,5c-3,6-4,13-7,19c6.5-1.5,12.5-3.8,18.5-5.8c2-0.7,4-1.3,6-1.9c2.1-0.6,4.4-1.1,6.7-1.5
	C479,939,485,940,491,940c3.5,1,7,1.8,10.5,2.3s7,0.7,10.5,0.7c2,0.5,4,1.1,6,1.7c5.9,2,11.3,5,15,10.3c-2.3,0-4.5,0.1-6.8,0.2
	s-4.5,0.4-6.8,0.7c-2.6,0-5.2,0.1-7.8,0.4c-2.6,0.3-5.3,0.6-7.9,1c-2.2,0.2-4.5,0.5-6.8,0.9c-3.5,0.9-7,1.6-10.2,2.6
	C486,961,485,961,484,961c-9,6-18,13-28,19c-3,3-3,8-5.2,11.9c-0.3,3,0.1,6.1,1.2,9.1c-2,2-3,4-4,7c-0.5,3-1.7,6-2.5,9.2
	s-1,6.4,0.5,9.9c-1-2,2-4,3-5c1,0,2,0,2,1c1.5-2.5,3.5-4.8,5.8-6.9c1.6-1.6,3.2-3.1,4.8-4.5c1.6-1.4,3.3-2.7,5.2-3.7
	c4-1,7.3-3,10.6-5c3.3-2,6.6-4,10.7-5c2-1,4-2,5.4-4.3c1.6-1.2,3.3-2.3,5-3.4c8.6-4.3,14.6-11.3,23.1-14.9c2.7-1.2,5.5-2.1,8.5-2.4
	c2,2.5,4.3,4,6.8,4.7c2.5,0.7,5.3,0.6,8.4-0.2c0.1,0.1,0.2,0.1,0.2,0.2c0.8,2.9,1.9,5.7,3.2,8.3c1.4,3.1,3.4,5.1,5.4,7.1
	c1,4,2,9,3,13c2,2,3,4.5,4,7.1c0,2.9,2,5.9,4,7.9c0.2,2,0.3,4.1,0.5,6.1c0.2,2.1,0.4,4.2,0.7,6.4c0.4,2.1,0.8,4.3,1.2,6.5
	c0.5,6.1,2.5,12.1,5.5,17.1c6,5,12,10,17,16c2,0,3,0,5,1c1-3.9-2-7-1-11c-1.2-2-2.1-4.1-2.8-6.2c-1-3.1-1.4-6.4-1.8-9.5
	s-0.7-6.3-1.5-9.3c1-1,1-3,2-5c-1,0-1,0-2,0c-0.5-2-0.8-4.1-1.1-6.2c-0.8-6.3-1.1-12.9-4.6-19.1c-1.2-2.4-2.5-4.7-3.9-7
	c-1.4-2.3-2.9-4.5-4.4-6.8c-3-3,0-7,0-10.1c6-0.9,12,2.1,18.1,4.3c3.1,1.8,5.8,4.3,7.7,7.8c1.5,1.8,3.2,3.4,4.8,5
	c1.7,1.6,3.3,3.2,4.9,4.8c3.4,2.3,4.5,5.2,6.8,8.2c6.6,8.1,4.6,18.1,4.6,28.1c1,1,1,2,2,3c0-1,1-1,2-1c2-4,1-9,3-13c0-8,1-16-2-23.6
	c-0.8-2.2-1.7-4.3-2.6-6.4c-1.8-4.2-3.8-8.4-5.1-12.7c-1.1-2.1-2.2-4.2-3.2-6.3c-1-2.1-2-4.2-3-6.4C611,973.6,610,971.8,609,970.5z
	 M1308.3,1117.8c-0.3-0.8-0.3-1.8-1.3-2.8c-2-2.3-3.4-4.8-4.3-7.4s-1.4-5.5-1.7-8.3c0-3.1,0-6.2,0-9.2s0-6,0-9c-1-3-2-6-3-9
	c0-12-5-24-7-36c-3-4-2-9-6-13c0-1,0-3,0-4c-2-2-4-5-5.5-8c-1.8-2.7-3.5-5.5-5.5-7.9c-0.5-3.1-1.8-5.9-3.2-8.6s-3-5.4-4.2-8.2
	c-1.6-2.2-3.2-4.3-4.9-6.3c-1.6-2-3.3-4-4.8-6c-1-2-2-3.9-3-5.8c-1.5-2.9-3-5.6-4.5-8.5s-3-5.7-4.5-8.7c-1-1-2-2-4-3c-1-2-3-4-4.9-5
	c1.9-2,1.9-5,2.9-8c-3-6-9-13-16-13c0,1-1,2-1,2c-4,2-8,6-6.1,12.4c0.9,2.9,2.6,5.7,4,8.7c1.2,3.1,2.2,6.4,3.2,9.9c2,3,5,3,7.2,5.8
	c1.7,1.4,3.4,2.9,4.9,4.6c3.9,3.5,6.9,9.5,7.9,16.5c1,3,3,5,5,7c0,3,1.5,6,3.2,9c1.4,2.5,2.6,5.3,3.9,8.1c1,2.2,2,4.3,3.1,6.5
	c1,2.2,2.1,4.3,3.2,6.5c2.2,4.3,4.5,8.7,6.7,13.1c1.1,2.2,2.1,4.4,3.1,6.7c4.9,7.2,4.9,17.2,7.9,25.2c-1,1,4,4-4,4c-1,3-2,6.2-3,9.4
	c-1,3.2-2,6.4-3.1,9.2c-1,2.6-2.1,5-3.4,7.4c-1.3,2.4-2.8,4.7-4.5,6.9c0,3.1-1,6.1-3,8.1c1,3,2.5,5.5,4.5,7.4s4.5,3.1,7.5,3.6
	c1,2,2,5,3,7c2.5,1,5.1,1.4,7.7,1.5c4.2-0.8,8-1.1,11.8-1.6c3.5-1.9,7.5,0.1,11.7-1.8C1307.5,1123.7,1310,1120.9,1308.3,1117.8z
	 M1338.5,961.1c-3.5-5.1-7.5-10.1-12.3-12.9c-1.5-1.3-3-2.7-4.2-4.2c-2.5,0-5-0.7-7.4-1.9c-2.4-1.1-4.7-2.7-6.7-4.3
	c-2.3-1.3-4.6-2.5-6.9-3.7c-6-3.1-11.5-6.7-17.2-9.1c-1.9-0.8-3.8-1.5-5.8-2c3.5,0.5,7.2,1,11,1.5s7.4,1.1,10.7,1.8
	c2.1,0.3,4,0.6,6,0.9c3.3-0.3,6.3,0.7,9.4,2.7c2.2-0.5,4.4-0.8,6.7-0.9c3.2,0.8,5.2,0.8,8.2,0.8c2.1,2.1,4.1,3.1,7.2,3.1
	c2.5,1.5,4.8,3.3,7,5s4.5,3.5,7,5c-0.8-2.8-1.8-5.4-3.1-7.9c-1.3-2.5-2.9-4.8-4.7-7.1C1339,923,1333,919,1328,916c-1-2-2-3-4-5
	c-1-1-3,0-4-2c-2-0.3-4-0.4-6-0.6c-2-0.2-4-0.4-6-0.6c-3-0.8-6-1.4-9-1.8c-3-0.4-6-0.7-9-0.8c-2.3-0.2-4.7-0.3-7-0.3
	c-2.3,0-4.6,0.1-6.9,0.2c-2.3,0.2-4.7,0.4-7.1,0.7c-2.5,0.1-5,0.2-7.5,0.4c-2.1,0.2-4.2,0.5-6.3,0.7c-2.1,0.3-4.1,0.5-6.1,0.9
	c-4.1,0.3-8.1,2.3-12.1,3.3c-4,8,4,13,6.9,20c2.1,2,4.1,4,5.1,6c3,0,5.8,0,8.5,0.2c2.8,0.2,5.6,0.7,8.7,1.6c2.8,0.8,5.5,1.8,8.1,2.9
	c2.7,1.2,5.3,2.5,7.9,3.9c1.8,0.9,3.6,1.9,5.4,2.8c1.8,0.9,3.6,1.9,5.3,2.8c3.2,1.6,6.3,3.3,9.4,5s6.2,3.5,9.2,5.4
	c10.4,7.3,19.4,14.3,27.4,21.9c2.8,2.5,5.5,5,8,7.5c2-3.5,2-7,1-10.6c-1-2.7-2.5-5-3.7-7.4c-1.3-2.4-2.3-4.8-2.3-7.5
	C1340.9,963.8,1339.8,962.3,1338.5,961.1z M1210.4,927.6c-1.6-2.3-3.4-4.2-5.5-5.7c-2-1.5-4.2-2.7-6.4-3.6c-2.3-0.9-4.8-1.6-7.3-2.1
	c-3.8-0.7-7.9-1-11.8-1.2c-4-0.2-7.8-0.4-11.4-0.9c-8,1-16,0-23,5c-10,6-19,11-28,18c-1,1-1,3-1,5c11-2,22-4,33-7c4,0,9-1,13.4-1.7
	c3.8-0.4,7.7-0.6,11.3-0.4c2.6-0.5,5.2-0.2,7.7,0.2c2.5,0.9,4.5,0.9,7.5,0.9c2,2,4,2,7,3c-2,2-4,4-5,7c-6,5-10,12-15,19.1
	c-1.3,2.1-2.4,4.3-3.4,6.6c-1,2.3-1.9,4.6-2.5,7.1c-0.6,2.3-1,4.5-1.5,6.8c-0.9,4.5-1.6,9-2.6,13.5c-1,2-2,4.1-2.9,6.2
	c-2.6,6.3-4.1,12.8-1.1,18.8c2-6,5.3-11.8,9.3-16.9c1.3-1.7,2.8-3.3,4.2-4.9c2.5-2.2,6.5-5.2,9.5-8.2c0.2-2.7,0.6-5.2,1.3-7.6
	c0.7-2.4,1.6-4.7,2.6-7c4.1-7,9-13.3,13.9-19.7c1.2-1.6,2.4-3.2,3.7-4.8c0.6-1.9,1.6-3.9,3.6-4.9c0-2.5-0.8-4.8-2-6.6s-3-3.4-5-4.4
	c4,0,7.2-3.1,8-6.1C1211.1,929.8,1210.9,928.7,1210.4,927.6z"/>
</svg>
