<?xml version="1.0" encoding="utf-8"?>
<!-- Generator: Adobe Illustrator 22.1.0, SVG Export Plug-In . SVG Version: 6.00 Build 0)  -->
<svg version="1.1" id="Layer_1" xmlns="http://www.w3.org/2000/svg" xmlns:xlink="http://www.w3.org/1999/xlink" x="0px" y="0px"
	 viewBox="0 0 1729 1717" style="enable-background:new 0 0 1729 1717;" xml:space="preserve">
<style type="text/css">
	.st0{fill:#eee;}
</style>
<path fill="#eee" d="M736.9,765.8c-1.9-0.1-3.7-0.2-5.5-0.6c-1.8-0.4-3.4-1.2-4.9-2.2c-1.6-1.1-3-2.3-4.4-3.5c-2.3,0.4-5.1,0-8-1.8
	c-2.2-1.3-4.4-2.7-6.6-4c-2.2-1.3-4.3-2.7-6.5-4.1c-21.4-13.8-40.8-29-59.7-44.2c-5.1-4.1-10.2-8.1-15.2-12.1c-5-4-10.1-7.9-15.2-12
	c-2.1-1.6-4.2-3.2-6.4-4.9c-2.2-1.7-4.5-3.4-7-5.1c-2.6-1.8-5.6-3.6-9.1-5.5c-1.9-1.1-3.9-2.2-6-3.4c-2.1-1.2-4.4-2.6-6.8-4
	c-2.4-1.4-4.7-2.8-6.7-4.1c-2.1-1.3-4-2.6-5.8-3.8c-2.7-1.8-4.8-3.3-6.4-4.6c-1.3,1.6-2,3.5-2.1,5.5c-0.2,2-0.1,4.1,0.1,6
	c0.2,2,0.3,3.8,0.5,5.7c0.2,2.7,0.5,5.3,0.8,7.9c0.3,2.5,0.5,4.9,0.6,7.2c0,0.8-0.1,1.5-0.4,2.2c0.2,2.4,0.5,5,1,7.9
	c0.3,1.6,0.6,3.3,0.9,5.1c0.3,1.8,0.6,3.7,0.9,5.7c0.3,2.6,0.5,5.3,0.5,7.9c-0.2,2.5-0.5,4.8-1.1,7.1c-0.6,2.2-1.4,4.1-2.4,5.7
	c0,0-0.8,1-1.8,2.3c-0.5,0.6-1,1.4-1.2,2.3c-0.3,0.9-0.3,2,0,3.3c0.1,1.4,0.3,3.1,0.4,4.8c0,1.7,0,3.2-0.2,4.5
	c-0.7,2.3-1.3,3.9-1.3,3.9c-0.7,2.1-1.2,4.7-1.6,7.9c-0.1,1.5-0.1,3.2-0.1,4.9c0,1.7,0,3.7,0.2,5.7c0.2,1.9,0.5,3.7,0.8,5.5
	c0.3,2,0.5,4.1,0.8,6.1c0.3,2.1,0.5,4,0.7,5.8c0.2,1.9,0.2,3.7,0.3,5.3c0.1,2.8,0,5.2-0.1,7.4c-0.1,2-0.3,4.1-0.4,6
	c-0.1,1.9-0.2,3.6-0.3,5.3c-0.1,2.4-0.2,4.7-0.3,7c-0.1,2.3-0.2,4.4-0.4,6.7C551,827,551,839,551,852c-2,3,0,6-2,9
	c0,7.5-0.3,14.7-0.4,22c-0.1,7.2-0.1,14.3,0.4,21.4c-1,4-3,7-2,11c-1,3.1-2,7.2-3,10.4c1,4-1,7.3-2,11.6c-2,7.5,5,6.6,9,9.3
	c6,1.6,13,2.5,19,3.6c4,3.3,7.5,6.8,11.2,9.6c3.7,2.8,7.7,5,12.7,5.9c20,11.2,38,25.2,58,37.2c4-1,8,3,12,4c1-1,1-2,0.9-3
	c4.1,3,8.6,4.7,13.3,6.4c4.7,1.6,9.5,3.2,14.1,5.7c6.2,3.1,12.2,6.9,17.7,11.9c1,6,7,7.2,11.2,11.8c-1.1-6.5-2.1-12.7-2.2-18.8
	c1-5,2-9.8,2.6-14.5s0.7-9.5,0-14.6c-0.2-4.3-0.5-8.7-0.4-13.4c0.1-4.4,0.2-8.8,0.2-13.2s0-8.8-0.3-13.3c3-13,4-27,3-40
	c2-12,2-24,2.4-35.9l0.6-22.8c0.4-8.6,0.9-17.1,1.7-25.4c0.2-2.1,0.4-4.1,0.6-6.2c0.2-2.1,0.4-4.1,0.7-6.1c0.3-2.4,0.8-4.9,1.5-7.4
	c-0.8-1.9-1.1-4.1-0.8-6.4c0.2-2.3,0.5-4.5,1.3-6.4c0.8-2.2,1.6-4.4,2.5-6.6c0.5-1.3,1-2.6,1.6-4c0.6-1.4,1.2-3,1.8-4.7
	c0.1-1,0.2-2,0.3-3c0.2-2.7,1.1-4.5,2.3-5.6c0.6-1.6,1.2-3,1.9-4.1c0.1-0.1,0.2-0.2,0.3-0.3C740.8,766.5,738.8,766,736.9,765.8z
	 M658.3,843.8c1.7,1.2,0.7,3.2,0.7,4.2c-1,1-2,1-3,2c-4,5-6,11-12,14c-1,2-1,3-1.2,4.9c0,1.7,0.3,3.3,0.4,4.6c0.2,1.7,0.5,3.3,0.7,5
	C644,885,644,891,647,897c0,1.3,0.1,2.6,0.3,3.9C647,902,648,904,648,905c-0.8,1.5-1.3,3-1.6,4.5c-0.3,1.5-0.5,3-0.5,4.5
	c-0.9,5,0.1,10,3.1,14c0,1,0,2,0,3c-1-1-3-1-4-1c-4-4-10-5-14.7-7.8c-1.2-0.4-2.3-0.8-3.6-1.1c-2.4-0.6-5-1-7.7-1c-2-1-5-2-7-3
	c-1,0-3,0-4,0c0-2-3,0-3-2c0-1,0-2,0-2c3-3,3-7,4.7-11.4c0.3-1,0.7-2.2,1.2-4c0.5-1.8,1.1-3.9,1.9-6.8c0.3-1.5,0.7-3.3,1-5.1
	c0.3-1.8,0.6-3.7,1-5.5c1.2-2.6,1.5-5.2,1.9-7.7c0.7-1.8,1-3.6,1.5-5.6c0.4-1.9,0.9-3.9,1.9-5.9c-0.5-1.8-1.1-3.4-1.8-5.1
	c-0.2-0.9-1.1-3-1-4c-0.1-1-0.1-1-0.1-2c-1-1.5-2.5-2.5-3.6-3.6s-1.9-2.4-1.4-4.4c0.1-1,1.1-1,1.1-2c-1-7-6-14-1-20c0-3,1-6-1-8
	c1-1,2-2,3.1-3c1.1-1,2.3-1.9,3.7-2.7c1.1-1,2.2-2.1,3.1-3.3s1.7-2.5,2.2-4c1,0,2-1,2.6-1.3c1.6-0.6,3.3-1,5.1-1.1
	c1.2-0.3,2.5-0.5,3.8-0.6s2.6-0.2,3.9-0.2c1.2,0,2.5,0.1,3.8,0.2c3.4-0.5,6.1,0.5,8.5,2.3c1.2,0.9,2.3,1.9,3.3,3.1
	c1.1,2.6,3.1,4.6,6.1,6.6c0,1,0,1,0,2s1,1,2,2c-1,5,0,10,0,15.6c0,1.8,0,3.6,0,5.4c-1,2-2,3-2.9,4.1
	C658.8,839.2,658.4,841.5,658.3,843.8z M1202.5,535.5c4.7,2.8,8.8,7.7,14.7,10.8c-4.2,1.9-8.5,3.4-12.9,4.7
	C1190,555,1176,560,1162,566c-4,1-9,2-13,3c-3,2-8,3-11,5c-7,5-14,9-21,13c-12,9-25,17-38,26c-6,6-13,11-19,17.1c-1,0.9-1,0.9-2,1.9
	c-7-6-14-11-20-19c-2-2-5-3-7-5c-6-6-11-13-17-19c-3-2.3-6.1-4.2-9.2-6.1C1001,580,996,578,992,575c-3,0-6,1-9-1
	c-9-7-18-12-26.4-18.6c-2.1-1.3-4.2-2.6-6.3-3.9c-6.3-3.8-12.8-7.6-19.3-11.6c-6-4-11-9-17.9-11.9C911,525,906,523,904,520
	c-1,0-3-1-4-1c-8-4-17-9-25-13c-7-1-12-5-18-8c-7-7-16-11-24-16c-1-3-5-5-7-8c-3,2-7,2-11.2,2c-3.2-1.1-6.1-3.7-8.5-6.4
	c-2.6-2.1-5.3-4.1-8-6.2c-2.2-1.7-4.4-3.5-6.6-5.2C780,450,768,440,758,430c-6-4-13-10-21-10c16,15,32,31,47.1,47.1
	c2.3,2.1,4.5,4,7,5.6c2.4,1.7,5.1,3.1,7.9,4.3c2,2,4,4,6,6c1,1,2,1,3,2c2.5,0,5,0.3,7.5,0.8c2.5,1.2,5.5,1.2,7.5,2.2c-1,4,1,7,4,9
	c14,9,26,16,40,23c1,1,2,2,3,3c4,0.5,7.3,2.5,10.5,4.5c3.3,2,6.5,4,10.6,4.5c2.6,1.7,5.3,3.3,7.9,4.9c8,5,17,9,24,16c1,0,3,0,4,0
	c3,2.5,6.3,4.5,9.5,6.4s6.5,3.6,9.5,5.6c10,11,25,17,36,27c6,2,14,1,18.4,7c1.9,1.5,3.8,3.1,5.7,4.9c5.5,5.2,10.5,11.1,15.2,16.8
	c2,2.1,4,4.1,5.9,6.1c4.8,4.2,7.8,12.2,14.8,12.2c0,1,1,2,1,2c2,1,3,2,3,3c-1,3-3,5-6,6c-5,5-8,12-14,16c0,1,0,2-1,3c-1,2-3,3-4,4
	c-5,12-15,21-24,31c-2,3-2,7-4,10c-5,3-8.3,7.8-11.1,12.9C979,732,977,737,973,742c-1.3,4.3-2.5,8.6-3.7,12.9s-2.5,8.7-3.6,13.1
	c-3.6,8-3.6,17-6.6,25c-17,25-16,57-19,86c-5-3-9-6-14-8c-3-4-7-4-10.5-6.9c-7-4.3-14-8.6-21.5-12.1c-2.3-0.2-4.6-0.6-6.8-1.1
	c-2.3-0.6-4.4-1.4-6.6-2.5C880,848,878,848,877,847c-4-2.5-7.5-5.3-10.9-8.1s-6.6-5.9-10.1-8.9c-20-11-38-24-58-35c1,8,8,14,12,20
	c1,0,2,0,3,1c5,6,11,11,18,15c1,1,2,2,3,3c5,1,10,2,14,5c3.7,2.2,7,5,10,8c2,0,3,0,5,1c3,9,14,11,20.6,16.1c2.5,1.5,4.9,3.1,7.2,4.7
	C898,873.8,905,879,913,883c2,1,5,2,7,3c1,1,2,3,4,4c1,1,2,1,3.2,1.3C931,894,936,896,940,898c0,8,0,16,1,23.9c8,27.1,3,56.1,2,84.1
	c1,1,1,1,2,2c-1,4,2,6,2,10c-3-2-5-4-8-6c-13-16-29-29-44-44c-4-3-9-5-12-9c-3-2-8-2-11-5c-10-2-19-7-27-13c-12-13-27-23-42-31
	c-3-3-7-5-10-8c-2-2-4-2-6-3s-4-3-6-5c-5-3-9-6-14-8c-3-5-7-8-11-12c-2-2-5-3-7-5c-1-5,1-11,1.1-16.5c0.6-5.5,1.2-10.9,1.6-16.3
	c0.5-5.1,1-10.1,1.6-15.1c0.6-5,1.3-9.9,2.1-14.8c0.4-2.4,0.8-4.9,1.2-7.3c0.4-2.4,0.9-4.8,1.2-7.2l1.5-4.7c0.3-1.3,0.7-2.5,1.2-3.8
	c0.4-1.3,0.7-2.6,0.9-4c0.2-1.6,0.4-3.3,0.7-5.2c0.5-2,1.1-4.2,1.6-6.4c0.4-2.2,0.5-4,0.2-5.4c-0.3-1.4-0.9-2.5-1.7-3.3
	c-0.9-0.8-2-1.4-3.2-2c-1.3-0.5-2.7-0.9-4.3-1.4c-1.1-0.3-2.2-0.7-3.4-1.2c-1.2-0.5-2.5-1-3.8-1.6c-2.6-1.2-5.2-2.4-7.4-3.6
	c-2-1-3.8-2.1-5.1-3.3c-1.6-1.5-3.4-2.2-5.1-2.3c-1.7-0.1-3.4,0.3-5.1,1c0,0,0,0,0,0c-1.8-1-3.6-2-5.5-3.3c-1.9-1.3-4.1-2.8-6.5-4.5
	c-1.2-0.9-2.5-1.8-3.8-2.7c-1.3-1-2.7-1.9-4.2-3c-1.5-1-3-2-4.4-3c-1.4-1-2.8-1.9-4.2-2.8c-2.7-1.8-5.1-3.4-7.3-5
	c-2.2-1.5-4.3-3-6.3-4.5c-2.1-1.5-4.1-3-6.2-4.4c-10.2-7.5-20.1-15.1-29.9-22.7c-3.4-2.7-6.8-5.3-10.2-7.9c-3.4-2.6-6.7-5.2-10-7.8
	c-3.3-2.6-6.6-5.2-9.9-7.8c-3.3-2.6-6.6-5.2-10-7.9c-1.9-1.5-3.9-3-5.8-4.6c-2-1.5-4-3.1-6-4.6c-2-1.6-4.1-3.1-6.5-4.8
	c-2.4-1.6-5.1-3.3-8.1-5c-1.6-0.9-3.3-1.8-5.2-2.8c-1.8-1-3.8-1.9-6-2.7c-2.9-0.9-6-1.5-9-2C555,630,551,627,549,623c-1,0-2,0-3,0
	c-2,2-4,6-2.6,8.8c-0.3,1.9-0.7,3.6-1.1,5.1c-0.5,1.5-1.1,3-1.6,4.8c-0.3,2.1-0.5,4.4-0.5,6.8c0.1,2.6,0.2,5,0.2,7.3
	c-1.3,0.5-2.3,1.4-3,2.8c-0.7,1.3-1,3-0.6,5.2c0.4,2.2,0.8,4.4,1.3,6.7c0.5,2.5,1.1,5.1,1.7,7.8c1.3,2.8,1.3,4.8,1.3,7.8
	c3,8,4,17,2,26c-6.5-4-12.3-8.3-18-12.5s-11.5-8.5-18-12.5c-9-4-17-9-24-15c-5-2-10-4-15-7c-5-3.5-10-6.9-15-10.2s-10-6.7-14.9-10
	c-5.6-3.9-10.8-7.6-15.9-11.3C416,630,413,626,408,622c-1,0-1,0-2,0c-2-5-8-7-13-10c-5-6-11-10-18-14c-4-3.5-8-6.7-12.2-9.8
	c-4.2-3-8.5-5.9-13.1-8.4c-5.3-3.5-11.6-6.1-17.7-8.6c-2.4-2.7-5.8-4.4-7.2-8.1c2.6-7.5,5.8-14.5,8.6-21.7s5.7-14.4,7.7-22.2
	C343,512,344,505,345,498c2,2,4,4,5,6c8,4,14,10,20.9,14.9c4,3.2,8.1,6.8,12.6,9.9c4.7,4.9,7.3,10.7,10.9,16.5
	c7.4,4.5,12.5,13.7,20.5,13.7c4,3,8.3,5.5,12.8,7.6s9.3,3.9,14.3,5.4c6,6,16,8,21,16c5,2,11,2,16,6c4.5,1.5,9,2.8,13.5,3.9
	c13.5,3.3,27.2,4.8,41.5,4.1c5-2,15-2,15-9c-7-1.5-14.3-2-21.8-2.3C519,590,511,590,503,590c-6-2.5-12.5-4-19-5.7
	c-7-1.3-13-5.3-20-7.3c-1-7-7-8-12-11c-3-7-9-9-14-13c-2,0-3,0-5-1c-7-3-13-7-21.1-8.1C405,539,399,533,396,525c-2-2-4-4-5-7
	c-4.5-4.5-8.8-9-13.1-13.3S369,496.5,364,493c-3-4-7-6.9-10-10.9c2-3.1,0-6.1-1-8.1c2-5,6-9,7.1-14.6c2-3.8,3.6-7.7,5.1-11.7
	c0.9-2.2,1.7-4.4,2.5-6.7c0.8-2.3,1.5-4.6,2.3-6.9C371,429,372,425,376,422c-1-1.5-1-2.8-0.6-4s1.1-2.5,1.6-4c0,1,0,2,0,3
	c1,1,1.9,2.1,2.7,3.1s1.6,2.1,2.4,3.1c1.6,1.9,3.3,3.6,5.7,4.4c2,1.4,4,2.8,6.1,4.2C399,434,402,438,407,440
	c5.2,2.5,10.3,5,15.5,7.4c5.2,2.5,10.4,4.9,15.6,7.3C461,467,486,475,509,487c5.3,2,10.6,4.1,15.8,6.1c4.3,1.7,8.6,3.3,12.9,4.8
	c4.3,1.5,8.5,2.9,12.8,4.2C558,504,566,506,574,507c1,1,1,2,2,2c2,1,4,1,6,2c6,4,10,9,17,11c0,1,0,2,1,3c4,0,5,4,8,5c1,5,4,7,8,6
	c8,8,16,15,23,23c14,10,25,24,40,33c2,2,4,4,6,6c6,3,11,9,17,12c2,1,3,3,4,5c13,11,28,20,41,32c4,2,8,4,11,7
	c4,3.5,8.1,6.9,12.2,10.1C775,668,780,672,786,676c4.8,2.5,9.4,5.3,14.1,8.3C804,687,808,690,812,693c6,3,12,6,17.9,9.1
	s11.6,6.4,17.2,10C855,716,863,720,870,726c10,9,20,18,32,24c1-1,2-3,4-3c-18-14-33-31-51-44c-1,0-1,0-2,0c-3-1-4-5-8-5
	c-1-1-3-3-4-4c-1,0-3,0-4,0c-5-5-12-7-16-13c-6-2-12-5-17-10c-5.3-3.6-10.6-7.1-16.3-10.3c-4.9-3.5-9.7-7.3-14.3-11.5
	c-4.4-3.7-8.9-7.5-13.4-11.2c0,0-1,0-2,0c-3-4-8-6-11-11c-3.7-2.3-7.3-4.7-10.8-7.2c-3.6-2.4-7.1-4.9-10.6-7.4
	C714,604,703,595,692,586c-8-3-9-10-13-16c-2-1-4-3-6-3c-4-8-13-12-18-19c1-1,2,1,3,1c-9-9-15-20-27-26c-1-1-1-2-2-3c-2-1-5-1-7-2
	c-2-5-7-6-11-9c-4.2-2.7-8.5-5.5-12-9c-1,0-3,0-4,0c-9-5-19-6-28-9c-3-3-8-2-11-5c-2,0-5,1-7-1c-4-5-11-3-16.1-6.1
	c-5.1-2.3-10.3-4.6-15.5-6.8c-22.4-9.6-45.1-18.4-68-27.5c-1.9-0.8-3.8-1.5-5.7-2.3C441,441,436,441,436,436c-10-1-19-7-27.2-12.3
	c-2.1-1.3-4.3-2.7-6.3-4.1c-0.2-1.3-1.6-1.9-2.8-2.7C399,416,397,415,398,413c-7,1-9-5-11-10c-1,0-3,0-4,0c1-1,2-2,3-4
	c-1-5,3-7,4.2-9.8c0.8-1.4,1.5-2.8,2.2-4.1c3.5-6.8,7.2-13.5,11.5-19.7c3.4-6.5,7-12.9,10.8-19.2c3,1.4,6.1,2.7,9.2,3.9
	c3.1,1.2,6.3,2.4,9.4,3.5c2.6,0.6,5.3,1.1,7.9,1.8c2.7,0.6,5.4,1.3,8.2,2C456,361,465,361,472,366c2.5,0.5,5,1.5,7.5,2.5
	C484,370,488,373,492,373c7,3,14,6,19,11c3,1,6.5,1.8,9.6,3s5.9,3,7.4,6c1,0,2,0,3-1c7,7,15,14,24,18c1,1,3,3,4,4
	c3,1.5,5.9,2.9,8.8,4.4c10.1,5.5,20.1,12,30.7,17.5c2.1,1.1,4.3,2.2,6.4,3.2c2,1,4,3,5,5c12,10,25,18,37,28c10,5,19,12,28,18
	c2,1.3,4,2.7,6,4c1,1,3,0,4,1c2,2,4,3,7,3c2,5,6,9,10.9,11.5c2.3,1.9,4.5,3.7,6.8,5.6c8.8,7.4,17.1,15.1,24.7,23.4
	c2.4,2.1,4.9,4.2,7.3,6.1c2.2,2,4.4,4.1,6.5,6.4c2.1,2.2,4,4.6,5.9,7.1c2,1.5,4,3,5.9,4.5c1.9,1.5,3.8,3.1,5.6,4.6
	c2.5,1.9,5.2,3.6,7.9,5.2c2.7,1.9,5.5,3.8,8.3,5.6c2.8,1.8,5.7,3.5,8.6,5.2c2.8,1.6,5.5,3.3,8.2,4.9c2.7,1.6,5.4,3.2,8,4.9
	c2.7,1.8,5.4,3.6,8,5.6c2.6,2,5,4.1,7.4,6.5c3,1,5,3,7.9,4.2c2.6,1.5,5.1,3.2,7,5.7c4.1,2.1,7.1,4.1,11.1,6.1c3,3,7.1,5,10.1,8
	c8,2,15,5,23,7c6,4,11.8,8.3,17.3,12.8S909,658,914,663c6,4,12,8,20,6c-6-6-11-12-18-16c-5-5-10-10-15-15c-4-1-6-3-9-5
	c-3-4-6.8-6.5-10.9-8.4C877,623,872,621,867,619c-2.3-3.3-4.9-6.1-7.9-8.6c-2.6-1.2-4.6-3.3-6.6-5.1s-4-3.3-6.5-3.3
	c-3.5-2-6.5-4.7-9.4-7.5c-2.3-2.7-4.9-4.8-7.8-6.5C826,585,822,585,819,584c-3-4-7-5-10-9c-2.3-1.5-4.5-2.9-6.7-4.4
	c-2.2-1.4-4.5-2.8-6.7-4.3c-3.3-1.2-6.2-3.8-9.1-6.3c-4.4-1-5.4-6-9.4-6c-1.7-1.8-3.4-3.6-5.2-5.3c-1.8-1.7-3.7-3.3-5.6-4.8
	c-2-1.7-4.1-3.4-6.1-5s-4.1-3.2-6.2-4.7c-2.4-1.6-4.7-3.2-6.9-4.6s-4.5-2.7-7-3.6c0-2-1-3-2-4c-6-5.5-12.5-10.8-18.8-16.3
	c-2.1-1.8-4.1-3.7-6.1-5.6C709,496,705,492,701,488c-2,0-3-1-5-2c-2-1.5-3.8-3-5.6-4.3C688,481,686,479,684,479c-3-6-8-8-14-10
	c-3-10-14-12-22-16c-4-5-10-8-14-13c-8-1-14-8-19-14c-2.5-2-5.3-3.3-8-4.5s-5.5-2.5-8-4.5c-2-3-6-4-8-7c-6,1-11-3-16-4
	c-2.2-1-4.3-2.1-6.4-3.2c-10.5-5.8-20.3-13.6-28.9-22.9c-2.3-2.2-4.7-4.3-7.3-6.2c-2.6-1.9-5.3-3.5-8.3-4.7c-1,0-3,0-4-1
	c-2-1-5-3-7-4c-6-1-11-3-17-5c0-1,0-1,0-2c-4-1-10-1-12-5c-2,1-3-2-5-1c-10-8-23-8-35.4-12.2c-3.3-1.1-6.7-2.2-10-3.4
	c-3.3-1.2-6.6-2.5-9.8-3.8c0.5-0.8,1.1-1.6,1.6-2.4c14.9-22.2,32.4-41.8,52.5-57.8c20-16,43.4-28.7,68.8-39.3
	c8.3-3.5,16.8-6.8,25.4-10c0.2,0.1,0.4,0.2,0.6,0.2c6.1,2.1,12.2,4.4,18.1,6.9C598,232,604,236,611,239c12,6,20,18,34,19
	c1,1,2,2,3,2c3,1,5,1,7,3c1,0,2-1,3-1c0,1,0,1,0,2c13,7,26,12,38,19c5,3.5,10.1,6.8,15.4,9.8c5.3,3.1,10.7,6,16.3,8.9
	C755,316,783,327,809,342c4,5,10,7,15,11c1,1,3,0,4,1c4,2,4,6,8,9c4.8,3.5,9.4,6.9,13.9,10.2c1.1,0.8,2.1,1.8,3.1,2.8c4,2,7,4,10,7
	c3,2,6,4,9,5c11,8,21,17,35,18c0,1,0,1,0,2c1,0,2,0,3,0c0-1,0-1,0-2c2,4,5,6,9,7c3.5,3.5,7,7,10.5,10.6c7.5,6.4,12.5,15.4,20.8,19.7
	c3.7,2.7,7.4,5.1,11.3,7.4C973,457.8,985,464,997,473c4,3,8,2,12,5c14,3,26,10,36.6,18.9c5.9,4.4,11.9,8.6,18.4,12.1
	c6,6,13,10,20,15c2,1,3-2,5-1c-4.5-7-10.3-13.3-16.4-19.3c-6.1-6-12.6-11.7-18.5-17.7c-3.8-2.3-7.6-4.6-11.4-6.9
	c-3.8-2.3-7.6-4.5-11.5-6.7c-3.9-2.1-7.8-4.1-11.8-5.9s-8.2-3.3-12.4-4.6c-4-10-14-13-21-19c-2,0-5,2-7,1c-7-9-18-12-27-19
	c0-1,0-1,0-2c-3-1-4-5-8-5c-3-3-6-7-8-10c-2-1-4-2-4.7-3.8c-4.1-4.4-8.3-8.7-13.3-12.2c-8-2-14-5-22-7c-2-1-3-3-4-5
	c-7-2-13-5-17.9-10c-3.9-3-7.8-5.9-11.5-8.8c-4.5-3.3-9.1-6.7-13.8-10c-14-10-28.3-19.8-42.8-29.3c-7-1-11-8-18-8c-11-4-20-12-32-15
	c1-1,1-1,2-2c-1,0-2,0-3,0c-9-5-18-10-26.3-15.6c-3.8-2.2-7.4-4.4-11.1-6.8s-7.2-4.9-10.7-7.6c-15-8-30-15-45-22c-2,0-3,0-5,0
	c-12-5-23-11-33.6-17.9c-4.4-2.7-8.8-5.5-13.2-7.9c-4.3-2-8.7-4-13.2-5.9c0.7-0.2,1.4-0.5,2.1-0.7c8.9-2.9,17.8-5.5,26.6-7.5
	c4.4-1,8.8-1.9,13.2-2.7c4.4-0.8,8.7-1.4,13.1-1.9c8.6-1,17.3-1.6,25.9-1.7c8.6-0.1,17.3,0.2,26,0.8c24,3.8,48.5,7.3,74.1,9.9
	c2.1,0.2,3.7-0.1,5-0.8c7.7,3.8,15.5,7.5,23.3,11.2c0.7,1.1,0.7,1.1,1.7,2.1c8,1,14,6,21,9c15,12,32,18,49,28c4,3,8,5,12,8
	c3.5,4,7.5,7.8,11.6,11.4C908,284,914,289,922,293c13,4,26,9,37.9,15.1c4,2,7.9,4,11.9,6.1c4.3,2.6,8.6,5.3,12.8,8.1
	c8.4,5.6,16.5,11.6,24.5,17.6c5,3,10,6,15,8c11,8,22,17,34,25c3-1,5,2,8,3l1,2c9,5,19,10,28,16.4c4.6,2.7,9.2,5.3,13.9,8
	c4.2,2.3,8.3,4.6,12.4,7c4.1,2.4,8.1,4.8,12.2,7.2c8.8,5.3,17.7,10.6,26.5,16.3c11.1,5.2,19,16.2,30.8,20.3
	c6.7,8.1,16.1,12.3,24.5,17.5c3.8,7.1,11.2,9.2,16.9,12.3c11.6,11.1,21.6,23.1,33.9,34c2.3,4.9,7.3,6.9,8.6,11.8
	c4.1,3,8.3,6.9,10.6,11.7c-16-3.9-32.5-1.1-47.9,1.7c-6.6-6-14.3-11-21.7-16.3s-14.5-10.8-20-17.8c-2-1-3.9-3-5.9-4
	c-10.9-14.1-24.9-24.1-39.9-33.3c-7.7-4.5-15.6-8.7-23.6-12.8s-16-8.3-23.9-12.8c-5.5-2.9-11-5.8-16.6-8.6s-11.2-5.3-16.9-7.5
	c-4-4-9-6.8-14-9.5c-5-2.7-10.1-5.4-14.3-9.2c-4.9-3.1-9.9-6-14.9-8.9c-5-2.9-10.1-5.7-15.3-8.4c-5.7-3.1-11.4-6-17.2-8.8
	c-11.5-5.6-23.3-10.7-35.3-15.4c7.3,7.3,15.3,13.8,23.7,19.8c4.2,3,8.4,5.9,12.7,8.7c11,7.9,22.7,13.8,34.2,20.9
	c3.8,2.4,7.7,4.9,11.5,7.6c4.7,4.5,9.8,8.4,15,12c5.3,3.6,10.7,6.8,16.5,10c4.6,2.2,9.1,4.7,13.6,7.3c4.5,2.6,8.9,5.2,13.4,7.8
	C1108,469,1118,474,1128,477c4,3,8,6,12,9c4,1,6,4,10,4c1,1,4,0,4,3c-1,0-2,0-2,1c3,1,5,3,8,4c8,11,19.7,18.1,29.6,27.4
	C1193.6,528.5,1197.8,531.9,1202.5,535.5z M963.8,1477.8c0.2-4.8-0.8-9.8,1.2-14.8c-12-11-23-23-38-31c-1-1-2-2-3-3
	c-11-4-21-11-31-16c-9-2-18-5-27-9c-10-8-22-12.1-34-19.1c-2-1-4-3-6-5c-13-6.1-25-11.2-37-19.4c-1,0-3,0-4-0.1c-1-2-4-2-4-4
	c-22-6.3-40-19.6-60-29.9c-3-4-8-5.1-11-8.2c-12-5.2-23-12.4-34-20.6c-3-2.1-7-3.1-10-4.2c-10-9.2-22-13.4-33-19.6
	c-5-3.1-8-8.1-14-10.2c-1-1-2-2-3-3c-19-10.3-34-26.5-52-38.7c-5-7-11-12.1-18-16.2c-3-3-7-6.1-9-10c-10-4.1-19-12.2-27-20.2
	c-10-4.1-17-11.2-25.9-17.2c-1-1-2-2-2-4c15,5.2,27.9,13.3,41.9,21.5c8,7,17,14.1,26,19.2c10,10.1,22,18.2,32,27.3
	c18,13.2,36,26.5,57,36.9c2,1,4,3.1,6,5.1c1,0,1,0,2,0c10,6.2,18,14.3,28,20.4c1,1,3,1.1,4,1.1c8,4.1,14,10.2,22,12.4
	c9,5.1,18,10.3,26,17.4c11,3.2,19,12.3,29,17.4s20,9.3,29,14.4c16,4.2,30,11.3,45,17.4c3,4,7,5,11,7.1c1,1,2,2,3,3c1,0,2,0,3,0
	c15,11,32,19.1,50,25.1c4,3,8,5,12,8c2,0,4,0,6,0c7,4,13,8,20,11c2,1,4,3,6,5c8,4,15,9,22,15c0-3-1-6-2-8c1-23-3-45-10-66
	c0-5,2-9,1-14c-2-1,0-3-2-4c2-3,3-7,4-10c-2-13-1-26-5-38c5-16,6-34,0-50c-1-8,1-16,1-24c-4-13-1-27-4-41c1,1,1-2,2-1c0-5-1-11,3-15
	c-2-4,0-9-1-13c2-16,1-33,2-49c-1,0-2,0-3,0c-13-9-29-14-42-23c-9-2-17-8-26-11c-6-5-14-7-20-12c-3,1-6-2-8-4c-1,0-2,0-3,0
	c-5-4-11-5-17-7c-3-1-5-5-8-7c-1,0-2,0-2,0c-14-13-26-28-42-38c20-2,34,15,47,28c15,5,30,13,45,17c2,2,4,4,7,5c7,3,13,6,20,8
	c5,2,9,6,15,7c2,2,5,3,7,5c11,5,22,8,31,16c0-3,0-7-2-10c-2.5-7-2.8-14.3-2.4-21.5s1.4-14.5,1.4-21.5c-4,3-8-3-9-6c-1,0-2,0-3,0
	c-1-2-4-1-5-3c0-1,0-1,0-2c-10-4-18-12-26.1-19.9c-5.1-4.4-10.4-8.6-15.9-13.1c-1-3-4-5-6-7c-13-10-27-17-42-21c-13-12-27-23-39-36
	c-20-10-39-22-56-36c1,12-1,24-1,36c-2,7-2,14-2,21c-2,7-2,13-3,20c0,2-1,3-2,5c0,5,0,9.8,0.1,14.5s0.4,9.5,0.9,14.6
	c-9,20.9-3,43.9-6,65.9c-8,0-14-5-18-12c-5-3-10-6-14-10c-2,0-2-1-4-0.9c-2.7-3.1-5.8-5.7-9.1-8.1c-3.3-2.3-6.8-4.4-10.4-6.3
	c-3.7-2.4-7.9-3.8-11.9-5.2s-8.1-2.6-11.6-4.6c0-1,0-1,0-2c-2,0-4,1-5-1l-1,1c0-1,0-2,1-3c-9-3-18-8-27-13c-1-1-2-2-3-3
	c-5-2-9-6-13-10c-9-2-15-8-23-11.3c-1-1-2-2-3-4.1c-4-1.7-8-3.6-11.9-5.7C559,964,547,959,538,950c-5,1-10-2-15,0c0-3,4-3,3-6
	c-2-1-4-3-6-4c2,2,5,0,8-1c-2-2-1-4-1-6s3-2,3-3c0-2,0-5,0-7c3-10,4-20,3.9-31.1c0.1-5.7,0.1-11.4,0.1-16.9c3-12,1-24,3-36
	c1-5-2-8-1-13c2-6,1-11,1.4-17.5c0.1-2,0.3-4,0.4-6c0.2-2.4,0.3-4.6,0.5-6.9c0.1-2.2,0.2-4.3,0.2-6.3c0-2,0-3.9,0-5.8
	c-0.1-1.9-0.1-3.8-0.2-5.7c0-2,0-4.2,0.2-6.6s0.4-4.9,0.7-7.5c0.3-2.6,0.7-5.2,1-7.7c0.3-2.4,0.6-4.8,0.8-7.1
	c0.2-2.6,0.3-5.2,0.5-7.9c0.1-2.5,0.3-4.9,0.4-7.3c-1.7-0.6-3.6-1.4-5.6-2.4c-11.1-7.2-21.8-14.7-32.6-22.3c-3.6-2.5-7.2-5-10.8-7.5
	C480,693,467,683,452,677c-4-2.7-8-5.3-12.1-8c-4-2.7-8.1-5.4-12.1-8.1c-6.3-4.5-12.6-8.8-18.7-13C408,647,407,646,406,645
	c-9-5-17-12-25-19c-2-1-3-1-5-2c-4-3.3-8.1-6.3-12.2-9.2c-5.9-3.9-11.6-8.1-17.3-12.5c-5.7-4.3-11.4-8.8-17.3-13
	c-0.1,5.7-0.1,11.6-2.2,16.6c-3,7-7,14-8,22c1,0,1,0,2,0c-6,5,0,12-0.6,18c0.6,4.8,1.1,9.5,1.6,14c-0.5,5-0.8,10.3-1.1,15.5
	S320,686,319,691c0,2.5,0,5.3,0,8c0,2.7,0,5.5,0.1,8c-1.1,12-1.1,25-1.1,37c-2,8-5,16-4,24.5c0,3.8-0.1,7.7-0.2,11.9
	c-0.2,3.8-0.4,7.5-0.5,11.1c-0.1,3.6,0,7.2,0.4,10.7c4.1,7.1,11.8,9,17.7,13.6c5.6,2,9.6,6,16.6,7c6,3,11,7,16,10c3,1,6,2,9,3
	c24,14,51,22,76,34c1,0,3,0,4,0c5,3,11,5,17,6c3,1,5,3,8,4s6,2,9,2c6,0,9,5,14,7c1,1,1,3,1,4c-2,0-4,0-6,0c-11-6-22-9-34-12
	c-13,0-26-3-38-6.1c-4-3-9-5-12-9c-23-4.8-45-14.8-66-25.8c-3-2-7-2-10-3c-2-2-3-3-5-5c-9,1-14-7-20-11c-3,9,1,19-6,28
	c0,26-1,51,2,77c-1,4-2,8-3,12c3,10,0,19-1,29c22,9,46,10,67,22c2,0,3,0,5,1c11,5,22,10,33,16c3,1,6,2,9,3c14,7,29,13,44,19
	c6,0,12,4,16.9,7.5c29.9,9.4,57.8,23.5,84.6,39.4c7,1.1,12,5.7,19,6c10,4.8,18.9,11.4,28.9,17.2c3,0.1,5-0.7,8,1.2
	c1,0.9,1,0.9,2,1.9c3,0.1,6,0.3,8,3.9c31,14.1,62,28.5,94.1,44c1,1,2,1.9,3,2.9c5,3.1,11,3.5,17.1,5.7c7,5.9,17.1,6.6,25.1,10.8
	c26.1,7.3,52.3,14.6,79.5,19.1c1,1.9,3,3,5,4.1c5,2.2,11.1,3.5,16.1,4.8c13,9.3,29.2,11.2,45.3,11.1c0,1,0,1.9,1,2
	c-9.1,2.4-18.1,1.9-28.2,0.3c-7-1.4-13.1-4.6-20.1-6.9c-22.2-4.2-44.3-8.5-66.5-12.8C785,1188,771,1180,755,1180c-2-3-6-2-8-5
	c-8,0-16-3-22-9c-1,0-2,0-3,0c-22-10-44-21-65-32c-2-2-3-3-5-5c-7,2-13-6-19-9c-1,0-3,0-4-1c-3-1-5-3-7-5c-26-11-50-25-76-34
	c-11-6-22-12-33-17c-2-1-3,0-5-1c-3-1-5-3-8-4c-20-8-40-12-58-24c-1,0-2,0-3,0c-3-2-7-4-10-6c-7,0-13-3-19-4c-2-1-4-2-7-3
	c-1,0-3,0-4,0c-10-6-20-11-30-15c-3-6-10-7-15-9c-17-4-35-9-51-16c0,7-1,15,2,22c-3,22-4,43-5,65c0,1,1,3,1,4c0,5-4,9-3,14
	c-7,11-4,24-4,36c3,1,7,2,9,5c1,0,2,0,2,0c5,5,10,9,15,14c5,2,8,6,10,11c5-1,6,5,8,8c12,11,25,23,40,30c15,12,29,26,48,33
	c4,2,7,5,10,8c1,0,2,0,3,0c13,8,25,17,38,26c1,0,1,0,2,0c6,4,10,9,16,11c1,4,6,5,8,8c17,7,31,19,46,30c19,10,36,24,52,38
	c3,2,6,4,9,6c1,2,2,5,4,6c2,0,2,1,4,1c2,5,6,8,9,12c13,7,24,18,38,24c3,3,8,4,11,8c12,7,24,12,35,21c2,2,5,3,8,3c23,14,44,28,67,43
	c3,2,6,3,9,4c6,6,15,9,20,16c4,2,7,4,11,6c19,13,37,27,55,39.5c7.1,1.9,12.2,6.6,17.2,11.2c3-0.6,5.1,2.6,7.1,2.9c1,1.1,2,2.3,3,4.4
	c2,0.3,4.1,0.5,6.1,1.8c17.2,8.1,32.4,17.8,49.6,23.7c1-28.9-3.1-58.2-0.8-86.9C963.4,1486.4,963.6,1482.1,963.8,1477.8z
	 M683.9,1214.6c14.3-11.5,35.4-10.6,53.5-13.2c6,0.5,11.1,1,17.1,3.2c3,0.3,5,0.4,8.1,0.7c8.1,2.4,17.1,4.1,25.2,9.1
	c11.1,1,22.2,4.6,31.3,10.7c3-0.6,6,1.4,9.1,2.6c1,0.1,2,0.2,3,0.3c25.3,15.5,54.6,39.6,52,67.4c-1.9,6.8-5.8,12.4-11.7,16.1
	c-9,2.4-19,1.1-29,1.5c-18.1-4.1-36.2-9-54.3-11.3c-12.1-2.4-21.3-9.4-32.4-15.7c-3.1-2-5.1-3.9-7.1-5.8
	c-17.3-11-33.6-22.6-49.9-34.9c-3.1-3.6-5.1-7-8.2-10.6c0-3.3,2.9-7.9,8-6.7c6.1,7.1,10.3,18.2,21.4,20.9c1,0.9,2,1.9,2.1,2.7
	c16.3,10.8,30.6,23.1,46.9,34.2c2,0.2,2,1.1,4,1.3c3.1,2,6.1,4.9,10.2,6.3c8.1,1,15.1,1.9,23.2,4.6c14,0.1,28.1,2.7,42.1,2.7
	c4.1,3.1,8-0.7,12,1.5c3-1.4,4.9-3.7,8.9-3.3c1.9-5.9-0.2-13.1-2.3-19.4c-7.2-10.4-14.3-21.6-26.4-27.2c-2-1.9-4.1-3.9-5.1-5.7
	c-14.1-3.2-27.2-11.4-40.4-17.8c-3-1.1-6-1.4-9.1-1.7c-26.3-11-57.5-17.2-82.6-7.7c-5,3.7-11,8.1-18,9.1c-1-0.9-3-1.9-2.7-3.2
	C680.3,1222.1,679.8,1217.6,683.9,1214.6z M1388.1,1338.5c5.9-0.5,10.9-2.5,16.9-2.5c1,19,4,38,7,57c-1,1-3,1-4,2c-5,0-9,2-14,3
	c-11,7-23,13-35,19c-18,4-34,11-52,15.9c0,1,0,2,0,2c-1,1-2,1-3,2c-11-0.1-20,6.8-29,10.6c-29.9,4.3-57.6,14.1-84.3,27.6
	c-4-0.2-6.9,1.6-9.9,2.4c-2,1.8-2.9,1.8-4.9,1.7c-7.8,7.4-18.7,7.7-27.5,12c-5.9,2.5-9.8,8.1-16.6,9.6c-8.8,6.3-18.8,12.3-26.8,19.3
	c-17,10-35,19-49,32c-1,0-2,0-3,0c-17,11-37,17-57,20c-6,3-10,8-16,11c-1-16-1-31-1-47c-5-20-1-41,1-61c0-19,1-38-2-58
	c-2-12,10-17,18-22c2,1,3-1,5-1c20-13,43-15,65-22c6-4,14-4,19.1-9.8c17.7-6.8,35.5-13.7,53.3-21.8c12.9-10.3,30.7-14.7,44.7-23.2
	c6,1.1,10-3.8,16-2.7c15-6.8,30-12.6,46-13.5c23-5.9,45-12.9,68-17.9c10-4,20-7,29-12c0-1,0-1,0-2c-30,9-61,15-92,18
	c-6,1-12,3-17,5.9c-2,1-3,0-5,1c-3,1-5,3-8,3.9c-3,1-6,0.9-9,1.9c-5,2.9-11,2.9-17,4.8c-24.9,10.4-52.8,16.5-73.5,34.3
	c-20.7,9.8-43.5,14.3-62.1,27.3c-13.9-0.2-25.7,2.4-38.6,3.9c-16.8,5.5-31.5,12.9-44.3,23.1c0-2.7-0.1-5.5-0.1-8.2
	c-2-3.9-4.1-8.7-6.2-12.7c-0.2-14.6,1.5-28.9,0.3-43.6c-5.2-14.2-3.4-28.6-0.6-42c-0.1-5.5,1.9-11.7-3.2-16.8
	c0.9-11.9,0.7-23.9-0.4-36c3.9-14.7,2.8-29.8,4.7-44.8c-3.1-14.4-2.1-28.8-3.1-43.3c3-2.9,5-4.8,8-7.6c14-7.6,27-15.4,41-22.3
	c13-3.9,26-7.9,38-13.9c19-2,37-6,56-10c0-1,0-2,0-2s1,0,2,0c0,1,0,2,1,3c9-2,17-3,25-8c2,0,3,0,5-1c13-5,22-15,34-22c6-4,12-7,19-8
	c1-1,2-2,3-2c5,0,10-2,15-3c6,0,11,1,17,2c5-1,9-3,14-1c8-1,16-3,24-5c1,0,3-2,4-2c27-7,53-13,78-25c13,1,25-2,37-5c3-1.5,6-3,9-4.6
	c3-0.4,6-2.4,9-3.4c1,0,2,0,3,0s2-1,3-2c-4-6-12-2-16.5,0.5c-2.3,1.3-4.6,2.4-7,3.4c-7.1,3-14.7,4.6-22.5,4.1c-9-3-19-4-29-2
	c-3,2-7,4-10,6c-6,0-12,5-18,4c-11,10-27,9-41,12c-1,1-2,2-3,2c-2,0-4-1-6-1c-3,2-6,3-9,4c-27-3-53,1-79,8c1,1-1,2,1,2
	c-7,1-12,5-18,8c-3,4-9,6-13,9c-12,4-24,8-35,13c-5,0-9-1-14,1c-3,3-6,1-9,2c-1,0,1,2-1,2c-24,6-49,9-70,21c-5,0-11,1-13,6
	c-12,2-21,9.9-32,14.8c3-15.9,1-32.9,4-48.8c-3-2,1-4,0-6c-2-8-4-16-3-24c-1,0-2,0-3,0c4-7,11-6,16-10c17,1,33-6,47-15c3,0,6-2,9-3
	c1-1,1-2,2-2c4-1,8-1,12-3c1,0,1-2,2-2c19-5,35-13,52-22c11-3,21-6,31-12c14-14,33-22,52-26c8-6,18-9,27-14c1-1,2-2,3-3c2-2,5-3,8-3
	c10-6,20-11,31-16c11-7,22-14,34-19c6,1,10-3,13-7l-1-1c3,1,5-2,8-3c1,0,2,0,3,0c3-3,7-3,10-6c1,0,2,0,3,0c1-1,2-2,3-3
	c12-4,22-11,31.7-17.6c9.5-6,18.6-12.6,27.2-19.1c8.1-3.4,15.1-8.4,22.1-12.4c0,4,0,7,0.5,11c0.2,4.1,2.3,6.9,5.1,8.5
	c0.1,3.4,0.3,6.7,0.5,10.1c0.2,3.4,0.3,6.8,0.5,10.6c-0.8,2.9-0.9,6.1-0.9,9.5c0.4,9.3-0.6,19.3,2.4,28.3c1,22,2,43,0.1,65.5
	c0.1,2.7,0.3,5.4-0.2,8.3c-0.2,2.1-0.6,4.1-1.5,6c-0.8,4-1.8,7.7-3.3,11.2c3,8,5,18,1,26c0,4,0,9-0.4,12.9c-0.1,2.1-0.2,4.2-0.3,6.4
	c-0.3,10.7-0.2,21.3,0.1,32.1c-22.1,10.3-44.2,20.6-67.3,30c-1,0-2,0-3,0c-9,3.8-19,5.8-27,10.4c-7,2-13,3.9-19.9,3.2
	c-14,4.9-28,9.8-41,15.6c-3,3.7-8,4.8-12,7.6c-1,0-2,0.1-3,0.1c-18,9.6-38.9,15-58.8,20.4c-5,5.6-11.9,4.2-17.9,6.2
	c-11.9,3.3-21.9,7.4-33.8,9.8c-3,2-6,3-9,3.1c-1,1-2,1.9-3,2.9c-5,2-10,4.1-13.9,7c-13.9,4.3-28.8,9.4-41.7,16.3
	c-6.9,2.1-16.8,4.2-15.9,11.4c15.9-6,32.7-12.1,48.6-19.1c3-1,6-1.2,8.9-2.2c1-0.9,2-2.8,4-2.9c1,0,2-0.1,3-0.1
	c6-3,11.9-4.2,16.9-8.9c25.8-5.8,50.7-12.4,76.5-17.2c0-0.9,0-0.9,0-1.8c10-3.1,18.9-6.2,28.9-8.4c6-2.9,12-4.9,17.9-6
	c6.1-6.4,15-8.5,23-12.4c8.9,2.4,18.9-1.4,27.9-1.7c1-0.9,2-1.8,3-2.7c5-2.8,10-3.8,15-6.6c3-1,5-1,8-2c5-1.9,11-3.8,15-6.5
	c25-6.7,47.1-17.7,70.2-27.9c0.8,12.7-2.4,26.2-0.6,38.7c-3.1,8.9-2.3,18.6-4.5,28.3c1.7,14.8-3.5,28.7,1.2,43.4
	c-2.1,5.2-1.2,11.2-1.3,16.3c1.9,4.3,0.8,8.6,0.8,12.8c-6.5,29.8-6,60.4-5.5,91.1c-27,8.6-54.9,14.2-80.9,24.3
	c-4,1-8.9,2.1-12.9,3.1c0,0.9,1,0.8,1,1.7c-3,1.8-7,4.6-10.9,3.9c-7,6.4-16.9,6.9-25.8,7.4c-2,1-5,1.1-6.9,2.1
	c-14.8-2.6-27.7,7.7-40.6,14.5c-1,0.9-2,1.8-3,2.8c-3.9,2-6.9,3.9-9.9,6.7c-11.8,7.6-25.5,12-39.2,15.4c-2,2.7-3.9,2.8-6.8,3
	c12.7,2.7,27.4-1.7,39.1-7.7c4.9,0.6,7.9-3.1,11.8-4.2c2-1.9,4-3.7,5.9-4.7c11.9-5.9,22.7-10.9,33.7-17.6c2-0.1,3-1,5-1.1
	c12.9-1.6,25.7,1.2,38.6-2c9-3.9,16.9-8.5,25.9-12.3c13.9-3,27.9-5.9,41.5-11.2C1375.8,1341.9,1382.1,1340.2,1388.1,1338.5z
	 M1397.4,710.7c-3.4-0.9-6.4-0.8-9.4-0.8c-2.5,0.5-5,1.1-7.5,1.6c-7.5,1.5-15,2.4-22.5-0.6c-2-1-3.8-2.5-5.6-3.9
	c-8.4-6.1-20.4-5.1-30.4-3.1c-3-1-5-1-8-1c-2,1-4.3,1.3-6.5,1.2c-3.2-0.5-6.3-0.9-9.4-1.2c-6.6-0.5-12.8-1.3-19.1-1.7
	c-2.1-0.1-4.2-0.2-6.3-0.2c-2.7-0.2-6.7-0.2-9.7-0.2c-11.7,3.3-23.3,6-35,4.4c-2.3-0.3-4.7-0.8-7-1.4c-9,2-16,9-25,13c-2,1-5,2-7,3
	c-2,2-4,4-6,6c-1,0-1,0-2,0c-3,2-5.8,3.8-8.4,5.5c-2.6,1.5-4.6,3.5-7.6,5.5c-4,1-8,3-11,6c-2,1-4,1-6,2c-12,7-23,15-35.1,22.8
	c-2.3,0.9-4.7,1.6-7.2,1.8c-2.5,0.3-5,0.1-7.7-0.6c2.3-2.3,4.6-4.3,7-6.3c9-7.7,21-13.7,28-23.7c6-5,13-9,19-13c6,0,9-6,13.7-7.9
	c2.4-1.6,4.7-3.2,7-4.8c2.5-1.7,5-3.4,7.5-5.1s5.1-3.5,7.7-5.2c1-1,2-2,3-4c7-2,14-4,20-7.9c2-1.1,4-2.1,6-3.1c3,0,6,0,9-1
	c2-1,3-2,5-3c6,0,11,2,17,1.2c2.5,0.1,5,0.1,7.5,0.1c7.5,0.1,15-0.1,22.5,0.2c2.6-0.1,5.1-0.3,7.6-0.6s5-0.6,7.5-0.9
	c2,2,6,0,7.5,1.5c2.5,0.5,5,1,7.5,1.5c2,1,4,1,6,1.6c3.2,0.7,6.4,1.5,9.5,2.3s6.3,1.9,9.5,3c4,0,9,0,12.8-0.1c2.6,0,5.1,0,7.7,0
	c5.3,0,10.7,0,16.1,0c2.7,0,5.4,0,8.1,0c5.3,0,9.3,2,14.3,1c-1.3-2.8-2.2-5.5-2.9-8.3c-1.1-9.7-2.1-18.7-3.1-28.7
	c-0.5-2-1.1-4-1.8-6c-0.7-2.1-1.5-4.1-2.3-6.2c-2.8-7.8-5.8-16.8-8.8-24.8c3-3-1-6-2-9c-4-3-9-6-14-9c-4-5-8-11-14.2-15.5
	c-2-2-3.8-4.5-4.8-7.5c-3-2.1-5-4.1-7.8-6.1c-2.4-1.8-4.9-3.5-7.5-5.1c-7.8-4.7-16.4-8-26.1-9.2c-3.2-0.5-6.2-0.9-9.3-1.1
	c-9.2-0.8-18.5-0.5-27.7,0.4c-13.8,1.2-27.5,4.4-40.3,8.6c-2.4-0.5-4.4-0.5-5.3,2.5c-12.5,2.7-24.7,6.5-36.7,11.1
	c-35.8,13.8-68.9,35.3-97.7,60.7c-4.7,4.2-9.4,8.7-14,13.4C1060,662,1054,669,1047,675c-8,11-13,22-22,33c-1,1-1,1-2,1
	c-4.5,7-9,14-13.7,20.9c-4.7,6.9-9.7,13.7-14.8,20.1c-0.4,6.2-2.3,12.5-4.4,19c0,4.3-0.1,9.7-4.2,13.3c1.1,0.7,1.1,1.7,1.1,2.7l1-1
	c-4,9-10,18-15,27c-1,7-5,13-6,20v9c-2.3,14.3-3.4,27.9-4.3,41.7c-0.3,4.6-0.6,9.1-0.9,13.7c0,6.3,0.2,12.6,0.6,18.8
	C965,945,969,976,962,1007c2.7,6.3,2.2,12.7,2,19c2,1,5-1,7.3-1.5c1.6-0.4,3-0.4,4-0.1c0.6-0.2,2.6-0.3,3.6-1.2c2-1,4-3,7-4
	c4.3-1.7,8.8-3.6,13.3-5.4c4.5-1.8,9-3.7,13.5-5.5c2.2-0.9,4.5-1.8,6.7-2.7c2.8-0.8,5.7-1.9,8.5-3.5c3.1-3,6.8-5,10.8-6.3
	c4-1.3,8.2-1.8,12.1-1.7c2.5-1.8,5.1-3.4,7.8-4.9c2.6-1.5,5.3-2.9,8-4.2c6.3-2.9,12.3-4.9,19.3-5.9c7-6,15-9,22-15c3-1,5-1,8-1
	c0-1,0-1-1-1c6-3,14-5,20-8c7-6,14-13,22-18c1,1,2,1,3,1c1-1,3-2,4-2h8c16-8,33-15,48-25c3-1,7-2,10-3c1-2,3-4,4-6c3-2,7-2,11-3
	c10-9,24-15,37-18l15-9c1,0,2,0,3,0c5-7,13-12,21-14c2-2,4-4,6-5c2.5-0.5,5-1,7.5-1.8s5-1.8,7.5-3.3c3-1,6-1,9-2c3-2,6-3,9-5
	c2.3-2.5,4.5-4.9,6.8-7.3c6.8-7,14.4-13.6,22.6-19.2c2-1.4,4.1-2.7,6.2-4c5.3-1.5,9.3-5.5,14.3-7.5c0-13-2-26-4-38c-1-11,1-23-1-34
	c-3-4-6-7-6-12.1C1398.5,715.6,1397.9,713.2,1397.4,710.7z M1127.3,679.1C1140,673,1152,664,1165,657c9-2,17-8,27-10c7-2,14-3,21,0
	c3-1,6.3-1.5,9.5-1.9s6.6-0.7,9.8-1.3c5.7-1.8,11.7,0.2,17.7-1.8c3-1,5-5,8-6c5.5-1.5,11-0.8,16.5,0.6c2.8,0.7,5.5,1.5,8.2,2.3
	c5.3,2,11.3,2,16.3,2c8,11,21,16,34,19c-2,0,0,3-2,2c1,0,3-1,4,1c-1,0-1,1-2,1c2,0,0,4,3,3c0,1-1,1-1,2c-3,0-7-1-10-2c0,1,0,2,2,2
	c-4.5-1-8.8-2.3-12.9-3.6c-2.1-0.7-4.1-1.4-6.1-2.1c-8-4.2-17-3.2-26-4.2c-1-2-4-2-4-4c-3.5-0.5-7-0.2-10.2,0.8s-6.3,2.8-8.7,5.2
	c-6,1-12,4-18,5s-12-1-17.6-1.4c-2.8-0.5-5.6-1.1-8.4-1.6c-7,6-17,1-24.9,1.3c-2.3-0.1-4.6-0.1-6.8,0c-4.5,0.3-9,1-13.3,2.7
	c-2,2-4,4-6,6c-12,8-24,15-35,24c-5,2-9,6-13.5,7.7c-2,1.1-4.1,2.2-6.2,3.2c-2.1,1.1-4.2,2.1-6.3,3.1c3-7.5,8.3-13.9,13.5-19.5
	c1.7-1.9,3.5-3.7,5.1-5.4C1123,683.3,1124.4,680.9,1127.3,679.1z M1288.6,769.9c-8,10.1-17,20.1-25.5,30.1c-1.7,2-3.4,4-5.1,6
	c-2,1-3,2-5,3c-9,11-23,15-35,21c-13,4-26,6-39,9c-10,1-19-1-29-2c-1,0-2,1-3.4,0.8c-3.6,0.4-7.1,0.8-10.7,1.2
	c-3.6,0.4-7.2,0.9-10.9,1.5c-2.4,0.5-4.6,1-6.9,1.5c-6.6,1.7-13.1,4-19.1,7c-4,1-8,2-12,0c-2.3,1.7-4.7,3.3-7.1,4.9
	c-11.9,7.9-24.4,14.8-36.9,23.1c-3,0-5,1-7,3c-2,1-5,1-6.9,2.4c-2.1,0.7-4.1,1.2-6.1,1.6c0-3.5,1.5-6.3,3.6-9c2.4-3,4.4-7,7.4-9
	c4-3,8-6,13-8c4.9-4.3,10.2-8.2,15.7-11.7c2.7-1.7,5.5-3.4,8.3-4.9c6.1-2.4,10.1-7.4,15.1-11.4c7.5-4,15.5-5,23.6-5.5
	c2.8-0.2,5.5-0.3,8.3-0.4c3.1-0.1,6.1-0.1,9.1-0.1c5.3-0.5,10.4-1.2,15.6-1.9c2.6-0.4,5.1-0.7,7.7-1c10.5-1.4,21.1-2.3,31.4-3.6
	c2.6-0.3,5.2-0.7,7.7-1.1c2.6,0.7,5.6-1.3,8.6-1.3c0,1,0,1,0,2c12-3,23-9,34-15c3,0,5-1,7-3c1.8-1.5,3.6-3,5.3-4.6
	c8.5-7.7,15.7-15.4,25.7-20.4c6-9,14-14,22-20c3-3,5-7,6-11c2,0,5,0,6,2c-2,3-5,6-4,10c-4,1-4,6-7.2,9.2
	C1291.4,766.2,1290,768.1,1288.6,769.9z"/>
</svg>
