<?xml version="1.0" encoding="utf-8"?>
<!-- Generator: Adobe Illustrator 22.1.0, SVG Export Plug-In . SVG Version: 6.00 Build 0)  -->
<svg version="1.1" id="Layer_1" xmlns="http://www.w3.org/2000/svg" xmlns:xlink="http://www.w3.org/1999/xlink" x="0px" y="0px"
	 viewBox="0 0 1729 1717" style="enable-background:new 0 0 1729 1717;" xml:space="preserve">
<style type="text/css">
	.st0{fill:#eee;}
</style>
<path fill="#eee" d="M492.4,1262.4c7-1,13-5.4,18-9.1c25.1-9.4,56.3-3.2,82.6,7.7c3,0.3,6,0.6,9.1,1.7c13.1,6.4,26.3,14.6,40.4,17.8
	c1,1.8,3.1,3.8,5.1,5.7c12.1,5.6,19.3,16.8,26.4,27.2c2.1,6.3,4.2,13.6,2.3,19.4c-4-0.5-6,1.9-8.9,3.3c-4-2.2-8,1.6-12-1.5
	c-14,0-28.1-2.7-42.1-2.7c-8.1-2.7-15.1-3.6-23.2-4.6c-4-1.3-7.1-4.2-10.2-6.3c-2-0.2-2-1.1-4-1.3c-16.3-11.1-30.6-23.4-46.9-34.2
	c0-0.8-1-1.8-2.1-2.7c-11.1-2.7-15.3-13.8-21.4-20.9c-5.1-1.3-8,3.4-8,6.7c3.1,3.5,5.1,7,8.2,10.6c16.3,12.3,32.6,23.8,49.9,34.9
	c2,1.9,4.1,3.8,7.1,5.8c11.2,6.3,20.3,13.3,32.4,15.7c18.1,2.3,36.2,7.2,54.3,11.3c10-0.4,20,0.9,29-1.5c5.9-3.6,9.8-9.3,11.7-16.1
	c2.6-27.8-26.8-51.9-52-67.4c-1-0.1-2-0.2-3-0.3c-3-1.2-6.1-3.2-9.1-2.6c-9.1-6-20.2-9.6-31.3-10.7c-8.1-5-17.2-6.7-25.2-9.1
	c-3-0.3-5-0.4-8.1-0.7c-6.1-2.2-11.1-2.7-17.1-3.2c-18.1,2.6-39.2,1.7-53.5,13.2c-4.1,3-3.6,7.5-1.3,10.6
	C489.3,1260.5,491.4,1261.5,492.4,1262.4z"/>
<path fill="#eee" d="M467,844c0-1,0-1,0-2c-3-2-5-4-6.1-6.6c-1-1.2-2.1-2.2-3.3-3.1c-2.4-1.8-5.1-2.8-8.5-2.3c-1.3-0.1-2.6-0.1-3.8-0.2
	c-1.3,0-2.6,0-3.9,0.2c-1.3,0.1-2.5,0.3-3.8,0.6c-1.8,0.1-3.5,0.4-5.1,1.1C432,832,431,833,430,833c-0.5,1.5-1.3,2.8-2.2,4
	s-2,2.3-3.1,3.3c-1.4,0.8-2.6,1.7-3.7,2.7c-1.1,1-2.1,2-3.1,3c2,2,1,5,1,8c-5,6,0,13,1,20c0,1-1,1-1.1,2c-0.4,2,0.3,3.2,1.4,4.4
	s2.6,2.1,3.6,3.6c0,1,0,1,0.1,2c-0.1,1,0.9,3,1,4c0.7,1.6,1.3,3.3,1.8,5.1c-1,2-1.5,4-1.9,5.9s-0.8,3.8-1.5,5.6
	c-0.4,2.5-0.8,5.1-1.9,7.7c-0.3,1.8-0.6,3.7-1,5.5c-0.3,1.8-0.7,3.6-1,5.1c-0.7,2.8-1.3,5-1.9,6.8c-0.5,1.8-0.9,3-1.2,4
	C415,940,415,944,412,947c0,0,0,1,0,2c0,2,3,0,3,2c1,0,3,0,4,0c2,1,5,2,7,3c2.8,0,5.3,0.4,7.7,1c1.2,0.3,2.4,0.7,3.6,1.1
	C442,959,448,960,452,964c1,0,3,0,4,1c0-1,0-2,0-3c-3-4-4-9-3.1-14c0.1-1.5,0.2-3,0.5-4.5c0.3-1.5,0.8-3,1.6-4.5c0-1-1-3-0.7-4.1
	c-0.2-1.3-0.3-2.6-0.3-3.9c-3-6-3-12-3.1-18.5c-0.1-1.7-0.4-3.3-0.7-5c-0.1-1.3-0.4-2.9-0.4-4.6c0.2-1.9,0.2-2.9,1.2-4.9
	c6-3,8-9,12-14c1-1,2-1,3-2c0-1,1-3-0.7-4.2c0.2-2.4,0.5-4.6,0.9-6.7c0.9-1.1,1.9-2.1,2.9-4.1c0-1.8,0-3.6,0-5.4
	c0-5.6-1-10.6,0-15.6C468,845,467,845,467,844z"/>
<path fill="#eee" d="M1123.4,687c-0.6-0.1-1.2-0.2-1.6-0.3C1122.7,687.1,1123.1,687.1,1123.4,687z"/>
<path fill="#eee" d="M1226,937c-3-9-2-19-2.4-28.3c0-3.4,0.1-6.6,0.9-9.5c-0.2-3.8-0.4-7.3-0.5-10.6c-0.2-3.4-0.3-6.7-0.5-10
	c-8.6-3.5-4.7-12.4-6.8-19.6c-6.8,5-13.8,8-20.9,12.4c-4.3,3.3-8.7,6.5-13.2,9.7c-4.5,3.2-9.2,6.4-14,9.4
	C1159,897,1149,904,1137,908c-1,1-2,2-3,3c-1,0-2,0-3,0c-3,3-7,3-10,6c-1,0-2,0-3,0c-3,1-5,4-8,3l1,1c-3,4-7,8-13,7
	c-12,5-23,12-34,19c-11,5-21,10-31,16c-3,0-6,1-8,3c-1,1-2,2-3,3c-9,5-19,8-27,14c-19,4-38,12-52,26c-10,6-20,9-31,12
	c-17,9-33,17-52,22c-1,0-1,2-2,2c-4,2-8,2-12,3c-1,0-1,1-2,2c-3,1-6,3-9,3c-14,9-30,16-47,15c-5,4-12,3-16,10c1,0,2,0,3,0
	c-1,8,1,16,3,24c1,2-3,4,0,6c-3,16-1,32.9-4,48.8c11-4.9,20-12.9,32-14.8c2-5,8-6,13-6c21-12,46-15,70-21c2,0,0-2,1-2c3-1,6,1,9-2
	c5-2,9-1,14-1c11-5,23-9,35-13c4-3,10-5,13-9c6-3,11-7,18-8c-2,0,0-1-1-2c26-7,52-11,79-8c3-1,6-2,9-4c2,0,4,1,6,1c1,0,2-1,3-2
	c14-3,30-2,41-12c6,1,12-4,18-4c3-2,7-4,10-6c10-2,20-1,29,2c7.8,0.5,15.4-1.1,22.5-4.1c2.4-1,4.7-2.1,7-3.4
	c4.5-2.5,12.5-6.5,16.5-0.5c-1,1-2,2-3,2s-2,0-3,0c-3,1-6,3-9,3.4c-3,1.6-6,3.1-9,4.6c-12,3-24,6-37,5c-25,12-51,18-78,25
	c-1,0-3,2-4,2c-8,2-16,4-24,5c-5-2-9,0-14,1c-6-1-11-2-17-2c-5,1-10,3-15,3c-1,0-2,1-3,2c-7,1-13,4-19,8c-12,7-21,17-34,22
	c-2,1-3,1-5,1c-8,5-16,6-25,8c-1-1-1-2-1-3c-1,0-2,0-2,0s0,1,0,2c-19,4-37,8-56,10c-12,6-25,9.9-38,13.9c-14,6.9-27,14.6-41,22.3
	c-3,2.9-5,4.8-8,7.6c1,14.5,0.1,28.9,3.1,43.3c-1.9,15.1-0.8,30.2-4.7,44.8c1.1,12.1,1.2,24.1,0.4,36c5,5,3.1,11.3,3.2,16.8
	c-2.8,13.4-4.6,27.8,0.6,42c1.2,14.7-0.5,29-0.3,43.6c2,3.9,4.1,8.7,6.2,12.7c0,2.7,0.1,5.5,0.1,8.2c12.7-10.2,27.5-17.6,44.3-23.1
	c12.9-1.5,24.7-4.1,38.6-3.9c18.7-13,41.4-17.5,62.1-27.3c20.7-17.8,48.6-23.9,73.5-34.3c6-1.9,12-1.8,17-4.8c3-1,6-0.9,9-1.9
	s5-3,8-3.9c2-1,3,0,5-1c5-3,11-4.9,17-5.9c31-3,62-9,92-18c0,1,0,1,0,2c-9,5-19,8-29,12c-23,5-45,12-68,17.9c-16,0.9-31,6.8-46,13.5
	c-6-1.1-10,3.8-16,2.7c-13.9,8.5-31.8,13-44.7,23.2c-17.8,8.1-35.6,15-53.3,21.8c-5.1,5.8-13.1,5.8-19.1,9.8c-22,7-45,9-65,22
	c-2,0-3,2-5,1c-8,5-20,10-18,22c3,20,2,39,2,58c-2,20-6,41-1,61c0,16,0,31,1,47c6-3,10-8,16-11c20-3,40-9,57-20c1,0,2,0,3,0
	c14-13,32-22,49-32c8-7,18-13,26.8-19.3c6.9-1.5,10.8-7,16.6-9.6c8.8-4.3,19.7-4.6,27.5-12c2,0.1,3,0.2,4.9-1.7
	c3-0.8,5.9-2.6,9.9-2.4c26.6-13.5,54.4-23.3,84.3-27.6c9-3.8,18-10.7,29-10.6c1-1,2-1,3-2c0,0,0-1,0-2c18-4.9,34-11.9,52-15.9
	c12-6,24-12,35-19c5-1,9-3,14-3c1-1,3-1,4-2c-3-19-6-38-7-57c-6,0-11,2-16.9,2.5c-6,1.7-12.3,3.4-18.4,5
	c-13.6,5.3-27.5,8.2-41.5,11.2c-9,3.8-17,8.4-25.9,12.3c-12.9,3.2-25.7,0.4-38.6,2c-2,0.1-3,1-4.9,1.1
	c-10.9,6.7-21.8,11.7-33.7,17.6c-2,1-4,2.8-5.9,4.7c-3.9,1.1-6.9,4.8-11.8,4.2c-11.8,5.9-26.4,10.3-39.1,7.7c2.9-0.2,4.9-0.3,6.8-3
	c13.7-3.5,27.4-7.8,39.2-15.4c3-2.8,5.9-4.7,9.9-6.7c1-0.9,2-1.8,3-2.8c12.9-6.8,25.8-17.1,40.6-14.5c2-1,5-1.1,6.9-2.1
	c8.9-0.5,18.8-1,25.8-7.4c4,0.7,7.9-2.1,10.9-3.9c0-0.9-1-0.8-1-1.7c4-1,8.9-2.1,12.9-3.1c25.9-10.2,53.9-15.7,80.9-24.3
	c-0.5-30.6-1-61.2,5.5-91.1c0.1-4.3,1.2-8.5-0.8-12.8c0.1-5.1-0.8-11.2,1.3-16.3c-4.7-14.7,0.5-28.5-1.2-43.4
	c2.2-9.7,1.3-19.4,4.5-28.3c-1.8-12.5,1.4-26,0.6-38.7c-23.1,10.2-45.2,21.3-70.2,27.9c-4,2.8-10,4.7-15,6.5c-3,1-5,1-8,2
	c-5,2.8-10,3.8-15,6.6c-1,0.9-2,1.8-3,2.7c-8.9,0.2-18.9,4.1-27.9,1.7c-8,3.8-17,5.9-23,12.4c-6,1.1-12,3.1-17.9,6
	c-10,2.2-18.9,5.2-28.9,8.4c0,0.9,0,0.9,0,1.8c-25.8,4.8-50.7,11.4-76.5,17.2c-5,4.8-11,5.9-16.9,8.9c-1,0-2,0.1-3,0.1
	c-2,0.1-3,1.9-4,2.9c-3,1-6,1.2-8.9,2.2c-15.9,7-32.8,13.1-48.6,19.1c-1-7.2,8.9-9.3,15.9-11.4c12.9-6.9,27.8-12,41.7-16.3
	c4-2.9,9-4.9,13.9-7c1-1,2-1.9,3-2.9c3-0.1,6-1.2,9-3.1c11.9-2.4,21.9-6.5,33.8-9.8c6-2.1,12.9-0.6,17.9-6.2
	c19.9-5.4,40.8-10.7,58.8-20.4c1,0,2-0.1,3-0.1c4-2.8,9-3.9,12-7.6c13-5.8,27-10.7,41-15.6c7,0.7,12.9-1.2,19.9-3.2
	c8-4.7,18-6.7,27-10.4c1,0,2,0,3,0c23.1-9.4,45.2-19.7,67.3-30c-0.4-10.8-0.5-21.4-0.1-32.1c0.1-2.1,0.2-4.3,0.3-6.4
	c0.4-3.9,0.4-8.9,0.4-12.9c4-8,2-18-1-26c1.5-3.5,2.5-7.3,3.3-11.2c0.9-1.9,1.3-4,1.5-6c0.6-2.9,0.3-5.6,0.2-8.3
	C1228,980,1227,959,1226,937z"/>
<path fill="#eee" d="M1115.3,689.9c0.3,0.2,1.1,0.6,2.4,1C1116.9,690.5,1116.1,690.2,1115.3,689.9z"/>
<path fill="#eee" d="M734,1466c-1-1-2-2-3-3c-11-4-21-11-31-16c-9-2-18-5-27-9c-10-8-22-12.1-34-19.1c-2-1-4-3-6-5c-13-6.1-25-11.2-37-19.4
	c-1,0-3,0-4-0.1c-1-2-4-2-4-4c-22-6.3-40-19.6-60-29.9c-3-4-8-5.1-11-8.2c-12-5.2-23-12.4-34-20.6c-3-2.1-7-3.1-10-4.2
	c-10-9.2-22-13.4-33-19.6c-5-3.1-8-8.1-14-10.2c-1-1-2-2-3-3c-19-10.3-34-26.5-52-38.7c-5-7-11-12.1-18-16.2c-3-3-7-6.1-9-10
	c-10-4.1-19-12.2-27-20.2c-10-4.1-17-11.2-25.9-17.2c-1-1-2-2-2-4c15,5.2,27.9,13.3,41.9,21.5c8,7,17,14.1,26,19.2
	c10,10.1,22,18.2,32,27.3c18,13.2,36,26.5,57,36.9c2,1,4,3.1,6,5.1c1,0,1,0,2,0c10,6.2,18,14.3,28,20.4c1,1,3,1.1,4,1.1
	c8,4.1,14,10.2,22,12.4c9,5.1,18,10.3,26,17.4c11,3.2,19,12.3,29,17.4c10,5.1,20,9.3,29,14.4c16,4.2,30,11.3,45,17.4c3,4,7,5,11,7.1
	c1,1,2,2,3,3c1,0,2,0,3,0c15,11,32,19.1,50,25.1c4,3,8,5,12,8c2,0,4,0,6,0c7,4,13,8,20,11c2,1,4,3,6,5c8,4,15,9,22,15c0-3-1-6-2-8
	c1-23-3-45-10-66c0-5,2-9,1-14c-2-1,0-3-2-4c2-3,3-7,4-10c-2-13-1-26-5-38c5-16,6-34,0-50c-1-8,1-16,1-24c-4-13-1-27-4-41
	c1,1,1-2,2-1c0-5-1-11,3-15c-2-4,0-9-1-13c2-16,1-33,2-49c-1,0-2,0-3,0c-13-9-29-14-42-23c-9-2-17-8-26-11c-6-5-14-7-20-12
	c-3,1-6-2-8-4c-1,0-2,0-3,0c-5-4-11-5-17-7c-3-1-5-5-8-7c-1,0-2,0-2,0c-14-13-26-28-42-38c20-2,34,15,47,28c15,5,30,13,45,17
	c2,2,4,4,7,5c7,3,13,6,20,8c5,2,9,6,15,7c2,2,5,3,7,5c11,5,22,8,31,16c0-3,0-7-2-10c-2.5-7-2.8-14.3-2.4-21.5s1.4-14.5,1.4-21.5
	c-4,3-8-3-9-6c-1,0-2,0-3,0c-1-2-4-1-5-3c0-1,0-1,0-2c-10-4-18-12-26.1-19.9c-5.1-4.4-10.4-8.6-15.9-13.1c-1-3-4-5-6-7
	c-13-10-27-17-42-21c-13-12-27-23-39-36c-20-10-39-22-56-36c1,12-1,24-1,36c-2,7-2,14-2,21c-2,7-2,13-3,20c0,2-1,3-2,5
	c0,5,0,9.8,0.1,14.5c-0.1,5.5-1.1,9.5,0.9,14.5c-4,9-7,19-7,28.8c-0.2,5-0.1,10.1,0.3,15.1c0.4,5.1,1,10.1,1.8,15.1c-3,0-1,3-3,4
	c-1,0-1,0-2,0c0-1,0-2-1-2c-1,1-3,1-4,1c0-2-2-4-3-6c-5-3-11-5-16.1-8.9c-4.2-5.7-11.3-9.3-15.6-14.6C488,1062,474,1059,462,1055
	c-1-1-2-2-2-3c-10-3-19-8-27-15c-1,0-2,0-2,0c-6-6-12-10-18.8-12.5c-6.8-3-13.8-5.8-20.3-9.8c-1-1-2-2-3-4c-16-6-32-13.1-44-26
	c-5,1-10-3-15-3.1c1-1,2-2,3-3c0-4-4-5-6-7c2,1,5,1,7,1c0-1,1-1,1-2c-2-2-1-7,2-6.9c0-7,0-13.9,3-20.9c1-11,1-22.9,1-33.9
	c3-12,1-24,3-36c1-5-2-8-1-13c2-6,1-11,1.4-17.5c0.1-2,0.3-4,0.4-6c0.2-2.4,0.3-4.6,0.5-6.9c0.1-2.2,0.2-4.3,0.2-6.3
	c0-2,0-3.9,0-5.8c-0.1-1.9-0.1-3.8-0.2-5.7c0-2,0-4.2,0.2-6.6s0.4-4.9,0.7-7.5c0.3-2.6,0.7-5.2,1-7.7c0.3-2.4,0.6-4.8,0.8-7.1
	c0.2-2.6,0.3-5.2,0.5-7.9c0.1-2.5,0.3-4.9,0.4-7.3c-1.7-0.6-3.6-1.4-5.6-2.4c-11.1-7.2-21.8-14.7-32.6-22.3c-3.6-2.5-7.2-5-10.8-7.5
	C287,727,274,717,259,711c-4-2.7-8-5.3-12.1-8c-4-2.7-8.1-5.4-12.1-8.1c-6.3-4.5-12.6-8.8-18.7-13C215,681,214,680,213,679
	c-9-5-17-12-25-19c-2-1-3-1-5-2c-4-3.3-8.1-6.3-12.2-9.2c-5.9-3.9-11.6-8.1-17.3-12.5c-5.7-4.3-11.4-8.8-17.3-13
	c-0.1,5.7-0.1,11.6-2.2,16.6c-3,7-7,14-8,22c1,0,1,0,2,0c-6,5,0,12-0.6,18c0.6,4.8,1.1,9.5,1.6,14c-0.5,5-0.8,10.3-1.1,15.5
	S127,720,126,725c0,2.5,0,5.3,0,8c0,2.7,0,5.5,0.1,8c-1.1,12-1.1,25-1.1,37c-2,8-5,16-4,24.5c0,3.8-0.1,7.7-0.2,11.9
	c-0.2,3.8-0.4,7.5-0.5,11.1s0,7.2,0.4,10.7c4.1,7.1,11.8,9,17.7,13.6c5.6,2,9.6,6,16.6,7c6,3,11,7,16,10c3,1,6,2,9,3
	c24,14,51,22,76,34c1,0,3,0,4,0c5,3,11,5,17,6c3,1,5,3,8,4s6,2,9,2c6,0,9,5,14,7c1,1,1,3,1,4c-2,0-4,0-6,0c-11-6-22-9-34-12
	c-13,0-26-3-38-6.1c-4-3-9-5-12-9c-23-4.8-45-14.8-66-25.8c-3-2-7-2-10-3c-2-2-3-3-5-5c-9,1-14-7-20-11c-3,9,1,19-6,28
	c0,26-1,51,2,77c-1,4-2,8-3,12c3,10,0,19-1,29c22,9,46,10,67,22c2,0,3,0,5,1c11,5,22,10,33,16c3,1,6,2,9,3c14,7,29,13,44,19
	c6,0,12,4,16.9,7.5c29.9,9.4,57.8,23.5,84.6,39.4c7,1.1,12,5.7,19,6c10,4.8,18.9,11.4,28.9,17.2c3,0.1,5-0.7,8,1.2
	c1,0.9,1,0.9,2,1.9c3,0.1,6,0.3,8,3.9c31,14.1,62,28.5,94.1,44c1,1,2,1.9,3,2.9c5,3.1,11,3.5,17.1,5.7c7,5.9,17.1,6.6,25.1,10.8
	c26.1,7.3,52.3,14.6,79.5,19.1c1,1.9,3,3,5,4.1c5,2.2,11.1,3.5,16.1,4.8c13,9.3,29.2,11.2,45.3,11.1c0,1,0,1.9,1,2
	c-9.1,2.4-18.1,1.9-28.2,0.3c-7-1.4-13.1-4.6-20.1-6.9c-22.2-4.2-44.3-8.5-66.5-12.8C592,1222,578,1214,562,1214c-2-3-6-2-8-5
	c-8,0-16-3-22-9c-1,0-2,0-3,0c-22-10-44-21-65-32c-2-2-3-3-5-5c-7,2-13-6-19-9c-1,0-3,0-4-1c-3-1-5-3-7-5c-26-11-50-25-76-34
	c-11-6-22-12-33-17c-2-1-3,0-5-1c-3-1-5-3-8-4c-20-8-40-12-58-24c-1,0-2,0-3,0c-3-2-7-4-10-6c-7,0-13-3-19-4c-2-1-4-2-7-3
	c-1,0-3,0-4,0c-10-6-20-11-30-15c-3-6-10-7-15-9c-17-4-35-9-51-16c0,7-1,15,2,22c-3,22-4,43-5,65c0,1,1,3,1,4c0,5-4,9-3,14
	c-7,11-4,24-4,36c3,1,7,2,9,5c1,0,2,0,2,0c5,5,10,9,15,14c5,2,8,6,10,11c5-1,6,5,8,8c12,11,25,23,40,30c15,12,29,26,48,33
	c4,2,7,5,10,8c1,0,2,0,3,0c13,8,25,17,38,26c1,0,1,0,2,0c6,4,10,9,16,11c1,4,6,5,8,8c17,7,31,19,46,30c19,10,36,24,52,38
	c3,2,6,4,9,6c1,2,2,5,4,6c2,0,2,1,4,1c2,5,6,8,9,12c13,7,24,18,38,24c3,3,8,4,11,8c12,7,24,12,35,21c2,2,5,3,8,3c23,14,44,28,67,43
	c3,2,6,3,9,4c6,6,15,9,20,16c4,2,7,4,11,6c19,13,37,27,55,39.5c7.1,1.9,12.2,6.6,17.2,11.2c3-0.6,5.1,2.6,7.1,2.9c1,1.1,2,2.3,3,4.4
	c2,0.3,4.1,0.5,6.1,1.8c17.2,8.1,32.4,17.8,49.6,23.7c1-28.9-3.1-58.2-0.8-86.9c0.1-4.2,0.3-8.4,0.6-12.7c0.2-4.8-0.8-9.8,1.2-14.8
	C760,1486,749,1474,734,1466z M490.9,1248.6c14.3-11.5,35.4-10.6,53.5-13.2c6,0.5,11.1,1,17.1,3.2c3,0.3,5,0.4,8.1,0.7
	c8.1,2.4,17.1,4.1,25.2,9.1c11.1,1,22.2,4.6,31.3,10.7c3-0.6,6,1.4,9.1,2.6c1,0.1,2,0.2,3,0.3c25.3,15.5,54.6,39.6,52,67.4
	c-1.9,6.8-5.8,12.4-11.7,16.1c-9,2.4-19,1.1-29,1.5c-18.1-4.1-36.2-9-54.3-11.3c-12.1-2.4-21.3-9.4-32.4-15.7
	c-3.1-2-5.1-3.9-7.1-5.8c-17.3-11-33.6-22.6-49.9-34.9c-3.1-3.6-5.1-7-8.2-10.6c0-3.3,2.9-7.9,8-6.7c6.1,7.1,10.3,18.2,21.4,20.9
	c1,0.9,2,1.9,2.1,2.7c16.3,10.8,30.6,23.1,46.9,34.2c2,0.2,2,1.1,4,1.3c3.1,2,6.1,4.9,10.2,6.3c8.1,1,15.1,1.9,23.2,4.6
	c14,0.1,28.1,2.7,42.1,2.7c4.1,3.1,8-0.7,12,1.5c3-1.4,4.9-3.7,8.9-3.3c1.9-5.9-0.2-13.1-2.3-19.4c-7.2-10.4-14.3-21.6-26.4-27.2
	c-2-1.9-4.1-3.9-5.1-5.7c-14.1-3.2-27.2-11.4-40.4-17.8c-3-1.1-6-1.4-9.1-1.7c-26.3-11-57.5-17.2-82.6-7.7c-5,3.7-11,8.1-18,9.1
	c-1-0.9-3-1.9-2.7-3.2C487.3,1256.1,486.8,1251.6,490.9,1248.6z"/>
<path fill="#eee" d="M1692.6,714.3c-0.1-6.3-0.4-12.6-0.8-18.8c-0.7-7.7-1.6-15.4-2.3-23.1c-0.7-7.7-1.3-15.4-1.7-23.3c-1.9-22-1.9-45-2.9-67
	c-1-4-3-8-2-13c-2,0,0,3-2,3c-4-2-8-5-13-7c-11-3-20-8-31.2-11.4c-5.3-2.3-10.8-4.6-16.2-6.8c-6.7-2.8-13.2-5.8-19.4-9
	c-6.1-3.2-12-6.5-17.9-9.9c-5.9-3.3-11.9-6.7-17.9-10c-6-3.3-12.2-6.6-18.4-9.9c-1-1-2-2-3-3c-22-11-42-25-65-34c-3-1-5-1-8-2
	c-27-17-57-27-87-38c-5-6-13-8-18-13c-1,0-2,0-3,0c-18-14-38-26-57-38c-7-6-15-10-22-17c-11-5-21-11-31-17c-6-1-11-3-15.7-5.9
	c-7.6-3.4-14.8-7.1-21.3-12.1c-5-7-12-13-16-19.8c-8.1-5.4-14.9-12.2-21.6-18.1c-5.8-3.2-11.4-6.9-17-10c-5.6-3.1-11.3-5.5-17.3-7.1
	c-5.5-4.5-11.3-9.3-16.8-14.3s-10.8-10.3-15.3-15.8c-1-3-3-5-5.1-7.4c-5.9-2.5-12.9-3.6-18.9-5.6c4-9-4-17-11-21c-5,2-10,1-15.4,3.3
	c-8.5,4.1-16.7,8.3-25.9,11.5c-2.7,3.1-5.5,2.1-8,5.1c-6.9-1.9-13.8-1.9-19.3-0.2c-6.4,2.3-11.9,6.8-14.4,13.3c-9,2-17,7-24.9,9.6
	c-8,3.2-16,6.4-23.9,9.5c-5.6,2.2-11,4.5-16.5,6.8c-5.4,2.3-10.8,4.6-16.1,6.7C903,278,893,282,883,284c-1,1-2,3-4,3
	c-13,2-22,10-35,11c-1,1-2,2-3,3c-11,6-22,10-33,16c-16,13-35,25-51,38c-5,1-10,4-15,6c-1,1-1,2-2,3c-9,2-15,8-23.2,11.7
	c-5.7,2.5-11.7,4.5-17.8,6.1c-12.3,3.3-25,5.3-37,8.3c-8,4-16,8-24.4,12.8c-6.7,4.3-13.3,8.3-21.1,10.4C608,417,599.5,420,591,423
	c-2,1-3,4-4,6c3,4,7,8,11,11c2,1,2,4,2,6c0,3,4,4,3,7c9,4,13,13.9,19.9,20.6c4.3,3.9,7.4,8.6,12.5,12.3c9.1,4.5,17.5,10.2,25.5,16.4
	c8,6.2,15.9,13.1,24.2,19.5c5.4,3.3,10.9,6.6,16.3,10.1c5.4,3.5,10.6,7.1,15.6,11.4c0,1,1,1.1,1.1,1.9c7.8,4.6,14.6,10.2,21.3,15.9
	c6.7,5.7,13.4,11.3,20.8,16.1C765,580,771,581,775,585c10.1,2.3,19.1,6.8,27.7,12.1c8.6,5.3,16.8,11.5,25.4,17
	c5.7,3.7,11.6,7.2,17.9,10c11,4.9,24,6.9,35,12.9c4.5,3.5,9.3,7,13.9,10.6S904,655,908,659c8,4,15,8,23,12c5-1,9,1,12,5c3,1,5,3,8,4
	c11,12,24,22,35.8,33.1c8.7,5.9,17.9,10.7,27.5,14.2s19.6,5.8,29.6,6.8c7,3,14,7,21,12c1,1,3,1,4,1c8,8,17,15,27.4,19.7
	c9.1,4.5,18.6,8.3,27.6,12.3c4,1,8,2,13,2c6,3,10,9,17,9c7,7,17,12,24.2,18.9c4.3,3,7.7,5.6,11,9.3c0.8,0.8,1.8,0.8,2.8,0.8
	c4.5,5,9.8,10.3,15.7,14.1c5.3,3.9,12.3,5.9,19.3,5.9c0,9,5,17,9.7,24.1c1.3,8.9,2.3,16.9,3.3,25.9c6,5,7,12,9,19c3-1,7,1,10,1
	c15-6,33-7,47.7,0c9.2,3,19.3,4,28.1,0.9c3,1,5,0.9,8,0.9c2-1,4.2-1.3,6.5-1.3c3.2,0.5,6.3,0.8,9.4,1.1c6.6,0.5,12.8,1.1,19.1,1.5
	c2.1,0.1,4.2,0.2,6.3,0.2c2.7,0.1,6.7,0.1,9.7,0c11.6-3.5,23.3-6.3,34.9-4.9c2.3,0.3,4.7,0.7,7,1.4c9-2.1,15.9-9.2,24.8-13.3
	c2-1,5-2.1,7-3.1c2-2,4-4,5.9-6.1c1,0,1,0,2,0c3-2,5.7-3.8,8.3-5.6c2.6-1.5,4.6-3.6,7.6-5.6c4-1,8-3.1,10.9-6.1c2-1,4-1,6-2.1
	c11.9-7.1,22.8-15.3,34.8-23.2c2.3-0.9,4.7-1.6,7.2-1.9c2.5-0.3,5-0.2,7.7,0.5c-2.2,2.3-4.5,4.4-6.9,6.4c-8.9,7.8-20.9,13.9-27.8,24
	c-5.9,5.1-12.9,9.2-18.8,13.2c-6,0.1-8.9,6.1-13.6,8c-2.4,1.6-4.7,3.2-7,4.9c-2.5,1.7-4.9,3.5-7.5,5.2c-2.5,1.8-5.1,3.5-7.7,5.3
	c-1,1-2,2-3,4c-7,2.1-14,4.2-19.9,8.1c-2,1.1-4,2.2-6,3.2c-3,0-6,0.1-9,1.1c-2,1-3,2-5,3.1c-6,0.1-11-1.9-17-1
	c-2.5-0.1-5-0.1-7.5-0.1c-7.5,0-15,0.2-22.5,0.1c-2.6,0.1-5.1,0.4-7.5,0.7c-2.5,0.3-5,0.6-7.5,1c-2-2-6,0.1-7.5-1.4
	c-2.5-0.5-5-0.9-7.5-1.4c-2-1-4-1-6-1.6c-3.2-0.6-6.4-1.4-9.6-2.2c-3.2-0.9-6.4-1.8-9.5-2.9c-22.9-1-44.9,4-67.9,2c1,4,3,6,5,9
	c1,9,3,18,5,27c3,6,7,11,9,17.9c2.8,6.1,5.5,12.1,8,18.1c-1,1-1,2-1,3c3,8,12,10,18.9,14.3c4.1,4.9,8.2,10.9,14.5,15.3
	c2,2,3.8,4.5,4.9,7.4c3,2,5.1,4,7.8,6c2.5,1.8,5,3.5,7.6,5c7.9,4.6,16.5,7.8,26.2,8.9c3.2,0.5,6.2,0.8,9.3,1
	c9.2,0.7,18.5,0.3,27.7-0.7c13.8-1.4,27.4-4.7,40.2-9.1c2.4,0.5,4.4,0.4,5.3-2.6c12.5-2.9,24.7-6.8,36.5-11.5
	c35.7-14.2,68.5-36.2,97-61.9c4.7-4.3,9.3-8.8,13.9-13.6c5.5-6.8,11.4-13.9,18.3-20c7.9-11.1,12.7-22.2,21.6-33.3c1-1,1-1,2-1
	c4.4-7.1,8.8-14.1,13.5-21.1c4.7-7,9.5-13.8,14.6-20.3c0.3-6.2,2.2-12.6,4.1-19.1c0-4.3,0-9.7,4-13.4c-1.1-0.7-1.1-1.7-1.1-2.7l-1,1
	c3.9-9,9.8-18.1,14.7-27.2c0.9-7,4.8-13.1,5.8-20.1l-0.1-9c2.1-14.3,3-28,3.8-41.7C1692.2,723.4,1692.4,718.8,1692.6,714.3z
	 M1540.5,919.9c-1.7,1.9-3.4,3.7-5,5.4c-1.4,2.9-2.8,5.2-5.6,7.1c-12.7,6.3-24.6,15.4-37.5,22.6c-9,2.1-16.9,8.2-26.9,10.3
	c-7,2.1-14,3.2-21,0.3c-3,1-6.2,1.6-9.5,2c-3.3,0.4-6.6,0.8-9.8,1.4c-5.7,1.9-11.7,0-17.7,2c-3,1-4.9,5.1-7.9,6.1
	c-5.5,1.6-11,0.9-16.5-0.4c-2.8-0.7-5.5-1.5-8.3-2.2c-5.3-2-11.3-1.9-16.3-1.9c-4.1-5.5-9.4-9.4-15.3-12.3s-12.4-4.9-19-6.3
	c1.3,0,0.9-1.3,1-1.9c-1,0.2-2.3,0.4-3.1-1.1c1,0,1-1,2-1c-2,0,0-4-3.1-3c0-1,1-1,1-2c3,0,7.1,0.9,10.1,1.9c0-0.6,0-1.3-0.5-1.6
	c-0.5-0.1-1-0.2-1.5-0.3c0.7,0,1.2,0.1,1.5,0.3c4,0.9,7.7,2,11.4,3.1c2.1,0.7,4.1,1.4,6.1,2.1c8.1,4.1,17.1,3,26.1,3.9
	c1,2,4,2,4.1,4c3.5,0.5,7,0.2,10.2-0.9c3.2-1,6.2-2.8,8.7-5.4c6-1.1,12-4.1,18-5.2c6-1.1,12,0.9,17.6,1.2c2.8,0.5,5.7,1,8.4,1.5
	c6.9-6.1,17-1.2,24.9-1.6c2.3,0.1,4.6,0,6.8-0.1c4.5-0.3,8.9-1.1,13.3-2.9l5.9-6.1c11.9-8.1,23.8-15.3,34.7-24.4
	c5-2.1,8.9-6.1,13.4-7.8c2-1.1,4.1-2.2,6.1-3.3c2.1-1.1,4.1-2.1,6.3-3.2C1550.8,907.8,1545.6,914.2,1540.5,919.9z M1309.9,734.5
	c-5.7,3.4-11.4,6.9-16.9,10.6c-5.6,3.7-11.1,7.6-16.5,11.7c-6.7,4.6-13.3,10.3-20.2,15.2c-4.1,7.5-11,12.1-16.9,18
	c-7.1-2.5-13.9-6.3-20.8-9.6c-6.9-3.4-13.9-6.4-21.4-7.4c-6-3-12.1-7-18.5-9.9c-6-5.8-13.1-10.3-20.3-14.6
	c-7.2-4.2-14.3-8.3-20.4-13.2c-6.9-5.1-13.8-8.2-20.4-12.9c-6.8-2.9-11.6-7.9-17-14.8c-9-4.6-15.5-14-23.5-21.5
	c-5.4-0.4-10.8-2.2-16-4.6c-5.3-2.3-10.5-5.4-15.3-8.6c-8,2.4-14.9-1.2-22-5.1c-1.3,1.3-2.5,1.5-3.8,1.6c-2.3-2.2,0.4-4.9-0.6-7.2
	c-9.5-3.9-16.1-11.5-24-17.6c-7.1-6.4-13.7-13.2-21-19.3C970,624,965,623,961,622c-2-1-5-2-7-4c-7-2-14-6-21-7c-13-7-25-15-39-18
	c-5-3-8.1-7-14.2-7.9C878,583,877,581,873,582c-5-4-10.5-7.3-16.1-10.3C849,567,838,564,831,557c-7.3-2.3-14.3-5-21.1-8.3
	c-6.8-3.3-13.3-7-19.6-11.3C775,526,759,515,744,503c-7-3-12-9-20-10c-7-6-17-8-24-14c-7-9-17-15-23-24c-5-2-9-6-13-10c-3-1-5-3-7-5
	c-1-1-3-1-4-2c17-3,33-8,49-16c16-3,30-10,45.5-15.1c6.3-1.9,12.1-4.7,17.9-7.1S777,395,783,394c17-9,33-17,50-25c13-9,28-16,42-23
	c6-1,10-3,15-6c8-2,15-4,22.1-9.1c9.4-3.9,19.1-7.7,28.8-11.8S960,310.5,969,305c4-1,7-4,11-4c2-2,5-3,7-4.1
	c6.8-3.3,14.2-6.8,22.4-10.4c8.8-2.7,17.5-7.1,26.4-10.7c6.2-2.8,13.2-3.8,20.3-5.8c6.4-1,12.3,0.8,18,3.6
	c5.6,2.8,11.1,6.7,16.8,9.9c3.1,3.5,7.1,7.5,11.1,10.5c4,6,9,11,13,16c9.5,5,18.8,10.8,27.3,17.5c4.2,3.5,8.3,7.2,12.1,11.3
	c3.8,4,7.4,8.4,10.6,12.9c6,6.1,12,12.1,18,17c6,2.7,12.3,5.5,18.5,8.3c6.4,2,12.2,4.8,17.7,8.2C1228,391,1236,398,1245,403
	c7,8,17,12,25,20c1,0,1-1,2-1c1,1,2,2,3,3c1,0,1-1,2-1c10,8,21,16,33,21c2,2,4,4,7,5c1,1,2,2,3,3c2,1,5,2,7,4s4,4,7,5c1,1,2,2,3,3
	c1,0,2,0,3,0c5,3,10,6,15,9c1,1,2,2,3,3c31,17,62,31,94,44c1,1,2,2,3,3c5,3,11,5,16,8c3,4,7,5,10,9c9,5,18,11,26,17c4,2,9,4,12,7
	c10,4.5,20.5,8.3,30.8,12.6c5.1,2.2,10.2,4.5,15.1,7.2c4.9,2.7,9.7,5.7,14.2,9.1c-6.1,5-12.1,8-19.1,12c-4,2-6,7-11,8
	c-4,0-8,4-12.1,4c-5.9,3-11.9,5-17.9,8c-19,11-39,20-59,30c-11,6-22,11-32,19c-19,8-37,19-55,28c0,1,0,2-1,2c-2,0-3,0-5,0
	c-4,2-8,6-13,6c-1,1-1.1,3-2.1,4.1c-2-1-4.2,1.1-6.2-0.9c-4.3,2.1-8.7,5.4-12.2,8.7c-4-3-6.9,3.5-10.9,4.5
	C1319,729.3,1314.8,731.6,1309.9,734.5z M1628.1,735.4c-2.3,3.1-4.3,7.1-7.3,9.1c-4,3-7.9,6.1-12.9,8.2c-4.9,4.4-10.1,8.3-15.5,11.9
	c-2.7,1.8-5.5,3.4-8.2,5c-6,2.5-10,7.5-14.9,11.6c-7.5,4.1-15.4,5.2-23.5,5.8c-2.8,0.2-5.5,0.3-8.3,0.5c-3.1,0.1-6.1,0.2-9.1,0.2
	c-5.2,0.6-10.4,1.3-15.6,2.1c-2.6,0.4-5.1,0.8-7.7,1.1c-10.4,1.5-21,2.5-31.4,4c-2.6,0.4-5.1,0.8-7.7,1.2c-2.6-0.6-5.6,1.4-8.6,1.5
	c0-1,0-1,0-2c-12,3.1-22.9,9.3-33.8,15.4c-3,0-5,1.1-7,3.1c-1.8,1.5-3.5,3.1-5.2,4.6c-8.4,7.8-15.5,15.6-25.5,20.7
	c-5.9,9.1-13.8,14.2-21.8,20.3c-3,3-4.9,7.1-5.9,11.1c-2,0-5,0.1-6-1.9c2-3,4.9-6.1,3.9-10c4-1,3.9-6,7.1-9.3c1.3-2,2.7-3.9,4.1-5.7
	c7.9-10.2,16.7-20.3,25.2-30.4c1.7-2,3.4-4,5-6.1c2-1,3-2,5-3.1c8.9-11.1,22.8-15.3,34.7-21.4c13-4.2,25.9-6.3,38.9-9.5
	c10-1.1,19,0.8,29,1.7c1,0,2-1,3.4-0.8c3.6-0.4,7.1-0.9,10.7-1.4s7.2-1,10.9-1.6c2.4-0.5,4.6-1,6.9-1.6c6.6-1.8,13.1-4.1,19-7.2
	c4-1,8-2.1,12-0.1c2.3-1.7,4.6-3.3,7-4.9c11.8-8,24.2-15.1,36.6-23.6c3,0,5-1.1,7-3.1c2-1,5-1.1,6.9-2.5c2-0.7,4.1-1.2,6.1-1.7
	C1631.7,729.8,1630.2,732.6,1628.1,735.4z"/>
<g>
	<path fill="#eee" d="M527.7,987.2c1.3-4.2,0.7-4,0.3-2.3c-0.1,0.7-0.1,1.4-0.3,2.1C527.7,987.1,527.7,987.2,527.7,987.2z"/>
	<path fill="#eee" d="M536.5,908.5c-2.6-2.3-6.1-4.3-9.2-7.2c-3.1-2.9-6-6.6-8.5-10.4C518,890,517,889,516,888c-5,0-9-4-13-5c-3-5-9-6-13-10
		c2-1,4,1,4,3c-9-8-20-12-31-16c1,0,1,0,2,0c1,1-2,1-0.9,2c-1-2.5-2.2-5-3.5-7.4c-3.9-7.2-9.3-13.4-17.6-15.6c-7-4-12-11-19-14
		c-6-5-12-10-17.4-16.1c-2.8-2.5-5.7-4.8-8.6-7.1s-5.9-4.6-8.9-6.8c-7-3-12-10-21-7c-4,8-6,16-6.7,24.2c-0.2,2.9-0.3,5.8-0.3,8.8
		c3,5,4,11,2.3,16.6c-0.5,2.8-1.2,5.6-2.1,8.4c-0.9,2.8-1.8,5.7-2.7,8.5c-0.7,2.5-1.3,5-1.5,7.5c-1,15,0,30-2,45c-3,3-1,7-2.8,11.5
		c-0.1,2.5,0.1,5,0.7,7.5c0.6,2.4,1.6,4.8,3.1,7.1c-1,3.5-1.8,7-2.3,10.4s-1,6.8-1.4,10.1c-0.7,2.4-1.2,4.8-1.5,7.2
		c-0.5,3.3-0.5,6.7,0.3,10.2c4,5,10,7,16,10c3.3,0.5,6.4,1.1,9.6,1.9c3.1,0.8,6.2,1.7,9.2,2.8c4.6,2.1,8.7,5,12.6,7.9
		c2,1.5,3.9,2.9,5.8,4.4c1.9,1,3.9,3,5.9,4c4,1.5,8,2.5,12,3.5c5,2.5,10,1.5,15,5.5c9,16,26,22,43,27c3,3,5,6,9,8c4,0,7,2,8,6
		c1,0,1,0,2,0c1,2,3,4,5,5c1,1,1,2,2,3s2,1,3.1,2c3.9,2.7,8.4,4.5,13.9,4c0-4,0-8,0-12c1-6.5,1.8-12.8,2.3-19
		c0.5-6.2,0.8-12.5,0.8-19c0-4.3,0.1-8.5,0.2-13c0.1-2.6,0.3-5.3,0.6-7.9s0.7-5.3,1.2-8.1v1c0-6,1-13,2.8-18.9
		c0.5-2.4,1.1-4.9,1.7-7.3c1.4-5.4,3-10.6,4.3-16c0.7-2.7,1.3-5.4,1.7-8.1c0.5-8.8,4.5-16.8,1.9-25.6
		C539.4,910.8,538.1,909.5,536.5,908.5z"/>
</g>
<path fill="#eee" d="M1189,835.7c-9-4.7-18.5-9.1-28.3-12.9c-9.8-3.8-19.7-7.1-29.7-9.7c-8-4.1-15-10.1-22.8-13.9c-7.7-4.4-15.2-9.2-22.2-14.2
	c-17-3-32-9-47-16c-8-7-16-11-25-17c0,0-1-1-1-2c-1,0-1,1-2,1c-2,0-3-3-4.7-2.7c-8.1-5.1-12.3-13.3-20.2-17.7
	c-5.3-3.7-12.1-7.5-16.6-12.4c-6.3-1.2-12.2-3.6-17.9-5.6c-5.7-2-11.4-3.7-17.4-3.6c-1.1-2,1.9-3.1,0.9-5.1c-2,0-3-2-5,0
	c-1-2-4,0-5-4c-5-1-9-3-14-3c-5.5-5-11.5-9.7-17.5-14.5c-6-4.7-12-9.5-17.5-14.5c-3,0-5-3-7.2-5.3c-5.4-0.8-9.6-3.8-12.5-7.9
	c-7.8-4.3-15-8.5-22.1-12.9C827,637.5,820,633,813,628c-1,0-3-1-4-1c-14-12-31-19-47-28c-5.2-3.3-10.4-6.6-15.6-10.1
	c-15.4-10.4-30.2-21.6-44.6-32.5c-4.2-3.8-8.3-7.7-12.3-11.6c-8.1-7.8-16-15.3-25.5-20.8c-2-5-7-6-8-10c-6-2-9-6-13-10
	c-8-4.5-15.7-9.7-23.4-15.1c-7.6-5.4-15.2-11-22.1-16.6c-6.3-7.4-11-16.8-21.3-17.7c0.7-2.8-2.1-4-3.9-3.1
	c-5.6,1.7-10.4,4.6-15.3,8.5c-1,0-2,0-3,0c-4.5,4-9.7,6.7-15.3,8.9c-5.5,2.2-11.3,3.9-17,5.7c-5.5,1.3-11.1,2.4-16.6,3.7
	c-5.5,1.3-10.9,2.7-16.2,4.7c-7,3.5-14.5,6.5-22,9.8s-15,6.8-22,11.3c-5,0-8,4-13,4c-1,1-3,2-4,3h-4c-14,6-29,11-43,18
	c-5,0-8,4-13,4c-5,3-10,4-14,8c-3,2-8,0-10,5c-16,3-31,10-47,11c-5.5,1-10.8,2.8-16,4.5c-5.3,1.8-10.5,3.5-16,4.5c-2,1-3,3-6,4
	c-11,2-20,6-28,13h-4c-3,4-6,7-11,8c-9.8,2.3-18.4,4.5-27.1,7.2c-2.9,0.9-5.9,1.8-8.8,2.8c-4,0-7,2-11,1c-5,3-11,5-15,10
	c0,1,1,2,1,3c11,8,21,15,31,24c6,1,12,1,17.2-2.9c3.9-0.6,7.6-1.6,11.3-2.7c3.7-1.1,7.5-2.4,11.5-3.4c5,0,9,0,14-2c1,1,3,1,4,2
	c4-3,10-3,15-3l3-3c2-1,3,2,5,1c3-1,5-3,8-4c16-5,32-9,46-17c2.5-0.5,4.9-1.2,7.4-2c8.6-2,15.6-7,23.6-9c17-9,35-15,52-23
	c10-1,19-8,29-10h4c5-3,10-4,15-7c12-3,24-4,35-10c5-1,10-3,15-4c3-3,7-3,11-4c1-1,2-2,3-2c4-1,8.9-2.2,12.9-3.4
	c4.7-3.3,11.5-3,14.9-9.1c1.8-1.1,4.6-1.4,6.5-1.6c6.4-6.3,14.4-5.3,22.6-7.9c1.8-2.3,2.8-3.3,4.7-5.2c4.8,5.8,12.8,9.1,19,14.9
	c3.1,5.7,8.4,11.8,13.2,16.8c7.5,4.2,14,8.9,19.8,13.4s11.3,8.8,16.8,13.1c7.3,2.2,14.1,5.4,17.8,12.7c8.4,5.5,17.4,12.1,24,19.7
	c7.9,6.1,14.8,13.2,21,20c9,6.8,19,12.8,27,21.8c8,6,17,11,25,17c7,4,14,8,20.9,12.3S795.5,676,802,681c8.7,1.5,16.7,5.2,25.1,9.6
	C836,695,844,700,853,704c13,16,31,28,51,34c0,3,4,2,5,4c4,1,8,2,11.8,3c5.3,1.5,10.3,3.5,14.3,8c3,3,9,3,11,8c1,1,3,1,5,2
	c5,3.5,9.9,6.9,14.9,10.3c8.6,5.8,17.4,11.3,26.6,16.2C1008,799,1024,805,1041,810c14,7,28,13,39.4,24.9c4.3,3.5,8.6,6.9,13.1,10.3
	c6.1,4.6,12.5,10.1,19.4,14s14.2,6,22.1,4c10.2,1.3,17.6,8.3,26,11.8c5.2-0.8,10.4-3.5,14.5-6.1c8.3-0.1,14.4-7.6,19.5-12.9
	c3-1.1,5-3.1,6.7-4.8C1202.6,845,1197.9,839.2,1189,835.7z"/>
</svg>
