<svg id="Layer_1" data-name="Layer 1" xmlns="http://www.w3.org/2000/svg" viewBox="0 0 120 208"><title>diamond</title><path d="M78.9,64.2c-4.2-9.8-8.4-19.1-11.3-26.7-5.5-13.6-8.8-22.2-8.8-22.2s-2.6,7.5-5.4,19.6c-1.8,6.8-4.3,16-7.3,26.2A181.8,181.8,0,0,1,31.7,89.8c-7.1,11.6-11.6,19-11.6,19s5,8.5,12,18.9c3.3,5.4,7.3,11.6,11.4,18.3,9.8,23.3,17.1,46.8,17.1,46.8S72.1,171,84.2,144.2c4.9-8.9,9.4-16.5,12.5-22.1,4.5-8.7,6.7-14.2,6.7-14.2A200.76,200.76,0,0,1,89.1,89.6C85.5,83.1,82.3,74.2,78.9,64.2Z"/></svg>