<?xml version="1.0" encoding="utf-8"?>
<!-- Generator: Adobe Illustrator 22.1.0, SVG Export Plug-In . SVG Version: 6.00 Build 0)  -->
<svg version="1.1" id="Layer_1" xmlns="http://www.w3.org/2000/svg" xmlns:xlink="http://www.w3.org/1999/xlink" x="0px" y="0px"
	 viewBox="0 0 591.3 177.5" style="enable-background:new 0 0 591.3 177.5;" xml:space="preserve">
<style type="text/css">
	.st0{fill:none;}
	.st1{fill:#FFFFFF;}
</style>
<path class="st1" d="M330.6,106.8c-3.1,5.6-7.6,13.2-12.5,22.1c-12.1,26.8-23.6,48.6-23.6,48.6s-7.3-23.5-17.1-46.8
	c-4.1-6.7-8.1-12.9-11.4-18.3c-7-10.4-12-18.9-12-18.9s4.5-7.4,11.6-19c4.6-7.4,10-17.5,14.4-28.7c3-10.2,5.5-19.4,7.3-26.2
	C290.1,7.5,292.7,0,292.7,0s3.3,8.6,8.8,22.2c2.9,7.6,7.1,16.9,11.3,26.7c3.4,10,6.6,18.9,10.2,25.4c8,11.4,14.3,18.3,14.3,18.3
	S335.1,98.1,330.6,106.8z M76.6,106.8c-3.1,5.6-7.6,13.2-12.5,22.1c-12.1,26.8-23.6,48.6-23.6,48.6s-7.3-23.5-17.1-46.8
	c-4.1-6.7-8.1-12.9-11.4-18.3C5,102,0,93.5,0,93.5s4.5-7.4,11.6-19c4.6-7.4,10-17.5,14.4-28.7c3-10.2,5.5-19.4,7.3-26.2
	C36.1,7.5,38.7,0,38.7,0s3.3,8.6,8.8,22.2c2.9,7.6,7.1,16.9,11.3,26.7c3.4,10,6.6,18.9,10.2,25.4c8,11.4,14.3,18.3,14.3,18.3
	S81.1,98.1,76.6,106.8z M584.6,106.8c-3.1,5.6-7.6,13.2-12.5,22.1c-12.1,26.8-23.6,48.6-23.6,48.6s-7.3-23.5-17.1-46.8
	c-4.1-6.7-8.1-12.9-11.4-18.3c-7-10.4-12-18.9-12-18.9s4.5-7.4,11.6-19c4.6-7.4,10-17.5,14.4-28.7c3-10.2,5.5-19.4,7.3-26.2
	C544.1,7.5,546.7,0,546.7,0s3.3,8.6,8.8,22.2c2.9,7.6,7.1,16.9,11.3,26.7c3.4,10,6.6,18.9,10.2,25.4c8,11.4,14.3,18.3,14.3,18.3
	S589.1,98.1,584.6,106.8z"/>
</svg>
