<?xml version="1.0" encoding="utf-8"?>
<!-- Generator: Adobe Illustrator 22.1.0, SVG Export Plug-In . SVG Version: 6.00 Build 0)  -->
<svg version="1.1" id="Layer_1" xmlns="http://www.w3.org/2000/svg" xmlns:xlink="http://www.w3.org/1999/xlink" x="0px" y="0px"
	 viewBox="0 0 313.3 115.3" style="enable-background:new 0 0 313.3 115.3;" xml:space="preserve">
<style type="text/css">
	.st0{fill:#D7A94C;}
	.st1{fill:#FFFFFF;}
</style>
<g>
	<path class="st1" d="M19.1,88.5c0,2-1.7,3.8-5,3.8c-0.9,0-1.6-0.1-2.4-0.1c-0.3,0-0.6,0-1,0H9.4c-0.1-0.3-0.1-0.5-0.1-0.8
		c0.4-0.1,0.8-0.2,1.2-0.3c0-0.6,0.1-2,0.1-4.8c0-2.9-0.1-4.2-0.1-4.8c-0.4-0.1-0.9-0.1-1.4-0.1c0-0.3,0-0.6,0.1-0.8h1.5
		c0.4,0,0.7,0,1,0c0.9,0,1.6-0.1,2.6-0.1c2.8,0,4.2,0.8,4.2,2.7c0,1.2-0.6,2-1.7,2.6C18.1,86.1,19.1,87,19.1,88.5z M14.1,81.4
		c-0.5,0-1.1,0.1-1.6,0.2c0,0.5,0,1.7,0,4.1c0.7-0.1,1.4-0.2,2.2-0.2c0.2,0,0.4,0,0.6,0c0.7-0.4,1.1-1.1,1.1-2
		C16.5,82.1,15.6,81.4,14.1,81.4z M17,88.5c0-1.3-0.7-2.1-2.5-2.1c-0.5,0-1.2,0.1-1.9,0.2c0,2.5,0,3.7,0,4.3
		c0.7,0.2,1.5,0.3,2.2,0.3C16.2,90.9,17,89.9,17,88.5z"/>
	<path class="st1" d="M28.9,92.2c-1.2,0-2.4,0-3.4,0c-1.3,0-2.3,0-3.6,0h-1.2c-0.1-0.3-0.1-0.5-0.1-0.8c0.4-0.1,0.8-0.2,1.2-0.3
		c0-0.5,0.1-1.7,0.1-4.5c0-3.4-0.1-4.7-0.1-5.1c-0.4-0.1-0.9-0.1-1.4-0.1c0-0.3,0-0.6,0.1-0.8h1.5c0.4,0,0.6,0,1,0
		c0.4,0,0.8,0,1.2,0h1.3c0,0,0.1,0.4,0.1,0.8c-0.4,0.1-1,0.3-1.6,0.5c-0.1,0.6-0.1,1.9-0.1,4.8c0,2.7,0.1,3.9,0.1,4.4
		c0.5,0.1,1.2,0.1,1.9,0.1c0.7,0,1.3,0,1.7-0.1c0.3-0.7,0.5-1.4,0.7-2.1c0.3,0,0.6,0.1,0.8,0.2C29.2,90.1,29.1,91.1,28.9,92.2
		L28.9,92.2z"/>
	<path class="st1" d="M40.6,86c0,3.8-2.2,6.3-5.5,6.3c-3.1,0-5-2.1-5-5.7c0-3.8,2.1-6.3,5.5-6.3C38.7,80.3,40.6,82.4,40.6,86z
		 M32.2,86.3c0,3.3,1.5,5,3.9,5c1.5-0.6,2.4-2.5,2.4-5c0-3.1-1.5-4.8-3.9-4.8C33.1,82,32.2,83.8,32.2,86.3z"/>
	<path class="st1" d="M47.5,80.3c1.6,0,2.9,0.7,3.6,1.4c-0.2,1.1-0.5,2.1-0.9,3.1c-0.3,0-0.6-0.1-0.8-0.2c0.1-0.8,0.2-1.5,0.2-2.2
		c-0.5-0.4-1.4-1-2.9-1c-1.5,0.6-2.4,2.4-2.4,4.8c0,3.3,1.6,4.7,3.5,4.7c1.1,0,2.3-0.5,3-0.9c0.2,0.3,0.3,0.6,0.3,0.9
		c-0.8,0.6-2.4,1.4-4.1,1.4c-2.8,0-4.7-2.1-4.7-5.7C42.2,82.9,44.3,80.3,47.5,80.3L47.5,80.3z"/>
	<path class="st1" d="M63.8,92.2c-0.3,0.1-0.7,0.2-1.1,0.2c-2.7,0-4.5-3.3-5.5-6c-0.5,0.1-1.2,0.2-1.6,0.3c0,3.1,0.1,4.2,0.1,4.6
		c0.4,0.1,0.9,0.1,1.5,0.1c0,0.3,0,0.6-0.1,0.8h-1.5c-0.3,0-0.5,0-1,0c-0.5,0-0.6,0-1,0h-1.2c-0.1-0.3-0.1-0.5-0.1-0.8
		c0.4-0.1,0.8-0.2,1.3-0.4c0-0.7,0.1-2.1,0.1-4.9c0-2.8-0.1-4.1-0.1-4.7c-0.4-0.1-0.9-0.1-1.5-0.1c0-0.3,0-0.6,0.1-0.8h1.5
		c0.3,0,0.5,0,1,0s0.6,0,1,0h1.2c0.1,0.3,0.1,0.5,0.1,0.8c-0.4,0.1-0.8,0.2-1.3,0.4c0,0.6-0.1,1.8-0.1,4.1c0.5-0.1,1.4-0.3,1.9-0.5
		c0.8-1.1,2.2-3,2.5-3.8c-0.4-0.1-0.9-0.1-1.3-0.2c0-0.4,0.1-0.7,0.1-0.8h1.2c0.3,0,0.6,0,0.8,0c0.3,0,0.6,0,0.9,0h1.2
		c0,0.1,0.1,0.4,0.1,0.8c-0.4,0-0.8,0.1-1.2,0.1c-0.7,0.7-2.2,2.8-2.9,3.8c0.7,2.3,2.6,5.9,5,6.2C63.9,91.8,63.9,92,63.8,92.2z"/>
	<path class="st1" d="M69.5,80.3c1.6,0,2.9,0.7,3.6,1.4c-0.2,1.1-0.5,2.1-0.9,3.1c-0.3,0-0.6-0.1-0.8-0.2c0.1-0.8,0.2-1.5,0.2-2.2
		c-0.5-0.4-1.4-1-2.9-1c-1.5,0.6-2.4,2.4-2.4,4.8c0,3.3,1.6,4.7,3.5,4.7c1.1,0,2.3-0.5,3-0.9c0.2,0.3,0.3,0.6,0.3,0.9
		c-0.8,0.6-2.4,1.4-4.1,1.4c-2.8,0-4.7-2.1-4.7-5.7C64.2,82.9,66.3,80.3,69.5,80.3L69.5,80.3z"/>
	<path class="st1" d="M86.4,91.4c0,0.3,0,0.6-0.1,0.8h-1.5c-0.3,0-0.5,0-1,0s-0.7,0-1,0h-1.2c-0.1-0.3-0.1-0.5-0.1-0.8
		c0.4-0.1,0.8-0.2,1.3-0.4c0-0.6,0.1-1.7,0.1-4.2c-0.3,0-1.1,0-2.7,0c-1.5,0-2.3,0-2.6,0c0,2.9,0.1,4.1,0.1,4.5
		c0.4,0.1,0.9,0.1,1.4,0.1c0,0.3,0,0.6-0.1,0.8h-1.5c-0.3,0-0.5,0-1,0s-0.7,0-1,0h-1.2c-0.1-0.3-0.1-0.5-0.1-0.8
		c0.4-0.1,0.8-0.2,1.2-0.4c0-0.6,0.1-1.9,0.1-4.8c0-3.1-0.1-4.4-0.1-4.8c-0.4-0.1-0.9-0.1-1.4-0.1c0-0.3,0-0.6,0.1-0.8h1.5
		c0.3,0,0.5,0,1,0s0.7,0,1,0h1.2c0.1,0.3,0.1,0.5,0.1,0.8c-0.4,0.1-0.8,0.2-1.3,0.4c0,0.6-0.1,1.7-0.1,4c0.3,0,1.1,0,2.6,0
		c1.5,0,2.3,0,2.7,0c0-2.7-0.1-3.8-0.1-4.2c-0.4-0.1-0.9-0.1-1.4-0.1c0-0.3,0-0.6,0.1-0.8h1.5c0.3,0,0.5,0,1,0c0.4,0,0.6,0,0.9,0
		l0,0h0h0H86c0.1,0.3,0.1,0.5,0.1,0.8c-0.4,0.1-0.8,0.2-1.2,0.3c0,0.6-0.1,1.9-0.1,4.6c0,3.3,0.1,4.5,0.1,5
		C85.4,91.3,85.8,91.4,86.4,91.4z"/>
	<path class="st1" d="M98.7,91.4c0,0.3,0,0.6-0.1,0.8h-0.9c-0.4,0-0.9,0-1.3,0s-0.6,0-0.9,0h-1.3c0,0-0.1-0.4-0.1-0.8
		c0.4-0.1,0.9-0.2,1.3-0.4c-0.2-0.7-0.5-1.8-0.8-3.1c-1,0-3.1,0-4,0c-0.4,1.4-0.8,2.6-0.8,3.3c0.4,0.1,0.9,0.1,1.4,0.2
		c0,0.4-0.1,0.7-0.1,0.8h-1.2c-0.3,0-0.7,0-1,0c-0.3,0-0.5,0-0.8,0h-0.8c0-0.1-0.1-0.4-0.1-0.8c0.3-0.1,0.6-0.3,0.9-0.4
		c0.9-2.1,3.8-9.8,4.2-10.5c0.6,0,1.3-0.1,2-0.2c0.1,0.9,3,9.2,3.8,11C98.2,91.3,98.5,91.3,98.7,91.4z M94.2,86.9
		c-0.5-1.8-1.2-3.6-1.6-4.8c-0.5,1.1-1.2,3-1.8,4.8C91.7,86.9,93.3,86.9,94.2,86.9z"/>
	<path class="st1" d="M104.7,91.4c0,0.3,0,0.6-0.1,0.8h-1.5c-0.3,0-0.5,0-1,0c-0.5,0-0.6,0-1,0h-1.2c-0.1-0.3-0.1-0.5-0.1-0.8
		c0.4-0.1,0.8-0.2,1.3-0.4c0-0.7,0.1-2.2,0.1-5.2c0-2.7-0.1-3.9-0.1-4.4c-0.4-0.1-0.9-0.1-1.4-0.1c0-0.3,0-0.6,0.1-0.8h1.5
		c0.3,0,0.5,0,1,0s0.7,0,1,0h1.2c0.1,0.3,0.1,0.5,0.1,0.8c-0.4,0.1-0.8,0.2-1.3,0.4c0,0.6-0.1,1.8-0.1,4.2c0,3.3,0.1,4.8,0.1,5.4
		C103.7,91.3,104.2,91.4,104.7,91.4z"/>
	<path class="st1" d="M116.1,86.7c0,4.6,0.1,5.2,0.1,5.2c-0.4,0.2-0.9,0.4-1.5,0.4c-1.4-2-4.9-7.4-6.3-9.3c0,0.4,0,1.1,0,2.2
		c0,4,0.2,5.5,0.4,6.1c0.4,0,0.8,0.1,1.3,0.1c0,0.3,0,0.6-0.1,0.8h-1.5c-0.2,0-0.4,0-0.6,0s-0.4,0-0.6,0h-1.2
		c-0.1-0.3-0.1-0.5-0.1-0.8c0.4-0.1,0.8-0.2,1.2-0.3c0.1-0.6,0.1-2,0.1-4.9c0-3-0.1-4.2-0.1-4.7c-0.4-0.1-0.9-0.1-1.4-0.1
		c0-0.3,0-0.6,0.1-0.8h1.5c0.6,0,1.3-0.1,1.8-0.1c0.5,1.1,4.2,6.4,5.8,8.6c0-0.5,0.1-1.3,0.1-2.3c0-3.6-0.2-4.9-0.3-5.3
		c-0.4,0-0.8-0.1-1.3-0.1c0-0.3,0-0.6,0.1-0.8h1.5c0.2,0,0.3,0,0.5,0c0.2,0,0.3,0,0.5,0h1.2c0.1,0.3,0.1,0.5,0.1,0.8
		c-0.4,0.1-0.8,0.2-1.2,0.3C116.2,82.2,116.1,83.6,116.1,86.7z"/>
	<path class="st1" d="M132.9,83.9c-0.3,0.1-0.6,0.1-0.9,0.1c-0.1-0.7-0.2-1.5-0.3-2.3c-0.3-0.1-0.8-0.1-1.7-0.1c-0.5,0-0.8,0-1.1,0
		c0,0.6-0.1,2-0.1,4.9c0,3,0.1,4.3,0.1,4.8c0.5,0.1,1.1,0.1,1.8,0.2c0,0.3,0,0.6-0.1,0.8h-1.8c-0.4,0-0.6,0-1,0c-0.4,0-0.6,0-1,0
		h-1.6c-0.1-0.3-0.1-0.5-0.1-0.8c0.5-0.1,1-0.3,1.6-0.4c0-0.7,0.1-2,0.1-4.6c0-2.9-0.1-4.3-0.1-4.9c-0.3,0-0.6,0-1.1,0
		c-0.7,0-1.2,0-1.5,0.1c-0.3,0.7-0.5,1.5-0.7,2.3c-0.3,0-0.6,0-0.8-0.2c0-1,0.1-2.2,0.3-3.3c1.7,0,3.3,0,5,0c1.7,0,3.4,0,5.1,0h0
		C133.1,81.6,133,82.8,132.9,83.9z"/>
	<path class="st1" d="M145.4,92.2c-0.3,0.1-0.7,0.2-1.1,0.2c-2.5,0-4.3-2.9-5.3-5.5c-0.2,0-0.3,0-0.5,0c-0.4,0-0.8,0-1.2-0.1
		c0,2.7,0.1,3.9,0.2,4.5c0.4,0.1,0.9,0.1,1.4,0.1c0,0.3,0,0.6-0.1,0.8h-1.5c-0.3,0-0.6,0-1,0c-0.3,0-0.7,0-1,0h-1.2
		c-0.1-0.3-0.1-0.5-0.1-0.8c0.4-0.1,0.8-0.2,1.3-0.4c0-0.6,0.1-1.9,0.1-4.3c0-3.4-0.1-4.8-0.1-5.3c-0.4-0.1-0.9-0.1-1.4-0.1
		c0-0.3,0-0.6,0.1-0.8h1.5c0.4,0,0.7,0,1,0c0.9,0,1.6-0.1,2.5-0.1c3,0,4.4,1,4.4,2.9c0,1.6-1,2.5-2.4,2.9c0.8,2.1,2.7,5,4.7,5.3
		C145.6,91.8,145.6,92,145.4,92.2z M139.4,86.1c1-0.2,1.9-1.1,1.9-2.5c0-1.4-0.9-2.1-2.5-2.1c-0.5,0-1,0.1-1.5,0.2
		c0,0.5,0,1.7,0.1,4.1C138,85.9,138.7,86.1,139.4,86.1z"/>
	<path class="st1" d="M157.2,91.4c0,0.3,0,0.6-0.1,0.8h-0.9c-0.4,0-0.9,0-1.3,0s-0.6,0-0.9,0h0h-1.3c0,0-0.1-0.4-0.1-0.8
		c0.4-0.1,0.9-0.2,1.3-0.4c-0.2-0.7-0.5-1.8-0.8-3.1c-1,0-3.1,0-4,0c-0.4,1.4-0.8,2.6-0.8,3.3c0.4,0.1,0.9,0.1,1.4,0.2
		c0,0.4-0.1,0.7-0.1,0.8h-1.2c-0.3,0-0.7,0-1,0c-0.3,0-0.5,0-0.8,0h-0.8c0-0.1-0.1-0.4-0.1-0.8c0.3-0.1,0.6-0.3,0.9-0.4
		c0.9-2.1,3.8-9.8,4.2-10.5c0.6,0,1.3-0.1,2-0.2c0.1,0.9,3,9.2,3.8,11C156.7,91.3,156.9,91.3,157.2,91.4z M152.7,86.9
		c-0.5-1.8-1.2-3.6-1.6-4.8c-0.5,1.1-1.2,3-1.8,4.8C150.1,86.9,151.8,86.9,152.7,86.9z"/>
	<path class="st1" d="M169.2,86c0,3.7-2.2,6.2-6.2,6.2c-0.9,0-2.4-0.1-3.3-0.1h-1.2c-0.1-0.3-0.1-0.5-0.1-0.8
		c0.4-0.1,0.8-0.2,1.2-0.3c0.1-0.6,0.1-2,0.1-4.8c0-2.9-0.1-4.2-0.2-4.8c-0.4-0.1-0.9-0.1-1.4-0.1c0-0.3,0-0.6,0.1-0.8h1.5
		c1.2,0,2.5-0.1,3.5-0.1C166.9,80.4,169.2,82.5,169.2,86z M167.1,86.3c0-2.8-1.3-4.8-4-4.8c-0.4,0-0.9,0-1.5,0.1c0,0.5,0,1.8,0,4.6
		c0,2.5,0,3.9,0,4.7c0.8,0.2,1.9,0.3,2.9,0.3C166.1,90.4,167.1,88.6,167.1,86.3z"/>
	<path class="st1" d="M175.6,91.4c0,0.3,0,0.6-0.1,0.8h-1.5c-0.3,0-0.5,0-1,0s-0.6,0-1,0h-1.2c-0.1-0.3-0.1-0.5-0.1-0.8
		c0.4-0.1,0.8-0.2,1.3-0.4c0-0.7,0.1-2.2,0.1-5.2c0-2.7-0.1-3.9-0.1-4.4c-0.4-0.1-0.9-0.1-1.4-0.1c0-0.3,0-0.6,0.1-0.8h1.5
		c0.3,0,0.5,0,1,0c0.5,0,0.7,0,1,0h1.2c0.1,0.3,0.1,0.5,0.1,0.8c-0.4,0.1-0.8,0.2-1.3,0.4c0,0.6-0.1,1.8-0.1,4.2
		c0,3.3,0.1,4.8,0.1,5.4C174.6,91.3,175.1,91.4,175.6,91.4z"/>
	<path class="st1" d="M187.2,81.6c-0.1,0.6-0.2,2-0.2,5.1c0,4.6,0.1,5.2,0.1,5.2c-0.4,0.2-0.9,0.4-1.5,0.4c-1.4-2-4.9-7.4-6.3-9.3
		c0,0.4,0,1.1,0,2.2c0,4,0.2,5.5,0.4,6.1c0.4,0,0.8,0.1,1.3,0.1c0,0.3,0,0.6-0.1,0.8h-1.5c-0.2,0-0.4,0-0.6,0c-0.2,0-0.4,0-0.6,0
		h-1.2c-0.1-0.3-0.1-0.5-0.1-0.8c0.4-0.1,0.8-0.2,1.2-0.3c0.1-0.6,0.1-2,0.1-4.9c0-3-0.1-4.2-0.1-4.7c-0.4-0.1-0.9-0.1-1.4-0.1
		c0-0.3,0-0.6,0.1-0.8h1.5c0.6,0,1.3-0.1,1.8-0.1c0.5,1.1,4.2,6.4,5.8,8.6c0-0.5,0.1-1.3,0.1-2.3c0-3.6-0.2-4.9-0.3-5.3
		c-0.4,0-0.8-0.1-1.3-0.1c0-0.3,0-0.6,0.1-0.8h1.5c0.2,0,0.3,0,0.5,0s0.3,0,0.5,0h1.2c0.1,0.3,0.1,0.5,0.1,0.8
		C188.1,81.4,187.7,81.5,187.2,81.6L187.2,81.6z"/>
	<path class="st1" d="M199.3,87.8c0,0.3-0.1,1-0.1,2.2c0,1.1,0.1,1.8,0.1,2c-0.3,0.2-0.7,0.3-1.2,0.3c-0.1-0.3-0.2-0.8-0.4-1.2
		c-0.9,0.8-2,1.3-3.2,1.3c-2.7,0-4.7-2.1-4.7-5.6c0-4,2.5-6.5,5.8-6.5c1.3,0,2.6,0.4,3.5,1.1c-0.2,1.1-0.6,2.1-1,3
		c-0.3,0-0.6-0.1-0.9-0.2c0.1-0.6,0.1-1.2,0.2-1.9c-0.7-0.6-1.7-0.9-2.9-0.9c-1.7,0.7-2.6,2.5-2.6,5c0,3.2,1.6,4.9,3.3,4.9
		c0.6,0,1.3-0.3,1.9-0.7c0-0.3,0.1-0.8,0.1-1.4c0-0.8-0.1-1.3-0.1-1.5c-0.5-0.1-1.1-0.1-1.7-0.1c0-0.3,0-0.6,0.1-0.8
		c1.4,0.1,2.9,0.1,4.4,0c0.1,0.3,0.1,0.5,0.1,0.8C199.9,87.6,199.6,87.7,199.3,87.8L199.3,87.8z"/>
	<path class="st1" d="M211,80.3c1.6,0,2.9,0.7,3.6,1.4c-0.2,1.1-0.5,2.1-0.9,3.1c-0.3,0-0.6-0.1-0.8-0.2c0.1-0.8,0.2-1.5,0.2-2.2
		c-0.5-0.4-1.4-1-2.9-1c-1.5,0.6-2.4,2.4-2.4,4.8c0,3.3,1.6,4.7,3.5,4.7c1.1,0,2.3-0.5,3-0.9c0.2,0.3,0.3,0.6,0.3,0.9
		c-0.8,0.6-2.4,1.4-4.1,1.4c-2.8,0-4.7-2.1-4.7-5.7C205.7,82.9,207.8,80.3,211,80.3L211,80.3z"/>
	<path class="st1" d="M226.7,91.4c0,0.3,0,0.6-0.1,0.8h-0.9c-0.4,0-0.9,0-1.3,0s-0.6,0-0.9,0h-1.3c0,0-0.1-0.4-0.1-0.8
		c0.4-0.1,0.9-0.2,1.3-0.4c-0.2-0.7-0.5-1.8-0.8-3.1c-1,0-3.1,0-4,0c-0.4,1.4-0.8,2.6-0.8,3.3c0.4,0.1,0.9,0.1,1.4,0.2
		c0,0.4-0.1,0.7-0.1,0.8h-1.2c-0.3,0-0.7,0-1,0c-0.3,0-0.5,0-0.8,0h-0.8c0-0.1-0.1-0.4-0.1-0.8c0.3-0.1,0.6-0.3,0.9-0.4
		c0.9-2.1,3.8-9.8,4.2-10.5c0.6,0,1.3-0.1,2-0.2c0.1,0.9,3,9.2,3.8,11C226.2,91.3,226.5,91.3,226.7,91.4z M222.2,86.9
		c-0.5-1.8-1.2-3.6-1.6-4.8c-0.5,1.1-1.2,3-1.8,4.8C219.7,86.9,221.3,86.9,222.2,86.9z"/>
	<path class="st1" d="M239.2,92.2c-0.3,0.1-0.7,0.2-1.1,0.2c-2.5,0-4.3-2.9-5.3-5.5c-0.2,0-0.3,0-0.5,0c-0.4,0-0.8,0-1.2-0.1
		c0,2.7,0.1,3.9,0.2,4.5c0.4,0.1,0.9,0.1,1.4,0.1c0,0.3,0,0.6-0.1,0.8h-1.5c-0.3,0-0.6,0-1,0c-0.3,0-0.7,0-1,0h-1.2
		c-0.1-0.3-0.1-0.5-0.1-0.8c0.4-0.1,0.8-0.2,1.3-0.4c0-0.6,0.1-1.9,0.1-4.3c0-3.4-0.1-4.8-0.1-5.3c-0.4-0.1-0.9-0.1-1.4-0.1
		c0-0.3,0-0.6,0.1-0.8h1.5c0.4,0,0.7,0,1,0c0.9,0,1.6-0.1,2.5-0.1c3,0,4.4,1,4.4,2.9c0,1.6-1,2.5-2.4,2.9c0.8,2.1,2.7,5,4.7,5.3
		C239.4,91.8,239.4,92,239.2,92.2z M231.1,85.8c0.6,0.2,1.4,0.3,2,0.3c1-0.2,1.9-1.1,1.9-2.5c0-1.4-0.9-2.1-2.5-2.1
		c-0.5,0-1,0.1-1.5,0.2C231.1,82.2,231.1,83.4,231.1,85.8L231.1,85.8z"/>
	<path class="st1" d="M250.9,86c0,3.7-2.2,6.2-6.2,6.2c-0.9,0-2.4-0.1-3.3-0.1h-1.2c-0.1-0.3-0.1-0.5-0.1-0.8
		c0.4-0.1,0.8-0.2,1.2-0.3c0.1-0.6,0.1-2,0.1-4.8c0-2.9-0.1-4.2-0.2-4.8c-0.4-0.1-0.9-0.1-1.4-0.1c0-0.3,0-0.6,0.1-0.8h1.5
		c1.2,0,2.5-0.1,3.5-0.1C248.7,80.4,250.9,82.5,250.9,86z M248.8,86.3c0-2.8-1.3-4.8-4-4.8c-0.4,0-0.9,0-1.5,0.1c0,0.5,0,1.8,0,4.6
		c0,2.5,0,3.9,0,4.7c0.8,0.2,1.9,0.3,2.9,0.3C247.9,90.4,248.8,88.6,248.8,86.3z"/>
	<path class="st1" d="M266.2,87.8c0,0.3-0.1,1-0.1,2.2c0,1.1,0.1,1.8,0.1,2c-0.3,0.2-0.7,0.3-1.2,0.3c-0.1-0.3-0.2-0.8-0.4-1.2
		c-0.9,0.8-2,1.3-3.2,1.3c-2.7,0-4.7-2.1-4.7-5.6c0-4,2.5-6.5,5.8-6.5c1.3,0,2.6,0.4,3.5,1.1c-0.2,1.1-0.6,2.1-1,3
		c-0.3,0-0.6-0.1-0.9-0.2c0.1-0.6,0.1-1.2,0.2-1.9c-0.7-0.6-1.7-0.9-2.9-0.9c-1.7,0.7-2.6,2.5-2.6,5c0,3.2,1.6,4.9,3.3,4.9
		c0.6,0,1.3-0.3,1.9-0.7c0-0.3,0.1-0.8,0.1-1.4c0-0.8-0.1-1.3-0.1-1.5c-0.5-0.1-1.1-0.1-1.7-0.1c0-0.3,0-0.6,0.1-0.8
		c1.4,0.1,2.9,0.1,4.4,0c0.1,0.3,0.1,0.5,0.1,0.8C266.7,87.6,266.5,87.7,266.2,87.8L266.2,87.8z"/>
	<path class="st1" d="M279,91.4c0,0.3,0,0.6-0.1,0.8H278c-0.4,0-0.9,0-1.3,0c-0.4,0-0.6,0-0.9,0h-1.3c0,0-0.1-0.4-0.1-0.8
		c0.4-0.1,0.9-0.2,1.3-0.4c-0.2-0.7-0.5-1.8-0.8-3.1c-1,0-3.1,0-4,0c-0.4,1.4-0.8,2.6-0.8,3.3c0.4,0.1,0.9,0.1,1.4,0.2
		c0,0.4-0.1,0.7-0.1,0.8h-1.2c-0.3,0-0.7,0-1,0c-0.3,0-0.5,0-0.8,0h-0.8c0-0.1-0.1-0.4-0.1-0.8c0.3-0.1,0.6-0.3,0.9-0.4
		c0.9-2.1,3.8-9.8,4.2-10.5c0.6,0,1.3-0.1,2-0.2c0.1,0.9,3,9.2,3.8,11C278.5,91.3,278.8,91.3,279,91.4z M274.5,86.9
		c-0.5-1.8-1.2-3.6-1.6-4.8c-0.5,1.1-1.2,3-1.8,4.8C272,86.9,273.6,86.9,274.5,86.9z"/>
	<path class="st1" d="M293.7,91.3c0.4,0,0.8,0.1,1.3,0.1c0,0.3,0,0.6-0.1,0.8h-1.5c-0.3,0-0.6,0-0.9,0c-0.3,0-0.6,0-0.9,0h-1.3
		c0,0-0.1-0.4-0.1-0.8c0.3-0.1,0.8-0.2,1.2-0.4c0-1.7-0.4-6.8-0.4-8.4c-0.8,1.9-3.1,8-3.3,8.9c-0.3,0.2-0.7,0.3-1.2,0.2
		c-0.8-0.9-2.8-6.5-3.5-9.1c-0.3,2.3-0.8,7.4-0.5,8.6c0.4,0.1,0.8,0.1,1.3,0.1c0,0.4-0.1,0.7-0.1,0.8h-1.2c-0.2,0-0.5,0-0.7,0
		c-0.2,0-0.5,0-0.7,0h-1.2c-0.1-0.3-0.1-0.5-0.1-0.8c0.4-0.1,0.8-0.2,1.2-0.3c0.3-1.7,1-8.2,1-9.6c-0.4-0.1-0.8-0.1-1.3-0.2
		c0-0.4,0.1-0.7,0.1-0.8h1.2c0.6,0,1.5-0.1,2.1-0.1c0.2,0.7,2.4,6.3,3.3,8.3c1.1-2.7,2.9-7.3,3.1-8.2c0.4,0,0.8,0,1.1,0
		c0.3,0,0.8,0,1.1,0h1.3c0,0,0.1,0.4,0.1,0.8c-0.4,0.1-0.9,0.3-1.4,0.4C292.8,83.6,293.4,89.8,293.7,91.3L293.7,91.3z"/>
	<path class="st1" d="M304.8,89.5c0,0.9-0.1,1.8-0.2,2.7c-1.2,0-2.3,0-3.5,0c-1.2,0-2.5,0-3.7,0h-1.2c-0.1-0.3-0.1-0.5-0.1-0.8
		c0.4-0.1,0.8-0.2,1.3-0.4c0-0.7,0.1-2.1,0.1-4.8c0-2.9-0.1-4.2-0.1-4.7c-0.4-0.1-0.9-0.1-1.4-0.1c0-0.3,0-0.6,0.1-0.8h1.5
		c0.6,0,1.4,0,3.4,0c2,0,3,0,3.5,0c0.1,0.9,0.1,1.7,0.1,2.5c-0.3,0.1-0.5,0.1-0.8,0.1c-0.1-0.5-0.3-0.9-0.4-1.4
		c-0.3-0.1-1-0.1-1.8-0.1c-0.8,0-1.4,0-1.9,0.1c0,0.5-0.1,1.7-0.1,4.1c1.8,0,2.5-0.1,2.8-0.2c0.1-0.4,0.2-0.8,0.3-1.3
		c0.3,0,0.6,0.1,0.8,0.1c-0.2,1.1-0.3,2.3-0.3,3.5c-0.3,0-0.5,0.1-0.8,0c-0.1-0.4-0.1-0.8-0.2-1.3c-0.3-0.1-1-0.1-2.5-0.1
		c0,2.6,0.1,3.8,0.2,4.3c0.5,0.1,1.1,0.1,1.8,0.1c0.9,0,1.6,0,2-0.1c0.2-0.5,0.4-1.1,0.6-1.6C304.2,89.3,304.5,89.4,304.8,89.5
		L304.8,89.5z"/>
</g>
<g>
	<path class="st1" d="M9.2,110.2c4.8-2.1,6.6-5.9,7.2-9.2c0,0,0-0.1,0-0.1c0-0.1-0.1-0.1-0.2-0.1c-0.1,0-5.6,0.4-6.4,0.7
		c-0.2,0.1-0.4,0.2-0.6,0.2c-0.5,0-1.2-0.9-1.2-1.5c0-0.3,0.2-0.4,0.4-0.5l0,0c0.2,0.8,0.9,0.8,1.5,0.8c0.8,0,5-0.2,5.9-0.3
		c0.3,0,0.4-0.4,0.6-0.4c0.4,0,1.4,0.9,1.4,1.2c0,0.1-0.1,0.2-0.2,0.3c-0.1,0.1-0.1,0.1-0.2,0.3c-0.9,3.2-3,7-8,8.8L9.2,110.2z
		 M16.8,98.2c1,0.4,1.9,1.2,1.9,1.8c0,0.4-0.2,0.5-0.4,0.5c-0.2,0-0.3-0.1-0.4-0.4c-0.2-0.5-0.6-1.2-1.3-1.7L16.8,98.2z M18.4,97.7
		c1.1,0.4,1.9,1.2,1.9,1.8c0,0.4-0.2,0.5-0.4,0.5c-0.2,0-0.3-0.1-0.4-0.4c-0.2-0.5-0.5-1.2-1.3-1.7L18.4,97.7z"/>
	<path class="st1" d="M22.5,100.8c0.1-0.2,0.4-0.3,0.6-0.3c0.3,0,0.9,0.4,1.2,0.7c0.2,0,0.4,0,0.6,0c1.3,0,4.9-0.1,6.1-0.2
		c0.2,0,0.3-0.1,0.5-0.2c0.1-0.1,0.3-0.3,0.4-0.3c0.3,0,1.3,0.8,1.3,1c0,0.1-0.1,0.2-0.4,0.3c-0.2,0.1-0.2,0.2-0.2,0.4
		c-0.1,0.8-0.3,3.5-0.6,5.1c0.4,0.2,0.9,0.5,0.9,0.7c0,0.3-0.2,0.3-0.6,0.3c-0.3,0-0.9-0.1-1.6-0.1c-0.3,0-0.7,0-1.2,0
		c-1.5,0-3.5,0.1-4.7,0.2c0,0.8,0,1.1-0.3,1.1c-0.4,0-0.7-0.5-0.7-1c0-0.1,0-0.8,0-1c0-0.4-0.2-4.1-0.3-5.3
		C23.3,101.5,23.2,100.9,22.5,100.8L22.5,100.8z M25,102c-0.2,0-0.4-0.1-0.6-0.2c0,0.2,0,0.3,0,0.6c0,0.8,0.1,3.9,0.2,5.3
		c1.6-0.1,4.6-0.2,5.7-0.3c0.3,0,0.6-0.1,0.8-0.2c0.2-1.9,0.3-4.5,0.3-5.6c0-0.1,0-0.1-0.1-0.1c-0.9,0-4.6,0.2-5.3,0.3L25,102z"/>
	<path class="st1" d="M37.8,102.6c1,0.5,1.8,1.5,1.8,2.3c0,0.4-0.2,0.7-0.5,0.7c-0.3,0-0.4-0.1-0.5-0.5c0-0.8-0.5-1.7-1.1-2.3
		L37.8,102.6z M39.6,110.4c4.6-2.2,5.9-6.8,5.9-7.5c0-0.4-0.5-0.5-0.8-0.5c0-0.1,0.2-0.4,0.6-0.4c0.6,0,1.5,0.6,1.5,1
		c0,0.2-0.2,0.2-0.3,0.3c0,0-0.1,0.1-0.1,0.2c-1,3.1-3,5.7-6.5,7.1L39.6,110.4z M41.1,101.9c1.1,0.8,1.5,1.7,1.5,2.4
		c0,0.6-0.2,0.9-0.5,0.9c-0.3,0-0.5-0.2-0.5-0.5c0-0.7-0.1-1.6-0.8-2.6L41.1,101.9z"/>
	<path class="st1" d="M51.6,105.1c2.6-2.1,4-5.2,4-6c0-0.4-0.6-0.5-0.8-0.5c0.1-0.2,0.3-0.4,0.8-0.4c0.6,0,1.6,0.6,1.6,1
		c0,0.2-0.2,0.2-0.3,0.3c-0.1,0.1-0.2,0.2-0.3,0.4c-0.2,0.5-0.5,1-0.8,1.5c0.6,0.1,2.9-0.2,3.8-0.3c0.3,0,0.4-0.1,0.5-0.3
		c0.1-0.1,0.2-0.2,0.3-0.2c0.3,0,1.2,0.7,1.2,1c0,0.2-0.2,0.2-0.4,0.3c-0.1,0.1-0.3,0.3-0.4,0.5c-1.3,3.5-3.5,6.5-8,8.2l-0.2-0.3
		c3.8-1.9,6.1-5,7.2-8.4c0-0.1,0-0.2,0-0.2c0-0.1,0-0.1-0.1-0.1c-0.6,0-3.1,0.5-3.5,0.5c-0.4,0-0.7-0.1-0.8-0.2
		c-0.8,1.3-2,2.6-3.6,3.5L51.6,105.1z"/>
	<path class="st1" d="M72.3,98.6c0-0.1,0.2-0.3,0.5-0.3c0.7,0,1.8,0.7,1.8,1.3c0,0.3-0.5,0.2-0.7,0.3c-0.7,0.2-1.5,0.4-2.2,0.6
		c0.2,0.2,0.5,0.4,0.5,0.5c0,0.1-0.1,0.2-0.1,0.3c-0.1,0.1-0.1,0.2-0.1,0.5c0,0.5-0.1,1.1-0.1,1.7c0.9-0.1,1.9-0.1,2.4-0.2
		c0.6,0,0.9,0,1.3-0.4c0.6,0.1,1.6,0.5,1.6,0.8c0,0.3-0.2,0.3-0.6,0.3c-0.3,0-1.1-0.1-1.6-0.1c-0.3,0-0.7,0-1.2,0
		c-0.6,0-1.2,0-2,0.1c-0.3,2.9-1.4,5.2-4.8,6.6l-0.2-0.3c2.7-1.5,3.8-3.7,4-6.3c-0.6,0-3.4,0.3-4.1,0.6c-0.3,0.1-0.4,0.2-0.6,0.2
		c-0.6,0-1.3-0.7-1.3-1.1c0-0.2,0.1-0.5,0.2-0.6l0.1,0c0.1,0.3,0.2,0.5,0.4,0.6c0.2,0.1,0.6,0.1,1.1,0.1c0.5,0,2.4-0.1,4.2-0.3
		c0.1-0.6,0.1-1.3,0.1-1.9c0-0.5,0-0.8-0.2-1c-1.5,0.3-3.4,0.6-5.1,0.7l-0.1-0.3c2.7-0.4,5.4-1.1,6.8-1.6c0.5-0.2,0.6-0.3,0.6-0.5
		C73,98.8,72.7,98.7,72.3,98.6L72.3,98.6z"/>
	<path class="st1" d="M90.2,109.5c0,0.2-0.1,0.3-0.4,0.3c-0.3,0-0.6-0.1-1-0.1c-1.1-0.1-1.5-0.1-1.8-0.1c-1.2,0-3.1,0.1-4.7,0.4
		c-0.5,0.1-0.6,0.2-0.8,0.2c-0.4,0-1.1-0.7-1.1-1.2c0-0.5,0.2-0.5,0.3-0.6c0.1,0.8,1,0.9,1.2,0.9c0.4,0,2.4-0.1,2.9-0.1
		c0-0.8,0.1-2,0.1-2.9c0-1.6-0.1-1.8-0.3-2c-0.3,0-0.5,0.1-0.8,0.1c-0.6,0.1-0.6,0.2-0.9,0.2c-0.6,0-1.2-0.6-1.2-1
		c0-0.3,0.1-0.5,0.2-0.5c0,0.1,0.3,0.6,1.4,0.6c1.1,0,2.1-0.1,3.2-0.3c0.8-0.1,0.7-0.3,1-0.3c0.4,0,1.3,0.2,1.3,0.6
		c0,0.3-0.3,0.4-0.6,0.4c-0.1,0-0.9,0-1,0c-0.5,0-1.2,0.1-1.7,0.1c0.3,0.2,0.5,0.4,0.5,0.6c0,0.3-0.2,0.1-0.2,0.7
		c0,0.9-0.1,2.7-0.2,3.6c0.7,0,1.9-0.1,2.5-0.1c0.3,0,0.5-0.1,0.7-0.3C89.4,108.8,90.2,109,90.2,109.5z"/>
	<path class="st1" d="M102.4,103.9c0.9,0,1.5-0.1,1.7-0.1c0.7,0,1.6,0.2,1.6,0.6c0,0.2-0.3,0.4-0.8,0.4c-0.3,0-0.6,0-0.8,0
		c-0.6,0-1.7,0-2.6,0c-1.7,0-5.5,0-6.2,0.3c-0.2,0.1-0.4,0.2-0.6,0.2c-0.5,0-1.5-0.9-1.5-1.5c0-0.3,0.1-0.5,0.3-0.7l0.1,0
		c0.2,0.8,0.7,0.9,2.2,0.9H102.4z"/>
	<path class="st1" d="M108.9,99.7c1.6,0.2,4.1,1.1,4.1,2.4c0,0.3-0.2,0.6-0.6,0.6c-0.3,0-0.6-0.4-0.8-0.6c-0.5-0.6-1.5-1.6-2.8-2
		L108.9,99.7z M120.1,100.8c-1.8,4-5,6.8-8.6,8.5c-0.7,0.3-0.7,0.7-1,0.7c-0.5,0-1.6-0.8-1.6-1.6c0-0.2,0.2-0.5,0.4-0.6
		c0.1,0.4,0.4,0.8,0.9,0.8c1,0,6.8-2.9,9.5-8L120.1,100.8z"/>
	<path class="st1" d="M125.1,98.9c0.1-0.2,0.4-0.5,0.7-0.5c0.7,0,1.8,0.5,1.8,1c0,0.1-0.1,0.2-0.2,0.4c0,0.1-0.1,0.2-0.1,0.4
		c0,0.6-0.1,1.8-0.1,2.9c1.7,0.2,3.2,0.6,4.1,1.1c0.8,0.5,1.2,0.8,1.2,1.3c0,0.3-0.2,0.5-0.5,0.5c-0.4,0-0.8-0.3-1.1-0.7
		c-0.6-0.6-2-1.4-3.7-1.8c0,1,0,2.1,0,3c0,0.5,0.1,2.8,0.1,3.3c0,0.6-0.3,0.9-0.6,0.9c-0.5,0-0.7-1.3-0.8-1.8
		c0.1-0.1,0.2-0.4,0.3-0.6c0.1-0.7,0.2-1.6,0.2-4.7c0-1.3,0-2.6-0.1-3.2C126.3,99.6,126.2,98.9,125.1,98.9L125.1,98.9z"/>
	<path class="st1" d="M137.9,99.4c0.1-0.3,0.4-0.6,0.8-0.6c0.6,0,1.7,0.5,1.7,0.9c0,0.2-0.1,0.3-0.2,0.5c-0.1,0.2-0.1,0.4-0.1,0.6
		c-0.1,1.4-0.2,6.1-0.2,7.5c0,0.2,0,0.2,0.1,0.2c0.2,0,5.4-1.1,8.6-5.7l0.3,0.2c-1.6,3.1-4.7,5.2-8.1,6.4c-0.3,0.1-0.5,0.3-0.7,0.5
		c-0.1,0.2-0.3,0.3-0.4,0.3c-0.2,0-1-0.8-1-1.1c0-0.2,0.1-0.3,0.2-0.5c0.1-0.2,0.1-0.4,0.2-1c0-1.4,0.1-4.1,0.1-5.9
		c0-1.5,0-2-0.4-2.2C138.5,99.4,138.2,99.4,137.9,99.4L137.9,99.4z"/>
	<path class="st1" d="M159.6,103.9c0.9,0,1.5-0.1,1.7-0.1c0.7,0,1.6,0.2,1.6,0.6c0,0.2-0.3,0.4-0.8,0.4c-0.3,0-0.6,0-0.8,0
		c-0.6,0-1.7,0-2.6,0c-1.7,0-5.5,0-6.2,0.3c-0.2,0.1-0.4,0.2-0.6,0.2c-0.5,0-1.5-0.9-1.5-1.5c0-0.3,0.1-0.5,0.3-0.7l0.1,0
		c0.2,0.8,0.7,0.9,2.2,0.9H159.6z"/>
	<path class="st1" d="M165.4,102.5c0.2,0.6,0.9,0.8,1.5,0.8c0.5,0,6.3-0.6,7.4-0.6c0.4,0,0.7-0.1,1-0.4c0.9,0.3,1.7,0.5,1.7,1
		c0,0.2-0.3,0.3-0.6,0.3c-0.3,0-1-0.1-2-0.2c-0.1,0-0.3,0-0.4,0c-0.7,0-1.5,0.1-2.3,0.1c0.2,0.1,0.4,0.4,0.4,0.5
		c0,0.3-0.2,0.3-0.3,0.7c-0.5,2.5-1.7,4.6-4.3,6.1l-0.3-0.3c2.2-1.5,3.2-3.7,3.5-5.7c0-0.2,0.1-0.4,0.1-0.6c0-0.3,0-0.4-0.1-0.6
		c-0.8,0.1-2.5,0.3-3.4,0.4c-0.5,0.1-0.7,0.3-1,0.3c-0.5,0-1.3-0.8-1.3-1.2C165.1,102.8,165.2,102.6,165.4,102.5L165.4,102.5z
		 M167.1,99.3c0.5,0.4,0.9,0.4,1.8,0.4c0.8,0,2-0.2,3-0.4c0.3-0.1,0.7-0.1,1-0.4c0.7,0.1,1.5,0.3,1.5,0.7c0,0.3-0.8,0.4-1.4,0.4
		c-1.3,0-3.2,0.4-4.2,0.4C168.2,100.4,167.3,100.3,167.1,99.3L167.1,99.3z M174.7,98.2c1,0.5,1.8,1.3,1.8,1.9c0,0.4-0.2,0.5-0.3,0.5
		c-0.2,0-0.4-0.1-0.5-0.4c-0.2-0.6-0.6-1.4-1.2-1.9L174.7,98.2z M176.3,97.4c1,0.5,1.9,1.3,1.9,2c0,0.4-0.1,0.5-0.3,0.5
		c-0.2,0-0.4-0.1-0.5-0.4c-0.2-0.5-0.7-1.5-1.3-1.9L176.3,97.4z"/>
	<path class="st1" d="M180.2,107.5c4.9-2.2,7.6-5.2,7.6-5.7c0-0.2-0.3-0.4-0.7-0.4c0-0.2,0.3-0.3,0.6-0.3c0.7,0,1.5,0.7,1.5,1.1
		c0,0.2-0.1,0.1-0.3,0.2c-0.1,0-0.3,0.1-0.4,0.2c-0.8,0.8-1.6,1.6-2.6,2.3c0.2,0.1,0.4,0.4,0.4,0.5c0,0.1-0.1,0.3-0.1,0.5
		c0,0.2-0.1,0.7-0.1,0.9c0,0.6,0,1.7,0,2.3c0,0.2,0,0.8,0,1c0,0.6-0.1,0.8-0.5,0.8c-0.4,0-0.5-0.5-0.6-1.1c0.2-0.2,0.2-0.7,0.2-1.2
		c0-0.4,0.1-1.4,0.1-2.1c0-0.3,0-0.5,0-0.6l0-0.5c-1.4,0.9-3,1.7-4.9,2.4L180.2,107.5z"/>
	<path class="st1" d="M194.8,99.7c1.6,0.2,4.1,1.1,4.1,2.4c0,0.3-0.2,0.6-0.6,0.6c-0.3,0-0.6-0.4-0.8-0.6c-0.5-0.6-1.5-1.6-2.8-2
		L194.8,99.7z M206,100.8c-1.8,4-5,6.8-8.6,8.5c-0.7,0.3-0.7,0.7-1,0.7c-0.5,0-1.6-0.8-1.6-1.6c0-0.2,0.2-0.5,0.4-0.6
		c0.1,0.4,0.4,0.8,0.9,0.8c1,0,6.8-2.9,9.5-8L206,100.8z"/>
	<path class="st1" d="M208.8,105.3c2.6-2.1,4-5.2,4-6c0-0.4-0.6-0.5-0.8-0.5c0.1-0.2,0.3-0.4,0.7-0.4c0.6,0,1.6,0.6,1.6,0.9
		c0,0.2-0.2,0.2-0.3,0.3c-0.1,0.1-0.2,0.2-0.3,0.4c-0.2,0.5-0.5,1-0.8,1.5c0.1,0,0.2,0,0.3,0c0.8,0,2.8-0.2,3.5-0.3
		c0.3,0,0.4-0.1,0.5-0.3c0.1-0.1,0.2-0.2,0.3-0.2c0.3,0,1.2,0.7,1.2,1c0,0.2-0.2,0.2-0.4,0.3c-0.1,0.1-0.3,0.3-0.4,0.5
		c-1.3,3.5-3.5,6.6-8,8.3l-0.2-0.3c3.8-1.9,6.1-5,7.2-8.5c0-0.1,0-0.2,0-0.2c0-0.1,0-0.1-0.1-0.1c-0.6,0-3.2,0.5-3.5,0.5
		c-0.4,0-0.7-0.1-0.8-0.2c-0.8,1.2-2,2.6-3.6,3.5L208.8,105.3z M217.2,98.1c1.1,0.4,2,1.2,2,1.8c0,0.4-0.2,0.5-0.4,0.5
		c-0.2,0-0.3-0.1-0.4-0.4c-0.2-0.5-0.6-1.2-1.3-1.7L217.2,98.1z M219,97.6c1.2,0.4,2,1.2,2,1.8c0,0.4-0.2,0.5-0.4,0.5
		c-0.2,0-0.3-0.1-0.4-0.4c-0.2-0.5-0.6-1.2-1.3-1.7L219,97.6z"/>
	<path class="st1" d="M226.8,99c0.1-0.2,0.5-0.4,0.9-0.4c0.6,0,1.5,0.5,1.5,0.8c0,0.2-0.1,0.2-0.2,0.4c-0.1,0.1-0.1,0.2-0.2,0.5
		c-0.1,0.5-0.3,1.3-0.4,1.9c1.1-0.1,2.4-0.2,3.2-0.3c0.2,0,0.3-0.1,0.4-0.2c0.1-0.1,0.3-0.3,0.4-0.3c0.2,0,1.1,0.7,1.1,0.9
		c0,0.2-0.2,0.2-0.4,0.4c-0.1,0.1-0.2,0.2-0.2,0.6c-0.1,2.4-0.6,5.2-1.4,6.3c-0.3,0.4-0.7,0.7-1.1,0.7c-0.2,0-0.4-0.2-0.4-0.4
		c-0.2-0.5-0.2-0.5-2.5-1.8l0.2-0.3c0.7,0.3,1.8,0.8,2.3,0.9c0.2,0.1,0.4,0.1,0.5,0.1c1,0,1.6-3.8,1.6-6.2c0-0.3,0-0.3-0.2-0.3
		c-0.1,0-1.7,0.1-3.7,0.3c-0.7,2.8-2.1,5.6-5.4,7.6l-0.2-0.3c3-2.3,4.2-5.1,4.7-7.2c-0.9,0.1-2.2,0.2-2.6,0.5
		c-0.1,0.1-0.2,0.1-0.4,0.1c-0.4,0-1.1-0.6-1.1-1.2c0-0.3,0.1-0.5,0.3-0.6c0.1,0.7,0.5,0.8,1.2,0.8c0.4,0,0.6,0,2.7-0.2
		c0.2-0.7,0.4-2.1,0.4-2.4C227.8,99.2,227.5,99,226.8,99L226.8,99z"/>
	<path class="st1" d="M245.5,103.9c0.9,0,1.5-0.1,1.7-0.1c0.7,0,1.6,0.2,1.6,0.6c0,0.2-0.3,0.4-0.8,0.4c-0.3,0-0.6,0-0.8,0
		c-0.6,0-1.7,0-2.6,0c-1.7,0-5.5,0-6.2,0.3c-0.2,0.1-0.4,0.2-0.6,0.2c-0.5,0-1.5-0.9-1.5-1.5c0-0.3,0.1-0.5,0.3-0.7l0.1,0
		c0.2,0.8,0.7,0.9,2.2,0.9H245.5z"/>
	<path class="st1" d="M254,98.9c0.1-0.2,0.4-0.5,0.7-0.5c0.7,0,1.8,0.5,1.8,1c0,0.1-0.1,0.2-0.2,0.4c0,0.1-0.1,0.2-0.1,0.4
		c0,0.6-0.1,1.8-0.1,2.9c3.4,0.4,5.3,1.5,5.3,2.4c0,0.3-0.2,0.5-0.5,0.5c-0.4,0-0.8-0.3-1.1-0.7c-0.6-0.6-2-1.4-3.7-1.8
		c0,1,0,2.1,0,3c0,0.5,0.1,2.8,0.1,3.3c0,0.6-0.3,0.9-0.6,0.9c-0.5,0-0.7-1.3-0.8-1.8c0.1-0.1,0.2-0.4,0.3-0.6
		c0.1-0.7,0.2-1.6,0.2-4.7c0-1.3,0-2.6-0.1-3.2C255.1,99.6,255,98.9,254,98.9L254,98.9z M259.1,99.5c1.1,0.4,1.9,1.2,1.9,1.8
		c0,0.4-0.2,0.5-0.4,0.5c-0.2,0-0.3-0.1-0.4-0.4c-0.2-0.5-0.5-1.1-1.3-1.6L259.1,99.5z M260.6,98.6c1.1,0.4,1.9,1.2,1.9,1.8
		c0,0.4-0.2,0.5-0.4,0.5c-0.2,0-0.3-0.1-0.4-0.4c-0.2-0.5-0.5-1.1-1.3-1.6L260.6,98.6z"/>
	<path class="st1" d="M267.9,98.8c0.1-0.3,0.4-0.4,0.7-0.4c0.8,0,1.7,0.4,1.7,0.8c0,0.1-0.2,0.2-0.3,0.3c-0.1,0.1-0.1,0.2-0.2,0.3
		c-0.3,0.7-0.6,1.5-1,2.2c0.2,0.1,0.4,0.1,0.8,0.1c0.8,0,3.2-0.2,4.5-0.4c0.4-0.1,1.1-0.2,1.4-0.5c0.8,0.1,1.6,0.3,1.6,0.8
		c0,0.2-0.3,0.3-0.7,0.3c-1,0-2.7,0.1-3.4,0.2c0.3,0.2,0.5,0.4,0.5,0.6c0,0.1-0.1,0.2-0.1,0.3c-0.1,0.1-0.2,0.2-0.2,0.5
		c-0.5,2.8-1.8,5.3-5.2,6.9l-0.2-0.3c2.9-1.8,4.1-4.6,4.4-7.1v-0.1c0-0.4-0.1-0.6-0.5-0.7c-0.4,0-2.1,0.2-2.3,0.2
		c-0.3,0-0.6-0.1-0.8-0.3c-0.8,1.1-1.7,2.2-3.1,3.1l-0.2-0.3c3-2.7,3.6-5.7,3.6-6C268.9,98.8,268.2,98.8,267.9,98.8L267.9,98.8z
		 M274.1,98.2c1.2,0.4,2,1.2,2,1.8c0,0.4-0.2,0.5-0.4,0.5c-0.2,0-0.3-0.1-0.4-0.4c-0.2-0.5-0.6-1.2-1.3-1.7L274.1,98.2z M276,97.6
		c1.2,0.4,2,1.2,2,1.8c0,0.4-0.2,0.5-0.4,0.5c-0.2,0-0.3-0.1-0.4-0.4c-0.2-0.5-0.6-1.2-1.3-1.7L276,97.6z"/>
	<path class="st1" d="M288.5,103.9c0.9,0,1.5-0.1,1.7-0.1c0.7,0,1.6,0.2,1.6,0.6c0,0.2-0.3,0.4-0.8,0.4c-0.3,0-0.6,0-0.8,0
		c-0.6,0-1.7,0-2.6,0c-1.7,0-5.5,0-6.2,0.3c-0.2,0.1-0.4,0.2-0.6,0.2c-0.5,0-1.5-0.9-1.5-1.5c0-0.3,0.1-0.5,0.3-0.7l0.1,0
		c0.2,0.8,0.7,0.9,2.2,0.9H288.5z"/>
	<path class="st1" d="M301.6,104.6c2.2,1.2,4.2,3.5,4.2,4.7c0,0.5-0.1,0.9-0.6,0.9c-0.4,0-0.6-0.4-0.8-1.1c-0.1-0.2-0.1-0.4-0.2-0.6
		c-2.3,0.4-6,0.8-7.8,1.1c-0.5,0.1-0.6,0.4-1,0.4c-0.5,0-1.3-0.9-1.3-1.4c0-0.2,0.1-0.4,0.2-0.6l0.1,0c0.1,0.3,0.2,0.8,0.9,0.8
		c0.2,0,0.4,0,0.6,0c1.3-3.1,2.7-8.2,2.7-8.8c0-0.7-0.8-0.7-1-0.7l0,0c0.1-0.3,0.5-0.5,0.9-0.5c0.7,0,1.8,0.5,1.8,1
		c0,0.2-0.2,0.3-0.3,0.4c-0.1,0.1-0.2,0.3-0.2,0.5c-0.8,2.5-1.9,5.6-3.2,8.1c1.5-0.1,5.3-0.4,7.5-0.6c-0.6-1.1-1.7-2.5-2.7-3.2
		L301.6,104.6z"/>
</g>
<g>
	<g>
		<path class="st1" d="M39.4,24.1c-1.2,3.3-2.4,6.4-3.4,9.6c-1.3,4-2.6,8-3.9,11.9c-0.4,1.3-0.9,2.7-2.5,3.2
			c-0.2,0.1-0.3,0.5-0.4,0.8c-0.5,1.3-0.9,2.6-1.4,3.9c-0.1,0.3-0.5,0.5-0.7,0.7c-0.2-0.2-0.4-0.5-0.5-0.7c-0.5-1.3-1.4-2.6-1.3-3.9
			c0.1-2.6-0.4-5-0.6-7.6c-0.4-7.7,0.2-15.4,1.4-23.1c0.1-0.5,0.1-1.1,0.2-1.9c-2.4-0.3-4.8-0.6-7.1-0.9c-0.9-0.1-1.8,0-2.6-0.3
			c-0.6-0.2-1.4-0.6-1.7-1.1c-0.4-0.8-0.9-1.3-1.6-1.8c-0.9-0.5-1.3-1.5-0.9-2.5c0.4-1.1,1.2-1.6,2.3-1.5c2.8,0.1,5.5,0.2,8.3,0.3
			c0.3,0,0.7,0.1,0.9-0.1c1.9-1.3,4-0.9,5.9-0.3c4.1,1.4,8.2,3,12.2,4.5c0.6,0.2,1.2,0.4,1.8,0.7c1.2,0.6,2.4,1.2,3.4,2.1
			c2,1.8,3.8,3.9,5.8,5.7c6,5.4,9.8,12.1,11.3,20.1c0.2,1,0,1.8-0.8,2.5c-0.3,0.2-0.4,0.7-0.4,1c0.7,13.1-7.5,23.2-19.8,27.6
			c-5.6,2-11.2,1.8-16.9,0.7c-1.8-0.3-3.7,0-5.3-0.5c-3.5-1-6.9-2.3-10.2-3.7C10,69.2,9.7,68,9.2,67.3C9,67,9,66.6,8.9,66.4
			C7.4,64.2,6,62,4.5,59.8c-0.7-1.1-0.7-2.1,0.1-2.6C5,57,5.7,56.9,6.1,57.1c5.7,3,11.2,6.1,16.9,9.1c1.3,0.7,2.8,1,4.1,1.4
			c0.2,0.1,0.5,0,0.7,0c2.9-0.7,5.7-1.5,8.5-2.3c0.5-0.1,1-0.4,1.3-0.8c3.9-5,6.8-10.4,7.9-16.7c0.1-0.7,0.2-1.4,0.2-2
			c-0.5-5.7-1.1-11.3-2.6-16.8C42.6,26.8,42.1,26,39.4,24.1z"/>
		<path class="st1" d="M302.5,28.7c-1.7-2.3-3.4-4.6-5-7c-0.9-1.2-1.9-1.5-3.3-1.1c-3.3,0.9-6,2.7-8.5,5c2.6,3.3,5.2,6.6,7.7,9.9
			c3.5,4.8,7,9.7,10.3,14.6c1.4,2.1,2.3,4.4,1.3,7c-0.1,0.4-0.1,0.9,0,1.3c0.8,3.5-0.4,6.6-1.6,9.8c-0.3,0.9-1.1,1.7-1.9,2.3
			c-2.9,1.9-6,3.5-8.9,5.3c-2.6,1.6-5.2,0.8-7.7-0.1c-1.5-0.6-3-1.3-4.6-1.8c-0.8-0.3-1.7-0.3-2.5-0.6c-0.9-0.3-1.7-0.8-2.5-1.3
			c-0.8-0.6-1.6-1.2-2.7-1.1c-0.4,0-0.9-0.5-1.1-0.9c-0.4-0.7-0.6-1.6-1.1-2.3c-0.2-0.4-0.8-0.7-1.1-1c-0.2-0.3-0.6-0.6-0.6-0.9
			c-0.3-3,0.5-5.8,2.5-8.1c1.2-1.3,2.9-1.6,4.2-0.9c1.3,0.7,2,2.1,1.6,3.9c-0.2,1.1-0.6,2.1-0.8,3.2c-0.1,0.4,0.2,0.9,0.4,1.2
			c1.2,1,2.5,1.9,3.9,2.8c0.3,0.2,0.7,0.3,1,0.3c2,0,4,0,6,0c0.7,0,1-0.2,1.3-0.8c0.1-0.4,0.3-0.8,0.6-1.1c2.4-2.7,1.9-5.9,1.6-9
			c0-0.3-0.3-0.5-0.6-0.7c-3.8-2.4-6.5-5.7-9-9.4c-1.1-1.6-2.8-2.6-4.3-3.8c-1.7-1.5-3.2-3.4-4.3-5.3c-0.8-1.5-1-3.5-1.4-5.3
			c-0.2-1-0.3-2-0.2-3c0.5-3.8,1.4-7.4,3.5-10.6c0.4-0.6,0.7-1.4,1.1-2c0.2-0.4,0.5-0.9,0.9-1.1c2.7-1.3,4.3-3.8,6.1-6
			c1.5-2,3.3-3.7,5.4-5c3.1-1.8,6.9-1.7,9.8,0.4c3.3,2.5,5.7,5.8,7.5,9.5c1,2.1,1.6,4.4,2.4,6.6c0.5,1.3,1.1,2.6,1.6,3.9
			c0.7,2-1,5.5-2.9,6.3c-0.3,0.1-0.6,0.4-0.8,0.6c-0.6,0.7-1.2,1.4-1.9,2c-1.2,1.1-2.6,1.1-3.6,0.2c-1-0.9-1.1-2.3-0.1-3.6
			C301,30.2,301.8,29.5,302.5,28.7z"/>
		<path class="st1" d="M173.7,55.1c1.2-2.7,2.4-5.2,3.5-7.8c0.5-1.1,1.4-1.8,2.5-1.7c1.1,0.1,1.8,1,1.9,2.3c0,0.2,0,0.5,0.1,0.7
			c1.5,2.5,3.1,4.9,4.6,7.4c0-1.3,0-2.6,0-3.9c0.2-5.1,0.5-10.1,0.7-15.2c0-0.7-0.3-1.5-0.5-2.2c-0.1-0.4-0.4-0.7-0.4-1.1
			c-0.3-2.4-0.8-4.9-0.6-7.3c0.2-1.9,0.3-3.9,0.4-5.8c0.1-3,2.4-4.9,4.9-4.1c0.8,0.2,1.4,0.9,2.1,1.5c0.6,0.5,1.2,1,1.9,1.4
			c1,0.5,1.5,1.1,1.5,2.2c0,1.7-0.2,3.5,0,5.2c0.1,1.7,0.6,3.5,0.8,5.2c1.5,10.3,1.5,20.4-1.8,30.4c-0.8,2.4-1.9,4.6-3.6,6.6
			c-0.8,1-1.7,1.9-3.2,1.2c0,0-0.1,0-0.1,0c-2.2,0.7-3.4-0.4-4.5-2.2c-1.7-2.7-3.7-5.1-5.6-7.7c-0.5,1.5-1.1,3.2-1.8,4.8
			c-0.7,1.6-1.6,3.1-2.5,4.6c-0.7,1.2-1.4,2.4-2.2,3.5c-1.4,2.1-2.4,2.2-4.4,0.7c-0.3-0.3-0.8-0.5-1.2-0.6c-2-0.4-3.3-1.8-4.7-3.1
			c-2.6-2.6-2.3-6-2.7-9.1c-1.2-8.4-1.8-16.8-1-25.2c0.3-2.8,0-5.7,0.1-8.6c0.1-2.1,0.3-4.2,0.6-6.2c0.3-1.8,1.3-2.5,3.1-2.3
			c1.8,0.2,3.6,0.7,5.4,1.1c0.5,0.1,0.9,0.1,1.4,0.2c1.5,0.2,1.7,0.6,1.4,2.1c0,0.2,0,0.6,0.2,0.7c0.7,0.8,0.6,1.7,0.6,2.7
			c0,2.5,0.3,5.1,0.5,7.6c0.2,2.4,0.4,4.8,0.7,7.1c0.2,1.8,0.7,3.5,0.9,5.3C173.1,48.6,173.4,51.7,173.7,55.1z"/>
		<path class="st1" d="M226.2,52c-0.4,1.8-0.6,3.6-1.1,5.3c-1,3.6-2,7.1-3.1,10.7c-0.2,0.5-0.4,1-0.7,1.5c-1.3,1.9-3.7,2.2-5.2,0.5
			c-0.7-0.7-1.1-1.7-1.5-2.6c-2.1-5.2-2.6-10.6-2.5-16.1c0.1-7.1,0.3-14.2,0.5-21.3c0-1.4,0.3-2.9,0.6-4.3c0.2-1,0.6-1.8,1.6-2.2
			c0.3-0.1,0.4-0.5,0.5-0.8c0.3-0.8,0.4-1.6,0.7-2.3c1.1-2.5,4-2.9,5.8-0.8c0.6,0.7,1.2,1.7,1.4,2.6c1,3.3,1.8,6.7,2.7,10
			c0.3,1,0.4,2,0.9,3c1.6,3.2,3.3,6.4,5.2,9.6c0-2.6-0.2-5.2,0-7.7c0.3-4.3,0.7-8.6,1.4-12.8c0.3-2,1.4-4,2.2-5.9
			c0.5-1.2,2-1.8,3.5-1.5c0.7,0.2,1.4,0.4,2.1,0.7c0.3,0.1,0.5,0.5,0.5,0.8c0.2,4.2,1.8,8.1,2.1,12.2c0.6,8.3,1.4,16.6,1.8,25
			c0.1,2.3-0.6,4.6-0.9,6.9c-0.1,0.5-0.2,1-0.2,1.5c0.1,2.4-0.7,4.6-1.6,6.7c-0.4,0.9-1.1,1.3-2.1,1.3c-0.6,0-1.1,0-1.7,0
			c-1.9,0-2.7-0.7-3.4-2.5c-0.6-1.5-1.4-2.9-2.3-4.3c-0.6-1-1.5-1.9-1-3.3c0.1-0.2-0.1-0.5-0.2-0.6c-1.9-3-3.8-6-5.7-9
			c-0.1-0.1-0.1-0.3-0.2-0.5C226.3,51.9,226.2,52,226.2,52z"/>
		<path class="st1" d="M105.1,69.8c-0.9,0.1-1.7,0.3-2.5,0.2c-1.9-0.1-3-1.4-2.7-3.3c0.3-2,0-3.8-1.2-5.5c-0.4-0.6-0.6-1.5-0.5-2.1
			c0.5-3.8-0.2-7.6-0.9-11.3c-0.9-4.7-0.5-9.5-0.1-14.2c0.3-2.9,0.7-5.9,1.2-8.8c0.4-2.1,1.5-3.4,3.9-3.7c2-0.2,3.9-1,5.8-1.7
			c2.2-0.8,4.3-1.1,6.6-0.6c0.7,0.1,1.4,0.1,2,0.3c1,0.3,2.1,0.7,3.1,1.2c1,0.5,1.8,1.1,2.7,1.7c4.3,2.7,6.4,7.4,5.6,12.5
			c-0.6,3.9-2,6.9-5.2,11.2c0.2,0.2,0.4,0.5,0.6,0.6c3.5,2.5,5.7,5.9,7.7,9.5c0.2,0.4,0.7,0.8,1.2,1c1.1,0.4,1.5,1.2,1.7,2.3
			c0.3,1.6,0.6,3.3,0.9,4.9c0.5,2.7-1.1,5-3.7,5.7c-1.4,0.3-3.7-0.9-4.7-2.4c-0.2-0.3-0.5-0.7-0.9-0.9c-1.5-0.6-2.6-1.5-3.5-2.9
			c-1.6-2.2-3.6-4-5.4-6.1c-0.9-1.1-1.6-2.4-2.4-3.6c-0.2-0.3-0.4-0.6-0.3-0.9c0.2-1.8-1.2-2.7-2.3-3.7c-0.7-0.6-0.9-1.4-0.4-2.1
			c0.5-0.7,1.1-1.4,1.7-2.1c0.1-0.1,0.2-0.2,0.3-0.3c1-1.6,1.8-3.3,3-4.7c1.6-2,2.2-4.3,2.1-6.8c0-0.2,0-0.4,0-0.6
			c-0.2-3.2-0.7-4-3.9-4.4c-2.1-0.2-4.2,0.1-6.3,0.2c-1.1,0.1-1.3,0.7-1,1.7c0.8,2.9,1.6,5.9,2.1,8.8c1.1,5.9,1,11.9,0.5,17.9
			c0,0.5,0.3,1.1,0.4,1.6c0.3,1.2,0.7,2.5,0.7,3.7c0.1,1.6-0.1,3.2-0.3,4.8c0,0.4-0.3,0.8-0.5,1.2c-0.3,0.7-0.7,1.5-1.1,2.2
			c-0.4,0.9-0.9,1.5-2,1.5c-1,0-1.6-0.5-1.9-1.3C105.2,70.2,105.1,69.9,105.1,69.8z"/>
		<path class="st1" d="M88.4,52.6c-2.2-7-4.4-13.9-6.7-20.9c-0.2,0-0.3,0-0.5,0.1c-0.6,2.1-1.1,4.1-1.7,6.2
			c-1.8,6.3-3.5,12.6-5.3,18.9c-0.6,2-1.6,3.9-2.5,5.8c-1.2,2.7-3.5,4.4-5.5,6.4c-0.8,0.8-1.6,1.6-2.5,2.2c-0.2,0.2-0.9,0-1.2-0.3
			c-0.2-0.1-0.2-0.7-0.2-1c-0.2-2.2-0.4-4.4-0.7-6.6c-0.3-2.7,0.3-5.4,0.8-8c0.8-3.9,2-7.6,3.3-11.4c1.4-4,2.6-8.1,4.2-12
			c1.4-3.6,3.2-7.1,4.9-10.6c0.3-0.6,0.7-1.1,1.2-1.6c2-1.9,5-1.3,6.2,1.2c0.3,0.6,0.7,1.1,1.2,1.6c3.3,3,5.6,6.7,7.5,10.6
			c2.1,4.4,3.4,9,4.3,13.8c0.5,2.4,1.5,4.8,1.6,7.2c0.2,3.4-0.2,6.9-0.6,10.2C96,66.7,93.1,68,90.4,67c-1.5-0.6-3.1-1.6-4.2-2.8
			c-2.1-2.2-3.6-4.9-4.7-7.7c-0.2-0.4-0.6-0.7-0.9-1c-0.9-0.7-1.3-1.6-0.9-2.7c0.4-1.1,1.4-1.6,2.5-1.4
			C84.2,51.5,86.2,52.1,88.4,52.6z"/>
		<path class="st1" d="M273.4,46.2c-0.1,5.1-1.3,8.4-3.4,11.3c-3.9,5.4-8.3,10.4-13.7,14.3c-0.4,0.3-0.7,0.5-1.1,0.7
			c-1.9,1-3.8,0.8-5.3-0.7c-0.4-0.4-0.8-1.1-0.8-1.7c-0.7-5.8-1.4-11.7-2.1-17.5c-0.6-5.2-1.1-10.3-1.5-15.5
			c-0.5-5.4,0.3-10.7,2.1-15.8c0.2-0.5,0.1-1.2-0.1-1.7c-0.5-1.2,0-2.1,1.2-2.3c0.7-0.1,1.6,0,2.2,0.2c7,2.7,13.3,6.2,17.5,12.7
			C271.7,35.6,273,41.5,273.4,46.2z M255.7,26.6c-0.2,2.6-0.5,4.8-0.4,6.9c0.1,3.8,0.6,7.6,0.8,11.3c0.1,3.3,0,6.5-0.2,9.8
			c0,1-0.4,1.9-0.6,3.1c0.3-0.2,0.4-0.3,0.5-0.4c2.8-2.9,5.1-6.2,6.8-9.9c2-4.5,1.9-9-0.8-13.2c-1.5-2.4-3.3-4.6-5.1-6.8
			C256.6,27.3,256.3,27.1,255.7,26.6z"/>
		<path class="st1" d="M142.6,44.1c-1.2,0.2-2.1,0.4-3.1,0.7c-0.3,0.1-0.5,0.6-0.6,0.9c-0.8,2.9-1.6,5.8-2.3,8.7
			c-0.1,0.3,0.2,0.6,0.2,0.9c0,0.4,0.1,1.1-0.1,1.3c-0.3,0.3-1.1,0.5-1.4,0.3c-1.5-1-3.2-1.8-4.1-3.5c-0.1-0.2-0.3-0.4-0.6-0.5
			c-1.4-0.7-1.8-1.8-1.6-3.3c0.4-3.4,0.7-6.8,1.1-10.1c0.5-3.9,0.2-7.8-0.1-11.7c-0.2-2.3-0.1-4.7,0.2-7.1c0.3-2,1.3-2.6,3.3-2.5
			c0.4,0,0.7-0.1,1.1-0.1c2.5-0.4,4.3,1.6,3.4,4.1c-0.2,0.5-0.1,1.2,0,1.8c0.5,2,1.3,4,1.7,6.1c0.4,2,0.3,4.1,0.5,6.3
			c1.5-1.4,3.5-2.2,4.5-4.4c1.3-2.8,3-5.4,4.5-8c0.2-0.3,0.2-0.7,0.2-1.1c-0.2-1.9,0.6-3.1,2.5-3.5c0.8-0.2,1.7-0.5,2.4-0.4
			c1.9,0.2,3.1,2.5,2.8,4.5c-0.1,0.5,0.1,1.1,0.2,1.7c0.1,1.1,0.2,2.2,0.2,3.3c0,0.5-0.2,1-0.4,1.4c-2.2,4.1-4.3,8.3-8.3,11.1
			c-0.2,0.1-0.3,0.2-0.5,0.5c0.6,0.6,1.2,1.1,1.8,1.6c1.7,1.4,2.9,3,3.6,5.1c0.7,2,1.8,3.8,2.8,5.7c0.6,1.3,0.7,2.5,0.6,3.9
			c-0.3,2.7-0.2,5.5-0.6,8.2c-0.2,1.8-0.7,3.6-1.3,5.3c-0.7,1.9-3.3,2.2-4.7,0.8c-0.5-0.5-0.9-1.2-1.1-1.8c-1.4-3.6-2.8-7.1-4-10.8
			c-0.4-1.2-0.5-2.6-0.7-3.9c-0.2-0.8-0.4-1.6-0.5-2.5c-0.5-2.3-0.9-4.6-1.3-6.9C142.7,45.3,142.7,44.8,142.6,44.1z"/>
		<path class="st1" d="M211.1,50.6c-0.2,2.7-0.6,6.4-0.8,10.2c-0.1,1.6,0.3,3.2,0.5,4.7c0.1,1.4,0.3,2.8,0.3,4.2
			c0,1.4-0.9,2.2-2.4,2c-0.2,0-0.5-0.2-0.6-0.1c-1.2,1.4-2.9,0.6-4.3,1c-1.7,0.4-3.1-0.7-3.6-2.7c-0.2-0.9-0.6-1.7-0.9-2.5
			c-0.6-1.2-0.6-2.4,0.1-3.5c0.7-1.1,0.8-2.2,0.6-3.4c-0.6-3.5-1.5-7.1-1.7-10.6c-0.2-2.8,0.3-5.7,0.9-8.4c0.6-2.4,2.6-3.7,4.6-5
			c0.8-0.5,1.5-1.1,2.2-1.7c0.7-0.6,1.4-0.9,2.3-0.6c0.9,0.3,1.3,0.9,1.4,1.9C210.3,40.5,210.7,45,211.1,50.6z"/>
		<path class="st1" d="M210.2,23.2c-0.1,0.6-0.1,1.3-0.4,1.9c-0.4,1.1-0.8,2.2-0.3,3.4c0.1,0.2-0.2,0.8-0.5,0.9
			c-2,0.6-3.2,2.2-4.7,3.5c-1.2,1-2.4,1.9-4,1.2c-1.8-0.8-2.5-2.4-2.4-4.2c0.1-2.7,0.4-5.5,0.8-8.2c0.1-1.2,0.9-1.7,2.2-1.6
			c0.3,0,0.6-0.1,0.8-0.2c1-0.8,2.1-0.9,3.3-0.5c0.6,0.2,1.1,0.4,1.5-0.4c0.4-0.8,1.8-0.6,2.4,0.5c0.6,1.2,1,2.5,1.5,3.7
			C210.3,23.2,210.3,23.2,210.2,23.2z"/>
	</g>
	<g>
		<path class="st1" d="M304.6,4.8c0,0.3,0,0.6,0,0.9c-0.1,0-0.1,0-0.2,0c0-0.2-0.1-0.4-0.1-0.7c-0.1,0-0.2,0-0.5,0
			c-0.2,0-0.3,0-0.4,0c0,0.2,0,0.6,0,1.5c0,0.9,0,1.3,0,1.4c0.2,0,0.3,0,0.5,0c0,0.1,0,0.1,0,0.2h-0.6c-0.1,0-0.1,0-0.2,0
			s-0.1,0-0.2,0h-0.5c0-0.1,0-0.1,0-0.2c0.1,0,0.3-0.1,0.5-0.1c0-0.2,0-0.6,0-1.4c0-0.9,0-1.3,0-1.5c-0.1,0-0.2,0-0.4,0
			c-0.2,0-0.4,0-0.5,0c-0.1,0.2-0.1,0.4-0.2,0.7c-0.1,0-0.1,0-0.2,0c0-0.3,0-0.6,0.1-0.9c0.5,0,0.9,0,1.4,0
			C303.6,4.8,304.1,4.8,304.6,4.8L304.6,4.8L304.6,4.8z"/>
		<path class="st1" d="M308.7,8c0.1,0,0.3,0,0.4,0c0,0.1,0,0.1,0,0.2h-0.5h0c-0.1,0-0.1,0-0.2,0c-0.1,0-0.1,0-0.2,0h0h-0.4
			c0,0,0-0.1,0-0.2c0.1,0,0.3-0.1,0.4-0.1c0-0.5-0.1-2.2-0.1-2.6c-0.2,0.5-0.9,2.4-1,2.7c-0.1,0-0.2,0.1-0.3,0.1
			c-0.2-0.3-0.8-2-1-2.7c-0.1,0.7-0.2,2.3-0.2,2.6c0.1,0,0.2,0,0.4,0c0,0.1,0,0.2,0,0.2h-0.4c-0.1,0-0.1,0-0.2,0c-0.1,0-0.1,0-0.2,0
			h-0.4c0-0.1,0-0.1,0-0.2c0.1,0,0.2-0.1,0.4-0.1c0.1-0.5,0.3-2.5,0.3-2.9c-0.1,0-0.3,0-0.4,0c0-0.1,0-0.2,0-0.2h0.4
			c0.1,0,0.3,0,0.5,0c0.1,0.2,0.7,2,1,2.6c0.3-0.8,0.9-2.3,1-2.6c0.1,0,0.2,0,0.3,0c0.1,0,0.2,0,0.2,0h0.4c0,0,0,0.1,0,0.2
			c-0.1,0-0.3,0.1-0.5,0.1C308.4,5.7,308.6,7.6,308.7,8L308.7,8z"/>
	</g>
</g>
</svg>
