<?xml version="1.0" encoding="utf-8"?>
<!-- Generator: Adobe Illustrator 22.1.0, SVG Export Plug-In . SVG Version: 6.00 Build 0)  -->
<svg version="1.1" id="Layer_1" xmlns="http://www.w3.org/2000/svg" xmlns:xlink="http://www.w3.org/1999/xlink" x="0px" y="0px"
	 viewBox="0 0 311.7 80.3" style="enable-background:new 0 0 311.7 80.3;" xml:space="preserve">
<style type="text/css">
	.st0{fill:#FFFFFF;}
</style>
<g>
	<path class="st0" d="M38.5,22.6c-1.2,3.3-2.4,6.4-3.4,9.6c-1.3,4-2.6,8-3.9,11.9c-0.4,1.3-0.9,2.7-2.5,3.2
		c-0.2,0.1-0.3,0.5-0.4,0.8c-0.5,1.3-0.9,2.6-1.4,3.9c-0.1,0.3-0.5,0.5-0.7,0.7c-0.2-0.2-0.4-0.5-0.5-0.7c-0.5-1.3-1.4-2.6-1.3-3.9
		c0.1-2.6-0.4-5-0.6-7.6c-0.4-7.7,0.2-15.4,1.4-23.1c0.1-0.5,0.1-1.1,0.2-1.9c-2.4-0.3-4.8-0.6-7.1-0.9c-0.9-0.1-1.8,0-2.6-0.3
		c-0.6-0.2-1.4-0.6-1.7-1.1c-0.4-0.8-0.9-1.3-1.6-1.8c-0.9-0.5-1.3-1.5-0.9-2.5c0.4-1.1,1.2-1.6,2.3-1.5c2.8,0.1,5.5,0.2,8.3,0.3
		c0.3,0,0.7,0.1,0.9-0.1c1.9-1.3,4-0.9,5.9-0.3c4.1,1.4,8.2,3,12.2,4.5c0.6,0.2,1.2,0.4,1.8,0.7c1.2,0.6,2.4,1.2,3.4,2.1
		c2,1.8,3.8,3.9,5.8,5.7c6,5.4,9.8,12.1,11.3,20.1c0.2,1,0,1.8-0.8,2.5c-0.3,0.2-0.4,0.7-0.4,1c0.7,13.1-7.5,23.2-19.8,27.6
		c-5.6,2-11.2,1.8-16.9,0.7c-1.8-0.3-3.7,0-5.3-0.5c-3.5-1-6.9-2.3-10.2-3.7c-0.7-0.3-1.1-1.4-1.6-2.2c-0.2-0.3-0.1-0.6-0.3-0.9
		c-1.4-2.2-2.9-4.4-4.3-6.6c-0.7-1.1-0.7-2.1,0.1-2.6c0.4-0.2,1.1-0.3,1.5-0.1c5.7,3,11.2,6.1,16.9,9.1c1.3,0.7,2.8,1,4.1,1.4
		c0.2,0.1,0.5,0,0.7,0c2.9-0.7,5.7-1.5,8.5-2.3c0.5-0.1,1-0.4,1.3-0.8c3.9-5,6.8-10.4,7.9-16.7c0.1-0.7,0.2-1.4,0.2-2
		c-0.5-5.7-1.1-11.3-2.6-16.8C41.7,25.3,41.2,24.5,38.5,22.6z"/>
	<path class="st0" d="M301.6,27.2c-1.7-2.3-3.4-4.6-5-7c-0.9-1.2-1.9-1.5-3.3-1.1c-3.3,0.9-6,2.7-8.5,5c2.6,3.3,5.2,6.6,7.7,9.9
		c3.5,4.8,7,9.7,10.3,14.6c1.4,2.1,2.3,4.4,1.3,7c-0.1,0.4-0.1,0.9,0,1.3c0.8,3.5-0.4,6.6-1.6,9.8c-0.3,0.9-1.1,1.7-1.9,2.3
		c-2.9,1.9-6,3.5-8.9,5.3c-2.6,1.6-5.2,0.8-7.7-0.1c-1.5-0.6-3-1.3-4.6-1.8c-0.8-0.3-1.7-0.3-2.5-0.6c-0.9-0.3-1.7-0.8-2.5-1.3
		c-0.8-0.6-1.6-1.2-2.7-1.1c-0.4,0-0.9-0.5-1.1-0.9c-0.4-0.7-0.6-1.6-1.1-2.3c-0.2-0.4-0.8-0.7-1.1-1c-0.2-0.3-0.6-0.6-0.6-0.9
		c-0.3-3,0.5-5.8,2.5-8.1c1.2-1.3,2.9-1.6,4.2-0.9c1.3,0.7,2,2.1,1.6,3.9c-0.2,1.1-0.6,2.1-0.8,3.2c-0.1,0.4,0.2,0.9,0.4,1.2
		c1.2,1,2.5,1.9,3.9,2.8c0.3,0.2,0.7,0.3,1,0.3c2,0,4,0,6,0c0.7,0,1-0.2,1.3-0.8c0.1-0.4,0.3-0.8,0.6-1.1c2.4-2.7,1.9-5.9,1.6-9
		c0-0.3-0.3-0.5-0.6-0.7c-3.8-2.4-6.5-5.7-9-9.4c-1.1-1.6-2.8-2.6-4.3-3.8c-1.7-1.5-3.2-3.4-4.3-5.3c-0.8-1.5-1-3.5-1.4-5.3
		c-0.2-1-0.3-2-0.2-3c0.5-3.8,1.4-7.4,3.5-10.6c0.4-0.6,0.7-1.4,1.1-2c0.2-0.4,0.5-0.9,0.9-1.1c2.7-1.3,4.3-3.8,6.1-6
		c1.5-2,3.3-3.7,5.4-5c3.1-1.8,6.9-1.7,9.8,0.4c3.3,2.5,5.7,5.8,7.5,9.5c1,2.1,1.6,4.4,2.4,6.6c0.5,1.3,1.1,2.6,1.6,3.9
		c0.7,2-1,5.5-2.9,6.3c-0.3,0.1-0.6,0.4-0.8,0.6c-0.6,0.7-1.2,1.4-1.9,2c-1.2,1.1-2.6,1.1-3.6,0.2c-1-0.9-1.1-2.3-0.1-3.6
		C300.1,28.7,300.9,28,301.6,27.2z"/>
	<path class="st0" d="M172.8,53.6c1.2-2.7,2.4-5.2,3.5-7.8c0.5-1.1,1.4-1.8,2.5-1.7c1.1,0.1,1.8,1,1.9,2.3c0,0.2,0,0.5,0.1,0.7
		c1.5,2.5,3.1,4.9,4.6,7.4c0-1.3,0-2.6,0-3.9c0.2-5.1,0.5-10.1,0.7-15.2c0-0.7-0.3-1.5-0.5-2.2c-0.1-0.4-0.4-0.7-0.4-1.1
		c-0.3-2.4-0.8-4.9-0.6-7.3c0.2-1.9,0.3-3.9,0.4-5.8c0.1-3,2.4-4.9,4.9-4.1c0.8,0.2,1.4,0.9,2.1,1.5c0.6,0.5,1.2,1,1.9,1.4
		c1,0.5,1.5,1.1,1.5,2.2c0,1.7-0.2,3.5,0,5.2c0.1,1.7,0.6,3.5,0.8,5.2c1.5,10.3,1.5,20.4-1.8,30.4c-0.8,2.4-1.9,4.6-3.6,6.6
		c-0.8,1-1.7,1.9-3.2,1.2c0,0-0.1,0-0.1,0c-2.2,0.7-3.4-0.4-4.5-2.2c-1.7-2.7-3.7-5.1-5.6-7.7c-0.5,1.5-1.1,3.2-1.8,4.8
		c-0.7,1.6-1.6,3.1-2.5,4.6c-0.7,1.2-1.4,2.4-2.2,3.5c-1.4,2.1-2.4,2.2-4.4,0.7c-0.3-0.3-0.8-0.5-1.2-0.6c-2-0.4-3.3-1.8-4.7-3.1
		c-2.6-2.6-2.3-6-2.7-9.1c-1.2-8.4-1.8-16.8-1-25.2c0.3-2.8,0-5.7,0.1-8.6c0.1-2.1,0.3-4.2,0.6-6.2c0.3-1.8,1.3-2.5,3.1-2.3
		c1.8,0.2,3.6,0.7,5.4,1.1c0.5,0.1,0.9,0.1,1.4,0.2c1.5,0.2,1.7,0.6,1.4,2.1c0,0.2,0,0.6,0.2,0.7c0.7,0.8,0.6,1.7,0.6,2.7
		c0,2.5,0.3,5.1,0.5,7.6c0.2,2.4,0.4,4.8,0.7,7.1c0.2,1.8,0.7,3.5,0.9,5.3C172.2,47.1,172.5,50.2,172.8,53.6z"/>
	<path class="st0" d="M225,50.5c-0.4,1.8-0.6,3.6-1.1,5.3c-1,3.6-2,7.1-3.1,10.7c-0.2,0.5-0.4,1-0.7,1.5c-1.3,1.9-3.7,2.2-5.2,0.5
		c-0.7-0.7-1.1-1.7-1.5-2.6c-2.1-5.2-2.6-10.6-2.5-16.1c0.1-7.1,0.3-14.2,0.5-21.3c0-1.4,0.3-2.9,0.6-4.3c0.2-1,0.6-1.8,1.6-2.2
		c0.3-0.1,0.4-0.5,0.5-0.8c0.3-0.8,0.4-1.6,0.7-2.3c1.1-2.5,4-2.9,5.8-0.8c0.6,0.7,1.2,1.7,1.4,2.6c1,3.3,1.8,6.7,2.7,10
		c0.3,1,0.4,2,0.9,3c1.6,3.2,3.3,6.4,5.2,9.6c0-2.6-0.2-5.2,0-7.7c0.3-4.3,0.7-8.6,1.4-12.8c0.3-2,1.4-4,2.2-5.9
		c0.5-1.2,2-1.8,3.5-1.5c0.7,0.2,1.4,0.4,2.1,0.7c0.3,0.1,0.5,0.5,0.5,0.8c0.2,4.2,1.8,8.1,2.1,12.2c0.6,8.3,1.4,16.6,1.8,25
		c0.1,2.3-0.6,4.6-0.9,6.9c-0.1,0.5-0.2,1-0.2,1.5c0.1,2.4-0.7,4.6-1.6,6.7c-0.4,0.9-1.1,1.3-2.1,1.3c-0.6,0-1.1,0-1.7,0
		c-1.9,0-2.7-0.7-3.4-2.5c-0.6-1.5-1.4-2.9-2.3-4.3c-0.6-1-1.5-1.9-1-3.3c0.1-0.2-0.1-0.5-0.2-0.6c-1.9-3-3.8-6-5.7-9
		c-0.1-0.1-0.1-0.3-0.2-0.5C225.1,50.4,225,50.4,225,50.5z"/>
	<path class="st0" d="M104.2,68.3c-0.9,0.1-1.7,0.3-2.5,0.2c-1.9-0.1-3-1.4-2.7-3.3c0.3-2,0-3.8-1.2-5.5c-0.4-0.6-0.6-1.5-0.5-2.1
		c0.5-3.8-0.2-7.6-0.9-11.3c-0.9-4.7-0.5-9.5-0.1-14.2c0.3-2.9,0.7-5.9,1.2-8.8c0.4-2.1,1.5-3.4,3.9-3.7c2-0.2,3.9-1,5.8-1.7
		c2.2-0.8,4.3-1.1,6.6-0.6c0.7,0.1,1.4,0.1,2,0.3c1,0.3,2.1,0.7,3.1,1.2c1,0.5,1.8,1.1,2.7,1.7c4.3,2.7,6.4,7.4,5.6,12.5
		c-0.6,3.9-2,6.9-5.2,11.2c0.2,0.2,0.4,0.5,0.6,0.6c3.5,2.5,5.7,5.9,7.7,9.5c0.2,0.4,0.7,0.8,1.2,1c1.1,0.4,1.5,1.2,1.7,2.3
		c0.3,1.6,0.6,3.3,0.9,4.9c0.5,2.7-1.1,5-3.7,5.7c-1.4,0.3-3.7-0.9-4.7-2.4c-0.2-0.3-0.5-0.7-0.9-0.9c-1.5-0.6-2.6-1.5-3.5-2.9
		c-1.6-2.2-3.6-4-5.4-6.1c-0.9-1.1-1.6-2.4-2.4-3.6c-0.2-0.3-0.4-0.6-0.3-0.9c0.2-1.8-1.2-2.7-2.3-3.7c-0.7-0.6-0.9-1.4-0.4-2.1
		c0.5-0.7,1.1-1.4,1.7-2.1c0.1-0.1,0.2-0.2,0.3-0.3c1-1.6,1.8-3.3,3-4.7c1.6-2,2.2-4.3,2.1-6.8c0-0.2,0-0.4,0-0.6
		c-0.2-3.2-0.7-4-3.9-4.4c-2.1-0.2-4.2,0.1-6.3,0.2c-1.1,0.1-1.3,0.7-1,1.7c0.8,2.9,1.6,5.9,2.1,8.8c1.1,5.9,1,11.9,0.5,17.9
		c0,0.5,0.3,1.1,0.4,1.6c0.3,1.2,0.7,2.5,0.7,3.7c0.1,1.6-0.1,3.2-0.3,4.8c0,0.4-0.3,0.8-0.5,1.2c-0.3,0.7-0.7,1.5-1.1,2.2
		c-0.4,0.9-0.9,1.5-2,1.5c-1,0-1.6-0.5-1.9-1.3C104.3,68.7,104.2,68.4,104.2,68.3z"/>
	<path class="st0" d="M87.5,51.1c-2.2-7-4.4-13.9-6.7-20.9c-0.2,0-0.3,0-0.5,0.1c-0.6,2.1-1.1,4.1-1.7,6.2
		c-1.8,6.3-3.5,12.6-5.3,18.9c-0.6,2-1.6,3.9-2.5,5.8c-1.2,2.7-3.5,4.4-5.5,6.4c-0.8,0.8-1.6,1.6-2.5,2.2c-0.2,0.2-0.9,0-1.2-0.3
		c-0.2-0.1-0.2-0.7-0.2-1c-0.2-2.2-0.4-4.4-0.7-6.6c-0.3-2.7,0.3-5.4,0.8-8c0.8-3.9,2-7.6,3.3-11.4c1.4-4,2.6-8.1,4.2-12
		c1.4-3.6,3.2-7.1,4.9-10.6c0.3-0.6,0.7-1.1,1.2-1.6c2-1.9,5-1.3,6.2,1.2c0.3,0.6,0.7,1.1,1.2,1.6c3.3,3,5.6,6.7,7.5,10.6
		c2.1,4.4,3.4,9,4.3,13.8c0.5,2.4,1.5,4.8,1.6,7.2c0.2,3.4-0.2,6.9-0.6,10.2c-0.3,2.3-3.2,3.7-5.9,2.6c-1.5-0.6-3.1-1.6-4.2-2.8
		c-2.1-2.2-3.6-4.9-4.7-7.7c-0.2-0.4-0.6-0.7-0.9-1c-0.9-0.7-1.3-1.6-0.9-2.7c0.4-1.1,1.4-1.6,2.5-1.4C83.3,50,85.3,50.5,87.5,51.1z
		"/>
	<path class="st0" d="M272.5,44.7c-0.1,5.1-1.3,8.4-3.4,11.3c-3.9,5.4-8.3,10.4-13.7,14.3c-0.4,0.3-0.7,0.5-1.1,0.7
		c-1.9,1-3.8,0.8-5.3-0.7c-0.4-0.4-0.8-1.1-0.8-1.7c-0.7-5.8-1.4-11.7-2.1-17.5c-0.6-5.2-1.1-10.3-1.5-15.5
		c-0.5-5.4,0.3-10.7,2.1-15.8c0.2-0.5,0.1-1.2-0.1-1.7c-0.5-1.2,0-2.1,1.2-2.3c0.7-0.1,1.6,0,2.2,0.2c7,2.7,13.3,6.2,17.5,12.7
		C270.8,34.1,272.1,39.9,272.5,44.7z M254.8,25.1c-0.2,2.6-0.5,4.8-0.4,6.9c0.1,3.8,0.6,7.6,0.8,11.3c0.1,3.3,0,6.5-0.2,9.8
		c0,1-0.4,1.9-0.6,3.1c0.3-0.2,0.4-0.3,0.5-0.4c2.8-2.9,5.1-6.2,6.8-9.9c2-4.5,1.9-9-0.8-13.2c-1.5-2.4-3.3-4.6-5.1-6.8
		C255.7,25.8,255.4,25.6,254.8,25.1z"/>
	<path class="st0" d="M141.7,42.5c-1.2,0.2-2.1,0.4-3.1,0.7c-0.3,0.1-0.5,0.6-0.6,0.9c-0.8,2.9-1.6,5.8-2.3,8.7
		c-0.1,0.3,0.2,0.6,0.2,0.9c0,0.4,0.1,1.1-0.1,1.3c-0.3,0.3-1.1,0.5-1.4,0.3c-1.5-1-3.2-1.8-4.1-3.5c-0.1-0.2-0.3-0.4-0.6-0.5
		c-1.4-0.7-1.8-1.8-1.6-3.3c0.4-3.4,0.7-6.8,1.1-10.1c0.5-3.9,0.2-7.8-0.1-11.7c-0.2-2.3-0.1-4.7,0.2-7.1c0.3-2,1.3-2.6,3.3-2.5
		c0.4,0,0.7-0.1,1.1-0.1c2.5-0.4,4.3,1.6,3.4,4.1c-0.2,0.5-0.1,1.2,0,1.8c0.5,2,1.3,4,1.7,6.1c0.4,2,0.3,4.1,0.5,6.3
		c1.5-1.4,3.5-2.2,4.5-4.4c1.3-2.8,3-5.4,4.5-8c0.2-0.3,0.2-0.7,0.2-1.1c-0.2-1.9,0.6-3.1,2.5-3.5c0.8-0.2,1.7-0.5,2.4-0.4
		c1.9,0.2,3.1,2.5,2.8,4.5c-0.1,0.5,0.1,1.1,0.2,1.7c0.1,1.1,0.2,2.2,0.2,3.3c0,0.5-0.2,1-0.4,1.4c-2.2,4.1-4.3,8.3-8.3,11.1
		c-0.2,0.1-0.3,0.2-0.5,0.5c0.6,0.6,1.2,1.1,1.8,1.6c1.7,1.4,2.9,3,3.6,5.1c0.7,2,1.8,3.8,2.8,5.7c0.6,1.3,0.7,2.5,0.6,3.9
		c-0.3,2.7-0.2,5.5-0.6,8.2c-0.2,1.8-0.7,3.6-1.3,5.3c-0.7,1.9-3.3,2.2-4.7,0.8c-0.5-0.5-0.9-1.2-1.1-1.8c-1.4-3.6-2.8-7.1-4-10.8
		c-0.4-1.2-0.5-2.6-0.7-3.9c-0.2-0.8-0.4-1.6-0.5-2.5c-0.5-2.3-0.9-4.6-1.3-6.9C141.8,43.8,141.8,43.2,141.7,42.5z"/>
	<path class="st0" d="M210.2,49.1c-0.2,2.7-0.6,6.4-0.8,10.2c-0.1,1.6,0.3,3.2,0.5,4.7c0.1,1.4,0.3,2.8,0.3,4.2c0,1.4-0.9,2.2-2.4,2
		c-0.2,0-0.5-0.2-0.6-0.1c-1.2,1.4-2.9,0.6-4.3,1c-1.7,0.4-3.1-0.7-3.6-2.7c-0.2-0.9-0.6-1.7-0.9-2.5c-0.6-1.2-0.6-2.4,0.1-3.5
		c0.7-1.1,0.8-2.2,0.6-3.4c-0.6-3.5-1.5-7.1-1.7-10.6c-0.2-2.8,0.3-5.7,0.9-8.4c0.6-2.4,2.6-3.7,4.6-5c0.8-0.5,1.5-1.1,2.2-1.7
		c0.7-0.6,1.4-0.9,2.3-0.6c0.9,0.3,1.3,0.9,1.4,1.9C209.4,38.9,209.8,43.5,210.2,49.1z"/>
	<path class="st0" d="M209.3,21.7c-0.1,0.6-0.1,1.3-0.4,1.9c-0.4,1.1-0.8,2.2-0.3,3.4c0.1,0.2-0.2,0.8-0.5,0.9
		c-2,0.6-3.2,2.2-4.7,3.5c-1.2,1-2.4,1.9-4,1.2c-1.8-0.8-2.5-2.4-2.4-4.2c0.1-2.7,0.4-5.5,0.8-8.2c0.1-1.2,0.9-1.7,2.2-1.6
		c0.3,0,0.6-0.1,0.8-0.2c1-0.8,2.1-0.9,3.3-0.5c0.6,0.2,1.1,0.4,1.5-0.4c0.4-0.8,1.8-0.6,2.4,0.5c0.6,1.2,1,2.5,1.5,3.7
		C209.4,21.7,209.4,21.7,209.3,21.7z"/>
</g>
<g>
	<path class="st0" d="M-280.5,112.6c-1.2,3.3-2.4,6.4-3.4,9.6c-1.3,4-2.6,8-3.9,11.9c-0.4,1.3-0.9,2.7-2.5,3.2
		c-0.2,0.1-0.3,0.5-0.4,0.8c-0.5,1.3-0.9,2.6-1.4,3.9c-0.1,0.3-0.5,0.5-0.7,0.7c-0.2-0.2-0.4-0.5-0.5-0.7c-0.5-1.3-1.4-2.6-1.3-3.9
		c0.1-2.6-0.4-5-0.6-7.6c-0.4-7.7,0.2-15.4,1.4-23.1c0.1-0.5,0.1-1.1,0.2-1.9c-2.4-0.3-4.8-0.6-7.1-0.9c-0.9-0.1-1.8,0-2.6-0.3
		c-0.6-0.2-1.4-0.6-1.7-1.1c-0.4-0.8-0.9-1.3-1.6-1.8c-0.9-0.5-1.3-1.5-0.9-2.5c0.4-1.1,1.2-1.6,2.3-1.5c2.8,0.1,5.5,0.2,8.3,0.3
		c0.3,0,0.7,0.1,0.9-0.1c1.9-1.3,4-0.9,5.9-0.3c4.1,1.4,8.2,3,12.2,4.5c0.6,0.2,1.2,0.4,1.8,0.7c1.2,0.6,2.4,1.2,3.4,2.1
		c2,1.8,3.8,3.9,5.8,5.7c6,5.4,9.8,12.1,11.3,20.1c0.2,1,0,1.8-0.8,2.5c-0.3,0.2-0.4,0.7-0.4,1c0.7,13.1-7.5,23.2-19.8,27.6
		c-5.6,2-11.2,1.8-16.9,0.7c-1.8-0.3-3.7,0-5.3-0.5c-3.5-1-6.9-2.3-10.2-3.7c-0.7-0.3-1.1-1.4-1.6-2.2c-0.2-0.3-0.1-0.6-0.3-0.9
		c-1.4-2.2-2.9-4.4-4.3-6.6c-0.7-1.1-0.7-2.1,0.1-2.6c0.4-0.2,1.1-0.3,1.5-0.1c5.7,3,11.2,6.1,16.9,9.1c1.3,0.7,2.8,1,4.1,1.4
		c0.2,0.1,0.5,0,0.7,0c2.9-0.7,5.7-1.5,8.5-2.3c0.5-0.1,1-0.4,1.3-0.8c3.9-5,6.8-10.4,7.9-16.7c0.1-0.7,0.2-1.4,0.2-2
		c-0.5-5.7-1.1-11.3-2.6-16.8C-277.3,115.3-277.8,114.5-280.5,112.6z"/>
	<path class="st0" d="M-17.4,117.2c-1.7-2.3-3.4-4.6-5-7c-0.9-1.2-1.9-1.5-3.3-1.1c-3.3,0.9-6,2.7-8.5,5c2.6,3.3,5.2,6.6,7.7,9.9
		c3.5,4.8,7,9.7,10.3,14.6c1.4,2.1,2.3,4.4,1.3,7c-0.1,0.4-0.1,0.9,0,1.3c0.8,3.5-0.4,6.6-1.6,9.8c-0.3,0.9-1.1,1.7-1.9,2.3
		c-2.9,1.9-6,3.5-8.9,5.3c-2.6,1.6-5.2,0.8-7.7-0.1c-1.5-0.6-3-1.3-4.6-1.8c-0.8-0.3-1.7-0.3-2.5-0.6c-0.9-0.3-1.7-0.8-2.5-1.3
		c-0.8-0.6-1.6-1.2-2.7-1.1c-0.4,0-0.9-0.5-1.1-0.9c-0.4-0.7-0.6-1.6-1.1-2.3c-0.2-0.4-0.8-0.7-1.1-1c-0.2-0.3-0.6-0.6-0.6-0.9
		c-0.3-3,0.5-5.8,2.5-8.1c1.2-1.3,2.9-1.6,4.2-0.9c1.3,0.7,2,2.1,1.6,3.9c-0.2,1.1-0.6,2.1-0.8,3.2c-0.1,0.4,0.2,0.9,0.4,1.2
		c1.2,1,2.5,1.9,3.9,2.8c0.3,0.2,0.7,0.3,1,0.3c2,0,4,0,6,0c0.7,0,1-0.2,1.3-0.8c0.1-0.4,0.3-0.8,0.6-1.1c2.4-2.7,1.9-5.9,1.6-9
		c0-0.3-0.3-0.5-0.6-0.7c-3.8-2.4-6.5-5.7-9-9.4c-1.1-1.6-2.8-2.6-4.3-3.8c-1.7-1.5-3.2-3.4-4.3-5.3c-0.8-1.5-1-3.5-1.4-5.3
		c-0.2-1-0.3-2-0.2-3c0.5-3.8,1.4-7.4,3.5-10.6c0.4-0.6,0.7-1.4,1.1-2c0.2-0.4,0.5-0.9,0.9-1.1c2.7-1.3,4.3-3.8,6.1-6
		c1.5-2,3.3-3.7,5.4-5c3.1-1.8,6.9-1.7,9.8,0.4c3.3,2.5,5.7,5.8,7.5,9.5c1,2.1,1.6,4.4,2.4,6.6c0.5,1.3,1.1,2.6,1.6,3.9
		c0.7,2-1,5.5-2.9,6.3c-0.3,0.1-0.6,0.4-0.8,0.6c-0.6,0.7-1.2,1.4-1.9,2c-1.2,1.1-2.6,1.1-3.6,0.2c-1-0.9-1.1-2.3-0.1-3.6
		C-18.9,118.7-18.1,118-17.4,117.2z"/>
	<path class="st0" d="M-146.2,143.6c1.2-2.7,2.4-5.2,3.5-7.8c0.5-1.1,1.4-1.8,2.5-1.7c1.1,0.1,1.8,1,1.9,2.3c0,0.2,0,0.5,0.1,0.7
		c1.5,2.5,3.1,4.9,4.6,7.4c0-1.3,0-2.6,0-3.9c0.2-5.1,0.5-10.1,0.7-15.2c0-0.7-0.3-1.5-0.5-2.2c-0.1-0.4-0.4-0.7-0.4-1.1
		c-0.3-2.4-0.8-4.9-0.6-7.3c0.2-1.9,0.3-3.9,0.4-5.8c0.1-3,2.4-4.9,4.9-4.1c0.8,0.2,1.4,0.9,2.1,1.5c0.6,0.5,1.2,1,1.9,1.4
		c1,0.5,1.5,1.1,1.5,2.2c0,1.7-0.2,3.5,0,5.2c0.1,1.7,0.6,3.5,0.8,5.2c1.5,10.3,1.5,20.4-1.8,30.4c-0.8,2.4-1.9,4.6-3.6,6.6
		c-0.8,1-1.7,1.9-3.2,1.2c0,0-0.1,0-0.1,0c-2.2,0.7-3.4-0.4-4.5-2.2c-1.7-2.7-3.7-5.1-5.6-7.7c-0.5,1.5-1.1,3.2-1.8,4.8
		c-0.7,1.6-1.6,3.1-2.5,4.6c-0.7,1.2-1.4,2.4-2.2,3.5c-1.4,2.1-2.4,2.2-4.4,0.7c-0.3-0.3-0.8-0.5-1.2-0.6c-2-0.4-3.3-1.8-4.7-3.1
		c-2.6-2.6-2.3-6-2.7-9.1c-1.2-8.4-1.8-16.8-1-25.2c0.3-2.8,0-5.7,0.1-8.6c0.1-2.1,0.3-4.2,0.6-6.2c0.3-1.8,1.3-2.5,3.1-2.3
		c1.8,0.2,3.6,0.7,5.4,1.1c0.5,0.1,0.9,0.1,1.4,0.2c1.5,0.2,1.7,0.6,1.4,2.1c0,0.2,0,0.6,0.2,0.7c0.7,0.8,0.6,1.7,0.6,2.7
		c0,2.5,0.3,5.1,0.5,7.6c0.2,2.4,0.4,4.8,0.7,7.1c0.2,1.8,0.7,3.5,0.9,5.3C-146.8,137.1-146.5,140.2-146.2,143.6z"/>
	<path class="st0" d="M-94,140.5c-0.4,1.8-0.6,3.6-1.1,5.3c-1,3.6-2,7.1-3.1,10.7c-0.2,0.5-0.4,1-0.7,1.5c-1.3,1.9-3.7,2.2-5.2,0.5
		c-0.7-0.7-1.1-1.7-1.5-2.6c-2.1-5.2-2.6-10.6-2.5-16.1c0.1-7.1,0.3-14.2,0.5-21.3c0-1.4,0.3-2.9,0.6-4.3c0.2-1,0.6-1.8,1.6-2.2
		c0.3-0.1,0.4-0.5,0.5-0.8c0.3-0.8,0.4-1.6,0.7-2.3c1.1-2.5,4-2.9,5.8-0.8c0.6,0.7,1.2,1.7,1.4,2.6c1,3.3,1.8,6.7,2.7,10
		c0.3,1,0.4,2,0.9,3c1.6,3.2,3.3,6.4,5.2,9.6c0-2.6-0.2-5.2,0-7.7c0.3-4.3,0.7-8.6,1.4-12.8c0.3-2,1.4-4,2.2-5.9
		c0.5-1.2,2-1.8,3.5-1.5c0.7,0.2,1.4,0.4,2.1,0.7c0.3,0.1,0.5,0.5,0.5,0.8c0.2,4.2,1.8,8.1,2.1,12.2c0.6,8.3,1.4,16.6,1.8,25
		c0.1,2.3-0.6,4.6-0.9,6.9c-0.1,0.5-0.2,1-0.2,1.5c0.1,2.4-0.7,4.6-1.6,6.7c-0.4,0.9-1.1,1.3-2.1,1.3c-0.6,0-1.1,0-1.7,0
		c-1.9,0-2.7-0.7-3.4-2.5c-0.6-1.5-1.4-2.9-2.3-4.3c-0.6-1-1.5-1.9-1-3.3c0.1-0.2-0.1-0.5-0.2-0.6c-1.9-3-3.8-6-5.7-9
		c-0.1-0.1-0.1-0.3-0.2-0.5C-93.9,140.4-94,140.4-94,140.5z"/>
	<path class="st0" d="M-214.8,158.3c-0.9,0.1-1.7,0.3-2.5,0.2c-1.9-0.1-3-1.4-2.7-3.3c0.3-2,0-3.8-1.2-5.5c-0.4-0.6-0.6-1.5-0.5-2.1
		c0.5-3.8-0.2-7.6-0.9-11.3c-0.9-4.7-0.5-9.5-0.1-14.2c0.3-2.9,0.7-5.9,1.2-8.8c0.4-2.1,1.5-3.4,3.9-3.7c2-0.2,3.9-1,5.8-1.7
		c2.2-0.8,4.3-1.1,6.6-0.6c0.7,0.1,1.4,0.1,2,0.3c1,0.3,2.1,0.7,3.1,1.2c1,0.5,1.8,1.1,2.7,1.7c4.3,2.7,6.4,7.4,5.6,12.5
		c-0.6,3.9-2,6.9-5.2,11.2c0.2,0.2,0.4,0.5,0.6,0.6c3.5,2.5,5.7,5.9,7.7,9.5c0.2,0.4,0.7,0.8,1.2,1c1.1,0.4,1.5,1.2,1.7,2.3
		c0.3,1.6,0.6,3.3,0.9,4.9c0.5,2.7-1.1,5-3.7,5.7c-1.4,0.3-3.7-0.9-4.7-2.4c-0.2-0.3-0.5-0.7-0.9-0.9c-1.5-0.6-2.6-1.5-3.5-2.9
		c-1.6-2.2-3.6-4-5.4-6.1c-0.9-1.1-1.6-2.4-2.4-3.6c-0.2-0.3-0.4-0.6-0.3-0.9c0.2-1.8-1.2-2.7-2.3-3.7c-0.7-0.6-0.9-1.4-0.4-2.1
		c0.5-0.7,1.1-1.4,1.7-2.1c0.1-0.1,0.2-0.2,0.3-0.3c1-1.6,1.8-3.3,3-4.7c1.6-2,2.2-4.3,2.1-6.8c0-0.2,0-0.4,0-0.6
		c-0.2-3.2-0.7-4-3.9-4.4c-2.1-0.2-4.2,0.1-6.3,0.2c-1.1,0.1-1.3,0.7-1,1.7c0.8,2.9,1.6,5.9,2.1,8.8c1.1,5.9,1,11.9,0.5,17.9
		c0,0.5,0.3,1.1,0.4,1.6c0.3,1.2,0.7,2.5,0.7,3.7c0.1,1.6-0.1,3.2-0.3,4.8c0,0.4-0.3,0.8-0.5,1.2c-0.3,0.7-0.7,1.5-1.1,2.2
		c-0.4,0.9-0.9,1.5-2,1.5c-1,0-1.6-0.5-1.9-1.3C-214.7,158.7-214.8,158.4-214.8,158.3z"/>
	<path class="st0" d="M-231.5,141.1c-2.2-7-4.4-13.9-6.7-20.9c-0.2,0-0.3,0-0.5,0.1c-0.6,2.1-1.1,4.1-1.7,6.2
		c-1.8,6.3-3.5,12.6-5.3,18.9c-0.6,2-1.6,3.9-2.5,5.8c-1.2,2.7-3.5,4.4-5.5,6.4c-0.8,0.8-1.6,1.6-2.5,2.2c-0.2,0.2-0.9,0-1.2-0.3
		c-0.2-0.1-0.2-0.7-0.2-1c-0.2-2.2-0.4-4.4-0.7-6.6c-0.3-2.7,0.3-5.4,0.8-8c0.8-3.9,2-7.6,3.3-11.4c1.4-4,2.6-8.1,4.2-12
		c1.4-3.6,3.2-7.1,4.9-10.6c0.3-0.6,0.7-1.1,1.2-1.6c2-1.9,5-1.3,6.2,1.2c0.3,0.6,0.7,1.1,1.2,1.6c3.3,3,5.6,6.7,7.5,10.6
		c2.1,4.4,3.4,9,4.3,13.8c0.5,2.4,1.5,4.8,1.6,7.2c0.2,3.4-0.2,6.9-0.6,10.2c-0.3,2.3-3.2,3.7-5.9,2.6c-1.5-0.6-3.1-1.6-4.2-2.8
		c-2.1-2.2-3.6-4.9-4.7-7.7c-0.2-0.4-0.6-0.7-0.9-1c-0.9-0.7-1.3-1.6-0.9-2.7c0.4-1.1,1.4-1.6,2.5-1.4
		C-235.7,140-233.7,140.5-231.5,141.1z"/>
	<path class="st0" d="M-46.5,134.7c-0.1,5.1-1.3,8.4-3.4,11.3c-3.9,5.4-8.3,10.4-13.7,14.3c-0.4,0.3-0.7,0.5-1.1,0.7
		c-1.9,1-3.8,0.8-5.3-0.7c-0.4-0.4-0.8-1.1-0.8-1.7c-0.7-5.8-1.4-11.7-2.1-17.5c-0.6-5.2-1.1-10.3-1.5-15.5
		c-0.5-5.4,0.3-10.7,2.1-15.8c0.2-0.5,0.1-1.2-0.1-1.7c-0.5-1.2,0-2.1,1.2-2.3c0.7-0.1,1.6,0,2.2,0.2c7,2.7,13.3,6.2,17.5,12.7
		C-48.2,124.1-46.9,129.9-46.5,134.7z M-64.2,115.1c-0.2,2.6-0.5,4.8-0.4,6.9c0.1,3.8,0.6,7.6,0.8,11.3c0.1,3.3,0,6.5-0.2,9.8
		c0,1-0.4,1.9-0.6,3.1c0.3-0.2,0.4-0.3,0.5-0.4c2.8-2.9,5.1-6.2,6.8-9.9c2-4.5,1.9-9-0.8-13.2c-1.5-2.4-3.3-4.6-5.1-6.8
		C-63.3,115.8-63.6,115.6-64.2,115.1z"/>
	<path class="st0" d="M-177.3,132.5c-1.2,0.2-2.1,0.4-3.1,0.7c-0.3,0.1-0.5,0.6-0.6,0.9c-0.8,2.9-1.6,5.8-2.3,8.7
		c-0.1,0.3,0.2,0.6,0.2,0.9c0,0.4,0.1,1.1-0.1,1.3c-0.3,0.3-1.1,0.5-1.4,0.3c-1.5-1-3.2-1.8-4.1-3.5c-0.1-0.2-0.3-0.4-0.6-0.5
		c-1.4-0.7-1.8-1.8-1.6-3.3c0.4-3.4,0.7-6.8,1.1-10.1c0.5-3.9,0.2-7.8-0.1-11.7c-0.2-2.3-0.1-4.7,0.2-7.1c0.3-2,1.3-2.6,3.3-2.5
		c0.4,0,0.7-0.1,1.1-0.1c2.5-0.4,4.3,1.6,3.4,4.1c-0.2,0.5-0.1,1.2,0,1.8c0.5,2,1.3,4,1.7,6.1c0.4,2,0.3,4.1,0.5,6.3
		c1.5-1.4,3.5-2.2,4.5-4.4c1.3-2.8,3-5.4,4.5-8c0.2-0.3,0.2-0.7,0.2-1.1c-0.2-1.9,0.6-3.1,2.5-3.5c0.8-0.2,1.7-0.5,2.4-0.4
		c1.9,0.2,3.1,2.5,2.8,4.5c-0.1,0.5,0.1,1.1,0.2,1.7c0.1,1.1,0.2,2.2,0.2,3.3c0,0.5-0.2,1-0.4,1.4c-2.2,4.1-4.3,8.3-8.3,11.1
		c-0.2,0.1-0.3,0.2-0.5,0.5c0.6,0.6,1.2,1.1,1.8,1.6c1.7,1.4,2.9,3,3.6,5.1c0.7,2,1.8,3.8,2.8,5.7c0.6,1.3,0.7,2.5,0.6,3.9
		c-0.3,2.7-0.2,5.5-0.6,8.2c-0.2,1.8-0.7,3.6-1.3,5.3c-0.7,1.9-3.3,2.2-4.7,0.8c-0.5-0.5-0.9-1.2-1.1-1.8c-1.4-3.6-2.8-7.1-4-10.8
		c-0.4-1.2-0.5-2.6-0.7-3.9c-0.2-0.8-0.4-1.6-0.5-2.5c-0.5-2.3-0.9-4.6-1.3-6.9C-177.2,133.8-177.2,133.2-177.3,132.5z"/>
	<path class="st0" d="M-108.8,139.1c-0.2,2.7-0.6,6.4-0.8,10.2c-0.1,1.6,0.3,3.2,0.5,4.7c0.1,1.4,0.3,2.8,0.3,4.2
		c0,1.4-0.9,2.2-2.4,2c-0.2,0-0.5-0.2-0.6-0.1c-1.2,1.4-2.9,0.6-4.3,1c-1.7,0.4-3.1-0.7-3.6-2.7c-0.2-0.9-0.6-1.7-0.9-2.5
		c-0.6-1.2-0.6-2.4,0.1-3.5c0.7-1.1,0.8-2.2,0.6-3.4c-0.6-3.5-1.5-7.1-1.7-10.6c-0.2-2.8,0.3-5.7,0.9-8.4c0.6-2.4,2.6-3.7,4.6-5
		c0.8-0.5,1.5-1.1,2.2-1.7c0.7-0.6,1.4-0.9,2.3-0.6c0.9,0.3,1.3,0.9,1.4,1.9C-109.6,128.9-109.2,133.5-108.8,139.1z"/>
	<path class="st0" d="M-109.7,111.7c-0.1,0.6-0.1,1.3-0.4,1.9c-0.4,1.1-0.8,2.2-0.3,3.4c0.1,0.2-0.2,0.8-0.5,0.9
		c-2,0.6-3.2,2.2-4.7,3.5c-1.2,1-2.4,1.9-4,1.2c-1.8-0.8-2.5-2.4-2.4-4.2c0.1-2.7,0.4-5.5,0.8-8.2c0.1-1.2,0.9-1.7,2.2-1.6
		c0.3,0,0.6-0.1,0.8-0.2c1-0.8,2.1-0.9,3.3-0.5c0.6,0.2,1.1,0.4,1.5-0.4c0.4-0.8,1.8-0.6,2.4,0.5c0.6,1.2,1,2.5,1.5,3.7
		C-109.6,111.7-109.6,111.7-109.7,111.7z"/>
</g>
<g>
	<path class="st0" d="M41.5,249.6c-1.2,3.3-2.4,6.4-3.4,9.6c-1.3,4-2.6,8-3.9,11.9c-0.4,1.3-0.9,2.7-2.5,3.2
		c-0.2,0.1-0.3,0.5-0.4,0.8c-0.5,1.3-0.9,2.6-1.4,3.9c-0.1,0.3-0.5,0.5-0.7,0.7c-0.2-0.2-0.4-0.5-0.5-0.7c-0.5-1.3-1.4-2.6-1.3-3.9
		c0.1-2.6-0.4-5-0.6-7.6c-0.4-7.7,0.2-15.4,1.4-23.1c0.1-0.5,0.1-1.1,0.2-1.9c-2.4-0.3-4.8-0.6-7.1-0.9c-0.9-0.1-1.8,0-2.6-0.3
		c-0.6-0.2-1.4-0.6-1.7-1.1c-0.4-0.8-0.9-1.3-1.6-1.8c-0.9-0.5-1.3-1.5-0.9-2.5c0.4-1.1,1.2-1.6,2.3-1.5c2.8,0.1,5.5,0.2,8.3,0.3
		c0.3,0,0.7,0.1,0.9-0.1c1.9-1.3,4-0.9,5.9-0.3c4.1,1.4,8.2,3,12.2,4.5c0.6,0.2,1.2,0.4,1.8,0.7c1.2,0.6,2.4,1.2,3.4,2.1
		c2,1.8,3.8,3.9,5.8,5.7c6,5.4,9.8,12.1,11.3,20.1c0.2,1,0,1.8-0.8,2.5c-0.3,0.2-0.4,0.7-0.4,1c0.7,13.1-7.5,23.2-19.8,27.6
		c-5.6,2-11.2,1.8-16.9,0.7c-1.8-0.3-3.7,0-5.3-0.5c-3.5-1-6.9-2.3-10.2-3.7c-0.7-0.3-1.1-1.4-1.6-2.2c-0.2-0.3-0.1-0.6-0.3-0.9
		c-1.4-2.2-2.9-4.4-4.3-6.6c-0.7-1.1-0.7-2.1,0.1-2.6c0.4-0.2,1.1-0.3,1.5-0.1c5.7,3,11.2,6.1,16.9,9.1c1.3,0.7,2.8,1,4.1,1.4
		c0.2,0.1,0.5,0,0.7,0c2.9-0.7,5.7-1.5,8.5-2.3c0.5-0.1,1-0.4,1.3-0.8c3.9-5,6.8-10.4,7.9-16.7c0.1-0.7,0.2-1.4,0.2-2
		c-0.5-5.7-1.1-11.3-2.6-16.8C44.7,252.3,44.2,251.5,41.5,249.6z"/>
	<path class="st0" d="M304.6,254.2c-1.7-2.3-3.4-4.6-5-7c-0.9-1.2-1.9-1.5-3.3-1.1c-3.3,0.9-6,2.7-8.5,5c2.6,3.3,5.2,6.6,7.7,9.9
		c3.5,4.8,7,9.7,10.3,14.6c1.4,2.1,2.3,4.4,1.3,7c-0.1,0.4-0.1,0.9,0,1.3c0.8,3.5-0.4,6.6-1.6,9.8c-0.3,0.9-1.1,1.7-1.9,2.3
		c-2.9,1.9-6,3.5-8.9,5.3c-2.6,1.6-5.2,0.8-7.7-0.1c-1.5-0.6-3-1.3-4.6-1.8c-0.8-0.3-1.7-0.3-2.5-0.6c-0.9-0.3-1.7-0.8-2.5-1.3
		c-0.8-0.6-1.6-1.2-2.7-1.1c-0.4,0-0.9-0.5-1.1-0.9c-0.4-0.7-0.6-1.6-1.1-2.3c-0.2-0.4-0.8-0.7-1.1-1c-0.2-0.3-0.6-0.6-0.6-0.9
		c-0.3-3,0.5-5.8,2.5-8.1c1.2-1.3,2.9-1.6,4.2-0.9c1.3,0.7,2,2.1,1.6,3.9c-0.2,1.1-0.6,2.1-0.8,3.2c-0.1,0.4,0.2,0.9,0.4,1.2
		c1.2,1,2.5,1.9,3.9,2.8c0.3,0.2,0.7,0.3,1,0.3c2,0,4,0,6,0c0.7,0,1-0.2,1.3-0.8c0.1-0.4,0.3-0.8,0.6-1.1c2.4-2.7,1.9-5.9,1.6-9
		c0-0.3-0.3-0.5-0.6-0.7c-3.8-2.4-6.5-5.7-9-9.4c-1.1-1.6-2.8-2.6-4.3-3.8c-1.7-1.5-3.2-3.4-4.3-5.3c-0.8-1.5-1-3.5-1.4-5.3
		c-0.2-1-0.3-2-0.2-3c0.5-3.8,1.4-7.4,3.5-10.6c0.4-0.6,0.7-1.4,1.1-2c0.2-0.4,0.5-0.9,0.9-1.1c2.7-1.3,4.3-3.8,6.1-6
		c1.5-2,3.3-3.7,5.4-5c3.1-1.8,6.9-1.7,9.8,0.4c3.3,2.5,5.7,5.8,7.5,9.5c1,2.1,1.6,4.4,2.4,6.6c0.5,1.3,1.1,2.6,1.6,3.9
		c0.7,2-1,5.5-2.9,6.3c-0.3,0.1-0.6,0.4-0.8,0.6c-0.6,0.7-1.2,1.4-1.9,2c-1.2,1.1-2.6,1.1-3.6,0.2c-1-0.9-1.1-2.3-0.1-3.6
		C303.1,255.7,303.9,255,304.6,254.2z"/>
	<path class="st0" d="M175.8,280.6c1.2-2.7,2.4-5.2,3.5-7.8c0.5-1.1,1.4-1.8,2.5-1.7c1.1,0.1,1.8,1,1.9,2.3c0,0.2,0,0.5,0.1,0.7
		c1.5,2.5,3.1,4.9,4.6,7.4c0-1.3,0-2.6,0-3.9c0.2-5.1,0.5-10.1,0.7-15.2c0-0.7-0.3-1.5-0.5-2.2c-0.1-0.4-0.4-0.7-0.4-1.1
		c-0.3-2.4-0.8-4.9-0.6-7.3c0.2-1.9,0.3-3.9,0.4-5.8c0.1-3,2.4-4.9,4.9-4.1c0.8,0.2,1.4,0.9,2.1,1.5c0.6,0.5,1.2,1,1.9,1.4
		c1,0.5,1.5,1.1,1.5,2.2c0,1.7-0.2,3.5,0,5.2c0.1,1.7,0.6,3.5,0.8,5.2c1.5,10.3,1.5,20.4-1.8,30.4c-0.8,2.4-1.9,4.6-3.6,6.6
		c-0.8,1-1.7,1.9-3.2,1.2c0,0-0.1,0-0.1,0c-2.2,0.7-3.4-0.4-4.5-2.2c-1.7-2.7-3.7-5.1-5.6-7.7c-0.5,1.5-1.1,3.2-1.8,4.8
		c-0.7,1.6-1.6,3.1-2.5,4.6c-0.7,1.2-1.4,2.4-2.2,3.5c-1.4,2.1-2.4,2.2-4.4,0.7c-0.3-0.3-0.8-0.5-1.2-0.6c-2-0.4-3.3-1.8-4.7-3.1
		c-2.6-2.6-2.3-6-2.7-9.1c-1.2-8.4-1.8-16.8-1-25.2c0.3-2.8,0-5.7,0.1-8.6c0.1-2.1,0.3-4.2,0.6-6.2c0.3-1.8,1.3-2.5,3.1-2.3
		c1.8,0.2,3.6,0.7,5.4,1.1c0.5,0.1,0.9,0.1,1.4,0.2c1.5,0.2,1.7,0.6,1.4,2.1c0,0.2,0,0.6,0.2,0.7c0.7,0.8,0.6,1.7,0.6,2.7
		c0,2.5,0.3,5.1,0.5,7.6c0.2,2.4,0.4,4.8,0.7,7.1c0.2,1.8,0.7,3.5,0.9,5.3C175.2,274.1,175.5,277.2,175.8,280.6z"/>
	<path class="st0" d="M228.3,277.5c-0.4,1.8-0.6,3.6-1.1,5.3c-1,3.6-2,7.1-3.1,10.7c-0.2,0.5-0.4,1-0.7,1.5
		c-1.3,1.9-3.7,2.2-5.2,0.5c-0.7-0.7-1.1-1.7-1.5-2.6c-2.1-5.2-2.6-10.6-2.5-16.1c0.1-7.1,0.3-14.2,0.5-21.3c0-1.4,0.3-2.9,0.6-4.3
		c0.2-1,0.6-1.8,1.6-2.2c0.3-0.1,0.4-0.5,0.5-0.8c0.3-0.8,0.4-1.6,0.7-2.3c1.1-2.5,4-2.9,5.8-0.8c0.6,0.7,1.2,1.7,1.4,2.6
		c1,3.3,1.8,6.7,2.7,10c0.3,1,0.4,2,0.9,3c1.6,3.2,3.3,6.4,5.2,9.6c0-2.6-0.2-5.2,0-7.7c0.3-4.3,0.7-8.6,1.4-12.8
		c0.3-2,1.4-4,2.2-5.9c0.5-1.2,2-1.8,3.5-1.5c0.7,0.2,1.4,0.4,2.1,0.7c0.3,0.1,0.5,0.5,0.5,0.8c0.2,4.2,1.8,8.1,2.1,12.2
		c0.6,8.3,1.4,16.6,1.8,25c0.1,2.3-0.6,4.6-0.9,6.9c-0.1,0.5-0.2,1-0.2,1.5c0.1,2.4-0.7,4.6-1.6,6.7c-0.4,0.9-1.1,1.3-2.1,1.3
		c-0.6,0-1.1,0-1.7,0c-1.9,0-2.7-0.7-3.4-2.5c-0.6-1.5-1.4-2.9-2.3-4.3c-0.6-1-1.5-1.9-1-3.3c0.1-0.2-0.1-0.5-0.2-0.6
		c-1.9-3-3.8-6-5.7-9c-0.1-0.1-0.1-0.3-0.2-0.5C228.4,277.4,228.3,277.4,228.3,277.5z"/>
	<path class="st0" d="M107.2,295.3c-0.9,0.1-1.7,0.3-2.5,0.2c-1.9-0.1-3-1.4-2.7-3.3c0.3-2,0-3.8-1.2-5.5c-0.4-0.6-0.6-1.5-0.5-2.1
		c0.5-3.8-0.2-7.6-0.9-11.3c-0.9-4.7-0.5-9.5-0.1-14.2c0.3-2.9,0.7-5.9,1.2-8.8c0.4-2.1,1.5-3.4,3.9-3.7c2-0.2,3.9-1,5.8-1.7
		c2.2-0.8,4.3-1.1,6.6-0.6c0.7,0.1,1.4,0.1,2,0.3c1,0.3,2.1,0.7,3.1,1.2c1,0.5,1.8,1.1,2.7,1.7c4.3,2.7,6.4,7.4,5.6,12.5
		c-0.6,3.9-2,6.9-5.2,11.2c0.2,0.2,0.4,0.5,0.6,0.6c3.5,2.5,5.7,5.9,7.7,9.5c0.2,0.4,0.7,0.8,1.2,1c1.1,0.4,1.5,1.2,1.7,2.3
		c0.3,1.6,0.6,3.3,0.9,4.9c0.5,2.7-1.1,5-3.7,5.7c-1.4,0.3-3.7-0.9-4.7-2.4c-0.2-0.3-0.5-0.7-0.9-0.9c-1.5-0.6-2.6-1.5-3.5-2.9
		c-1.6-2.2-3.6-4-5.4-6.1c-0.9-1.1-1.6-2.4-2.4-3.6c-0.2-0.3-0.4-0.6-0.3-0.9c0.2-1.8-1.2-2.7-2.3-3.7c-0.7-0.6-0.9-1.4-0.4-2.1
		c0.5-0.7,1.1-1.4,1.7-2.1c0.1-0.1,0.2-0.2,0.3-0.3c1-1.6,1.8-3.3,3-4.7c1.6-2,2.2-4.3,2.1-6.8c0-0.2,0-0.4,0-0.6
		c-0.2-3.2-0.7-4-3.9-4.4c-2.1-0.2-4.2,0.1-6.3,0.2c-1.1,0.1-1.3,0.7-1,1.7c0.8,2.9,1.6,5.9,2.1,8.8c1.1,5.9,1,11.9,0.5,17.9
		c0,0.5,0.3,1.1,0.4,1.6c0.3,1.2,0.7,2.5,0.7,3.7c0.1,1.6-0.1,3.2-0.3,4.8c0,0.4-0.3,0.8-0.5,1.2c-0.3,0.7-0.7,1.5-1.1,2.2
		c-0.4,0.9-0.9,1.5-2,1.5c-1,0-1.6-0.5-1.9-1.3C107.3,295.7,107.2,295.4,107.2,295.3z"/>
	<path class="st0" d="M90.5,278.1c-2.2-7-4.4-13.9-6.7-20.9c-0.2,0-0.3,0-0.5,0.1c-0.6,2.1-1.1,4.1-1.7,6.2
		c-1.8,6.3-3.5,12.6-5.3,18.9c-0.6,2-1.6,3.9-2.5,5.8c-1.2,2.7-3.5,4.4-5.5,6.4c-0.8,0.8-1.6,1.6-2.5,2.2c-0.2,0.2-0.9,0-1.2-0.3
		c-0.2-0.1-0.2-0.7-0.2-1c-0.2-2.2-0.4-4.4-0.7-6.6c-0.3-2.7,0.3-5.4,0.8-8c0.8-3.9,2-7.6,3.3-11.4c1.4-4,2.6-8.1,4.2-12
		c1.4-3.6,3.2-7.1,4.9-10.6c0.3-0.6,0.7-1.1,1.2-1.6c2-1.9,5-1.3,6.2,1.2c0.3,0.6,0.7,1.1,1.2,1.6c3.3,3,5.6,6.7,7.5,10.6
		c2.1,4.4,3.4,9,4.3,13.8c0.5,2.4,1.5,4.8,1.6,7.2c0.2,3.4-0.2,6.9-0.6,10.2c-0.3,2.3-3.2,3.7-5.9,2.6c-1.5-0.6-3.1-1.6-4.2-2.8
		c-2.1-2.2-3.6-4.9-4.7-7.7c-0.2-0.4-0.6-0.7-0.9-1c-0.9-0.7-1.3-1.6-0.9-2.7c0.4-1.1,1.4-1.6,2.5-1.4
		C86.3,277,88.3,277.5,90.5,278.1z"/>
	<path class="st0" d="M275.5,271.7c-0.1,5.1-1.3,8.4-3.4,11.3c-3.9,5.4-8.3,10.4-13.7,14.3c-0.4,0.3-0.7,0.5-1.1,0.7
		c-1.9,1-3.8,0.8-5.3-0.7c-0.4-0.4-0.8-1.1-0.8-1.7c-0.7-5.8-1.4-11.7-2.1-17.5c-0.6-5.2-1.1-10.3-1.5-15.5
		c-0.5-5.4,0.3-10.7,2.1-15.8c0.2-0.5,0.1-1.2-0.1-1.7c-0.5-1.2,0-2.1,1.2-2.3c0.7-0.1,1.6,0,2.2,0.2c7,2.7,13.3,6.2,17.5,12.7
		C273.8,261.1,275.1,266.9,275.5,271.7z M257.8,252.1c-0.2,2.6-0.5,4.8-0.4,6.9c0.1,3.8,0.6,7.6,0.8,11.3c0.1,3.3,0,6.5-0.2,9.8
		c0,1-0.4,1.9-0.6,3.1c0.3-0.2,0.4-0.3,0.5-0.4c2.8-2.9,5.1-6.2,6.8-9.9c2-4.5,1.9-9-0.8-13.2c-1.5-2.4-3.3-4.6-5.1-6.8
		C258.7,252.8,258.4,252.6,257.8,252.1z"/>
	<path class="st0" d="M144.7,269.5c-1.2,0.2-2.1,0.4-3.1,0.7c-0.3,0.1-0.5,0.6-0.6,0.9c-0.8,2.9-1.6,5.8-2.3,8.7
		c-0.1,0.3,0.2,0.6,0.2,0.9c0,0.4,0.1,1.1-0.1,1.3c-0.3,0.3-1.1,0.5-1.4,0.3c-1.5-1-3.2-1.8-4.1-3.5c-0.1-0.2-0.3-0.4-0.6-0.5
		c-1.4-0.7-1.8-1.8-1.6-3.3c0.4-3.4,0.7-6.8,1.1-10.1c0.5-3.9,0.2-7.8-0.1-11.7c-0.2-2.3-0.1-4.7,0.2-7.1c0.3-2,1.3-2.6,3.3-2.5
		c0.4,0,0.7-0.1,1.1-0.1c2.5-0.4,4.3,1.6,3.4,4.1c-0.2,0.5-0.1,1.2,0,1.8c0.5,2,1.3,4,1.7,6.1c0.4,2,0.3,4.1,0.5,6.3
		c1.5-1.4,3.5-2.2,4.5-4.4c1.3-2.8,3-5.4,4.5-8c0.2-0.3,0.2-0.7,0.2-1.1c-0.2-1.9,0.6-3.1,2.5-3.5c0.8-0.2,1.7-0.5,2.4-0.4
		c1.9,0.2,3.1,2.5,2.8,4.5c-0.1,0.5,0.1,1.1,0.2,1.7c0.1,1.1,0.2,2.2,0.2,3.3c0,0.5-0.2,1-0.4,1.4c-2.2,4.1-4.3,8.3-8.3,11.1
		c-0.2,0.1-0.3,0.2-0.5,0.5c0.6,0.6,1.2,1.1,1.8,1.6c1.7,1.4,2.9,3,3.6,5.1c0.7,2,1.8,3.8,2.8,5.7c0.6,1.3,0.7,2.5,0.6,3.9
		c-0.3,2.7-0.2,5.5-0.6,8.2c-0.2,1.8-0.7,3.6-1.3,5.3c-0.7,1.9-3.3,2.2-4.7,0.8c-0.5-0.5-0.9-1.2-1.1-1.8c-1.4-3.6-2.8-7.1-4-10.8
		c-0.4-1.2-0.5-2.6-0.7-3.9c-0.2-0.8-0.4-1.6-0.5-2.5c-0.5-2.3-0.9-4.6-1.3-6.9C144.8,270.8,144.8,270.2,144.7,269.5z"/>
	<path class="st0" d="M213.2,276.1c-0.2,2.7-0.6,6.4-0.8,10.2c-0.1,1.6,0.3,3.2,0.5,4.7c0.1,1.4,0.3,2.8,0.3,4.2
		c0,1.4-0.9,2.2-2.4,2c-0.2,0-0.5-0.2-0.6-0.1c-1.2,1.4-2.9,0.6-4.3,1c-1.7,0.4-3.1-0.7-3.6-2.7c-0.2-0.9-0.6-1.7-0.9-2.5
		c-0.6-1.2-0.6-2.4,0.1-3.5c0.7-1.1,0.8-2.2,0.6-3.4c-0.6-3.5-1.5-7.1-1.7-10.6c-0.2-2.8,0.3-5.7,0.9-8.4c0.6-2.4,2.6-3.7,4.6-5
		c0.8-0.5,1.5-1.1,2.2-1.7c0.7-0.6,1.4-0.9,2.3-0.6c0.9,0.3,1.3,0.9,1.4,1.9C212.4,265.9,212.8,270.5,213.2,276.1z"/>
	<path class="st0" d="M212.3,248.7c-0.1,0.6-0.1,1.3-0.4,1.9c-0.4,1.1-0.8,2.2-0.3,3.4c0.1,0.2-0.2,0.8-0.5,0.9
		c-2,0.6-3.2,2.2-4.7,3.5c-1.2,1-2.4,1.9-4,1.2c-1.8-0.8-2.5-2.4-2.4-4.2c0.1-2.7,0.4-5.5,0.8-8.2c0.1-1.2,0.9-1.7,2.2-1.6
		c0.3,0,0.6-0.1,0.8-0.2c1-0.8,2.1-0.9,3.3-0.5c0.6,0.2,1.1,0.4,1.5-0.4c0.4-0.8,1.8-0.6,2.4,0.5c0.6,1.2,1,2.5,1.5,3.7
		C212.4,248.7,212.4,248.7,212.3,248.7z"/>
</g>
<g>
	<path class="st0" d="M-297.5,22.6c-1.2,3.3-2.4,6.4-3.4,9.6c-1.3,4-2.6,8-3.9,11.9c-0.4,1.3-0.9,2.7-2.5,3.2
		c-0.2,0.1-0.3,0.5-0.4,0.8c-0.5,1.3-0.9,2.6-1.4,3.9c-0.1,0.3-0.5,0.5-0.7,0.7c-0.2-0.2-0.4-0.5-0.5-0.7c-0.5-1.3-1.4-2.6-1.3-3.9
		c0.1-2.6-0.4-5-0.6-7.6c-0.4-7.7,0.2-15.4,1.4-23.1c0.1-0.5,0.1-1.1,0.2-1.9c-2.4-0.3-4.8-0.6-7.1-0.9c-0.9-0.1-1.8,0-2.6-0.3
		c-0.6-0.2-1.4-0.6-1.7-1.1c-0.4-0.8-0.9-1.3-1.6-1.8c-0.9-0.5-1.3-1.5-0.9-2.5c0.4-1.1,1.2-1.6,2.3-1.5c2.8,0.1,5.5,0.2,8.3,0.3
		c0.3,0,0.7,0.1,0.9-0.1c1.9-1.3,4-0.9,5.9-0.3c4.1,1.4,8.2,3,12.2,4.5c0.6,0.2,1.2,0.4,1.8,0.7c1.2,0.6,2.4,1.2,3.4,2.1
		c2,1.8,3.8,3.9,5.8,5.7c6,5.4,9.8,12.1,11.3,20.1c0.2,1,0,1.8-0.8,2.5c-0.3,0.2-0.4,0.7-0.4,1c0.7,13.1-7.5,23.2-19.8,27.6
		c-5.6,2-11.2,1.8-16.9,0.7c-1.8-0.3-3.7,0-5.3-0.5c-3.5-1-6.9-2.3-10.2-3.7c-0.7-0.3-1.1-1.4-1.6-2.2c-0.2-0.3-0.1-0.6-0.3-0.9
		c-1.4-2.2-2.9-4.4-4.3-6.6c-0.7-1.1-0.7-2.1,0.1-2.6c0.4-0.2,1.1-0.3,1.5-0.1c5.7,3,11.2,6.1,16.9,9.1c1.3,0.7,2.8,1,4.1,1.4
		c0.2,0.1,0.5,0,0.7,0c2.9-0.7,5.7-1.5,8.5-2.3c0.5-0.1,1-0.4,1.3-0.8c3.9-5,6.8-10.4,7.9-16.7c0.1-0.7,0.2-1.4,0.2-2
		c-0.5-5.7-1.1-11.3-2.6-16.8C-294.3,25.3-294.8,24.5-297.5,22.6z"/>
	<path class="st0" d="M-17.4,27.2c-1.7-2.3-3.4-4.6-5-7c-0.9-1.2-1.9-1.5-3.3-1.1c-3.3,0.9-6,2.7-8.5,5c2.6,3.3,5.2,6.6,7.7,9.9
		c3.5,4.8,7,9.7,10.3,14.6c1.4,2.1,2.3,4.4,1.3,7c-0.1,0.4-0.1,0.9,0,1.3c0.8,3.5-0.4,6.6-1.6,9.8c-0.3,0.9-1.1,1.7-1.9,2.3
		c-2.9,1.9-6,3.5-8.9,5.3c-2.6,1.6-5.2,0.8-7.7-0.1c-1.5-0.6-3-1.3-4.6-1.8c-0.8-0.3-1.7-0.3-2.5-0.6c-0.9-0.3-1.7-0.8-2.5-1.3
		c-0.8-0.6-1.6-1.2-2.7-1.1c-0.4,0-0.9-0.5-1.1-0.9c-0.4-0.7-0.6-1.6-1.1-2.3c-0.2-0.4-0.8-0.7-1.1-1c-0.2-0.3-0.6-0.6-0.6-0.9
		c-0.3-3,0.5-5.8,2.5-8.1c1.2-1.3,2.9-1.6,4.2-0.9c1.3,0.7,2,2.1,1.6,3.9c-0.2,1.1-0.6,2.1-0.8,3.2c-0.1,0.4,0.2,0.9,0.4,1.2
		c1.2,1,2.5,1.9,3.9,2.8c0.3,0.2,0.7,0.3,1,0.3c2,0,4,0,6,0c0.7,0,1-0.2,1.3-0.8c0.1-0.4,0.3-0.8,0.6-1.1c2.4-2.7,1.9-5.9,1.6-9
		c0-0.3-0.3-0.5-0.6-0.7c-3.8-2.4-6.5-5.7-9-9.4c-1.1-1.6-2.8-2.6-4.3-3.8c-1.7-1.5-3.2-3.4-4.3-5.3c-0.8-1.5-1-3.5-1.4-5.3
		c-0.2-1-0.3-2-0.2-3c0.5-3.8,1.4-7.4,3.5-10.6c0.4-0.6,0.7-1.4,1.1-2c0.2-0.4,0.5-0.9,0.9-1.1c2.7-1.3,4.3-3.8,6.1-6
		c1.5-2,3.3-3.7,5.4-5c3.1-1.8,6.9-1.7,9.8,0.4c3.3,2.5,5.7,5.8,7.5,9.5c1,2.1,1.6,4.4,2.4,6.6c0.5,1.3,1.1,2.6,1.6,3.9
		c0.7,2-1,5.5-2.9,6.3c-0.3,0.1-0.6,0.4-0.8,0.6c-0.6,0.7-1.2,1.4-1.9,2c-1.2,1.1-2.6,1.1-3.6,0.2c-1-0.9-1.1-2.3-0.1-3.6
		C-18.9,28.7-18.1,28-17.4,27.2z"/>
	<path class="st0" d="M-155.2,53.6c1.2-2.7,2.4-5.2,3.5-7.8c0.5-1.1,1.4-1.8,2.5-1.7c1.1,0.1,1.8,1,1.9,2.3c0,0.2,0,0.5,0.1,0.7
		c1.5,2.5,3.1,4.9,4.6,7.4c0-1.3,0-2.6,0-3.9c0.2-5.1,0.5-10.1,0.7-15.2c0-0.7-0.3-1.5-0.5-2.2c-0.1-0.4-0.4-0.7-0.4-1.1
		c-0.3-2.4-0.8-4.9-0.6-7.3c0.2-1.9,0.3-3.9,0.4-5.8c0.1-3,2.4-4.9,4.9-4.1c0.8,0.2,1.4,0.9,2.1,1.5c0.6,0.5,1.2,1,1.9,1.4
		c1,0.5,1.5,1.1,1.5,2.2c0,1.7-0.2,3.5,0,5.2c0.1,1.7,0.6,3.5,0.8,5.2c1.5,10.3,1.5,20.4-1.8,30.4c-0.8,2.4-1.9,4.6-3.6,6.6
		c-0.8,1-1.7,1.9-3.2,1.2c0,0-0.1,0-0.1,0c-2.2,0.7-3.4-0.4-4.5-2.2c-1.7-2.7-3.7-5.1-5.6-7.7c-0.5,1.5-1.1,3.2-1.8,4.8
		c-0.7,1.6-1.6,3.1-2.5,4.6c-0.7,1.2-1.4,2.4-2.2,3.5c-1.4,2.1-2.4,2.2-4.4,0.7c-0.3-0.3-0.8-0.5-1.2-0.6c-2-0.4-3.3-1.8-4.7-3.1
		c-2.6-2.6-2.3-6-2.7-9.1c-1.2-8.4-1.8-16.8-1-25.2c0.3-2.8,0-5.7,0.1-8.6c0.1-2.1,0.3-4.2,0.6-6.2c0.3-1.8,1.3-2.5,3.1-2.3
		c1.8,0.2,3.6,0.7,5.4,1.1c0.5,0.1,0.9,0.1,1.4,0.2c1.5,0.2,1.7,0.6,1.4,2.1c0,0.2,0,0.6,0.2,0.7c0.7,0.8,0.6,1.7,0.6,2.7
		c0,2.5,0.3,5.1,0.5,7.6c0.2,2.4,0.4,4.8,0.7,7.1c0.2,1.8,0.7,3.5,0.9,5.3C-155.8,47.1-155.5,50.2-155.2,53.6z"/>
	<path class="st0" d="M-100,50.5c-0.4,1.8-0.6,3.6-1.1,5.3c-1,3.6-2,7.1-3.1,10.7c-0.2,0.5-0.4,1-0.7,1.5c-1.3,1.9-3.7,2.2-5.2,0.5
		c-0.7-0.7-1.1-1.7-1.5-2.6c-2.1-5.2-2.6-10.6-2.5-16.1c0.1-7.1,0.3-14.2,0.5-21.3c0-1.4,0.3-2.9,0.6-4.3c0.2-1,0.6-1.8,1.6-2.2
		c0.3-0.1,0.4-0.5,0.5-0.8c0.3-0.8,0.4-1.6,0.7-2.3c1.1-2.5,4-2.9,5.8-0.8c0.6,0.7,1.2,1.7,1.4,2.6c1,3.3,1.8,6.7,2.7,10
		c0.3,1,0.4,2,0.9,3c1.6,3.2,3.3,6.4,5.2,9.6c0-2.6-0.2-5.2,0-7.7c0.3-4.3,0.7-8.6,1.4-12.8c0.3-2,1.4-4,2.2-5.9
		c0.5-1.2,2-1.8,3.5-1.5c0.7,0.2,1.4,0.4,2.1,0.7c0.3,0.1,0.5,0.5,0.5,0.8c0.2,4.2,1.8,8.1,2.1,12.2c0.6,8.3,1.4,16.6,1.8,25
		c0.1,2.3-0.6,4.6-0.9,6.9c-0.1,0.5-0.2,1-0.2,1.5c0.1,2.4-0.7,4.6-1.6,6.7c-0.4,0.9-1.1,1.3-2.1,1.3c-0.6,0-1.1,0-1.7,0
		c-1.9,0-2.7-0.7-3.4-2.5c-0.6-1.5-1.4-2.9-2.3-4.3c-0.6-1-1.5-1.9-1-3.3c0.1-0.2-0.1-0.5-0.2-0.6c-1.9-3-3.8-6-5.7-9
		c-0.1-0.1-0.1-0.3-0.2-0.5C-99.9,50.4-100,50.4-100,50.5z"/>
	<path class="st0" d="M-227.8,68.3c-0.9,0.1-1.7,0.3-2.5,0.2c-1.9-0.1-3-1.4-2.7-3.3c0.3-2,0-3.8-1.2-5.5c-0.4-0.6-0.6-1.5-0.5-2.1
		c0.5-3.8-0.2-7.6-0.9-11.3c-0.9-4.7-0.5-9.5-0.1-14.2c0.3-2.9,0.7-5.9,1.2-8.8c0.4-2.1,1.5-3.4,3.9-3.7c2-0.2,3.9-1,5.8-1.7
		c2.2-0.8,4.3-1.1,6.6-0.6c0.7,0.1,1.4,0.1,2,0.3c1,0.3,2.1,0.7,3.1,1.2c1,0.5,1.8,1.1,2.7,1.7c4.3,2.7,6.4,7.4,5.6,12.5
		c-0.6,3.9-2,6.9-5.2,11.2c0.2,0.2,0.4,0.5,0.6,0.6c3.5,2.5,5.7,5.9,7.7,9.5c0.2,0.4,0.7,0.8,1.2,1c1.1,0.4,1.5,1.2,1.7,2.3
		c0.3,1.6,0.6,3.3,0.9,4.9c0.5,2.7-1.1,5-3.7,5.7c-1.4,0.3-3.7-0.9-4.7-2.4c-0.2-0.3-0.5-0.7-0.9-0.9c-1.5-0.6-2.6-1.5-3.5-2.9
		c-1.6-2.2-3.6-4-5.4-6.1c-0.9-1.1-1.6-2.4-2.4-3.6c-0.2-0.3-0.4-0.6-0.3-0.9c0.2-1.8-1.2-2.7-2.3-3.7c-0.7-0.6-0.9-1.4-0.4-2.1
		c0.5-0.7,1.1-1.4,1.7-2.1c0.1-0.1,0.2-0.2,0.3-0.3c1-1.6,1.8-3.3,3-4.7c1.6-2,2.2-4.3,2.1-6.8c0-0.2,0-0.4,0-0.6
		c-0.2-3.2-0.7-4-3.9-4.4c-2.1-0.2-4.2,0.1-6.3,0.2c-1.1,0.1-1.3,0.7-1,1.7c0.8,2.9,1.6,5.9,2.1,8.8c1.1,5.9,1,11.9,0.5,17.9
		c0,0.5,0.3,1.1,0.4,1.6c0.3,1.2,0.7,2.5,0.7,3.7c0.1,1.6-0.1,3.2-0.3,4.8c0,0.4-0.3,0.8-0.5,1.2c-0.3,0.7-0.7,1.5-1.1,2.2
		c-0.4,0.9-0.9,1.5-2,1.5c-1,0-1.6-0.5-1.9-1.3C-227.7,68.7-227.8,68.4-227.8,68.3z"/>
	<path class="st0" d="M-246.5,51.1c-2.2-7-4.4-13.9-6.7-20.9c-0.2,0-0.3,0-0.5,0.1c-0.6,2.1-1.1,4.1-1.7,6.2
		c-1.8,6.3-3.5,12.6-5.3,18.9c-0.6,2-1.6,3.9-2.5,5.8c-1.2,2.7-3.5,4.4-5.5,6.4c-0.8,0.8-1.6,1.6-2.5,2.2c-0.2,0.2-0.9,0-1.2-0.3
		c-0.2-0.1-0.2-0.7-0.2-1c-0.2-2.2-0.4-4.4-0.7-6.6c-0.3-2.7,0.3-5.4,0.8-8c0.8-3.9,2-7.6,3.3-11.4c1.4-4,2.6-8.1,4.2-12
		c1.4-3.6,3.2-7.1,4.9-10.6c0.3-0.6,0.7-1.1,1.2-1.6c2-1.9,5-1.3,6.2,1.2c0.3,0.6,0.7,1.1,1.2,1.6c3.3,3,5.6,6.7,7.5,10.6
		c2.1,4.4,3.4,9,4.3,13.8c0.5,2.4,1.5,4.8,1.6,7.2c0.2,3.4-0.2,6.9-0.6,10.2c-0.3,2.3-3.2,3.7-5.9,2.6c-1.5-0.6-3.1-1.6-4.2-2.8
		c-2.1-2.2-3.6-4.9-4.7-7.7c-0.2-0.4-0.6-0.7-0.9-1c-0.9-0.7-1.3-1.6-0.9-2.7c0.4-1.1,1.4-1.6,2.5-1.4
		C-250.7,50-248.7,50.5-246.5,51.1z"/>
	<path class="st0" d="M-50.5,44.7C-50.6,49.8-51.9,53-54,56c-3.9,5.4-8.3,10.4-13.7,14.3c-0.4,0.3-0.7,0.5-1.1,0.7
		c-1.9,1-3.8,0.8-5.3-0.7c-0.4-0.4-0.8-1.1-0.8-1.7c-0.7-5.8-1.4-11.7-2.1-17.5c-0.3-2.9-0.6-5.7-0.9-8.6c-0.1-1.4-0.3-2.9-0.3-4.3
		C-76,31-83,22-76,17c1.3-1,2.7-1,4-0.5c2.7,1,5.5,3.8,8.6,4.5c0.8,0.5,1.5,1,2.2,1.6c2.1,1.7,4,3.7,5.5,6.2
		C-52.2,34.1-50.9,39.9-50.5,44.7z M-68.5,25.1C-70,27-69,30-68.6,32.1c0,0.6,0.1,1.3,0.1,1.9c0.2,3.2,0.6,6.3,0.7,9.5
		c0.1,3.3,0,6.5-0.2,9.8c0,1-0.4,1.9-0.6,3.1c0.3-0.2,0.4-0.3,0.5-0.4c2.8-2.9,5.1-6.2,6.8-9.9c2-4.5,1.9-9-0.8-13.2
		c-0.4-0.6-0.8-1.2-1.2-1.8c-0.4-0.6-0.8-1.1-1.3-1.7C-66,29-67,28-67.2,26.1C-67.5,25.8-67.9,25.6-68.5,25.1z"/>
	<path class="st0" d="M-188.3,42.5c-1.2,0.2-2.1,0.4-3.1,0.7c-0.3,0.1-0.5,0.6-0.6,0.9c-0.8,2.9-1.6,5.8-2.3,8.7
		c-0.1,0.3,0.2,0.6,0.2,0.9c0,0.4,0.1,1.1-0.1,1.3c-0.3,0.3-1.1,0.5-1.4,0.3c-1.5-1-3.2-1.8-4.1-3.5c-0.1-0.2-0.3-0.4-0.6-0.5
		c-1.4-0.7-1.8-1.8-1.6-3.3c0.4-3.4,0.7-6.8,1.1-10.1c0.5-3.9,0.2-7.8-0.1-11.7c-0.2-2.3-0.1-4.7,0.2-7.1c0.3-2,1.3-2.6,3.3-2.5
		c0.4,0,0.7-0.1,1.1-0.1c2.5-0.4,4.3,1.6,3.4,4.1c-0.2,0.5-0.1,1.2,0,1.8c0.5,2,1.3,4,1.7,6.1c0.4,2,0.3,4.1,0.5,6.3
		c1.5-1.4,3.5-2.2,4.5-4.4c1.3-2.8,3-5.4,4.5-8c0.2-0.3,0.2-0.7,0.2-1.1c-0.2-1.9,0.6-3.1,2.5-3.5c0.8-0.2,1.7-0.5,2.4-0.4
		c1.9,0.2,3.1,2.5,2.8,4.5c-0.1,0.5,0.1,1.1,0.2,1.7c0.1,1.1,0.2,2.2,0.2,3.3c0,0.5-0.2,1-0.4,1.4c-2.2,4.1-4.3,8.3-8.3,11.1
		c-0.2,0.1-0.3,0.2-0.5,0.5c0.6,0.6,1.2,1.1,1.8,1.6c1.7,1.4,2.9,3,3.6,5.1c0.7,2,1.8,3.8,2.8,5.7c0.6,1.3,0.7,2.5,0.6,3.9
		c-0.3,2.7-0.2,5.5-0.6,8.2c-0.2,1.8-0.7,3.6-1.3,5.3c-0.7,1.9-3.3,2.2-4.7,0.8c-0.5-0.5-0.9-1.2-1.1-1.8c-1.4-3.6-2.8-7.1-4-10.8
		c-0.4-1.2-0.5-2.6-0.7-3.9c-0.2-0.8-0.4-1.6-0.5-2.5c-0.5-2.3-0.9-4.6-1.3-6.9C-188.2,43.8-188.2,43.2-188.3,42.5z"/>
	<path class="st0" d="M-115.8,49.1c-0.2,2.7-0.6,6.4-0.8,10.2c-0.1,1.6,0.3,3.2,0.5,4.7c0.1,1.4,0.3,2.8,0.3,4.2
		c0,1.4-0.9,2.2-2.4,2c-0.2,0-0.5-0.2-0.6-0.1c-1.2,1.4-2.9,0.6-4.3,1c-1.7,0.4-3.1-0.7-3.6-2.7c-0.2-0.9-0.6-1.7-0.9-2.5
		c-0.6-1.2-0.6-2.4,0.1-3.5c0.7-1.1,0.8-2.2,0.6-3.4c-0.6-3.5-1.5-7.1-1.7-10.6c-0.2-2.8,0.3-5.7,0.9-8.4c0.6-2.4,2.6-3.7,4.6-5
		c0.8-0.5,1.5-1.1,2.2-1.7c0.7-0.6,1.4-0.9,2.3-0.6c0.9,0.3,1.3,0.9,1.4,1.9C-116.6,38.9-116.2,43.5-115.8,49.1z"/>
	<path class="st0" d="M-116.7,21.7c-0.1,0.6-0.1,1.3-0.4,1.9c-0.4,1.1-0.8,2.2-0.3,3.4c0.1,0.2-0.2,0.8-0.5,0.9
		c-2,0.6-3.2,2.2-4.7,3.5c-1.2,1-2.4,1.9-4,1.2c-1.8-0.8-2.5-2.4-2.4-4.2c0.1-2.7,0.4-5.5,0.8-8.2c0.1-1.2,0.9-1.7,2.2-1.6
		c0.3,0,0.6-0.1,0.8-0.2c1-0.8,2.1-0.9,3.3-0.5c0.6,0.2,1.1,0.4,1.5-0.4c0.4-0.8,1.8-0.6,2.4,0.5c0.6,1.2,1,2.5,1.5,3.7
		C-116.6,21.7-116.6,21.7-116.7,21.7z"/>
</g>
<g>
	<path class="st0" d="M21.1,322.3c0,2-1.7,3.8-5,3.8c-0.9,0-1.6-0.1-2.4-0.1c-0.3,0-0.6,0-1,0h-1.2c-0.1-0.3-0.1-0.5-0.1-0.8
		c0.4-0.1,0.8-0.2,1.2-0.3c0-0.6,0.1-2,0.1-4.8c0-2.9-0.1-4.2-0.1-4.8c-0.4-0.1-0.9-0.1-1.4-0.1c0-0.3,0-0.6,0.1-0.8h1.5
		c0.4,0,0.7,0,1,0c0.9,0,1.6-0.1,2.6-0.1c2.8,0,4.2,0.8,4.2,2.7c0,1.2-0.6,2-1.7,2.6C20.1,320,21.1,320.8,21.1,322.3z M16.1,315.3
		c-0.5,0-1.1,0.1-1.6,0.2c0,0.5,0,1.7,0,4.1c0.7-0.1,1.4-0.2,2.2-0.2c0.2,0,0.4,0,0.6,0c0.7-0.4,1.1-1.1,1.1-2
		C18.5,316,17.6,315.3,16.1,315.3z M19,322.4c0-1.3-0.7-2.1-2.5-2.1c-0.5,0-1.2,0.1-1.9,0.2c0,2.5,0,3.7,0,4.3
		c0.7,0.2,1.5,0.3,2.2,0.3C18.2,324.8,19,323.7,19,322.4z"/>
	<path class="st0" d="M30.9,326.1c-1.2,0-2.4,0-3.4,0c-1.3,0-2.3,0-3.6,0h-1.2c-0.1-0.3-0.1-0.5-0.1-0.8c0.4-0.1,0.8-0.2,1.2-0.3
		c0-0.5,0.1-1.7,0.1-4.5c0-3.4-0.1-4.7-0.1-5.1c-0.4-0.1-0.9-0.1-1.4-0.1c0-0.3,0-0.6,0.1-0.8h1.5c0.4,0,0.6,0,1,0
		c0.4,0,0.8,0,1.2,0h1.3c0,0,0.1,0.4,0.1,0.8c-0.4,0.1-1,0.3-1.6,0.5c-0.1,0.6-0.1,1.9-0.1,4.8c0,2.7,0.1,3.9,0.1,4.4
		c0.5,0.1,1.2,0.1,1.9,0.1c0.7,0,1.3,0,1.7-0.1c0.3-0.7,0.5-1.4,0.7-2.1c0.3,0,0.6,0.1,0.8,0.2C31.2,324,31.1,325,30.9,326.1
		L30.9,326.1z"/>
	<path class="st0" d="M42.7,319.9c0,3.8-2.2,6.3-5.5,6.3c-3.1,0-5-2.1-5-5.7c0-3.8,2.1-6.3,5.5-6.3
		C40.7,314.2,42.7,316.3,42.7,319.9z M34.2,320.2c0,3.3,1.5,5,3.9,5c1.5-0.6,2.4-2.5,2.4-5c0-3.1-1.5-4.8-3.9-4.8
		C35.1,315.9,34.2,317.7,34.2,320.2z"/>
	<path class="st0" d="M49.5,314.2c1.6,0,2.9,0.7,3.6,1.4c-0.2,1.1-0.5,2.1-0.9,3.1c-0.3,0-0.6-0.1-0.8-0.2c0.1-0.8,0.2-1.5,0.2-2.2
		c-0.5-0.4-1.4-1-2.9-1c-1.5,0.6-2.4,2.4-2.4,4.8c0,3.3,1.6,4.7,3.5,4.7c1.1,0,2.3-0.5,3-0.9c0.2,0.3,0.3,0.6,0.3,0.9
		c-0.8,0.6-2.4,1.4-4.1,1.4c-2.8,0-4.7-2.1-4.7-5.7C44.2,316.8,46.3,314.2,49.5,314.2L49.5,314.2z"/>
	<path class="st0" d="M65.8,326.1c-0.3,0.1-0.7,0.2-1.1,0.2c-2.7,0-4.5-3.3-5.5-6c-0.5,0.1-1.2,0.2-1.6,0.3c0,3.1,0.1,4.2,0.1,4.6
		c0.4,0.1,0.9,0.1,1.5,0.1c0,0.3,0,0.6-0.1,0.8h-1.5c-0.3,0-0.5,0-1,0c-0.5,0-0.6,0-1,0h-1.2c-0.1-0.3-0.1-0.5-0.1-0.8
		c0.4-0.1,0.8-0.2,1.3-0.4c0-0.7,0.1-2.1,0.1-4.9c0-2.8-0.1-4.1-0.1-4.7c-0.4-0.1-0.9-0.1-1.5-0.1c0-0.3,0-0.6,0.1-0.8h1.5
		c0.3,0,0.5,0,1,0s0.6,0,1,0h1.2c0.1,0.3,0.1,0.5,0.1,0.8c-0.4,0.1-0.8,0.2-1.3,0.4c0,0.6-0.1,1.8-0.1,4.1c0.5-0.1,1.4-0.3,1.9-0.5
		c0.8-1.1,2.2-3,2.5-3.8c-0.4-0.1-0.9-0.1-1.3-0.2c0-0.4,0.1-0.7,0.1-0.8H62c0.3,0,0.6,0,0.8,0c0.3,0,0.6,0,0.9,0h1.2
		c0,0.1,0.1,0.4,0.1,0.8c-0.4,0-0.8,0.1-1.2,0.1c-0.7,0.7-2.2,2.8-2.9,3.8c0.7,2.3,2.6,5.9,5,6.2C66,325.6,65.9,325.9,65.8,326.1z"
		/>
	<path class="st0" d="M71.5,314.2c1.6,0,2.9,0.7,3.6,1.4c-0.2,1.1-0.5,2.1-0.9,3.1c-0.3,0-0.6-0.1-0.8-0.2c0.1-0.8,0.2-1.5,0.2-2.2
		c-0.5-0.4-1.4-1-2.9-1c-1.5,0.6-2.4,2.4-2.4,4.8c0,3.3,1.6,4.7,3.5,4.7c1.1,0,2.3-0.5,3-0.9c0.2,0.3,0.3,0.6,0.3,0.9
		c-0.8,0.6-2.4,1.4-4.1,1.4c-2.8,0-4.7-2.1-4.7-5.7C66.2,316.8,68.3,314.2,71.5,314.2L71.5,314.2z"/>
	<path class="st0" d="M88.4,325.3c0,0.3,0,0.6-0.1,0.8h-1.5c-0.3,0-0.5,0-1,0s-0.7,0-1,0h-1.2c-0.1-0.3-0.1-0.5-0.1-0.8
		c0.4-0.1,0.8-0.2,1.3-0.4c0-0.6,0.1-1.7,0.1-4.2c-0.3,0-1.1,0-2.7,0c-1.5,0-2.3,0-2.6,0c0,2.9,0.1,4.1,0.1,4.5
		c0.4,0.1,0.9,0.1,1.4,0.1c0,0.3,0,0.6-0.1,0.8h-1.5c-0.3,0-0.5,0-1,0s-0.7,0-1,0h-1.2c-0.1-0.3-0.1-0.5-0.1-0.8
		c0.4-0.1,0.8-0.2,1.2-0.4c0-0.6,0.1-1.9,0.1-4.8c0-3.1-0.1-4.4-0.1-4.8c-0.4-0.1-0.9-0.1-1.4-0.1c0-0.3,0-0.6,0.1-0.8h1.5
		c0.3,0,0.5,0,1,0s0.7,0,1,0h1.2c0.1,0.3,0.1,0.5,0.1,0.8c-0.4,0.1-0.8,0.2-1.3,0.4c0,0.6-0.1,1.7-0.1,4c0.3,0,1.1,0,2.6,0
		c1.5,0,2.3,0,2.7,0c0-2.7-0.1-3.8-0.1-4.2c-0.4-0.1-0.9-0.1-1.4-0.1c0-0.3,0-0.6,0.1-0.8h1.5c0.3,0,0.5,0,1,0c0.4,0,0.6,0,0.9,0
		l0,0h0h0H88c0.1,0.3,0.1,0.5,0.1,0.8c-0.4,0.1-0.8,0.2-1.2,0.3c0,0.6-0.1,1.9-0.1,4.6c0,3.3,0.1,4.5,0.1,5
		C87.4,325.2,87.9,325.2,88.4,325.3z"/>
	<path class="st0" d="M100.7,325.2c0,0.3,0,0.6-0.1,0.8h-0.9c-0.4,0-0.9,0-1.3,0s-0.6,0-0.9,0h-1.3c0,0-0.1-0.4-0.1-0.8
		c0.4-0.1,0.9-0.2,1.3-0.4c-0.2-0.7-0.5-1.8-0.8-3.1c-1,0-3.1,0-4,0c-0.4,1.4-0.8,2.6-0.8,3.3c0.4,0.1,0.9,0.1,1.4,0.2
		c0,0.4-0.1,0.7-0.1,0.8h-1.2c-0.3,0-0.7,0-1,0c-0.3,0-0.5,0-0.8,0h-0.8c0-0.1-0.1-0.4-0.1-0.8c0.3-0.1,0.6-0.3,0.9-0.4
		c0.9-2.1,3.8-9.8,4.2-10.5c0.6,0,1.3-0.1,2-0.2c0.1,0.9,3,9.2,3.8,11C100.3,325.2,100.5,325.2,100.7,325.2z M96.2,320.7
		c-0.5-1.8-1.2-3.6-1.6-4.8c-0.5,1.1-1.2,3-1.8,4.8C93.7,320.8,95.3,320.8,96.2,320.7z"/>
	<path class="st0" d="M106.7,325.3c0,0.3,0,0.6-0.1,0.8h-1.5c-0.3,0-0.5,0-1,0c-0.5,0-0.6,0-1,0h-1.2c-0.1-0.3-0.1-0.5-0.1-0.8
		c0.4-0.1,0.8-0.2,1.3-0.4c0-0.7,0.1-2.2,0.1-5.2c0-2.7-0.1-3.9-0.1-4.4c-0.4-0.1-0.9-0.1-1.4-0.1c0-0.3,0-0.6,0.1-0.8h1.5
		c0.3,0,0.5,0,1,0s0.7,0,1,0h1.2c0.1,0.3,0.1,0.5,0.1,0.8c-0.4,0.1-0.8,0.2-1.3,0.4c0,0.6-0.1,1.8-0.1,4.2c0,3.3,0.1,4.8,0.1,5.4
		C105.7,325.2,106.2,325.2,106.7,325.3z"/>
	<path class="st0" d="M118.2,320.6c0,4.6,0.1,5.2,0.1,5.2c-0.4,0.2-0.9,0.4-1.5,0.4c-1.4-2-4.9-7.4-6.3-9.3c0,0.4,0,1.1,0,2.2
		c0,4,0.2,5.5,0.4,6.1c0.4,0,0.8,0.1,1.3,0.1c0,0.3,0,0.6-0.1,0.8h-1.5c-0.2,0-0.4,0-0.6,0s-0.4,0-0.6,0h-1.2
		c-0.1-0.3-0.1-0.5-0.1-0.8c0.4-0.1,0.8-0.2,1.2-0.3c0.1-0.6,0.1-2,0.1-4.9c0-3-0.1-4.2-0.1-4.7c-0.4-0.1-0.9-0.1-1.4-0.1
		c0-0.3,0-0.6,0.1-0.8h1.5c0.6,0,1.3-0.1,1.8-0.1c0.5,1.1,4.2,6.4,5.8,8.6c0-0.5,0.1-1.3,0.1-2.3c0-3.6-0.2-4.9-0.3-5.3
		c-0.4,0-0.8-0.1-1.3-0.1c0-0.3,0-0.6,0.1-0.8h1.5c0.2,0,0.3,0,0.5,0c0.2,0,0.3,0,0.5,0h1.2c0.1,0.3,0.1,0.5,0.1,0.8
		c-0.4,0.1-0.8,0.2-1.2,0.3C118.3,316.1,118.2,317.5,118.2,320.6z"/>
	<path class="st0" d="M134.9,317.8c-0.3,0.1-0.6,0.1-0.9,0.1c-0.1-0.7-0.2-1.5-0.3-2.3c-0.3-0.1-0.8-0.1-1.7-0.1c-0.5,0-0.8,0-1.1,0
		c0,0.6-0.1,2-0.1,4.9c0,3,0.1,4.3,0.1,4.8c0.5,0.1,1.1,0.1,1.8,0.2c0,0.3,0,0.6-0.1,0.8h-1.8c-0.4,0-0.6,0-1,0c-0.4,0-0.6,0-1,0
		h-1.6c-0.1-0.3-0.1-0.5-0.1-0.8c0.5-0.1,1-0.3,1.6-0.4c0-0.7,0.1-2,0.1-4.6c0-2.9-0.1-4.3-0.1-4.9c-0.3,0-0.6,0-1.1,0
		c-0.7,0-1.2,0-1.5,0.1c-0.3,0.7-0.5,1.5-0.7,2.3c-0.3,0-0.6,0-0.8-0.2c0-1,0.1-2.2,0.3-3.3c1.7,0,3.3,0,5,0c1.7,0,3.4,0,5.1,0h0
		C135.1,315.5,135.1,316.7,134.9,317.8z"/>
	<path class="st0" d="M147.5,326.1c-0.3,0.1-0.7,0.2-1.1,0.2c-2.5,0-4.3-2.9-5.3-5.5c-0.2,0-0.3,0-0.5,0c-0.4,0-0.8,0-1.2-0.1
		c0,2.7,0.1,3.9,0.2,4.5c0.4,0.1,0.9,0.1,1.4,0.1c0,0.3,0,0.6-0.1,0.8h-1.5c-0.3,0-0.6,0-1,0c-0.3,0-0.7,0-1,0h-1.2
		c-0.1-0.3-0.1-0.5-0.1-0.8c0.4-0.1,0.8-0.2,1.3-0.4c0-0.6,0.1-1.9,0.1-4.3c0-3.4-0.1-4.8-0.1-5.3c-0.4-0.1-0.9-0.1-1.4-0.1
		c0-0.3,0-0.6,0.1-0.8h1.5c0.4,0,0.7,0,1,0c0.9,0,1.6-0.1,2.5-0.1c3,0,4.4,1,4.4,2.9c0,1.6-1,2.5-2.4,2.9c0.8,2.1,2.7,5,4.7,5.3
		C147.6,325.6,147.6,325.9,147.5,326.1z M141.4,319.9c1-0.2,1.9-1.1,1.9-2.5c0-1.4-0.9-2.1-2.5-2.1c-0.5,0-1,0.1-1.5,0.2
		c0,0.5,0,1.7,0.1,4.1C140,319.8,140.8,319.9,141.4,319.9z"/>
	<path class="st0" d="M159.2,325.2c0,0.3,0,0.6-0.1,0.8h-0.9c-0.4,0-0.9,0-1.3,0s-0.6,0-0.9,0h0h-1.3c0,0-0.1-0.4-0.1-0.8
		c0.4-0.1,0.9-0.2,1.3-0.4c-0.2-0.7-0.5-1.8-0.8-3.1c-1,0-3.1,0-4,0c-0.4,1.4-0.8,2.6-0.8,3.3c0.4,0.1,0.9,0.1,1.4,0.2
		c0,0.4-0.1,0.7-0.1,0.8h-1.2c-0.3,0-0.7,0-1,0c-0.3,0-0.5,0-0.8,0h-0.8c0-0.1-0.1-0.4-0.1-0.8c0.3-0.1,0.6-0.3,0.9-0.4
		c0.9-2.1,3.8-9.8,4.2-10.5c0.6,0,1.3-0.1,2-0.2c0.1,0.9,3,9.2,3.8,11C158.7,325.2,158.9,325.2,159.2,325.2z M154.7,320.7
		c-0.5-1.8-1.2-3.6-1.6-4.8c-0.5,1.1-1.2,3-1.8,4.8C152.2,320.8,153.8,320.8,154.7,320.7z"/>
	<path class="st0" d="M171.2,319.9c0,3.7-2.2,6.2-6.2,6.2c-0.9,0-2.4-0.1-3.3-0.1h-1.2c-0.1-0.3-0.1-0.5-0.1-0.8
		c0.4-0.1,0.8-0.2,1.2-0.3c0.1-0.6,0.1-2,0.1-4.8c0-2.9-0.1-4.2-0.2-4.8c-0.4-0.1-0.9-0.1-1.4-0.1c0-0.3,0-0.6,0.1-0.8h1.5
		c1.2,0,2.5-0.1,3.5-0.1C169,314.3,171.2,316.3,171.2,319.9z M169.1,320.2c0-2.8-1.3-4.8-4-4.8c-0.4,0-0.9,0-1.5,0.1
		c0,0.5,0,1.8,0,4.6c0,2.5,0,3.9,0,4.7c0.8,0.2,1.9,0.3,2.9,0.3C168.2,324.3,169.1,322.5,169.1,320.2z"/>
	<path class="st0" d="M177.7,325.3c0,0.3,0,0.6-0.1,0.8h-1.5c-0.3,0-0.5,0-1,0s-0.6,0-1,0h-1.2c-0.1-0.3-0.1-0.5-0.1-0.8
		c0.4-0.1,0.8-0.2,1.3-0.4c0-0.7,0.1-2.2,0.1-5.2c0-2.7-0.1-3.9-0.1-4.4c-0.4-0.1-0.9-0.1-1.4-0.1c0-0.3,0-0.6,0.1-0.8h1.5
		c0.3,0,0.5,0,1,0c0.5,0,0.7,0,1,0h1.2c0.1,0.3,0.1,0.5,0.1,0.8c-0.4,0.1-0.8,0.2-1.3,0.4c0,0.6-0.1,1.8-0.1,4.2
		c0,3.3,0.1,4.8,0.1,5.4C176.6,325.2,177.1,325.2,177.7,325.3z"/>
	<path class="st0" d="M189.2,315.5c-0.1,0.6-0.2,2-0.2,5.1c0,4.6,0.1,5.2,0.1,5.2c-0.4,0.2-0.9,0.4-1.5,0.4c-1.4-2-4.9-7.4-6.3-9.3
		c0,0.4,0,1.1,0,2.2c0,4,0.2,5.5,0.4,6.1c0.4,0,0.8,0.1,1.3,0.1c0,0.3,0,0.6-0.1,0.8h-1.5c-0.2,0-0.4,0-0.6,0c-0.2,0-0.4,0-0.6,0
		h-1.2c-0.1-0.3-0.1-0.5-0.1-0.8c0.4-0.1,0.8-0.2,1.2-0.3c0.1-0.6,0.1-2,0.1-4.9c0-3-0.1-4.2-0.1-4.7c-0.4-0.1-0.9-0.1-1.4-0.1
		c0-0.3,0-0.6,0.1-0.8h1.5c0.6,0,1.3-0.1,1.8-0.1c0.5,1.1,4.2,6.4,5.8,8.6c0-0.5,0.1-1.3,0.1-2.3c0-3.6-0.2-4.9-0.3-5.3
		c-0.4,0-0.8-0.1-1.3-0.1c0-0.3,0-0.6,0.1-0.8h1.5c0.2,0,0.3,0,0.5,0s0.3,0,0.5,0h1.2c0.1,0.3,0.1,0.5,0.1,0.8
		C190.1,315.3,189.7,315.4,189.2,315.5L189.2,315.5z"/>
	<path class="st0" d="M201.3,321.6c0,0.3-0.1,1-0.1,2.2c0,1.1,0.1,1.8,0.1,2c-0.3,0.2-0.7,0.3-1.2,0.3c-0.1-0.3-0.2-0.8-0.4-1.2
		c-0.9,0.8-2,1.3-3.2,1.3c-2.7,0-4.7-2.1-4.7-5.6c0-4,2.5-6.5,5.8-6.5c1.3,0,2.6,0.4,3.5,1.1c-0.2,1.1-0.6,2.1-1,3
		c-0.3,0-0.6-0.1-0.9-0.2c0.1-0.6,0.1-1.2,0.2-1.9c-0.7-0.6-1.7-0.9-2.9-0.9c-1.7,0.7-2.6,2.5-2.6,5c0,3.2,1.6,4.9,3.3,4.9
		c0.6,0,1.3-0.3,1.9-0.7c0-0.3,0.1-0.8,0.1-1.4c0-0.8-0.1-1.3-0.1-1.5c-0.5-0.1-1.1-0.1-1.7-0.1c0-0.3,0-0.6,0.1-0.8
		c1.4,0.1,2.9,0.1,4.4,0c0.1,0.3,0.1,0.5,0.1,0.8C201.9,321.5,201.6,321.6,201.3,321.6L201.3,321.6z"/>
	<path class="st0" d="M213.1,314.2c1.6,0,2.9,0.7,3.6,1.4c-0.2,1.1-0.5,2.1-0.9,3.1c-0.3,0-0.6-0.1-0.8-0.2c0.1-0.8,0.2-1.5,0.2-2.2
		c-0.5-0.4-1.4-1-2.9-1c-1.5,0.6-2.4,2.4-2.4,4.8c0,3.3,1.6,4.7,3.5,4.7c1.1,0,2.3-0.5,3-0.9c0.2,0.3,0.3,0.6,0.3,0.9
		c-0.8,0.6-2.4,1.4-4.1,1.4c-2.8,0-4.7-2.1-4.7-5.7C207.7,316.8,209.9,314.2,213.1,314.2L213.1,314.2z"/>
	<path class="st0" d="M228.7,325.2c0,0.3,0,0.6-0.1,0.8h-0.9c-0.4,0-0.9,0-1.3,0c-0.4,0-0.6,0-0.9,0h-1.3c0,0-0.1-0.4-0.1-0.8
		c0.4-0.1,0.9-0.2,1.3-0.4c-0.2-0.7-0.5-1.8-0.8-3.1c-1,0-3.1,0-4,0c-0.4,1.4-0.8,2.6-0.8,3.3c0.4,0.1,0.9,0.1,1.4,0.2
		c0,0.4-0.1,0.7-0.1,0.8h-1.2c-0.3,0-0.7,0-1,0c-0.3,0-0.5,0-0.8,0h-0.8c0-0.1-0.1-0.4-0.1-0.8c0.3-0.1,0.6-0.3,0.9-0.4
		c0.9-2.1,3.8-9.8,4.2-10.5c0.6,0,1.3-0.1,2-0.2c0.1,0.9,3,9.2,3.8,11C228.3,325.2,228.5,325.2,228.7,325.2z M224.2,320.7
		c-0.5-1.8-1.2-3.6-1.6-4.8c-0.5,1.1-1.2,3-1.8,4.8C221.7,320.8,223.3,320.8,224.2,320.7z"/>
	<path class="st0" d="M241.3,326.1c-0.3,0.1-0.7,0.2-1.1,0.2c-2.5,0-4.3-2.9-5.3-5.5c-0.2,0-0.3,0-0.5,0c-0.4,0-0.8,0-1.2-0.1
		c0,2.7,0.1,3.9,0.2,4.5c0.4,0.1,0.9,0.1,1.4,0.1c0,0.3,0,0.6-0.1,0.8h-1.5c-0.3,0-0.6,0-1,0c-0.3,0-0.7,0-1,0h-1.2
		c-0.1-0.3-0.1-0.5-0.1-0.8c0.4-0.1,0.8-0.2,1.3-0.4c0-0.6,0.1-1.9,0.1-4.3c0-3.4-0.1-4.8-0.1-5.3c-0.4-0.1-0.9-0.1-1.4-0.1
		c0-0.3,0-0.6,0.1-0.8h1.5c0.4,0,0.7,0,1,0c0.9,0,1.6-0.1,2.5-0.1c3,0,4.4,1,4.4,2.9c0,1.6-1,2.5-2.4,2.9c0.8,2.1,2.7,5,4.7,5.3
		C241.4,325.6,241.4,325.9,241.3,326.1z M233.2,319.7c0.6,0.2,1.4,0.3,2,0.3c1-0.2,1.9-1.1,1.9-2.5c0-1.4-0.9-2.1-2.5-2.1
		c-0.5,0-1,0.1-1.5,0.2C233.1,316.1,233.2,317.2,233.2,319.7L233.2,319.7z"/>
	<path class="st0" d="M252.9,319.9c0,3.7-2.2,6.2-6.2,6.2c-0.9,0-2.4-0.1-3.3-0.1h-1.2c-0.1-0.3-0.1-0.5-0.1-0.8
		c0.4-0.1,0.8-0.2,1.2-0.3c0.1-0.6,0.1-2,0.1-4.8c0-2.9-0.1-4.2-0.2-4.8c-0.4-0.1-0.9-0.1-1.4-0.1c0-0.3,0-0.6,0.1-0.8h1.5
		c1.2,0,2.5-0.1,3.5-0.1C250.7,314.3,252.9,316.3,252.9,319.9z M250.8,320.2c0-2.8-1.3-4.8-4-4.8c-0.4,0-0.9,0-1.5,0.1
		c0,0.5,0,1.8,0,4.6c0,2.5,0,3.9,0,4.7c0.8,0.2,1.9,0.3,2.9,0.3C249.9,324.3,250.8,322.5,250.8,320.2z"/>
	<path class="st0" d="M268.2,321.6c0,0.3-0.1,1-0.1,2.2c0,1.1,0.1,1.8,0.1,2c-0.3,0.2-0.7,0.3-1.2,0.3c-0.1-0.3-0.2-0.8-0.4-1.2
		c-0.9,0.8-2,1.3-3.2,1.3c-2.7,0-4.7-2.1-4.7-5.6c0-4,2.5-6.5,5.8-6.5c1.3,0,2.6,0.4,3.5,1.1c-0.2,1.1-0.6,2.1-1,3
		c-0.3,0-0.6-0.1-0.9-0.2c0.1-0.6,0.1-1.2,0.2-1.9c-0.7-0.6-1.7-0.9-2.9-0.9c-1.7,0.7-2.6,2.5-2.6,5c0,3.2,1.6,4.9,3.3,4.9
		c0.6,0,1.3-0.3,1.9-0.7c0-0.3,0.1-0.8,0.1-1.4c0-0.8-0.1-1.3-0.1-1.5c-0.5-0.1-1.1-0.1-1.7-0.1c0-0.3,0-0.6,0.1-0.8
		c1.4,0.1,2.9,0.1,4.4,0c0.1,0.3,0.1,0.5,0.1,0.8C268.8,321.5,268.5,321.6,268.2,321.6L268.2,321.6z"/>
	<path class="st0" d="M281,325.2c0,0.3,0,0.6-0.1,0.8H280c-0.4,0-0.9,0-1.3,0c-0.4,0-0.6,0-0.9,0h-1.3c0,0-0.1-0.4-0.1-0.8
		c0.4-0.1,0.9-0.2,1.3-0.4c-0.2-0.7-0.5-1.8-0.8-3.1c-1,0-3.1,0-4,0c-0.4,1.4-0.8,2.6-0.8,3.3c0.4,0.1,0.9,0.1,1.4,0.2
		c0,0.4-0.1,0.7-0.1,0.8h-1.2c-0.3,0-0.7,0-1,0c-0.3,0-0.5,0-0.8,0h-0.8c0-0.1-0.1-0.4-0.1-0.8c0.3-0.1,0.6-0.3,0.9-0.4
		c0.9-2.1,3.8-9.8,4.2-10.5c0.6,0,1.3-0.1,2-0.2c0.1,0.9,3,9.2,3.8,11C280.5,325.2,280.8,325.2,281,325.2z M276.5,320.7
		c-0.5-1.8-1.2-3.6-1.6-4.8c-0.5,1.1-1.2,3-1.8,4.8C274,320.8,275.6,320.8,276.5,320.7z"/>
	<path class="st0" d="M295.7,325.1c0.4,0,0.8,0.1,1.3,0.1c0,0.3,0,0.6-0.1,0.8h-1.5c-0.3,0-0.6,0-0.9,0c-0.3,0-0.6,0-0.9,0h-1.3
		c0,0-0.1-0.4-0.1-0.8c0.3-0.1,0.8-0.2,1.2-0.4c0-1.7-0.4-6.8-0.4-8.4c-0.8,1.9-3.1,8-3.3,8.9c-0.3,0.2-0.7,0.3-1.2,0.2
		c-0.8-0.9-2.8-6.5-3.5-9.1c-0.3,2.3-0.8,7.4-0.5,8.6c0.4,0.1,0.8,0.1,1.3,0.1c0,0.4-0.1,0.7-0.1,0.8h-1.2c-0.2,0-0.5,0-0.7,0
		c-0.2,0-0.5,0-0.7,0h-1.2c-0.1-0.3-0.1-0.5-0.1-0.8c0.4-0.1,0.8-0.2,1.2-0.3c0.3-1.7,1-8.2,1-9.6c-0.4-0.1-0.8-0.1-1.3-0.2
		c0-0.4,0.1-0.7,0.1-0.8h1.2c0.6,0,1.5-0.1,2.1-0.1c0.2,0.7,2.4,6.3,3.3,8.3c1.1-2.7,2.9-7.3,3.1-8.2c0.4,0,0.8,0,1.1,0
		c0.3,0,0.8,0,1.1,0h1.3c0,0,0.1,0.4,0.1,0.8c-0.4,0.1-0.9,0.3-1.4,0.4C294.8,317.5,295.4,323.7,295.7,325.1L295.7,325.1z"/>
	<path class="st0" d="M306.8,323.4c0,0.9-0.1,1.8-0.2,2.7c-1.2,0-2.3,0-3.5,0c-1.2,0-2.5,0-3.7,0h-1.2c-0.1-0.3-0.1-0.5-0.1-0.8
		c0.4-0.1,0.8-0.2,1.3-0.4c0-0.7,0.1-2.1,0.1-4.8c0-2.9-0.1-4.2-0.1-4.7c-0.4-0.1-0.9-0.1-1.4-0.1c0-0.3,0-0.6,0.1-0.8h1.5
		c0.6,0,1.4,0,3.4,0c2,0,3,0,3.5,0c0.1,0.9,0.1,1.7,0.1,2.5c-0.3,0.1-0.5,0.1-0.8,0.1c-0.1-0.5-0.3-0.9-0.4-1.4
		c-0.3-0.1-1-0.1-1.8-0.1c-0.8,0-1.4,0-1.9,0.1c0,0.5-0.1,1.7-0.1,4.1c1.8,0,2.5-0.1,2.8-0.2c0.1-0.4,0.2-0.8,0.3-1.3
		c0.3,0,0.6,0.1,0.8,0.1c-0.2,1.1-0.3,2.3-0.3,3.5c-0.3,0-0.5,0.1-0.8,0c-0.1-0.4-0.1-0.8-0.2-1.3c-0.3-0.1-1-0.1-2.5-0.1
		c0,2.6,0.1,3.8,0.2,4.3c0.5,0.1,1.1,0.1,1.8,0.1c0.9,0,1.6,0,2-0.1c0.2-0.5,0.4-1.1,0.6-1.6C306.2,323.2,306.5,323.3,306.8,323.4
		L306.8,323.4z"/>
</g>
<g>
	<path class="st0" d="M-280.5,249.6c-1.2,3.3-2.4,6.4-3.4,9.6c-1.3,4-2.6,8-3.9,11.9c-0.4,1.3-0.9,2.7-2.5,3.2
		c-0.2,0.1-0.3,0.5-0.4,0.8c-0.5,1.3-0.9,2.6-1.4,3.9c-0.1,0.3-0.5,0.5-0.7,0.7c-0.2-0.2-0.4-0.5-0.5-0.7c-0.5-1.3-1.4-2.6-1.3-3.9
		c0.1-2.6-0.4-5-0.6-7.6c-0.4-7.7,0.2-15.4,1.4-23.1c0.1-0.5,0.1-1.1,0.2-1.9c-2.4-0.3-4.8-0.6-7.1-0.9c-0.9-0.1-1.8,0-2.6-0.3
		c-0.6-0.2-1.4-0.6-1.7-1.1c-0.4-0.8-0.9-1.3-1.6-1.8c-0.9-0.5-1.3-1.5-0.9-2.5c0.4-1.1,1.2-1.6,2.3-1.5c2.8,0.1,5.5,0.2,8.3,0.3
		c0.3,0,0.7,0.1,0.9-0.1c1.9-1.3,4-0.9,5.9-0.3c4.1,1.4,8.2,3,12.2,4.5c0.6,0.2,1.2,0.4,1.8,0.7c1.2,0.6,2.4,1.2,3.4,2.1
		c2,1.8,3.8,3.9,5.8,5.7c6,5.4,9.8,12.1,11.3,20.1c0.2,1,0,1.8-0.8,2.5c-0.3,0.2-0.4,0.7-0.4,1c0.7,13.1-7.5,23.2-19.8,27.6
		c-5.6,2-11.2,1.8-16.9,0.7c-1.8-0.3-3.7,0-5.3-0.5c-3.5-1-6.9-2.3-10.2-3.7c-0.7-0.3-1.1-1.4-1.6-2.2c-0.2-0.3-0.1-0.6-0.3-0.9
		c-1.4-2.2-2.9-4.4-4.3-6.6c-0.7-1.1-0.7-2.1,0.1-2.6c0.4-0.2,1.1-0.3,1.5-0.1c5.7,3,11.2,6.1,16.9,9.1c1.3,0.7,2.8,1,4.1,1.4
		c0.2,0.1,0.5,0,0.7,0c2.9-0.7,5.7-1.5,8.5-2.3c0.5-0.1,1-0.4,1.3-0.8c3.9-5,6.8-10.4,7.9-16.7c0.1-0.7,0.2-1.4,0.2-2
		c-0.5-5.7-1.1-11.3-2.6-16.8C-277.3,252.3-277.8,251.5-280.5,249.6z"/>
	<path class="st0" d="M-17.4,254.2c-1.7-2.3-3.4-4.6-5-7c-0.9-1.2-1.9-1.5-3.3-1.1c-3.3,0.9-6,2.7-8.5,5c2.6,3.3,5.2,6.6,7.7,9.9
		c3.5,4.8,7,9.7,10.3,14.6c1.4,2.1,2.3,4.4,1.3,7c-0.1,0.4-0.1,0.9,0,1.3c0.8,3.5-0.4,6.6-1.6,9.8c-0.3,0.9-1.1,1.7-1.9,2.3
		c-2.9,1.9-6,3.5-8.9,5.3c-2.6,1.6-5.2,0.8-7.7-0.1c-1.5-0.6-3-1.3-4.6-1.8c-0.8-0.3-1.7-0.3-2.5-0.6c-0.9-0.3-1.7-0.8-2.5-1.3
		c-0.8-0.6-1.6-1.2-2.7-1.1c-0.4,0-0.9-0.5-1.1-0.9c-0.4-0.7-0.6-1.6-1.1-2.3c-0.2-0.4-0.8-0.7-1.1-1c-0.2-0.3-0.6-0.6-0.6-0.9
		c-0.3-3,0.5-5.8,2.5-8.1c1.2-1.3,2.9-1.6,4.2-0.9c1.3,0.7,2,2.1,1.6,3.9c-0.2,1.1-0.6,2.1-0.8,3.2c-0.1,0.4,0.2,0.9,0.4,1.2
		c1.2,1,2.5,1.9,3.9,2.8c0.3,0.2,0.7,0.3,1,0.3c2,0,4,0,6,0c0.7,0,1-0.2,1.3-0.8c0.1-0.4,0.3-0.8,0.6-1.1c2.4-2.7,1.9-5.9,1.6-9
		c0-0.3-0.3-0.5-0.6-0.7c-3.8-2.4-6.5-5.7-9-9.4c-1.1-1.6-2.8-2.6-4.3-3.8c-1.7-1.5-3.2-3.4-4.3-5.3c-0.8-1.5-1-3.5-1.4-5.3
		c-0.2-1-0.3-2-0.2-3c0.5-3.8,1.4-7.4,3.5-10.6c0.4-0.6,0.7-1.4,1.1-2c0.2-0.4,0.5-0.9,0.9-1.1c2.7-1.3,4.3-3.8,6.1-6
		c1.5-2,3.3-3.7,5.4-5c3.1-1.8,6.9-1.7,9.8,0.4c3.3,2.5,5.7,5.8,7.5,9.5c1,2.1,1.6,4.4,2.4,6.6c0.5,1.3,1.1,2.6,1.6,3.9
		c0.7,2-1,5.5-2.9,6.3c-0.3,0.1-0.6,0.4-0.8,0.6c-0.6,0.7-1.2,1.4-1.9,2c-1.2,1.1-2.6,1.1-3.6,0.2c-1-0.9-1.1-2.3-0.1-3.6
		C-18.9,255.7-18.1,255-17.4,254.2z"/>
	<path class="st0" d="M-146.2,280.6c1.2-2.7,2.4-5.2,3.5-7.8c0.5-1.1,1.4-1.8,2.5-1.7c1.1,0.1,1.8,1,1.9,2.3c0,0.2,0,0.5,0.1,0.7
		c1.5,2.5,3.1,4.9,4.6,7.4c0-1.3,0-2.6,0-3.9c0.2-5.1,0.5-10.1,0.7-15.2c0-0.7-0.3-1.5-0.5-2.2c-0.1-0.4-0.4-0.7-0.4-1.1
		c-0.3-2.4-0.8-4.9-0.6-7.3c0.2-1.9,0.3-3.9,0.4-5.8c0.1-3,2.4-4.9,4.9-4.1c0.8,0.2,1.4,0.9,2.1,1.5c0.6,0.5,1.2,1,1.9,1.4
		c1,0.5,1.5,1.1,1.5,2.2c0,1.7-0.2,3.5,0,5.2c0.1,1.7,0.6,3.5,0.8,5.2c1.5,10.3,1.5,20.4-1.8,30.4c-0.8,2.4-1.9,4.6-3.6,6.6
		c-0.8,1-1.7,1.9-3.2,1.2c0,0-0.1,0-0.1,0c-2.2,0.7-3.4-0.4-4.5-2.2c-1.7-2.7-3.7-5.1-5.6-7.7c-0.5,1.5-1.1,3.2-1.8,4.8
		c-0.7,1.6-1.6,3.1-2.5,4.6c-0.7,1.2-1.4,2.4-2.2,3.5c-1.4,2.1-2.4,2.2-4.4,0.7c-0.3-0.3-0.8-0.5-1.2-0.6c-2-0.4-3.3-1.8-4.7-3.1
		c-2.6-2.6-2.3-6-2.7-9.1c-1.2-8.4-1.8-16.8-1-25.2c0.3-2.8,0-5.7,0.1-8.6c0.1-2.1,0.3-4.2,0.6-6.2c0.3-1.8,1.3-2.5,3.1-2.3
		c1.8,0.2,3.6,0.7,5.4,1.1c0.5,0.1,0.9,0.1,1.4,0.2c1.5,0.2,1.7,0.6,1.4,2.1c0,0.2,0,0.6,0.2,0.7c0.7,0.8,0.6,1.7,0.6,2.7
		c0,2.5,0.3,5.1,0.5,7.6c0.2,2.4,0.4,4.8,0.7,7.1c0.2,1.8,0.7,3.5,0.9,5.3C-146.8,274.1-146.5,277.2-146.2,280.6z"/>
	<path class="st0" d="M-93.7,277.5c-0.4,1.8-0.6,3.6-1.1,5.3c-1,3.6-2,7.1-3.1,10.7c-0.2,0.5-0.4,1-0.7,1.5
		c-1.3,1.9-3.7,2.2-5.2,0.5c-0.7-0.7-1.1-1.7-1.5-2.6c-2.1-5.2-2.6-10.6-2.5-16.1c0.1-7.1,0.3-14.2,0.5-21.3c0-1.4,0.3-2.9,0.6-4.3
		c0.2-1,0.6-1.8,1.6-2.2c0.3-0.1,0.4-0.5,0.5-0.8c0.3-0.8,0.4-1.6,0.7-2.3c1.1-2.5,4-2.9,5.8-0.8c0.6,0.7,1.2,1.7,1.4,2.6
		c1,3.3,1.8,6.7,2.7,10c0.3,1,0.4,2,0.9,3c1.6,3.2,3.3,6.4,5.2,9.6c0-2.6-0.2-5.2,0-7.7c0.3-4.3,0.7-8.6,1.4-12.8
		c0.3-2,1.4-4,2.2-5.9c0.5-1.2,2-1.8,3.5-1.5c0.7,0.2,1.4,0.4,2.1,0.7c0.3,0.1,0.5,0.5,0.5,0.8c0.2,4.2,1.8,8.1,2.1,12.2
		c0.6,8.3,1.4,16.6,1.8,25c0.1,2.3-0.6,4.6-0.9,6.9c-0.1,0.5-0.2,1-0.2,1.5c0.1,2.4-0.7,4.6-1.6,6.7c-0.4,0.9-1.1,1.3-2.1,1.3
		c-0.6,0-1.1,0-1.7,0c-1.9,0-2.7-0.7-3.4-2.5c-0.6-1.5-1.4-2.9-2.3-4.3c-0.6-1-1.5-1.9-1-3.3c0.1-0.2-0.1-0.5-0.2-0.6
		c-1.9-3-3.8-6-5.7-9c-0.1-0.1-0.1-0.3-0.2-0.5C-93.6,277.4-93.7,277.4-93.7,277.5z"/>
	<path class="st0" d="M-214.8,295.3c-0.9,0.1-1.7,0.3-2.5,0.2c-1.9-0.1-3-1.4-2.7-3.3c0.3-2,0-3.8-1.2-5.5c-0.4-0.6-0.6-1.5-0.5-2.1
		c0.5-3.8-0.2-7.6-0.9-11.3c-0.9-4.7-0.5-9.5-0.1-14.2c0.3-2.9,0.7-5.9,1.2-8.8c0.4-2.1,1.5-3.4,3.9-3.7c2-0.2,3.9-1,5.8-1.7
		c2.2-0.8,4.3-1.1,6.6-0.6c0.7,0.1,1.4,0.1,2,0.3c1,0.3,2.1,0.7,3.1,1.2c1,0.5,1.8,1.1,2.7,1.7c4.3,2.7,6.4,7.4,5.6,12.5
		c-0.6,3.9-2,6.9-5.2,11.2c0.2,0.2,0.4,0.5,0.6,0.6c3.5,2.5,5.7,5.9,7.7,9.5c0.2,0.4,0.7,0.8,1.2,1c1.1,0.4,1.5,1.2,1.7,2.3
		c0.3,1.6,0.6,3.3,0.9,4.9c0.5,2.7-1.1,5-3.7,5.7c-1.4,0.3-3.7-0.9-4.7-2.4c-0.2-0.3-0.5-0.7-0.9-0.9c-1.5-0.6-2.6-1.5-3.5-2.9
		c-1.6-2.2-3.6-4-5.4-6.1c-0.9-1.1-1.6-2.4-2.4-3.6c-0.2-0.3-0.4-0.6-0.3-0.9c0.2-1.8-1.2-2.7-2.3-3.7c-0.7-0.6-0.9-1.4-0.4-2.1
		c0.5-0.7,1.1-1.4,1.7-2.1c0.1-0.1,0.2-0.2,0.3-0.3c1-1.6,1.8-3.3,3-4.7c1.6-2,2.2-4.3,2.1-6.8c0-0.2,0-0.4,0-0.6
		c-0.2-3.2-0.7-4-3.9-4.4c-2.1-0.2-4.2,0.1-6.3,0.2c-1.1,0.1-1.3,0.7-1,1.7c0.8,2.9,1.6,5.9,2.1,8.8c1.1,5.9,1,11.9,0.5,17.9
		c0,0.5,0.3,1.1,0.4,1.6c0.3,1.2,0.7,2.5,0.7,3.7c0.1,1.6-0.1,3.2-0.3,4.8c0,0.4-0.3,0.8-0.5,1.2c-0.3,0.7-0.7,1.5-1.1,2.2
		c-0.4,0.9-0.9,1.5-2,1.5c-1,0-1.6-0.5-1.9-1.3C-214.7,295.7-214.8,295.4-214.8,295.3z"/>
	<path class="st0" d="M-231.5,278.1c-2.2-7-4.4-13.9-6.7-20.9c-0.2,0-0.3,0-0.5,0.1c-0.6,2.1-1.1,4.1-1.7,6.2
		c-1.8,6.3-3.5,12.6-5.3,18.9c-0.6,2-1.6,3.9-2.5,5.8c-1.2,2.7-3.5,4.4-5.5,6.4c-0.8,0.8-1.6,1.6-2.5,2.2c-0.2,0.2-0.9,0-1.2-0.3
		c-0.2-0.1-0.2-0.7-0.2-1c-0.2-2.2-0.4-4.4-0.7-6.6c-0.3-2.7,0.3-5.4,0.8-8c0.8-3.9,2-7.6,3.3-11.4c1.4-4,2.6-8.1,4.2-12
		c1.4-3.6,3.2-7.1,4.9-10.6c0.3-0.6,0.7-1.1,1.2-1.6c2-1.9,5-1.3,6.2,1.2c0.3,0.6,0.7,1.1,1.2,1.6c3.3,3,5.6,6.7,7.5,10.6
		c2.1,4.4,3.4,9,4.3,13.8c0.5,2.4,1.5,4.8,1.6,7.2c0.2,3.4-0.2,6.9-0.6,10.2c-0.3,2.3-3.2,3.7-5.9,2.6c-1.5-0.6-3.1-1.6-4.2-2.8
		c-2.1-2.2-3.6-4.9-4.7-7.7c-0.2-0.4-0.6-0.7-0.9-1c-0.9-0.7-1.3-1.6-0.9-2.7c0.4-1.1,1.4-1.6,2.5-1.4
		C-235.7,277-233.7,277.5-231.5,278.1z"/>
	<path class="st0" d="M-46.5,271.7c-0.1,5.1-1.3,8.4-3.4,11.3c-3.9,5.4-8.3,10.4-13.7,14.3c-0.4,0.3-0.7,0.5-1.1,0.7
		c-1.9,1-3.8,0.8-5.3-0.7c-0.4-0.4-0.8-1.1-0.8-1.7c-0.7-5.8-1.4-11.7-2.1-17.5c-0.6-5.2-1.1-10.3-1.5-15.5
		c-0.5-5.4,0.3-10.7,2.1-15.8c0.2-0.5,0.1-1.2-0.1-1.7c-0.5-1.2,0-2.1,1.2-2.3c0.7-0.1,1.6,0,2.2,0.2c7,2.7,13.3,6.2,17.5,12.7
		C-48.2,261.1-46.9,266.9-46.5,271.7z M-64.2,252.1c-0.2,2.6-0.5,4.8-0.4,6.9c0.1,3.8,0.6,7.6,0.8,11.3c0.1,3.3,0,6.5-0.2,9.8
		c0,1-0.4,1.9-0.6,3.1c0.3-0.2,0.4-0.3,0.5-0.4c2.8-2.9,5.1-6.2,6.8-9.9c2-4.5,1.9-9-0.8-13.2c-1.5-2.4-3.3-4.6-5.1-6.8
		C-63.3,252.8-63.6,252.6-64.2,252.1z"/>
	<path class="st0" d="M-177.3,269.5c-1.2,0.2-2.1,0.4-3.1,0.7c-0.3,0.1-0.5,0.6-0.6,0.9c-0.8,2.9-1.6,5.8-2.3,8.7
		c-0.1,0.3,0.2,0.6,0.2,0.9c0,0.4,0.1,1.1-0.1,1.3c-0.3,0.3-1.1,0.5-1.4,0.3c-1.5-1-3.2-1.8-4.1-3.5c-0.1-0.2-0.3-0.4-0.6-0.5
		c-1.4-0.7-1.8-1.8-1.6-3.3c0.4-3.4,0.7-6.8,1.1-10.1c0.5-3.9,0.2-7.8-0.1-11.7c-0.2-2.3-0.1-4.7,0.2-7.1c0.3-2,1.3-2.6,3.3-2.5
		c0.4,0,0.7-0.1,1.1-0.1c2.5-0.4,4.3,1.6,3.4,4.1c-0.2,0.5-0.1,1.2,0,1.8c0.5,2,1.3,4,1.7,6.1c0.4,2,0.3,4.1,0.5,6.3
		c1.5-1.4,3.5-2.2,4.5-4.4c1.3-2.8,3-5.4,4.5-8c0.2-0.3,0.2-0.7,0.2-1.1c-0.2-1.9,0.6-3.1,2.5-3.5c0.8-0.2,1.7-0.5,2.4-0.4
		c1.9,0.2,3.1,2.5,2.8,4.5c-0.1,0.5,0.1,1.1,0.2,1.7c0.1,1.1,0.2,2.2,0.2,3.3c0,0.5-0.2,1-0.4,1.4c-2.2,4.1-4.3,8.3-8.3,11.1
		c-0.2,0.1-0.3,0.2-0.5,0.5c0.6,0.6,1.2,1.1,1.8,1.6c1.7,1.4,2.9,3,3.6,5.1c0.7,2,1.8,3.8,2.8,5.7c0.6,1.3,0.7,2.5,0.6,3.9
		c-0.3,2.7-0.2,5.5-0.6,8.2c-0.2,1.8-0.7,3.6-1.3,5.3c-0.7,1.9-3.3,2.2-4.7,0.8c-0.5-0.5-0.9-1.2-1.1-1.8c-1.4-3.6-2.8-7.1-4-10.8
		c-0.4-1.2-0.5-2.6-0.7-3.9c-0.2-0.8-0.4-1.6-0.5-2.5c-0.5-2.3-0.9-4.6-1.3-6.9C-177.2,270.8-177.2,270.2-177.3,269.5z"/>
	<path class="st0" d="M-108.8,276.1c-0.2,2.7-0.6,6.4-0.8,10.2c-0.1,1.6,0.3,3.2,0.5,4.7c0.1,1.4,0.3,2.8,0.3,4.2
		c0,1.4-0.9,2.2-2.4,2c-0.2,0-0.5-0.2-0.6-0.1c-1.2,1.4-2.9,0.6-4.3,1c-1.7,0.4-3.1-0.7-3.6-2.7c-0.2-0.9-0.6-1.7-0.9-2.5
		c-0.6-1.2-0.6-2.4,0.1-3.5c0.7-1.1,0.8-2.2,0.6-3.4c-0.6-3.5-1.5-7.1-1.7-10.6c-0.2-2.8,0.3-5.7,0.9-8.4c0.6-2.4,2.6-3.7,4.6-5
		c0.8-0.5,1.5-1.1,2.2-1.7c0.7-0.6,1.4-0.9,2.3-0.6c0.9,0.3,1.3,0.9,1.4,1.9C-109.6,265.9-109.2,270.5-108.8,276.1z"/>
	<path class="st0" d="M-109.7,248.7c-0.1,0.6-0.1,1.3-0.4,1.9c-0.4,1.1-0.8,2.2-0.3,3.4c0.1,0.2-0.2,0.8-0.5,0.9
		c-2,0.6-3.2,2.2-4.7,3.5c-1.2,1-2.4,1.9-4,1.2c-1.8-0.8-2.5-2.4-2.4-4.2c0.1-2.7,0.4-5.5,0.8-8.2c0.1-1.2,0.9-1.7,2.2-1.6
		c0.3,0,0.6-0.1,0.8-0.2c1-0.8,2.1-0.9,3.3-0.5c0.6,0.2,1.1,0.4,1.5-0.4c0.4-0.8,1.8-0.6,2.4,0.5c0.6,1.2,1,2.5,1.5,3.7
		C-109.6,248.7-109.6,248.7-109.7,248.7z"/>
</g>
<text transform="matrix(1 0 0 1 -311.9087 326.0576)" class="st0" style="font-family:'ServusSlab-Medium'; font-size:16.6846px;">BLOCKCHAIN TRADING CARD GAME</text>
<g>
	<path class="st0" d="M41.5,382.9c-1.2,3.3-2.4,6.4-3.4,9.6c-1.3,4-2.6,8-3.9,11.9c-0.4,1.3-0.9,2.7-2.5,3.2
		c-0.2,0.1-0.3,0.5-0.4,0.8c-0.5,1.3-0.9,2.6-1.4,3.9c-0.1,0.3-0.5,0.5-0.7,0.7c-0.2-0.2-0.4-0.5-0.5-0.7c-0.5-1.3-1.4-2.6-1.3-3.9
		c0.1-2.6-0.4-5-0.6-7.6c-0.4-7.7,0.2-15.4,1.4-23.1c0.1-0.5,0.1-1.1,0.2-1.9c-2.4-0.3-4.8-0.6-7.1-0.9c-0.9-0.1-1.8,0-2.6-0.3
		c-0.6-0.2-1.4-0.6-1.7-1.1c-0.4-0.8-0.9-1.3-1.6-1.8c-0.9-0.5-1.3-1.5-0.9-2.5c0.4-1.1,1.2-1.6,2.3-1.5c2.8,0.1,5.5,0.2,8.3,0.3
		c0.3,0,0.7,0.1,0.9-0.1c1.9-1.3,4-0.9,5.9-0.3c4.1,1.4,8.2,3,12.2,4.5c0.6,0.2,1.2,0.4,1.8,0.7c1.2,0.6,2.4,1.2,3.4,2.1
		c2,1.8,3.8,3.9,5.8,5.7c6,5.4,9.8,12.1,11.3,20.1c0.2,1,0,1.8-0.8,2.5c-0.3,0.2-0.4,0.7-0.4,1c0.7,13.1-7.5,23.2-19.8,27.6
		c-5.6,2-11.2,1.8-16.9,0.7c-1.8-0.3-3.7,0-5.3-0.5c-3.5-1-6.9-2.3-10.2-3.7c-0.7-0.3-1.1-1.4-1.6-2.2c-0.2-0.3-0.1-0.6-0.3-0.9
		c-1.4-2.2-2.9-4.4-4.3-6.6c-0.7-1.1-0.7-2.1,0.1-2.6c0.4-0.2,1.1-0.3,1.5-0.1c5.7,3,11.2,6.1,16.9,9.1c1.3,0.7,2.8,1,4.1,1.4
		c0.2,0.1,0.5,0,0.7,0c2.9-0.7,5.7-1.5,8.5-2.3c0.5-0.1,1-0.4,1.3-0.8c3.9-5,6.8-10.4,7.9-16.7c0.1-0.7,0.2-1.4,0.2-2
		c-0.5-5.7-1.1-11.3-2.6-16.8C44.7,385.6,44.2,384.9,41.5,382.9z"/>
	<path class="st0" d="M304.6,387.5c-1.7-2.3-3.4-4.6-5-7c-0.9-1.2-1.9-1.5-3.3-1.1c-3.3,0.9-6,2.7-8.5,5c2.6,3.3,5.2,6.6,7.7,9.9
		c3.5,4.8,7,9.7,10.3,14.6c1.4,2.1,2.3,4.4,1.3,7c-0.1,0.4-0.1,0.9,0,1.3c0.8,3.5-0.4,6.6-1.6,9.8c-0.3,0.9-1.1,1.7-1.9,2.3
		c-2.9,1.9-6,3.5-8.9,5.3c-2.6,1.6-5.2,0.8-7.7-0.1c-1.5-0.6-3-1.3-4.6-1.8c-0.8-0.3-1.7-0.3-2.5-0.6c-0.9-0.3-1.7-0.8-2.5-1.3
		c-0.8-0.6-1.6-1.2-2.7-1.1c-0.4,0-0.9-0.5-1.1-0.9c-0.4-0.7-0.6-1.6-1.1-2.3c-0.2-0.4-0.8-0.7-1.1-1c-0.2-0.3-0.6-0.6-0.6-0.9
		c-0.3-3,0.5-5.8,2.5-8.1c1.2-1.3,2.9-1.6,4.2-0.9c1.3,0.7,2,2.1,1.6,3.9c-0.2,1.1-0.6,2.1-0.8,3.2c-0.1,0.4,0.2,0.9,0.4,1.2
		c1.2,1,2.5,1.9,3.9,2.8c0.3,0.2,0.7,0.3,1,0.3c2,0,4,0,6,0c0.7,0,1-0.2,1.3-0.8c0.1-0.4,0.3-0.8,0.6-1.1c2.4-2.7,1.9-5.9,1.6-9
		c0-0.3-0.3-0.5-0.6-0.7c-3.8-2.4-6.5-5.7-9-9.4c-1.1-1.6-2.8-2.6-4.3-3.8c-1.7-1.5-3.2-3.4-4.3-5.3c-0.8-1.5-1-3.5-1.4-5.3
		c-0.2-1-0.3-2-0.2-3c0.5-3.8,1.4-7.4,3.5-10.6c0.4-0.6,0.7-1.4,1.1-2c0.2-0.4,0.5-0.9,0.9-1.1c2.7-1.3,4.3-3.8,6.1-6
		c1.5-2,3.3-3.7,5.4-5c3.1-1.8,6.9-1.7,9.8,0.4c3.3,2.5,5.7,5.8,7.5,9.5c1,2.1,1.6,4.4,2.4,6.6c0.5,1.3,1.1,2.6,1.6,3.9
		c0.7,2-1,5.5-2.9,6.3c-0.3,0.1-0.6,0.4-0.8,0.6c-0.6,0.7-1.2,1.4-1.9,2c-1.2,1.1-2.6,1.1-3.6,0.2c-1-0.9-1.1-2.3-0.1-3.6
		C303.1,389,303.9,388.3,304.6,387.5z"/>
	<path class="st0" d="M175.8,413.9c1.2-2.7,2.4-5.2,3.5-7.8c0.5-1.1,1.4-1.8,2.5-1.7c1.1,0.1,1.8,1,1.9,2.3c0,0.2,0,0.5,0.1,0.7
		c1.5,2.5,3.1,4.9,4.6,7.4c0-1.3,0-2.6,0-3.9c0.2-5.1,0.5-10.1,0.7-15.2c0-0.7-0.3-1.5-0.5-2.2c-0.1-0.4-0.4-0.7-0.4-1.1
		c-0.3-2.4-0.8-4.9-0.6-7.3c0.2-1.9,0.3-3.9,0.4-5.8c0.1-3,2.4-4.9,4.9-4.1c0.8,0.2,1.4,0.9,2.1,1.5c0.6,0.5,1.2,1,1.9,1.4
		c1,0.5,1.5,1.1,1.5,2.2c0,1.7-0.2,3.5,0,5.2c0.1,1.7,0.6,3.5,0.8,5.2c1.5,10.3,1.5,20.4-1.8,30.4c-0.8,2.4-1.9,4.6-3.6,6.6
		c-0.8,1-1.7,1.9-3.2,1.2c0,0-0.1,0-0.1,0c-2.2,0.7-3.4-0.4-4.5-2.2c-1.7-2.7-3.7-5.1-5.6-7.7c-0.5,1.5-1.1,3.2-1.8,4.8
		c-0.7,1.6-1.6,3.1-2.5,4.6c-0.7,1.2-1.4,2.4-2.2,3.5c-1.4,2.1-2.4,2.2-4.4,0.7c-0.3-0.3-0.8-0.5-1.2-0.6c-2-0.4-3.3-1.8-4.7-3.1
		c-2.6-2.6-2.3-6-2.7-9.1c-1.2-8.4-1.8-16.8-1-25.2c0.3-2.8,0-5.7,0.1-8.6c0.1-2.1,0.3-4.2,0.6-6.2c0.3-1.8,1.3-2.5,3.1-2.3
		c1.8,0.2,3.6,0.7,5.4,1.1c0.5,0.1,0.9,0.1,1.4,0.2c1.5,0.2,1.7,0.6,1.4,2.1c0,0.2,0,0.6,0.2,0.7c0.7,0.8,0.6,1.7,0.6,2.7
		c0,2.5,0.3,5.1,0.5,7.6c0.2,2.4,0.4,4.8,0.7,7.1c0.2,1.8,0.7,3.5,0.9,5.3C175.2,407.4,175.5,410.5,175.8,413.9z"/>
	<path class="st0" d="M228.3,410.8c-0.4,1.8-0.6,3.6-1.1,5.3c-1,3.6-2,7.1-3.1,10.7c-0.2,0.5-0.4,1-0.7,1.5
		c-1.3,1.9-3.7,2.2-5.2,0.5c-0.7-0.7-1.1-1.7-1.5-2.6c-2.1-5.2-2.6-10.6-2.5-16.1c0.1-7.1,0.3-14.2,0.5-21.3c0-1.4,0.3-2.9,0.6-4.3
		c0.2-1,0.6-1.8,1.6-2.2c0.3-0.1,0.4-0.5,0.5-0.8c0.3-0.8,0.4-1.6,0.7-2.3c1.1-2.5,4-2.9,5.8-0.8c0.6,0.7,1.2,1.7,1.4,2.6
		c1,3.3,1.8,6.7,2.7,10c0.3,1,0.4,2,0.9,3c1.6,3.2,3.3,6.4,5.2,9.6c0-2.6-0.2-5.2,0-7.7c0.3-4.3,0.7-8.6,1.4-12.8
		c0.3-2,1.4-4,2.2-5.9c0.5-1.2,2-1.8,3.5-1.5c0.7,0.2,1.4,0.4,2.1,0.7c0.3,0.1,0.5,0.5,0.5,0.8c0.2,4.2,1.8,8.1,2.1,12.2
		c0.6,8.3,1.4,16.6,1.8,25c0.1,2.3-0.6,4.6-0.9,6.9c-0.1,0.5-0.2,1-0.2,1.5c0.1,2.4-0.7,4.6-1.6,6.7c-0.4,0.9-1.1,1.3-2.1,1.3
		c-0.6,0-1.1,0-1.7,0c-1.9,0-2.7-0.7-3.4-2.5c-0.6-1.5-1.4-2.9-2.3-4.3c-0.6-1-1.5-1.9-1-3.3c0.1-0.2-0.1-0.5-0.2-0.6
		c-1.9-3-3.8-6-5.7-9c-0.1-0.1-0.1-0.3-0.2-0.5C228.4,410.7,228.3,410.8,228.3,410.8z"/>
	<path class="st0" d="M107.2,428.6c-0.9,0.1-1.7,0.3-2.5,0.2c-1.9-0.1-3-1.4-2.7-3.3c0.3-2,0-3.8-1.2-5.5c-0.4-0.6-0.6-1.5-0.5-2.1
		c0.5-3.8-0.2-7.6-0.9-11.3c-0.9-4.7-0.5-9.5-0.1-14.2c0.3-2.9,0.7-5.9,1.2-8.8c0.4-2.1,1.5-3.4,3.9-3.7c2-0.2,3.9-1,5.8-1.7
		c2.2-0.8,4.3-1.1,6.6-0.6c0.7,0.1,1.4,0.1,2,0.3c1,0.3,2.1,0.7,3.1,1.2c1,0.5,1.8,1.1,2.7,1.7c4.3,2.7,6.4,7.4,5.6,12.5
		c-0.6,3.9-2,6.9-5.2,11.2c0.2,0.2,0.4,0.5,0.6,0.6c3.5,2.5,5.7,5.9,7.7,9.5c0.2,0.4,0.7,0.8,1.2,1c1.1,0.4,1.5,1.2,1.7,2.3
		c0.3,1.6,0.6,3.3,0.9,4.9c0.5,2.7-1.1,5-3.7,5.7c-1.4,0.3-3.7-0.9-4.7-2.4c-0.2-0.3-0.5-0.7-0.9-0.9c-1.5-0.6-2.6-1.5-3.5-2.9
		c-1.6-2.2-3.6-4-5.4-6.1c-0.9-1.1-1.6-2.4-2.4-3.6c-0.2-0.3-0.4-0.6-0.3-0.9c0.2-1.8-1.2-2.7-2.3-3.7c-0.7-0.6-0.9-1.4-0.4-2.1
		c0.5-0.7,1.1-1.4,1.7-2.1c0.1-0.1,0.2-0.2,0.3-0.3c1-1.6,1.8-3.3,3-4.7c1.6-2,2.2-4.3,2.1-6.8c0-0.2,0-0.4,0-0.6
		c-0.2-3.2-0.7-4-3.9-4.4c-2.1-0.2-4.2,0.1-6.3,0.2c-1.1,0.1-1.3,0.7-1,1.7c0.8,2.9,1.6,5.9,2.1,8.8c1.1,5.9,1,11.9,0.5,17.9
		c0,0.5,0.3,1.1,0.4,1.6c0.3,1.2,0.7,2.5,0.7,3.7c0.1,1.6-0.1,3.2-0.3,4.8c0,0.4-0.3,0.8-0.5,1.2c-0.3,0.7-0.7,1.5-1.1,2.2
		c-0.4,0.9-0.9,1.5-2,1.5c-1,0-1.6-0.5-1.9-1.3C107.3,429,107.2,428.8,107.2,428.6z"/>
	<path class="st0" d="M90.5,411.4c-2.2-7-4.4-13.9-6.7-20.9c-0.2,0-0.3,0-0.5,0.1c-0.6,2.1-1.1,4.1-1.7,6.2
		c-1.8,6.3-3.5,12.6-5.3,18.9c-0.6,2-1.6,3.9-2.5,5.8c-1.2,2.7-3.5,4.4-5.5,6.4c-0.8,0.8-1.6,1.6-2.5,2.2c-0.2,0.2-0.9,0-1.2-0.3
		c-0.2-0.1-0.2-0.7-0.2-1c-0.2-2.2-0.4-4.4-0.7-6.6c-0.3-2.7,0.3-5.4,0.8-8c0.8-3.9,2-7.6,3.3-11.4c1.4-4,2.6-8.1,4.2-12
		c1.4-3.6,3.2-7.1,4.9-10.6c0.3-0.6,0.7-1.1,1.2-1.6c2-1.9,5-1.3,6.2,1.2c0.3,0.6,0.7,1.1,1.2,1.6c3.3,3,5.6,6.7,7.5,10.6
		c2.1,4.4,3.4,9,4.3,13.8c0.5,2.4,1.5,4.8,1.6,7.2c0.2,3.4-0.2,6.9-0.6,10.2c-0.3,2.3-3.2,3.7-5.9,2.6c-1.5-0.6-3.1-1.6-4.2-2.8
		c-2.1-2.2-3.6-4.9-4.7-7.7c-0.2-0.4-0.6-0.7-0.9-1c-0.9-0.7-1.3-1.6-0.9-2.7c0.4-1.1,1.4-1.6,2.5-1.4
		C86.3,410.3,88.3,410.9,90.5,411.4z"/>
	<path class="st0" d="M275.5,405c-0.1,5.1-1.3,8.4-3.4,11.3c-3.9,5.4-8.3,10.4-13.7,14.3c-0.4,0.3-0.7,0.5-1.1,0.7
		c-1.9,1-3.8,0.8-5.3-0.7c-0.4-0.4-0.8-1.1-0.8-1.7c-0.7-5.8-1.4-11.7-2.1-17.5c-0.6-5.2-1.1-10.3-1.5-15.5
		c-0.5-5.4,0.3-10.7,2.1-15.8c0.2-0.5,0.1-1.2-0.1-1.7c-0.5-1.2,0-2.1,1.2-2.3c0.7-0.1,1.6,0,2.2,0.2c7,2.7,13.3,6.2,17.5,12.7
		C273.8,394.4,275.1,400.3,275.5,405z M257.8,385.5c-0.2,2.6-0.5,4.8-0.4,6.9c0.1,3.8,0.6,7.6,0.8,11.3c0.1,3.3,0,6.5-0.2,9.8
		c0,1-0.4,1.9-0.6,3.1c0.3-0.2,0.4-0.3,0.5-0.4c2.8-2.9,5.1-6.2,6.8-9.9c2-4.5,1.9-9-0.8-13.2c-1.5-2.4-3.3-4.6-5.1-6.8
		C258.7,386.1,258.4,385.9,257.8,385.5z"/>
	<path class="st0" d="M144.7,402.9c-1.2,0.2-2.1,0.4-3.1,0.7c-0.3,0.1-0.5,0.6-0.6,0.9c-0.8,2.9-1.6,5.8-2.3,8.7
		c-0.1,0.3,0.2,0.6,0.2,0.9c0,0.4,0.1,1.1-0.1,1.3c-0.3,0.3-1.1,0.5-1.4,0.3c-1.5-1-3.2-1.8-4.1-3.5c-0.1-0.2-0.3-0.4-0.6-0.5
		c-1.4-0.7-1.8-1.8-1.6-3.3c0.4-3.4,0.7-6.8,1.1-10.1c0.5-3.9,0.2-7.8-0.1-11.7c-0.2-2.3-0.1-4.7,0.2-7.1c0.3-2,1.3-2.6,3.3-2.5
		c0.4,0,0.7-0.1,1.1-0.1c2.5-0.4,4.3,1.6,3.4,4.1c-0.2,0.5-0.1,1.2,0,1.8c0.5,2,1.3,4,1.7,6.1c0.4,2,0.3,4.1,0.5,6.3
		c1.5-1.4,3.5-2.2,4.5-4.4c1.3-2.8,3-5.4,4.5-8c0.2-0.3,0.2-0.7,0.2-1.1c-0.2-1.9,0.6-3.1,2.5-3.5c0.8-0.2,1.7-0.5,2.4-0.4
		c1.9,0.2,3.1,2.5,2.8,4.5c-0.1,0.5,0.1,1.1,0.2,1.7c0.1,1.1,0.2,2.2,0.2,3.3c0,0.5-0.2,1-0.4,1.4c-2.2,4.1-4.3,8.3-8.3,11.1
		c-0.2,0.1-0.3,0.2-0.5,0.5c0.6,0.6,1.2,1.1,1.8,1.6c1.7,1.4,2.9,3,3.6,5.1c0.7,2,1.8,3.8,2.8,5.7c0.6,1.3,0.7,2.5,0.6,3.9
		c-0.3,2.7-0.2,5.5-0.6,8.2c-0.2,1.8-0.7,3.6-1.3,5.3c-0.7,1.9-3.3,2.2-4.7,0.8c-0.5-0.5-0.9-1.2-1.1-1.8c-1.4-3.6-2.8-7.1-4-10.8
		c-0.4-1.2-0.5-2.6-0.7-3.9c-0.2-0.8-0.4-1.6-0.5-2.5c-0.5-2.3-0.9-4.6-1.3-6.9C144.8,404.1,144.8,403.6,144.7,402.9z"/>
	<path class="st0" d="M213.2,409.5c-0.2,2.7-0.6,6.4-0.8,10.2c-0.1,1.6,0.3,3.2,0.5,4.7c0.1,1.4,0.3,2.8,0.3,4.2
		c0,1.4-0.9,2.2-2.4,2c-0.2,0-0.5-0.2-0.6-0.1c-1.2,1.4-2.9,0.6-4.3,1c-1.7,0.4-3.1-0.7-3.6-2.7c-0.2-0.9-0.6-1.7-0.9-2.5
		c-0.6-1.2-0.6-2.4,0.1-3.5c0.7-1.1,0.8-2.2,0.6-3.4c-0.6-3.5-1.5-7.1-1.7-10.6c-0.2-2.8,0.3-5.7,0.9-8.4c0.6-2.4,2.6-3.7,4.6-5
		c0.8-0.5,1.5-1.1,2.2-1.7c0.7-0.6,1.4-0.9,2.3-0.6c0.9,0.3,1.3,0.9,1.4,1.9C212.4,399.3,212.8,403.8,213.2,409.5z"/>
	<path class="st0" d="M212.3,382.1c-0.1,0.6-0.1,1.3-0.4,1.9c-0.4,1.1-0.8,2.2-0.3,3.4c0.1,0.2-0.2,0.8-0.5,0.9
		c-2,0.6-3.2,2.2-4.7,3.5c-1.2,1-2.4,1.9-4,1.2c-1.8-0.8-2.5-2.4-2.4-4.2c0.1-2.7,0.4-5.5,0.8-8.2c0.1-1.2,0.9-1.7,2.2-1.6
		c0.3,0,0.6-0.1,0.8-0.2c1-0.8,2.1-0.9,3.3-0.5c0.6,0.2,1.1,0.4,1.5-0.4c0.4-0.8,1.8-0.6,2.4,0.5c0.6,1.2,1,2.5,1.5,3.7
		C212.4,382,212.4,382,212.3,382.1z"/>
</g>
<g>
	<path class="st0" d="M11.4,458.8c4.8-2.1,6.6-5.9,7.2-9.2c0,0,0-0.1,0-0.1c0-0.1-0.1-0.1-0.2-0.1c-0.1,0-5.6,0.4-6.4,0.7
		c-0.2,0.1-0.4,0.2-0.6,0.2c-0.5,0-1.2-0.9-1.2-1.5c0-0.3,0.2-0.4,0.4-0.5l0,0c0.2,0.8,0.9,0.8,1.5,0.8c0.8,0,5-0.2,5.9-0.3
		c0.3,0,0.4-0.4,0.6-0.4c0.4,0,1.4,0.9,1.4,1.2c0,0.1-0.1,0.2-0.2,0.3c-0.1,0.1-0.1,0.1-0.2,0.3c-0.9,3.2-3,7-8,8.8L11.4,458.8z
		 M19,446.8c1,0.4,1.9,1.2,1.9,1.8c0,0.4-0.2,0.5-0.4,0.5c-0.2,0-0.3-0.1-0.4-0.4c-0.2-0.5-0.6-1.2-1.3-1.7L19,446.8z M20.6,446.3
		c1.1,0.4,1.9,1.2,1.9,1.8c0,0.4-0.2,0.5-0.4,0.5c-0.2,0-0.3-0.1-0.4-0.4c-0.2-0.5-0.5-1.2-1.3-1.7L20.6,446.3z"/>
	<path class="st0" d="M24.7,449.4c0.1-0.2,0.4-0.3,0.6-0.3c0.3,0,0.9,0.4,1.2,0.7c0.2,0,0.4,0,0.6,0c1.3,0,4.9-0.1,6.1-0.2
		c0.2,0,0.3-0.1,0.5-0.2c0.1-0.1,0.3-0.3,0.4-0.3c0.3,0,1.3,0.8,1.3,1c0,0.1-0.1,0.2-0.4,0.3c-0.2,0.1-0.2,0.2-0.2,0.4
		c-0.1,0.8-0.3,3.5-0.6,5.1c0.4,0.2,0.9,0.5,0.9,0.7c0,0.3-0.2,0.3-0.6,0.3c-0.3,0-0.9-0.1-1.6-0.1c-0.3,0-0.7,0-1.2,0
		c-1.5,0-3.5,0.1-4.7,0.2c0,0.8,0,1.1-0.3,1.1c-0.4,0-0.7-0.5-0.7-1c0-0.1,0-0.8,0-1c0-0.4-0.2-4.1-0.3-5.3
		C25.5,450.1,25.4,449.5,24.7,449.4L24.7,449.4z M27.2,450.6c-0.2,0-0.4-0.1-0.6-0.2c0,0.2,0,0.3,0,0.6c0,0.8,0.1,3.9,0.2,5.3
		c1.6-0.1,4.6-0.2,5.7-0.3c0.3,0,0.6-0.1,0.8-0.2c0.2-1.9,0.3-4.5,0.3-5.6c0-0.1,0-0.1-0.1-0.1c-0.9,0-4.6,0.2-5.3,0.3L27.2,450.6z"
		/>
	<path class="st0" d="M40,451.2c1,0.5,1.8,1.5,1.8,2.3c0,0.4-0.2,0.7-0.5,0.7c-0.3,0-0.4-0.1-0.5-0.5c0-0.8-0.5-1.7-1.1-2.3
		L40,451.2z M41.8,459c4.6-2.2,5.9-6.8,5.9-7.5c0-0.4-0.5-0.5-0.8-0.5c0-0.1,0.2-0.4,0.6-0.4c0.6,0,1.5,0.6,1.5,1
		c0,0.2-0.2,0.2-0.3,0.3c0,0-0.1,0.1-0.1,0.2c-1,3.1-3,5.7-6.5,7.1L41.8,459z M43.3,450.5c1.1,0.8,1.5,1.7,1.5,2.4
		c0,0.6-0.2,0.9-0.5,0.9c-0.3,0-0.5-0.2-0.5-0.5c0-0.7-0.1-1.6-0.8-2.6L43.3,450.5z"/>
	<path class="st0" d="M53.8,453.7c2.6-2.1,4-5.2,4-6c0-0.4-0.6-0.5-0.8-0.5c0.1-0.2,0.3-0.4,0.8-0.4c0.6,0,1.6,0.6,1.6,1
		c0,0.2-0.2,0.2-0.3,0.3c-0.1,0.1-0.2,0.2-0.3,0.4c-0.2,0.5-0.5,1-0.8,1.5c0.6,0.1,2.9-0.2,3.8-0.3c0.3,0,0.4-0.1,0.5-0.3
		c0.1-0.1,0.2-0.2,0.3-0.2c0.3,0,1.2,0.7,1.2,1c0,0.2-0.2,0.2-0.4,0.3c-0.1,0.1-0.3,0.3-0.4,0.5c-1.3,3.5-3.5,6.5-8,8.2l-0.2-0.3
		c3.8-1.9,6.1-5,7.2-8.4c0-0.1,0-0.2,0-0.2c0-0.1,0-0.1-0.1-0.1c-0.6,0-3.1,0.5-3.5,0.5c-0.4,0-0.7-0.1-0.8-0.2
		c-0.8,1.3-2,2.6-3.6,3.5L53.8,453.7z"/>
	<path class="st0" d="M74.6,447.2c0-0.1,0.2-0.3,0.5-0.3c0.7,0,1.8,0.7,1.8,1.3c0,0.3-0.5,0.2-0.7,0.3c-0.7,0.2-1.5,0.4-2.2,0.6
		c0.2,0.2,0.5,0.4,0.5,0.5c0,0.1-0.1,0.2-0.1,0.3c-0.1,0.1-0.1,0.2-0.1,0.5c0,0.5-0.1,1.1-0.1,1.7c0.9-0.1,1.9-0.1,2.4-0.2
		c0.6,0,0.9,0,1.3-0.4c0.6,0.1,1.6,0.5,1.6,0.8c0,0.3-0.2,0.3-0.6,0.3c-0.3,0-1.1-0.1-1.6-0.1c-0.3,0-0.7,0-1.2,0
		c-0.6,0-1.2,0-2,0.1c-0.3,2.9-1.4,5.2-4.8,6.6L69,459c2.7-1.5,3.8-3.7,4-6.3c-0.6,0-3.4,0.3-4.1,0.6c-0.3,0.1-0.4,0.2-0.6,0.2
		c-0.6,0-1.3-0.7-1.3-1.1c0-0.2,0.1-0.5,0.2-0.6l0.1,0c0.1,0.3,0.2,0.5,0.4,0.6c0.2,0.1,0.6,0.1,1.1,0.1c0.5,0,2.4-0.1,4.2-0.3
		c0.1-0.6,0.1-1.3,0.1-1.9c0-0.5,0-0.8-0.2-1c-1.5,0.3-3.4,0.6-5.1,0.7l-0.1-0.3c2.7-0.4,5.4-1.1,6.8-1.6c0.5-0.2,0.6-0.3,0.6-0.5
		C75.2,447.4,74.9,447.3,74.6,447.2L74.6,447.2z"/>
	<path class="st0" d="M92.4,458.1c0,0.2-0.1,0.3-0.4,0.3c-0.3,0-0.6-0.1-1-0.1c-1.1-0.1-1.5-0.1-1.8-0.1c-1.2,0-3.1,0.1-4.7,0.4
		c-0.5,0.1-0.6,0.2-0.8,0.2c-0.4,0-1.1-0.7-1.1-1.2c0-0.5,0.2-0.5,0.3-0.6c0.1,0.8,1,0.9,1.2,0.9c0.4,0,2.4-0.1,2.9-0.1
		c0-0.8,0.1-2,0.1-2.9c0-1.6-0.1-1.8-0.3-2c-0.3,0-0.5,0.1-0.8,0.1c-0.6,0.1-0.6,0.2-0.9,0.2c-0.6,0-1.2-0.6-1.2-1
		c0-0.3,0.1-0.5,0.2-0.5c0,0.1,0.3,0.6,1.4,0.6c1.1,0,2.1-0.1,3.2-0.3c0.8-0.1,0.7-0.3,1-0.3c0.4,0,1.3,0.2,1.3,0.6
		c0,0.3-0.3,0.4-0.6,0.4c-0.1,0-0.9,0-1,0c-0.5,0-1.2,0.1-1.7,0.1c0.3,0.2,0.5,0.4,0.5,0.6c0,0.3-0.2,0.1-0.2,0.7
		c0,0.9-0.1,2.7-0.2,3.6c0.7,0,1.9-0.1,2.5-0.1c0.3,0,0.5-0.1,0.7-0.3C91.6,457.5,92.4,457.6,92.4,458.1z"/>
	<path class="st0" d="M104.6,452.5c0.9,0,1.5-0.1,1.7-0.1c0.7,0,1.6,0.2,1.6,0.6c0,0.2-0.3,0.4-0.8,0.4c-0.3,0-0.6,0-0.8,0
		c-0.6,0-1.7,0-2.6,0c-1.7,0-5.5,0-6.2,0.3c-0.2,0.1-0.4,0.2-0.6,0.2c-0.5,0-1.5-0.9-1.5-1.5c0-0.3,0.1-0.5,0.3-0.7l0.1,0
		c0.2,0.8,0.7,0.9,2.2,0.9H104.6z"/>
	<path class="st0" d="M111.1,448.3c1.6,0.2,4.1,1.1,4.1,2.4c0,0.3-0.2,0.6-0.6,0.6c-0.3,0-0.6-0.4-0.8-0.6c-0.5-0.6-1.5-1.6-2.8-2
		L111.1,448.3z M122.3,449.4c-1.8,4-5,6.8-8.6,8.5c-0.7,0.3-0.7,0.7-1,0.7c-0.5,0-1.6-0.8-1.6-1.6c0-0.2,0.2-0.5,0.4-0.6
		c0.1,0.4,0.4,0.8,0.9,0.8c1,0,6.8-2.9,9.5-8L122.3,449.4z"/>
	<path class="st0" d="M127.3,447.5c0.1-0.2,0.4-0.5,0.7-0.5c0.7,0,1.8,0.5,1.8,1c0,0.1-0.1,0.2-0.2,0.4c0,0.1-0.1,0.2-0.1,0.4
		c0,0.6-0.1,1.8-0.1,2.9c1.7,0.2,3.2,0.6,4.1,1.1c0.8,0.5,1.2,0.8,1.2,1.3c0,0.3-0.2,0.5-0.5,0.5c-0.4,0-0.8-0.3-1.1-0.7
		c-0.6-0.6-2-1.4-3.7-1.8c0,1,0,2.1,0,3c0,0.5,0.1,2.8,0.1,3.3c0,0.6-0.3,0.9-0.6,0.9c-0.5,0-0.7-1.3-0.8-1.8
		c0.1-0.1,0.2-0.4,0.3-0.6c0.1-0.7,0.2-1.6,0.2-4.7c0-1.3,0-2.6-0.1-3.2C128.5,448.2,128.4,447.5,127.3,447.5L127.3,447.5z"/>
	<path class="st0" d="M140.2,448c0.1-0.3,0.4-0.6,0.8-0.6c0.6,0,1.7,0.5,1.7,0.9c0,0.2-0.1,0.3-0.2,0.5c-0.1,0.2-0.1,0.4-0.1,0.6
		c-0.1,1.4-0.2,6.1-0.2,7.5c0,0.2,0,0.2,0.1,0.2c0.2,0,5.4-1.1,8.6-5.7l0.3,0.2c-1.6,3.1-4.7,5.2-8.1,6.4c-0.3,0.1-0.5,0.3-0.7,0.5
		c-0.1,0.2-0.3,0.3-0.4,0.3c-0.2,0-1-0.8-1-1.1c0-0.2,0.1-0.3,0.2-0.5c0.1-0.2,0.1-0.4,0.2-1c0-1.4,0.1-4.1,0.1-5.9
		c0-1.5,0-2-0.4-2.2C140.7,448,140.4,448,140.2,448L140.2,448z"/>
	<path class="st0" d="M161.8,452.5c0.9,0,1.5-0.1,1.7-0.1c0.7,0,1.6,0.2,1.6,0.6c0,0.2-0.3,0.4-0.8,0.4c-0.3,0-0.6,0-0.8,0
		c-0.6,0-1.7,0-2.6,0c-1.7,0-5.5,0-6.2,0.3c-0.2,0.1-0.4,0.2-0.6,0.2c-0.5,0-1.5-0.9-1.5-1.5c0-0.3,0.1-0.5,0.3-0.7l0.1,0
		c0.2,0.8,0.7,0.9,2.2,0.9H161.8z"/>
	<path class="st0" d="M167.6,451.1c0.2,0.6,0.9,0.8,1.5,0.8c0.5,0,6.3-0.6,7.4-0.6c0.4,0,0.7-0.1,1-0.4c0.9,0.3,1.7,0.5,1.7,1
		c0,0.2-0.3,0.3-0.6,0.3c-0.3,0-1-0.1-2-0.2c-0.1,0-0.3,0-0.4,0c-0.7,0-1.5,0.1-2.3,0.1c0.2,0.1,0.4,0.4,0.4,0.5
		c0,0.3-0.2,0.3-0.3,0.7c-0.5,2.5-1.7,4.6-4.3,6.1l-0.3-0.3c2.2-1.5,3.2-3.7,3.5-5.7c0-0.2,0.1-0.4,0.1-0.6c0-0.3,0-0.4-0.1-0.6
		c-0.8,0.1-2.5,0.3-3.4,0.4c-0.5,0.1-0.7,0.3-1,0.3c-0.5,0-1.3-0.8-1.3-1.2C167.3,451.4,167.4,451.2,167.6,451.1L167.6,451.1z
		 M169.4,447.9c0.5,0.4,0.9,0.4,1.8,0.4c0.8,0,2-0.2,3-0.4c0.3-0.1,0.7-0.1,1-0.4c0.7,0.1,1.5,0.3,1.5,0.7c0,0.3-0.8,0.4-1.4,0.4
		c-1.3,0-3.2,0.4-4.2,0.4C170.4,449,169.5,448.9,169.4,447.9L169.4,447.9z M176.9,446.8c1,0.5,1.8,1.3,1.8,1.9
		c0,0.4-0.2,0.5-0.3,0.5c-0.2,0-0.4-0.1-0.5-0.4c-0.2-0.6-0.6-1.4-1.2-1.9L176.9,446.8z M178.6,446c1,0.5,1.9,1.3,1.9,2
		c0,0.4-0.1,0.5-0.3,0.5c-0.2,0-0.4-0.1-0.5-0.4c-0.2-0.5-0.7-1.5-1.3-1.9L178.6,446z"/>
	<path class="st0" d="M182.5,456.1c4.9-2.2,7.6-5.2,7.6-5.7c0-0.2-0.3-0.4-0.7-0.4c0-0.2,0.3-0.3,0.6-0.3c0.7,0,1.5,0.7,1.5,1.1
		c0,0.2-0.1,0.1-0.3,0.2c-0.1,0-0.3,0.1-0.4,0.2c-0.8,0.8-1.6,1.6-2.6,2.3c0.2,0.1,0.4,0.4,0.4,0.5c0,0.1-0.1,0.3-0.1,0.5
		c0,0.2-0.1,0.7-0.1,0.9c0,0.6,0,1.7,0,2.3c0,0.2,0,0.8,0,1c0,0.6-0.1,0.8-0.5,0.8c-0.4,0-0.5-0.5-0.6-1.1c0.2-0.2,0.2-0.7,0.2-1.2
		c0-0.4,0.1-1.4,0.1-2.1c0-0.3,0-0.5,0-0.6l0-0.5c-1.4,0.9-3,1.7-4.9,2.4L182.5,456.1z"/>
	<path class="st0" d="M197,448.3c1.6,0.2,4.1,1.1,4.1,2.4c0,0.3-0.2,0.6-0.6,0.6c-0.3,0-0.6-0.4-0.8-0.6c-0.5-0.6-1.5-1.6-2.8-2
		L197,448.3z M208.2,449.4c-1.8,4-5,6.8-8.6,8.5c-0.7,0.3-0.7,0.7-1,0.7c-0.5,0-1.6-0.8-1.6-1.6c0-0.2,0.2-0.5,0.4-0.6
		c0.1,0.4,0.4,0.8,0.9,0.8c1,0,6.8-2.9,9.5-8L208.2,449.4z"/>
	<path class="st0" d="M211,453.9c2.6-2.1,4-5.2,4-6c0-0.4-0.6-0.5-0.8-0.5c0.1-0.2,0.3-0.4,0.7-0.4c0.6,0,1.6,0.6,1.6,0.9
		c0,0.2-0.2,0.2-0.3,0.3c-0.1,0.1-0.2,0.2-0.3,0.4c-0.2,0.5-0.5,1-0.8,1.5c0.1,0,0.2,0,0.3,0c0.8,0,2.8-0.2,3.5-0.3
		c0.3,0,0.4-0.1,0.5-0.3c0.1-0.1,0.2-0.2,0.3-0.2c0.3,0,1.2,0.7,1.2,1c0,0.2-0.2,0.2-0.4,0.3c-0.1,0.1-0.3,0.3-0.4,0.5
		c-1.3,3.5-3.5,6.6-8,8.3l-0.2-0.3c3.8-1.9,6.1-5,7.2-8.5c0-0.1,0-0.2,0-0.2c0-0.1,0-0.1-0.1-0.1c-0.6,0-3.2,0.5-3.5,0.5
		c-0.4,0-0.7-0.1-0.8-0.2c-0.8,1.2-2,2.6-3.6,3.5L211,453.9z M219.4,446.7c1.1,0.4,2,1.2,2,1.8c0,0.4-0.2,0.5-0.4,0.5
		c-0.2,0-0.3-0.1-0.4-0.4c-0.2-0.5-0.6-1.2-1.3-1.7L219.4,446.7z M221.2,446.2c1.2,0.4,2,1.2,2,1.8c0,0.4-0.2,0.5-0.4,0.5
		c-0.2,0-0.3-0.1-0.4-0.4c-0.2-0.5-0.6-1.2-1.3-1.7L221.2,446.2z"/>
	<path class="st0" d="M229,447.6c0.1-0.2,0.5-0.4,0.9-0.4c0.6,0,1.5,0.5,1.5,0.8c0,0.2-0.1,0.2-0.2,0.4c-0.1,0.1-0.1,0.2-0.2,0.5
		c-0.1,0.5-0.3,1.3-0.4,1.9c1.1-0.1,2.4-0.2,3.2-0.3c0.2,0,0.3-0.1,0.4-0.2c0.1-0.1,0.3-0.3,0.4-0.3c0.2,0,1.1,0.7,1.1,0.9
		c0,0.2-0.2,0.2-0.4,0.4c-0.1,0.1-0.2,0.2-0.2,0.6c-0.1,2.4-0.6,5.2-1.4,6.3c-0.3,0.4-0.7,0.7-1.1,0.7c-0.2,0-0.4-0.2-0.4-0.4
		c-0.2-0.5-0.2-0.5-2.5-1.8l0.2-0.3c0.7,0.3,1.8,0.8,2.3,0.9c0.2,0.1,0.4,0.1,0.5,0.1c1,0,1.6-3.8,1.6-6.2c0-0.3,0-0.3-0.2-0.3
		c-0.1,0-1.7,0.1-3.7,0.3c-0.7,2.8-2.1,5.6-5.4,7.6l-0.2-0.3c3-2.3,4.2-5.1,4.7-7.2c-0.9,0.1-2.2,0.2-2.6,0.5
		c-0.1,0.1-0.2,0.1-0.4,0.1c-0.4,0-1.1-0.6-1.1-1.2c0-0.3,0.1-0.5,0.3-0.6c0.1,0.7,0.5,0.8,1.2,0.8c0.4,0,0.6,0,2.7-0.2
		c0.2-0.7,0.4-2.1,0.4-2.4C230,447.8,229.7,447.6,229,447.6L229,447.6z"/>
	<path class="st0" d="M247.7,452.5c0.9,0,1.5-0.1,1.7-0.1c0.7,0,1.6,0.2,1.6,0.6c0,0.2-0.3,0.4-0.8,0.4c-0.3,0-0.6,0-0.8,0
		c-0.6,0-1.7,0-2.6,0c-1.7,0-5.5,0-6.2,0.3c-0.2,0.1-0.4,0.2-0.6,0.2c-0.5,0-1.5-0.9-1.5-1.5c0-0.3,0.1-0.5,0.3-0.7l0.1,0
		c0.2,0.8,0.7,0.9,2.2,0.9H247.7z"/>
	<path class="st0" d="M256.2,447.5c0.1-0.2,0.4-0.5,0.7-0.5c0.7,0,1.8,0.5,1.8,1c0,0.1-0.1,0.2-0.2,0.4c0,0.1-0.1,0.2-0.1,0.4
		c0,0.6-0.1,1.8-0.1,2.9c3.4,0.4,5.3,1.5,5.3,2.4c0,0.3-0.2,0.5-0.5,0.5c-0.4,0-0.8-0.3-1.1-0.7c-0.6-0.6-2-1.4-3.7-1.8
		c0,1,0,2.1,0,3c0,0.5,0.1,2.8,0.1,3.3c0,0.6-0.3,0.9-0.6,0.9c-0.5,0-0.7-1.3-0.8-1.8c0.1-0.1,0.2-0.4,0.3-0.6
		c0.1-0.7,0.2-1.6,0.2-4.7c0-1.3,0-2.6-0.1-3.2C257.3,448.2,257.2,447.5,256.2,447.5L256.2,447.5z M261.3,448.1
		c1.1,0.4,1.9,1.2,1.9,1.8c0,0.4-0.2,0.5-0.4,0.5c-0.2,0-0.3-0.1-0.4-0.4c-0.2-0.5-0.5-1.1-1.3-1.6L261.3,448.1z M262.8,447.2
		c1.1,0.4,1.9,1.2,1.9,1.8c0,0.4-0.2,0.5-0.4,0.5c-0.2,0-0.3-0.1-0.4-0.4c-0.2-0.5-0.5-1.1-1.3-1.6L262.8,447.2z"/>
	<path class="st0" d="M270.2,447.4c0.1-0.3,0.4-0.4,0.7-0.4c0.8,0,1.7,0.4,1.7,0.8c0,0.1-0.2,0.2-0.3,0.3c-0.1,0.1-0.1,0.2-0.2,0.3
		c-0.3,0.7-0.6,1.5-1,2.2c0.2,0.1,0.4,0.1,0.8,0.1c0.8,0,3.2-0.2,4.5-0.4c0.4-0.1,1.1-0.2,1.4-0.5c0.8,0.1,1.6,0.3,1.6,0.8
		c0,0.2-0.3,0.3-0.7,0.3c-1,0-2.7,0.1-3.4,0.2c0.3,0.2,0.5,0.4,0.5,0.6c0,0.1-0.1,0.2-0.1,0.3c-0.1,0.1-0.2,0.2-0.2,0.5
		c-0.5,2.8-1.8,5.3-5.2,6.9l-0.2-0.3c2.9-1.8,4.1-4.6,4.4-7.1v-0.1c0-0.4-0.1-0.6-0.5-0.7c-0.4,0-2.1,0.2-2.3,0.2
		c-0.3,0-0.6-0.1-0.8-0.3c-0.8,1.1-1.7,2.2-3.1,3.1l-0.2-0.3c3-2.7,3.6-5.7,3.6-6C271.1,447.4,270.4,447.4,270.2,447.4L270.2,447.4z
		 M276.3,446.8c1.2,0.4,2,1.2,2,1.8c0,0.4-0.2,0.5-0.4,0.5c-0.2,0-0.3-0.1-0.4-0.4c-0.2-0.5-0.6-1.2-1.3-1.7L276.3,446.8z
		 M278.2,446.2c1.2,0.4,2,1.2,2,1.8c0,0.4-0.2,0.5-0.4,0.5c-0.2,0-0.3-0.1-0.4-0.4c-0.2-0.5-0.6-1.2-1.3-1.7L278.2,446.2z"/>
	<path class="st0" d="M290.7,452.5c0.9,0,1.5-0.1,1.7-0.1c0.7,0,1.6,0.2,1.6,0.6c0,0.2-0.3,0.4-0.8,0.4c-0.3,0-0.6,0-0.8,0
		c-0.6,0-1.7,0-2.6,0c-1.7,0-5.5,0-6.2,0.3c-0.2,0.1-0.4,0.2-0.6,0.2c-0.5,0-1.5-0.9-1.5-1.5c0-0.3,0.1-0.5,0.3-0.7l0.1,0
		c0.2,0.8,0.7,0.9,2.2,0.9H290.7z"/>
	<path class="st0" d="M303.8,453.2c2.2,1.2,4.2,3.5,4.2,4.7c0,0.5-0.1,0.9-0.6,0.9c-0.4,0-0.6-0.4-0.8-1.1c-0.1-0.2-0.1-0.4-0.2-0.6
		c-2.3,0.4-6,0.8-7.8,1.1c-0.5,0.1-0.6,0.4-1,0.4c-0.5,0-1.3-0.9-1.3-1.4c0-0.2,0.1-0.4,0.2-0.6l0.1,0c0.1,0.3,0.2,0.8,0.9,0.8
		c0.2,0,0.4,0,0.6,0c1.3-3.1,2.7-8.2,2.7-8.8c0-0.7-0.8-0.7-1-0.7l0,0c0.1-0.3,0.5-0.5,0.9-0.5c0.7,0,1.8,0.5,1.8,1
		c0,0.2-0.2,0.3-0.3,0.4c-0.1,0.1-0.2,0.3-0.2,0.5c-0.8,2.5-1.9,5.6-3.2,8.1c1.5-0.1,5.3-0.4,7.5-0.6c-0.6-1.1-1.7-2.5-2.7-3.2
		L303.8,453.2z"/>
</g>
<g>
	<path class="st0" d="M-280.5,382.9c-1.2,3.3-2.4,6.4-3.4,9.6c-1.3,4-2.6,8-3.9,11.9c-0.4,1.3-0.9,2.7-2.5,3.2
		c-0.2,0.1-0.3,0.5-0.4,0.8c-0.5,1.3-0.9,2.6-1.4,3.9c-0.1,0.3-0.5,0.5-0.7,0.7c-0.2-0.2-0.4-0.5-0.5-0.7c-0.5-1.3-1.4-2.6-1.3-3.9
		c0.1-2.6-0.4-5-0.6-7.6c-0.4-7.7,0.2-15.4,1.4-23.1c0.1-0.5,0.1-1.1,0.2-1.9c-2.4-0.3-4.8-0.6-7.1-0.9c-0.9-0.1-1.8,0-2.6-0.3
		c-0.6-0.2-1.4-0.6-1.7-1.1c-0.4-0.8-0.9-1.3-1.6-1.8c-0.9-0.5-1.3-1.5-0.9-2.5c0.4-1.1,1.2-1.6,2.3-1.5c2.8,0.1,5.5,0.2,8.3,0.3
		c0.3,0,0.7,0.1,0.9-0.1c1.9-1.3,4-0.9,5.9-0.3c4.1,1.4,8.2,3,12.2,4.5c0.6,0.2,1.2,0.4,1.8,0.7c1.2,0.6,2.4,1.2,3.4,2.1
		c2,1.8,3.8,3.9,5.8,5.7c6,5.4,9.8,12.1,11.3,20.1c0.2,1,0,1.8-0.8,2.5c-0.3,0.2-0.4,0.7-0.4,1c0.7,13.1-7.5,23.2-19.8,27.6
		c-5.6,2-11.2,1.8-16.9,0.7c-1.8-0.3-3.7,0-5.3-0.5c-3.5-1-6.9-2.3-10.2-3.7c-0.7-0.3-1.1-1.4-1.6-2.2c-0.2-0.3-0.1-0.6-0.3-0.9
		c-1.4-2.2-2.9-4.4-4.3-6.6c-0.7-1.1-0.7-2.1,0.1-2.6c0.4-0.2,1.1-0.3,1.5-0.1c5.7,3,11.2,6.1,16.9,9.1c1.3,0.7,2.8,1,4.1,1.4
		c0.2,0.1,0.5,0,0.7,0c2.9-0.7,5.7-1.5,8.5-2.3c0.5-0.1,1-0.4,1.3-0.8c3.9-5,6.8-10.4,7.9-16.7c0.1-0.7,0.2-1.4,0.2-2
		c-0.5-5.7-1.1-11.3-2.6-16.8C-277.3,385.6-277.8,384.9-280.5,382.9z"/>
	<path class="st0" d="M-17.4,387.5c-1.7-2.3-3.4-4.6-5-7c-0.9-1.2-1.9-1.5-3.3-1.1c-3.3,0.9-6,2.7-8.5,5c2.6,3.3,5.2,6.6,7.7,9.9
		c3.5,4.8,7,9.7,10.3,14.6c1.4,2.1,2.3,4.4,1.3,7c-0.1,0.4-0.1,0.9,0,1.3c0.8,3.5-0.4,6.6-1.6,9.8c-0.3,0.9-1.1,1.7-1.9,2.3
		c-2.9,1.9-6,3.5-8.9,5.3c-2.6,1.6-5.2,0.8-7.7-0.1c-1.5-0.6-3-1.3-4.6-1.8c-0.8-0.3-1.7-0.3-2.5-0.6c-0.9-0.3-1.7-0.8-2.5-1.3
		c-0.8-0.6-1.6-1.2-2.7-1.1c-0.4,0-0.9-0.5-1.1-0.9c-0.4-0.7-0.6-1.6-1.1-2.3c-0.2-0.4-0.8-0.7-1.1-1c-0.2-0.3-0.6-0.6-0.6-0.9
		c-0.3-3,0.5-5.8,2.5-8.1c1.2-1.3,2.9-1.6,4.2-0.9c1.3,0.7,2,2.1,1.6,3.9c-0.2,1.1-0.6,2.1-0.8,3.2c-0.1,0.4,0.2,0.9,0.4,1.2
		c1.2,1,2.5,1.9,3.9,2.8c0.3,0.2,0.7,0.3,1,0.3c2,0,4,0,6,0c0.7,0,1-0.2,1.3-0.8c0.1-0.4,0.3-0.8,0.6-1.1c2.4-2.7,1.9-5.9,1.6-9
		c0-0.3-0.3-0.5-0.6-0.7c-3.8-2.4-6.5-5.7-9-9.4c-1.1-1.6-2.8-2.6-4.3-3.8c-1.7-1.5-3.2-3.4-4.3-5.3c-0.8-1.5-1-3.5-1.4-5.3
		c-0.2-1-0.3-2-0.2-3c0.5-3.8,1.4-7.4,3.5-10.6c0.4-0.6,0.7-1.4,1.1-2c0.2-0.4,0.5-0.9,0.9-1.1c2.7-1.3,4.3-3.8,6.1-6
		c1.5-2,3.3-3.7,5.4-5c3.1-1.8,6.9-1.7,9.8,0.4c3.3,2.5,5.7,5.8,7.5,9.5c1,2.1,1.6,4.4,2.4,6.6c0.5,1.3,1.1,2.6,1.6,3.9
		c0.7,2-1,5.5-2.9,6.3c-0.3,0.1-0.6,0.4-0.8,0.6c-0.6,0.7-1.2,1.4-1.9,2c-1.2,1.1-2.6,1.1-3.6,0.2c-1-0.9-1.1-2.3-0.1-3.6
		C-18.9,389-18.1,388.3-17.4,387.5z"/>
	<path class="st0" d="M-146.2,413.9c1.2-2.7,2.4-5.2,3.5-7.8c0.5-1.1,1.4-1.8,2.5-1.7c1.1,0.1,1.8,1,1.9,2.3c0,0.2,0,0.5,0.1,0.7
		c1.5,2.5,3.1,4.9,4.6,7.4c0-1.3,0-2.6,0-3.9c0.2-5.1,0.5-10.1,0.7-15.2c0-0.7-0.3-1.5-0.5-2.2c-0.1-0.4-0.4-0.7-0.4-1.1
		c-0.3-2.4-0.8-4.9-0.6-7.3c0.2-1.9,0.3-3.9,0.4-5.8c0.1-3,2.4-4.9,4.9-4.1c0.8,0.2,1.4,0.9,2.1,1.5c0.6,0.5,1.2,1,1.9,1.4
		c1,0.5,1.5,1.1,1.5,2.2c0,1.7-0.2,3.5,0,5.2c0.1,1.7,0.6,3.5,0.8,5.2c1.5,10.3,1.5,20.4-1.8,30.4c-0.8,2.4-1.9,4.6-3.6,6.6
		c-0.8,1-1.7,1.9-3.2,1.2c0,0-0.1,0-0.1,0c-2.2,0.7-3.4-0.4-4.5-2.2c-1.7-2.7-3.7-5.1-5.6-7.7c-0.5,1.5-1.1,3.2-1.8,4.8
		c-0.7,1.6-1.6,3.1-2.5,4.6c-0.7,1.2-1.4,2.4-2.2,3.5c-1.4,2.1-2.4,2.2-4.4,0.7c-0.3-0.3-0.8-0.5-1.2-0.6c-2-0.4-3.3-1.8-4.7-3.1
		c-2.6-2.6-2.3-6-2.7-9.1c-1.2-8.4-1.8-16.8-1-25.2c0.3-2.8,0-5.7,0.1-8.6c0.1-2.1,0.3-4.2,0.6-6.2c0.3-1.8,1.3-2.5,3.1-2.3
		c1.8,0.2,3.6,0.7,5.4,1.1c0.5,0.1,0.9,0.1,1.4,0.2c1.5,0.2,1.7,0.6,1.4,2.1c0,0.2,0,0.6,0.2,0.7c0.7,0.8,0.6,1.7,0.6,2.7
		c0,2.5,0.3,5.1,0.5,7.6c0.2,2.4,0.4,4.8,0.7,7.1c0.2,1.8,0.7,3.5,0.9,5.3C-146.8,407.4-146.5,410.5-146.2,413.9z"/>
	<path class="st0" d="M-93.7,410.8c-0.4,1.8-0.6,3.6-1.1,5.3c-1,3.6-2,7.1-3.1,10.7c-0.2,0.5-0.4,1-0.7,1.5
		c-1.3,1.9-3.7,2.2-5.2,0.5c-0.7-0.7-1.1-1.7-1.5-2.6c-2.1-5.2-2.6-10.6-2.5-16.1c0.1-7.1,0.3-14.2,0.5-21.3c0-1.4,0.3-2.9,0.6-4.3
		c0.2-1,0.6-1.8,1.6-2.2c0.3-0.1,0.4-0.5,0.5-0.8c0.3-0.8,0.4-1.6,0.7-2.3c1.1-2.5,4-2.9,5.8-0.8c0.6,0.7,1.2,1.7,1.4,2.6
		c1,3.3,1.8,6.7,2.7,10c0.3,1,0.4,2,0.9,3c1.6,3.2,3.3,6.4,5.2,9.6c0-2.6-0.2-5.2,0-7.7c0.3-4.3,0.7-8.6,1.4-12.8
		c0.3-2,1.4-4,2.2-5.9c0.5-1.2,2-1.8,3.5-1.5c0.7,0.2,1.4,0.4,2.1,0.7c0.3,0.1,0.5,0.5,0.5,0.8c0.2,4.2,1.8,8.1,2.1,12.2
		c0.6,8.3,1.4,16.6,1.8,25c0.1,2.3-0.6,4.6-0.9,6.9c-0.1,0.5-0.2,1-0.2,1.5c0.1,2.4-0.7,4.6-1.6,6.7c-0.4,0.9-1.1,1.3-2.1,1.3
		c-0.6,0-1.1,0-1.7,0c-1.9,0-2.7-0.7-3.4-2.5c-0.6-1.5-1.4-2.9-2.3-4.3c-0.6-1-1.5-1.9-1-3.3c0.1-0.2-0.1-0.5-0.2-0.6
		c-1.9-3-3.8-6-5.7-9c-0.1-0.1-0.1-0.3-0.2-0.5C-93.6,410.7-93.7,410.8-93.7,410.8z"/>
	<path class="st0" d="M-214.8,428.6c-0.9,0.1-1.7,0.3-2.5,0.2c-1.9-0.1-3-1.4-2.7-3.3c0.3-2,0-3.8-1.2-5.5c-0.4-0.6-0.6-1.5-0.5-2.1
		c0.5-3.8-0.2-7.6-0.9-11.3c-0.9-4.7-0.5-9.5-0.1-14.2c0.3-2.9,0.7-5.9,1.2-8.8c0.4-2.1,1.5-3.4,3.9-3.7c2-0.2,3.9-1,5.8-1.7
		c2.2-0.8,4.3-1.1,6.6-0.6c0.7,0.1,1.4,0.1,2,0.3c1,0.3,2.1,0.7,3.1,1.2c1,0.5,1.8,1.1,2.7,1.7c4.3,2.7,6.4,7.4,5.6,12.5
		c-0.6,3.9-2,6.9-5.2,11.2c0.2,0.2,0.4,0.5,0.6,0.6c3.5,2.5,5.7,5.9,7.7,9.5c0.2,0.4,0.7,0.8,1.2,1c1.1,0.4,1.5,1.2,1.7,2.3
		c0.3,1.6,0.6,3.3,0.9,4.9c0.5,2.7-1.1,5-3.7,5.7c-1.4,0.3-3.7-0.9-4.7-2.4c-0.2-0.3-0.5-0.7-0.9-0.9c-1.5-0.6-2.6-1.5-3.5-2.9
		c-1.6-2.2-3.6-4-5.4-6.1c-0.9-1.1-1.6-2.4-2.4-3.6c-0.2-0.3-0.4-0.6-0.3-0.9c0.2-1.8-1.2-2.7-2.3-3.7c-0.7-0.6-0.9-1.4-0.4-2.1
		c0.5-0.7,1.1-1.4,1.7-2.1c0.1-0.1,0.2-0.2,0.3-0.3c1-1.6,1.8-3.3,3-4.7c1.6-2,2.2-4.3,2.1-6.8c0-0.2,0-0.4,0-0.6
		c-0.2-3.2-0.7-4-3.9-4.4c-2.1-0.2-4.2,0.1-6.3,0.2c-1.1,0.1-1.3,0.7-1,1.7c0.8,2.9,1.6,5.9,2.1,8.8c1.1,5.9,1,11.9,0.5,17.9
		c0,0.5,0.3,1.1,0.4,1.6c0.3,1.2,0.7,2.5,0.7,3.7c0.1,1.6-0.1,3.2-0.3,4.8c0,0.4-0.3,0.8-0.5,1.2c-0.3,0.7-0.7,1.5-1.1,2.2
		c-0.4,0.9-0.9,1.5-2,1.5c-1,0-1.6-0.5-1.9-1.3C-214.7,429-214.8,428.8-214.8,428.6z"/>
	<path class="st0" d="M-231.5,411.4c-2.2-7-4.4-13.9-6.7-20.9c-0.2,0-0.3,0-0.5,0.1c-0.6,2.1-1.1,4.1-1.7,6.2
		c-1.8,6.3-3.5,12.6-5.3,18.9c-0.6,2-1.6,3.9-2.5,5.8c-1.2,2.7-3.5,4.4-5.5,6.4c-0.8,0.8-1.6,1.6-2.5,2.2c-0.2,0.2-0.9,0-1.2-0.3
		c-0.2-0.1-0.2-0.7-0.2-1c-0.2-2.2-0.4-4.4-0.7-6.6c-0.3-2.7,0.3-5.4,0.8-8c0.8-3.9,2-7.6,3.3-11.4c1.4-4,2.6-8.1,4.2-12
		c1.4-3.6,3.2-7.1,4.9-10.6c0.3-0.6,0.7-1.1,1.2-1.6c2-1.9,5-1.3,6.2,1.2c0.3,0.6,0.7,1.1,1.2,1.6c3.3,3,5.6,6.7,7.5,10.6
		c2.1,4.4,3.4,9,4.3,13.8c0.5,2.4,1.5,4.8,1.6,7.2c0.2,3.4-0.2,6.9-0.6,10.2c-0.3,2.3-3.2,3.7-5.9,2.6c-1.5-0.6-3.1-1.6-4.2-2.8
		c-2.1-2.2-3.6-4.9-4.7-7.7c-0.2-0.4-0.6-0.7-0.9-1c-0.9-0.7-1.3-1.6-0.9-2.7c0.4-1.1,1.4-1.6,2.5-1.4
		C-235.7,410.3-233.7,410.9-231.5,411.4z"/>
	<path class="st0" d="M-46.5,405c-0.1,5.1-1.3,8.4-3.4,11.3c-3.9,5.4-8.3,10.4-13.7,14.3c-0.4,0.3-0.7,0.5-1.1,0.7
		c-1.9,1-3.8,0.8-5.3-0.7c-0.4-0.4-0.8-1.1-0.8-1.7c-0.7-5.8-1.4-11.7-2.1-17.5c-0.6-5.2-1.1-10.3-1.5-15.5
		c-0.5-5.4,0.3-10.7,2.1-15.8c0.2-0.5,0.1-1.2-0.1-1.7c-0.5-1.2,0-2.1,1.2-2.3c0.7-0.1,1.6,0,2.2,0.2c7,2.7,13.3,6.2,17.5,12.7
		C-48.2,394.4-46.9,400.3-46.5,405z M-64.2,385.5c-0.2,2.6-0.5,4.8-0.4,6.9c0.1,3.8,0.6,7.6,0.8,11.3c0.1,3.3,0,6.5-0.2,9.8
		c0,1-0.4,1.9-0.6,3.1c0.3-0.2,0.4-0.3,0.5-0.4c2.8-2.9,5.1-6.2,6.8-9.9c2-4.5,1.9-9-0.8-13.2c-1.5-2.4-3.3-4.6-5.1-6.8
		C-63.3,386.1-63.6,385.9-64.2,385.5z"/>
	<path class="st0" d="M-177.3,402.9c-1.2,0.2-2.1,0.4-3.1,0.7c-0.3,0.1-0.5,0.6-0.6,0.9c-0.8,2.9-1.6,5.8-2.3,8.7
		c-0.1,0.3,0.2,0.6,0.2,0.9c0,0.4,0.1,1.1-0.1,1.3c-0.3,0.3-1.1,0.5-1.4,0.3c-1.5-1-3.2-1.8-4.1-3.5c-0.1-0.2-0.3-0.4-0.6-0.5
		c-1.4-0.7-1.8-1.8-1.6-3.3c0.4-3.4,0.7-6.8,1.1-10.1c0.5-3.9,0.2-7.8-0.1-11.7c-0.2-2.3-0.1-4.7,0.2-7.1c0.3-2,1.3-2.6,3.3-2.5
		c0.4,0,0.7-0.1,1.1-0.1c2.5-0.4,4.3,1.6,3.4,4.1c-0.2,0.5-0.1,1.2,0,1.8c0.5,2,1.3,4,1.7,6.1c0.4,2,0.3,4.1,0.5,6.3
		c1.5-1.4,3.5-2.2,4.5-4.4c1.3-2.8,3-5.4,4.5-8c0.2-0.3,0.2-0.7,0.2-1.1c-0.2-1.9,0.6-3.1,2.5-3.5c0.8-0.2,1.7-0.5,2.4-0.4
		c1.9,0.2,3.1,2.5,2.8,4.5c-0.1,0.5,0.1,1.1,0.2,1.7c0.1,1.1,0.2,2.2,0.2,3.3c0,0.5-0.2,1-0.4,1.4c-2.2,4.1-4.3,8.3-8.3,11.1
		c-0.2,0.1-0.3,0.2-0.5,0.5c0.6,0.6,1.2,1.1,1.8,1.6c1.7,1.4,2.9,3,3.6,5.1c0.7,2,1.8,3.8,2.8,5.7c0.6,1.3,0.7,2.5,0.6,3.9
		c-0.3,2.7-0.2,5.5-0.6,8.2c-0.2,1.8-0.7,3.6-1.3,5.3c-0.7,1.9-3.3,2.2-4.7,0.8c-0.5-0.5-0.9-1.2-1.1-1.8c-1.4-3.6-2.8-7.1-4-10.8
		c-0.4-1.2-0.5-2.6-0.7-3.9c-0.2-0.8-0.4-1.6-0.5-2.5c-0.5-2.3-0.9-4.6-1.3-6.9C-177.2,404.1-177.2,403.6-177.3,402.9z"/>
	<path class="st0" d="M-108.8,409.5c-0.2,2.7-0.6,6.4-0.8,10.2c-0.1,1.6,0.3,3.2,0.5,4.7c0.1,1.4,0.3,2.8,0.3,4.2
		c0,1.4-0.9,2.2-2.4,2c-0.2,0-0.5-0.2-0.6-0.1c-1.2,1.4-2.9,0.6-4.3,1c-1.7,0.4-3.1-0.7-3.6-2.7c-0.2-0.9-0.6-1.7-0.9-2.5
		c-0.6-1.2-0.6-2.4,0.1-3.5c0.7-1.1,0.8-2.2,0.6-3.4c-0.6-3.5-1.5-7.1-1.7-10.6c-0.2-2.8,0.3-5.7,0.9-8.4c0.6-2.4,2.6-3.7,4.6-5
		c0.8-0.5,1.5-1.1,2.2-1.7c0.7-0.6,1.4-0.9,2.3-0.6c0.9,0.3,1.3,0.9,1.4,1.9C-109.6,399.3-109.2,403.8-108.8,409.5z"/>
	<path class="st0" d="M-109.7,382.1c-0.1,0.6-0.1,1.3-0.4,1.9c-0.4,1.1-0.8,2.2-0.3,3.4c0.1,0.2-0.2,0.8-0.5,0.9
		c-2,0.6-3.2,2.2-4.7,3.5c-1.2,1-2.4,1.9-4,1.2c-1.8-0.8-2.5-2.4-2.4-4.2c0.1-2.7,0.4-5.5,0.8-8.2c0.1-1.2,0.9-1.7,2.2-1.6
		c0.3,0,0.6-0.1,0.8-0.2c1-0.8,2.1-0.9,3.3-0.5c0.6,0.2,1.1,0.4,1.5-0.4c0.4-0.8,1.8-0.6,2.4,0.5c0.6,1.2,1,2.5,1.5,3.7
		C-109.6,382-109.6,382-109.7,382.1z"/>
</g>
</text>
</svg>
