<?xml version="1.0" standalone="no"?>
<!DOCTYPE svg PUBLIC "-//W3C//DTD SVG 20010904//EN"
 "http://www.w3.org/TR/2001/REC-SVG-20010904/DTD/svg10.dtd">
<svg version="1.0" xmlns="http://www.w3.org/2000/svg"
 width="700.000000pt" height="700.000000pt" viewBox="0 0 700.000000 700.000000"
 preserveAspectRatio="xMidYMid meet">
<metadata>
Created by potrace 1.11, written by Peter Selinger 2001-2013
</metadata>
<g transform="translate(0.000000,700.000000) scale(0.100000,-0.100000)"
fill="#000000" stroke="none">
<path d="M0 3500 l0 -3500 3500 0 3500 0 0 3500 0 3500 -3500 0 -3500 0 0
-3500z m3389 2890 c28 -33 73 -99 101 -146 28 -48 98 -146 154 -218 116 -148
161 -214 256 -372 36 -59 80 -125 99 -146 29 -33 33 -43 28 -73 -5 -33 -3 -36
33 -55 30 -15 57 -46 110 -126 39 -58 115 -158 169 -222 54 -64 126 -160 160
-212 35 -52 102 -141 150 -199 47 -57 114 -138 147 -179 39 -47 60 -80 57 -92
-3 -11 2 -19 15 -22 11 -3 30 -25 42 -49 12 -24 46 -75 74 -114 84 -112 108
-146 290 -420 96 -143 186 -270 200 -283 15 -13 26 -30 24 -39 -5 -25 -206
-126 -328 -166 -58 -19 -150 -57 -205 -85 -55 -28 -148 -74 -206 -104 -58 -29
-139 -69 -180 -88 -41 -19 -108 -58 -150 -86 -41 -29 -109 -69 -150 -89 -138
-69 -214 -118 -279 -180 -104 -98 -142 -123 -246 -161 -83 -30 -108 -44 -156
-90 -65 -62 -118 -89 -157 -79 -14 3 -53 27 -86 53 -60 46 -153 101 -252 147
-36 17 -53 31 -53 43 0 13 -19 28 -62 50 -154 75 -277 125 -323 132 -59 8
-117 32 -162 66 -17 13 -35 24 -39 24 -4 0 -64 31 -133 69 -69 38 -146 77
-171 87 -25 9 -67 38 -95 63 -67 62 -262 173 -359 205 -43 14 -100 39 -127 57
-48 30 -49 32 -49 81 0 45 4 54 40 89 47 47 63 77 129 240 27 68 107 248 179
399 71 151 191 415 267 585 169 382 201 446 225 452 16 4 17 9 8 29 -8 18 -8
28 3 42 56 77 113 149 174 222 97 114 196 254 268 375 32 55 85 129 116 165
32 36 86 106 121 155 34 50 88 117 119 150 32 33 70 86 85 118 38 77 59 77
125 -3z m2002 -3290 c27 -15 24 -38 -14 -101 -59 -99 -116 -207 -138 -261 -11
-29 -31 -64 -44 -78 -12 -14 -30 -38 -38 -55 -8 -16 -38 -56 -67 -89 -28 -32
-73 -103 -101 -157 -54 -109 -101 -168 -161 -201 -41 -23 -167 -193 -236 -319
-22 -40 -76 -106 -146 -179 -111 -115 -111 -115 -154 -227 -44 -114 -77 -167
-112 -178 -10 -3 -41 -36 -69 -73 -27 -37 -61 -78 -76 -92 -39 -36 -79 -98
-100 -154 -14 -35 -42 -72 -99 -130 -45 -45 -92 -86 -105 -91 -13 -6 -40 -39
-60 -75 -39 -69 -68 -88 -113 -77 -25 7 -43 24 -160 151 -35 37 -81 77 -103
88 -22 12 -71 53 -110 93 -38 39 -90 87 -115 105 -127 95 -180 146 -276 262
-57 69 -140 156 -183 192 -72 59 -171 184 -171 214 0 32 -160 219 -281 328
-135 122 -183 182 -250 316 -17 35 -48 86 -69 113 -34 45 -98 155 -158 270
-68 132 -75 151 -80 226 -4 73 -3 78 20 93 32 21 46 15 81 -34 36 -51 76 -80
155 -113 34 -15 90 -45 123 -68 55 -37 69 -42 144 -48 69 -7 92 -14 141 -43
33 -19 73 -40 90 -47 18 -7 57 -42 89 -77 31 -35 74 -73 96 -84 75 -39 219
-141 274 -194 35 -35 72 -60 103 -71 26 -9 124 -54 217 -101 98 -48 183 -84
200 -84 17 0 54 -14 84 -30 30 -17 58 -30 64 -30 5 0 22 11 38 24 16 13 36 22
46 20 12 -3 53 21 113 65 52 38 115 84 140 102 25 18 63 40 86 48 22 9 65 32
95 52 30 20 80 52 111 72 32 21 74 60 97 90 39 54 66 70 131 82 24 4 88 46
200 130 172 130 220 155 301 155 40 0 58 7 111 43 156 107 187 127 245 156 34
17 69 31 77 31 8 0 28 11 43 25 31 27 45 30 74 15z"/>
<path d="M3125 5945 c-55 -83 -121 -191 -148 -240 -26 -50 -74 -123 -108 -164
-33 -41 -65 -83 -71 -95 -6 -11 -30 -43 -53 -71 -43 -51 -110 -160 -153 -250
-14 -27 -49 -76 -78 -108 -36 -39 -70 -91 -100 -155 -26 -53 -102 -209 -169
-347 -67 -137 -128 -268 -135 -290 -19 -59 -104 -246 -132 -291 -14 -21 -37
-77 -51 -124 -14 -47 -39 -122 -55 -167 -17 -46 -28 -83 -26 -83 9 0 145 71
190 99 25 17 67 33 93 37 35 5 58 17 97 53 36 33 77 56 140 80 49 19 103 42
119 52 17 9 62 22 100 29 95 17 134 35 167 75 34 40 120 85 165 85 36 0 33 -1
148 57 44 22 92 43 106 47 35 8 189 95 189 106 0 5 -4 11 -9 14 -23 15 -41
126 -39 242 3 142 -15 358 -38 451 -13 51 -18 123 -20 283 -7 522 -13 748 -21
785 l-9 40 -99 -150z"/>
<path d="M3404 6010 c4 -30 10 -188 16 -350 5 -162 12 -311 15 -330 4 -19 1
-55 -5 -80 -22 -83 -22 -124 -1 -196 30 -101 55 -360 42 -440 -9 -57 -7 -74
19 -166 15 -57 31 -114 34 -128 10 -45 108 -144 178 -177 35 -17 74 -34 88
-38 13 -4 55 -27 93 -50 50 -32 83 -45 125 -50 43 -5 85 -22 172 -70 63 -34
142 -76 175 -93 80 -40 358 -137 417 -146 34 -5 63 -19 99 -48 28 -22 68 -45
88 -50 20 -5 85 -30 144 -55 60 -24 111 -43 113 -40 8 7 -41 99 -69 133 -14
16 -71 105 -127 198 -133 222 -181 287 -240 330 -61 44 -108 106 -162 216 -52
105 -103 182 -178 269 -88 103 -215 274 -230 312 -18 43 -89 124 -163 184 -31
25 -64 59 -72 75 -8 16 -34 42 -58 59 -73 50 -101 95 -105 171 -3 43 -10 72
-22 85 -9 11 -39 62 -65 112 -26 51 -59 103 -74 115 -14 13 -39 40 -55 61 -16
21 -43 53 -60 72 -27 28 -47 54 -122 150 -14 19 -15 16 -10 -35z"/>
<path d="M3330 4066 c-6 -8 -47 -27 -91 -41 -54 -18 -95 -40 -125 -66 -25 -21
-57 -41 -72 -44 -136 -28 -247 -74 -372 -155 -61 -40 -91 -52 -160 -65 -60
-12 -104 -28 -150 -55 -36 -21 -84 -43 -107 -50 -25 -6 -76 -37 -123 -73 -44
-34 -98 -71 -118 -82 -21 -11 -49 -28 -62 -37 -16 -12 -43 -18 -78 -18 -74 0
-64 -18 24 -45 87 -27 127 -50 148 -86 10 -16 22 -29 28 -29 7 0 43 -22 82
-49 87 -59 151 -92 257 -131 53 -19 99 -45 133 -73 28 -24 78 -62 111 -85 56
-39 68 -43 173 -57 62 -9 124 -20 137 -25 32 -12 186 -112 257 -166 31 -24 66
-44 78 -44 12 0 30 -4 40 -10 17 -9 18 -1 25 143 5 119 3 171 -9 242 -19 105
-20 198 -5 279 11 61 -1 226 -23 313 -9 36 -6 57 22 154 30 104 32 121 28 240
-3 111 -5 129 -19 129 -9 0 -22 -6 -29 -14z"/>
<path d="M3525 3980 c-3 -15 -6 -95 -7 -176 0 -82 -1 -216 -1 -299 -1 -82 4
-321 12 -530 7 -209 10 -392 7 -407 -3 -16 -4 -28 -1 -28 13 0 149 80 205 121
36 26 108 74 160 107 53 33 101 70 107 84 16 32 28 41 83 62 25 9 87 42 139
73 52 31 135 73 185 95 49 21 117 56 151 78 34 22 68 40 75 40 7 0 37 16 65
35 28 19 84 45 125 56 41 12 99 34 128 50 l52 28 -57 26 c-31 14 -71 36 -88
49 -45 34 -98 55 -184 71 -75 13 -268 88 -319 123 -41 28 -178 82 -209 82 -41
1 -101 31 -165 83 -62 51 -124 79 -213 97 -33 7 -101 34 -152 60 l-92 48 -6
-28z"/>
<path d="M5049 2776 c-31 -13 -96 -52 -145 -88 -101 -74 -144 -98 -174 -98
-23 0 -73 -23 -109 -51 -13 -11 -32 -19 -41 -19 -22 0 -103 -55 -188 -127 -74
-62 -96 -75 -174 -97 -35 -10 -81 -35 -120 -65 -35 -26 -74 -53 -87 -60 -13
-7 -56 -43 -95 -79 -66 -61 -207 -154 -297 -194 -34 -16 -37 -21 -48 -81 -15
-85 -14 -134 4 -273 9 -65 17 -167 19 -228 1 -68 8 -121 16 -136 15 -29 19
-200 6 -312 -9 -77 -3 -128 13 -128 5 0 19 26 31 58 33 91 40 102 131 197 115
120 209 245 260 346 62 124 114 202 148 222 40 23 79 81 141 207 61 126 63
128 127 156 79 35 160 139 209 268 25 67 50 114 75 141 20 22 55 61 78 87 24
26 58 52 77 58 26 9 46 29 82 83 27 40 56 95 66 122 10 28 27 65 37 83 10 17
17 32 16 31 -1 0 -27 -11 -58 -23z"/>
<path d="M1820 2689 c0 -27 79 -161 133 -223 33 -39 63 -73 67 -76 14 -10 76
-96 104 -145 16 -27 66 -88 111 -135 45 -47 121 -130 170 -185 49 -55 114
-125 144 -155 193 -191 312 -323 349 -386 53 -91 175 -224 251 -275 33 -22
119 -103 191 -180 97 -103 132 -135 137 -123 16 42 -15 575 -43 731 -7 45 -14
131 -14 192 l0 111 -32 0 c-22 0 -45 10 -68 30 -19 16 -51 33 -70 36 -38 7
-94 41 -131 80 -13 13 -48 32 -78 41 -31 9 -97 44 -151 79 -79 53 -102 64
-137 64 -37 0 -45 4 -66 35 -13 20 -52 61 -86 92 -35 31 -67 67 -71 79 -6 16
-20 25 -45 30 -21 4 -56 23 -82 46 -25 21 -64 48 -86 60 -23 11 -53 28 -67 38
-14 10 -48 19 -77 22 -34 3 -67 15 -100 36 -84 54 -253 108 -253 81z"/>
</g>
</svg>
